<svg width="960" height="142" viewBox="0 0 960 142" fill="none" xmlns="http://www.w3.org/2000/svg">
<path d="M679.26 86.6499V107.63H700.23V65.6799H658.29V86.6499H679.26Z" fill="#009792"/>
<path d="M364.72 127.75C364.72 128.871 364.499 129.981 364.07 131.017C363.64 132.052 363.011 132.993 362.218 133.785C361.425 134.577 360.483 135.205 359.447 135.634C358.411 136.062 357.301 136.281 356.18 136.28C353.917 136.28 351.746 135.382 350.145 133.782C348.544 132.183 347.643 130.013 347.64 127.75C347.64 125.485 348.54 123.313 350.141 121.711C351.743 120.11 353.915 119.21 356.18 119.21C357.302 119.209 358.413 119.429 359.45 119.857C360.486 120.286 361.428 120.915 362.222 121.708C363.015 122.502 363.644 123.444 364.073 124.48C364.501 125.517 364.721 126.628 364.72 127.75" fill="#67B14F"/>
<path d="M360.3 98.4199C360.305 99.5456 360.088 100.661 359.66 101.703C359.233 102.744 358.604 103.691 357.809 104.488C357.015 105.285 356.07 105.918 355.03 106.349C353.991 106.78 352.876 107.001 351.75 107C349.488 107 347.318 106.101 345.718 104.502C344.119 102.902 343.22 100.732 343.22 98.4699C343.219 97.3489 343.438 96.2386 343.866 95.2026C344.295 94.1665 344.923 93.225 345.715 92.4319C346.507 91.6387 347.448 91.0095 348.483 90.5802C349.519 90.1509 350.629 89.9299 351.75 89.9299C352.872 89.9286 353.984 90.1485 355.021 90.5771C356.058 91.0057 357.001 91.6346 357.795 92.4277C358.589 93.2209 359.219 94.1627 359.649 95.1995C360.079 96.2363 360.3 97.3476 360.3 98.4699" fill="#3BA536"/>
<path d="M331.58 131.44C331.58 133.122 330.912 134.734 329.723 135.923C328.534 137.112 326.922 137.78 325.24 137.78C323.559 137.78 321.946 137.112 320.757 135.923C319.568 134.734 318.9 133.122 318.9 131.44C318.9 129.758 319.568 128.144 320.756 126.953C321.945 125.763 323.558 125.093 325.24 125.09C326.922 125.093 328.535 125.763 329.724 126.953C330.912 128.144 331.58 129.758 331.58 131.44" fill="#67B14F"/>
<path d="M313.24 107C313.24 108.682 312.572 110.294 311.383 111.483C310.194 112.672 308.581 113.34 306.9 113.34C306.068 113.34 305.244 113.176 304.475 112.857C303.707 112.539 303.008 112.071 302.42 111.483C301.833 110.894 301.366 110.195 301.049 109.426C300.731 108.656 300.569 107.832 300.57 107C300.57 105.32 301.237 103.709 302.423 102.521C303.61 101.332 305.22 100.663 306.9 100.66C308.581 100.66 310.194 101.328 311.383 102.517C312.572 103.706 313.24 105.319 313.24 107" fill="#67B14F"/>
<path d="M300.88 128.6C300.877 129.894 300.363 131.135 299.448 132.051C298.534 132.967 297.294 133.485 296 133.49C294.704 133.487 293.462 132.971 292.545 132.055C291.629 131.138 291.113 129.896 291.11 128.6C291.11 127.302 291.625 126.057 292.542 125.139C293.458 124.22 294.702 123.703 296 123.7C296.644 123.699 297.283 123.824 297.878 124.07C298.474 124.316 299.015 124.676 299.471 125.132C299.927 125.587 300.289 126.127 300.536 126.722C300.783 127.318 300.91 127.956 300.91 128.6" fill="#67B14F"/>
<path d="M273.24 128.6C273.237 129.562 272.854 130.484 272.174 131.164C271.494 131.844 270.572 132.227 269.61 132.23C268.652 132.222 267.735 131.836 267.059 131.157C266.383 130.477 266.003 129.558 266 128.6C266.01 127.647 266.394 126.736 267.069 126.062C267.744 125.389 268.657 125.008 269.61 125C270.574 125.003 271.497 125.387 272.177 126.07C272.858 126.752 273.24 127.676 273.24 128.64" fill="#67B14F"/>
<path d="M276.16 106.77C276.16 107.542 275.853 108.282 275.308 108.828C274.762 109.373 274.022 109.68 273.25 109.68C272.866 109.681 272.486 109.607 272.132 109.461C271.777 109.316 271.454 109.102 271.182 108.832C270.91 108.561 270.694 108.24 270.546 107.887C270.398 107.533 270.321 107.153 270.32 106.77C270.321 106.386 270.398 106.007 270.546 105.653C270.694 105.299 270.91 104.978 271.182 104.708C271.454 104.438 271.777 104.224 272.132 104.078C272.486 103.933 272.866 103.859 273.25 103.86C274.022 103.86 274.762 104.166 275.308 104.712C275.853 105.258 276.16 105.998 276.16 106.77" fill="#3BA536"/>
<path d="M330.28 95.3299C330.287 95.8594 330.188 96.3849 329.99 96.876C329.792 97.3671 329.498 97.814 329.126 98.1907C328.754 98.5675 328.311 98.8666 327.822 99.0707C327.334 99.2748 326.809 99.3799 326.28 99.3799C325.746 99.3866 325.217 99.2864 324.722 99.0853C324.228 98.8841 323.779 98.5861 323.401 98.2086C323.024 97.8312 322.726 97.3821 322.525 96.8877C322.323 96.3933 322.223 95.8636 322.23 95.3299C322.23 94.8004 322.335 94.2761 322.539 93.7875C322.743 93.2989 323.042 92.8557 323.419 92.4836C323.796 92.1116 324.243 91.818 324.734 91.6199C325.225 91.4219 325.75 91.3233 326.28 91.3299C327.341 91.3299 328.358 91.7513 329.108 92.5015C329.858 93.2516 330.28 94.269 330.28 95.3299Z" fill="#3BA536"/>
<path d="M458.06 86.53H476.99V105.45H458.06V86.53Z" fill="#009792"/>
<path d="M546.7 84.5801H569.52V107.4H546.7V84.5801Z" fill="#009792"/>
<path d="M508.5 104.4H529.39V125.3H508.5V104.4Z" fill="#009792"/>
<path d="M699.9 118.13H722.54V140.25H699.9V118.13Z" fill="#009792"/>
<path d="M574.16 111.02H595.71V132.57H574.16V111.02Z" fill="#009792"/>
<path d="M624.64 119.75H672.7V140.24H624.64V119.75Z" fill="#3874A4"/>
<path d="M825.78 42.6499V75.7399H794.31V107.2H857.25V42.6499H825.78Z" fill="#07689A"/>
<path d="M542.42 124.64H563.31V140.25H542.42V124.64Z" fill="#009792"/>
<path d="M608.57 84.1499H640.71V105.04H608.57V84.1499Z" fill="#009792"/>
<path d="M463.77 120.55H495.91V140.24H463.77V120.55Z" fill="#3BA536"/>
<path d="M379.38 128.09V112.84C379.383 112.523 379.51 112.221 379.735 111.998C379.96 111.775 380.263 111.65 380.58 111.65H395.82C396.134 111.653 396.434 111.779 396.655 112.002C396.876 112.225 397 112.526 397 112.84V128.09C397 128.246 396.969 128.401 396.909 128.545C396.85 128.69 396.762 128.821 396.651 128.931C396.541 129.042 396.41 129.13 396.265 129.189C396.121 129.249 395.966 129.28 395.81 129.28H380.57C380.413 129.281 380.257 129.251 380.112 129.192C379.966 129.133 379.834 129.046 379.722 128.935C379.61 128.824 379.522 128.693 379.462 128.548C379.401 128.403 379.37 128.247 379.37 128.09" fill="#67B14F"/>
<path d="M408.56 107.9V89.5901C408.559 89.4304 408.589 89.272 408.649 89.124C408.71 88.976 408.798 88.8415 408.911 88.728C409.023 88.6146 409.157 88.5246 409.305 88.4632C409.452 88.4017 409.61 88.3701 409.77 88.3701H428.09C428.414 88.3701 428.724 88.4987 428.953 88.7274C429.182 88.9562 429.31 89.2665 429.31 89.5901V107.9C429.31 108.224 429.182 108.534 428.953 108.763C428.724 108.992 428.414 109.12 428.09 109.12H409.77C409.448 109.117 409.14 108.988 408.914 108.759C408.687 108.531 408.56 108.222 408.56 107.9" fill="#3BA536"/>
<path d="M426.33 139.58V121.26C426.33 120.939 426.457 120.631 426.684 120.404C426.911 120.178 427.219 120.05 427.54 120.05H445.86C446.182 120.05 446.491 120.177 446.719 120.404C446.948 120.63 447.077 120.938 447.08 121.26V139.58C447.077 139.902 446.948 140.21 446.719 140.436C446.491 140.663 446.182 140.79 445.86 140.79H427.54C427.219 140.79 426.911 140.663 426.684 140.436C426.457 140.209 426.33 139.901 426.33 139.58" fill="#3BA536"/>
<path d="M757.9 112.85H785.69V140.24H757.9V112.85Z" fill="#3874A4"/>
<path d="M730.11 52.3301H757.9V112.85H730.11V52.3301Z" fill="#3874A4"/>
<path d="M879.75 68.9102H960V140.25H879.75V68.9102Z" fill="#07689A"/>
<path d="M916.83 0.129883H960V91.3099H916.83V0.129883Z" fill="#07689A"/>
</svg>
