<?xml version="1.0" encoding="utf-8"?>
<!-- Generator: Adobe Illustrator 26.5.0, SVG Export Plug-In . SVG Version: 6.00 Build 0)  -->
<svg version="1.1" id="Layer_1" xmlns="http://www.w3.org/2000/svg" xmlns:xlink="http://www.w3.org/1999/xlink" x="0px" y="0px"
	 viewBox="0 0 960 142" style="enable-background:new 0 0 960 142;" xml:space="preserve">
<style type="text/css">
	.st0{fill:#009792;}
	.st1{fill:#67B14F;}
	.st2{fill:#3BA536;}
	.st3{fill:#3874A4;}
	.st4{fill:#07689A;}
</style>
<g>
	<path class="st0" d="M301,86.6v-21H259v42h21v-21H301z"/>
	<path class="st1" d="M594.5,127.8c0-1.1,0.2-2.2,0.6-3.3c0.4-1,1.1-2,1.9-2.8c0.8-0.8,1.7-1.4,2.8-1.9c1-0.4,2.1-0.6,3.3-0.6
		c2.3,0,4.4,0.9,6,2.5c1.6,1.6,2.5,3.8,2.5,6c0,2.3-0.9,4.4-2.5,6c-1.6,1.6-3.8,2.5-6,2.5c-1.1,0-2.2-0.2-3.3-0.6
		c-1-0.4-2-1.1-2.8-1.8c-0.8-0.8-1.4-1.7-1.9-2.8C594.8,130,594.5,128.9,594.5,127.8"/>
	<path class="st2" d="M599,98.5c0-1.1,0.2-2.2,0.7-3.3c0.4-1,1.1-2,1.9-2.8c0.8-0.8,1.7-1.4,2.8-1.9c1-0.4,2.1-0.6,3.3-0.6
		c1.1,0,2.2,0.2,3.3,0.7c1,0.4,2,1.1,2.8,1.9c0.8,0.8,1.4,1.7,1.8,2.8c0.4,1,0.6,2.1,0.6,3.3c0,2.3-0.9,4.4-2.5,6
		c-1.6,1.6-3.8,2.5-6,2.5c-1.1,0-2.2-0.2-3.3-0.7c-1-0.4-2-1.1-2.8-1.9c-0.8-0.8-1.4-1.7-1.9-2.8C599.2,100.7,598.9,99.5,599,98.5"
		/>
	<path class="st1" d="M627.7,131.4c0-1.7,0.7-3.3,1.9-4.5c1.2-1.2,2.8-1.9,4.5-1.9c1.7,0,3.3,0.7,4.5,1.9c1.2,1.2,1.9,2.8,1.9,4.5
		c0,1.7-0.7,3.3-1.9,4.5c-1.2,1.2-2.8,1.9-4.5,1.9c-1.7,0-3.3-0.7-4.5-1.9C628.3,134.7,627.7,133.1,627.7,131.4"/>
	<path class="st1" d="M646,107c0-1.7,0.7-3.3,1.9-4.5c1.2-1.2,2.8-1.9,4.5-1.9c1.7,0,3.3,0.7,4.5,1.9c1.2,1.2,1.9,2.8,1.9,4.5
		c0,0.8-0.2,1.7-0.5,2.4c-0.3,0.8-0.8,1.5-1.4,2.1c-0.6,0.6-1.3,1.1-2.1,1.4c-0.8,0.3-1.6,0.5-2.4,0.5c-1.7,0-3.3-0.7-4.5-1.9
		C646.7,110.3,646,108.7,646,107"/>
	<path class="st1" d="M658.3,128.6c0-0.6,0.1-1.3,0.4-1.9c0.2-0.6,0.6-1.1,1.1-1.6c0.5-0.5,1-0.8,1.6-1.1c0.6-0.2,1.2-0.4,1.9-0.4
		c1.3,0,2.5,0.5,3.5,1.4c0.9,0.9,1.4,2.2,1.4,3.5c0,1.3-0.5,2.5-1.4,3.5c-0.9,0.9-2.2,1.4-3.5,1.4c-1.3,0-2.5-0.5-3.4-1.4
		C658.9,131.1,658.4,129.9,658.3,128.6"/>
	<path class="st1" d="M686,128.6c0-1,0.4-1.9,1.1-2.6c0.7-0.7,1.6-1.1,2.6-1.1c1,0,1.9,0.4,2.5,1.1c0.7,0.7,1.1,1.6,1.1,2.5
		c0,1-0.4,1.9-1.1,2.6c-0.7,0.7-1.6,1.1-2.6,1.1c-1,0-1.9-0.4-2.6-1.1C686.4,130.5,686,129.6,686,128.6"/>
	<path class="st2" d="M683.1,106.8c0-0.8,0.3-1.5,0.9-2.1c0.5-0.5,1.3-0.9,2.1-0.9c0.4,0,0.8,0.1,1.1,0.2c0.4,0.1,0.7,0.4,0.9,0.6
		c0.3,0.3,0.5,0.6,0.6,0.9c0.1,0.4,0.2,0.7,0.2,1.1c0,0.4-0.1,0.8-0.2,1.1c-0.1,0.4-0.4,0.7-0.6,0.9c-0.3,0.3-0.6,0.5-0.9,0.6
		c-0.4,0.1-0.7,0.2-1.1,0.2c-0.8,0-1.5-0.3-2.1-0.9C683.4,108.3,683.1,107.5,683.1,106.8"/>
	<path class="st2" d="M630.1,92.5c0.8-0.8,1.8-1.2,2.8-1.2c0.5,0,1.1,0.1,1.5,0.3c0.5,0.2,0.9,0.5,1.3,0.9c0.4,0.4,0.7,0.8,0.9,1.3
		c0.2,0.5,0.3,1,0.3,1.5c0,0.5-0.1,1.1-0.3,1.6c-0.2,0.5-0.5,0.9-0.9,1.3c-0.4,0.4-0.8,0.7-1.3,0.9c-0.5,0.2-1,0.3-1.6,0.3
		c-0.5,0-1.1-0.1-1.5-0.3c-0.5-0.2-0.9-0.5-1.3-0.9c-0.4-0.4-0.7-0.8-0.9-1.3c-0.2-0.5-0.3-1-0.3-1.5
		C629,94.3,629.4,93.3,630.1,92.5z"/>
	<path class="st0" d="M501.2,105.4h-18.9V86.5h18.9V105.4z"/>
	<path class="st0" d="M412.5,107.4h-22.8V84.6h22.8V107.4z"/>
	<path class="st0" d="M450.8,125.3h-20.9v-20.9h20.9V125.3z"/>
	<path class="st0" d="M259.3,140.2h-22.6v-22.1h22.6V140.2z"/>
	<path class="st0" d="M385.1,132.6h-21.6V111h21.6V132.6z"/>
	<path class="st3" d="M334.6,140.2h-48.1v-20.5h48.1V140.2z"/>
	<path class="st4" d="M102,42.6v64.6h62.9V75.7h-31.5V42.6H102z"/>
	<path class="st0" d="M416.8,140.2h-20.9v-15.6h20.9V140.2z"/>
	<path class="st0" d="M350.7,105h-32.1V84.1h32.1V105z"/>
	<path class="st2" d="M495.5,140.2h-32.1v-19.7h32.1V140.2z"/>
	<path class="st1" d="M579.9,128.1c0,0.2,0,0.3-0.1,0.5c-0.1,0.1-0.1,0.3-0.3,0.4c-0.1,0.1-0.2,0.2-0.4,0.3
		c-0.1,0.1-0.3,0.1-0.5,0.1h-15.2c-0.2,0-0.3,0-0.5-0.1c-0.1-0.1-0.3-0.1-0.4-0.3c-0.1-0.1-0.2-0.2-0.3-0.4
		c-0.1-0.1-0.1-0.3-0.1-0.5v-15.2c0-0.3,0.1-0.6,0.3-0.8s0.5-0.3,0.8-0.4h15.2c0.3,0,0.6,0.1,0.8,0.3s0.4,0.5,0.4,0.8L579.9,128.1"
		/>
	<path class="st2" d="M550.7,107.9c0,0.3-0.1,0.6-0.4,0.9c-0.2,0.2-0.5,0.4-0.9,0.4h-18.3c-0.3,0-0.6-0.1-0.9-0.4
		c-0.2-0.2-0.4-0.5-0.4-0.9V89.6c0-0.3,0.1-0.6,0.4-0.9c0.2-0.2,0.5-0.4,0.9-0.4h18.3c0.2,0,0.3,0,0.5,0.1c0.1,0.1,0.3,0.2,0.4,0.3
		c0.1,0.1,0.2,0.2,0.3,0.4c0.1,0.1,0.1,0.3,0.1,0.5V107.9"/>
	<path class="st2" d="M532.9,139.6c0,0.3-0.1,0.6-0.4,0.9c-0.2,0.2-0.5,0.4-0.9,0.4h-18.3c-0.3,0-0.6-0.1-0.9-0.4
		c-0.2-0.2-0.4-0.5-0.4-0.9l0-18.3c0-0.3,0.1-0.6,0.4-0.9c0.2-0.2,0.5-0.4,0.9-0.4h18.3c0.3,0,0.6,0.1,0.9,0.4
		c0.2,0.2,0.4,0.5,0.4,0.9L532.9,139.6"/>
	<path class="st3" d="M201.3,140.2h-27.8v-27.4h27.8V140.2z"/>
	<path class="st3" d="M229.1,112.8h-27.8V52.3h27.8V112.8z"/>
	<path class="st4" d="M79.5,140.2H-0.8V68.9h80.2V140.2z"/>
	<path class="st4" d="M42.4,91.3H-0.8V0.1h43.2V91.3z"/>
</g>
</svg>
