<svg width="21" height="28" viewBox="0 0 21 28" fill="none" xmlns="http://www.w3.org/2000/svg">
<path d="M8.49791 26.2647L8.85297 25.3535L8.49791 26.2647ZM1.3073 18.8994L2.19291 18.4262H2.19289L1.3073 18.8994ZM1.95869 15.98L1.32548 15.2204H1.32545L1.95869 15.98ZM5.40521 16.1632L4.68843 16.851L5.40521 16.1632ZM6.47053 17.1855L5.75375 17.8734C6.04366 18.1516 6.47966 18.2348 6.85846 18.0843C7.23729 17.9337 7.48422 17.5789 7.48422 17.1855H6.47053ZM8.8358 13.6187C8.8358 14.156 9.28966 14.5915 9.84949 14.5915C10.4093 14.5915 10.8632 14.156 10.8632 13.6187H8.8358ZM12.2147 14.9158C12.2147 15.453 12.6686 15.8885 13.2284 15.8885C13.7883 15.8885 14.2421 15.453 14.2421 14.9158H12.2147ZM15.5937 16.2128C15.5937 16.75 16.0475 17.1855 16.6074 17.1855C17.1672 17.1855 17.6211 16.75 17.6211 16.2128H15.5937ZM19.3905 23.2626L20.2189 23.8232L19.3905 23.2626ZM15.9316 26.2647L15.5323 25.3705L15.9316 26.2647ZM18.6757 6.84871C19.0716 6.46882 19.0716 5.85289 18.6757 5.47301C18.2798 5.09312 17.6381 5.09312 17.2422 5.47301L18.6757 6.84871ZM15.2558 8.7549L14.5391 9.44275C14.9349 9.82264 15.5767 9.82264 15.9725 9.44275L15.2558 8.7549ZM13.2694 5.47301C12.8735 5.09312 12.2318 5.09312 11.8359 5.47301C11.44 5.85289 11.44 6.46882 11.8359 6.84871L13.2694 5.47301ZM2.0779 6.80937C2.0779 7.34661 2.53175 7.78214 3.09158 7.78214C3.65143 7.78214 4.10527 7.34661 4.10527 6.80937H2.0779ZM14.157 7.7029C14.0548 8.23113 14.4182 8.73878 14.9687 8.83677C15.5192 8.93476 16.0482 8.58598 16.1503 8.05774L14.157 7.7029ZM8.85297 25.3535C7.4995 24.8678 6.17218 23.7522 4.98195 22.3891C3.8066 21.0428 2.84269 19.5457 2.19291 18.4262L0.421705 19.3727C1.10512 20.5503 2.13968 22.1629 3.42792 23.6385C4.70129 25.097 6.30269 26.5154 8.14285 27.1759L8.85297 25.3535ZM2.19289 18.4262C1.87843 17.8843 2.02109 17.1779 2.59195 16.7396L1.32545 15.2204C0.0486964 16.2006 -0.415098 17.9309 0.421718 19.3727L2.19289 18.4262ZM2.59192 16.7396C3.21831 16.2588 4.12123 16.3068 4.68843 16.851L6.122 15.4754C4.82431 14.23 2.75849 14.1203 1.32548 15.2204L2.59192 16.7396ZM4.68843 16.851L5.75375 17.8734L7.18728 16.4977L6.122 15.4754L4.68843 16.851ZM7.48422 17.1855V9.72767H5.45685V17.1855H7.48422ZM7.48422 9.72767C7.48422 9.36951 7.78684 9.07916 8.16001 9.07916V7.13362C6.6671 7.13362 5.45685 8.29503 5.45685 9.72767H7.48422ZM8.16001 9.07916C8.53318 9.07916 8.8358 9.36951 8.8358 9.72767H10.8632C10.8632 8.29503 9.65297 7.13362 8.16001 7.13362V9.07916ZM8.8358 9.72767V13.6187H10.8632V9.72767H8.8358ZM10.8632 13.6187C10.8632 13.2606 11.1658 12.9702 11.539 12.9702V11.0247C10.046 11.0247 8.8358 12.186 8.8358 13.6187H10.8632ZM11.539 12.9702C11.9121 12.9702 12.2147 13.2606 12.2147 13.6187H14.2421C14.2421 12.186 13.0319 11.0247 11.539 11.0247V12.9702ZM12.2147 13.6187V14.9158H14.2421V13.6187H12.2147ZM14.2421 14.9158C14.2421 14.5577 14.5447 14.2672 14.9179 14.2672V12.3217C13.4249 12.3217 12.2147 13.4831 12.2147 14.9158H14.2421ZM14.9179 14.2672C15.2911 14.2672 15.5937 14.5577 15.5937 14.9158H17.6211C17.6211 13.4831 16.4109 12.3217 14.9179 12.3217V14.2672ZM15.5937 14.9158V16.2128H17.6211V14.9158H15.5937ZM17.6211 16.2128C17.6211 15.8547 17.9237 15.5643 18.2968 15.5643V13.6187C16.8039 13.6187 15.5937 14.7801 15.5937 16.2128H17.6211ZM18.2968 15.5643C18.67 15.5643 18.9726 15.8547 18.9726 16.2128H21C21 14.7801 19.7898 13.6187 18.2968 13.6187V15.5643ZM18.9726 16.2128V21.3153H21V16.2128H18.9726ZM18.9726 21.3153C18.9726 21.8544 18.8337 22.3325 18.5622 22.7019L20.2189 23.8232C20.7813 23.0581 21 22.1643 21 21.3153H18.9726ZM18.5623 22.7019C17.8876 23.6197 16.7808 24.857 15.5323 25.3705L16.3308 27.1589C18.1301 26.4189 19.5102 24.7877 20.2189 23.8232L18.5623 22.7019ZM15.5323 25.3705C14.4454 25.8176 13.4582 26.0449 12.4256 26.0542C11.3879 26.0637 10.2466 25.8537 8.85297 25.3535L8.14285 27.1759C9.70243 27.7355 11.0954 28.0119 12.4449 27.9996C13.7995 27.9873 15.0525 27.6846 16.3308 27.1589L15.5323 25.3705ZM17.2422 5.47301L14.5391 8.06705L15.9725 9.44275L18.6757 6.84871L17.2422 5.47301ZM15.9725 8.06705L13.2694 5.47301L11.8359 6.84871L14.5391 9.44275L15.9725 8.06705ZM4.10527 6.80937C4.10527 4.12314 6.37446 1.94553 9.1737 1.94553V0C5.25477 0 2.0779 3.04866 2.0779 6.80937H4.10527ZM9.1737 1.94553C11.9729 1.94553 14.2421 4.12314 14.2421 6.80937H16.2695C16.2695 3.04866 13.0926 0 9.1737 0V1.94553ZM14.2421 6.80937C14.2421 7.11541 14.2128 7.414 14.157 7.7029L16.1503 8.05774C16.2287 7.65234 16.2695 7.23497 16.2695 6.80937H14.2421Z" fill="#EC9D05"/>
</svg>
