<svg width="19" height="29" viewBox="0 0 19 29" fill="none" xmlns="http://www.w3.org/2000/svg">
<path d="M15.8034 15.4241C17.3501 13.7847 18.2998 11.5762 18.2998 9.14988C18.2998 4.10461 14.1951 0 9.14988 0C4.10461 0 0 4.10461 0 9.14988C0 11.5762 0.949654 13.7847 2.49639 15.4241V22.6247H0.832149V24.1281L4.98924 28.2852L9.1464 24.1281V22.6247H7.48215V18.147C8.02311 18.247 8.58042 18.2998 9.14988 18.2998C9.71934 18.2998 10.2766 18.247 10.8176 18.147V19.9733H9.15336V21.4767L13.3105 25.6339L17.4677 21.4767V19.9733H15.8034V15.4241H15.8034ZM6.64863 24.282L4.98924 25.9414L3.32986 24.2821H4.15367V16.8114C4.67634 17.1534 5.23569 17.4436 5.82482 17.6742V24.282H6.64863V24.282ZM1.65734 9.14988C1.65734 5.01847 5.01847 1.65734 9.14988 1.65734C13.2813 1.65734 16.6424 5.01847 16.6424 9.14988C16.6424 13.2813 13.2813 16.6424 9.14988 16.6424C5.01847 16.6424 1.65734 13.2813 1.65734 9.14988V9.14988ZM13.3105 23.29L11.6511 21.6306H12.4749V17.6742C13.064 17.4436 13.6234 17.1534 14.146 16.8114V21.6306H14.9698L13.3105 23.29Z" fill="#EC9D05"/>
<path d="M9.58468 8.32117H8.71419C8.29726 8.32117 7.95806 7.98197 7.95806 7.56504C7.95806 7.14811 8.29726 6.80891 8.71419 6.80891H9.60015C10.0016 6.80891 10.3282 7.13551 10.3282 7.53692H11.9856C11.9856 6.35021 11.1144 5.36349 9.97808 5.18179V4.15689H8.32074V5.18416C7.17652 5.37266 6.30078 6.36827 6.30078 7.56504C6.30078 8.89582 7.38346 9.97851 8.71425 9.97851H9.58474C10.0017 9.97851 10.3409 10.3177 10.3409 10.7346C10.3409 11.1515 10.0017 11.4907 9.58474 11.4907H8.73408C8.3166 11.4907 7.97701 11.1511 7.97701 10.7336H6.31967C6.31967 11.9239 7.18574 12.9151 8.32074 13.1119V14.1427H9.97808V13.1154C11.1223 12.927 11.9981 11.9313 11.9981 10.7345C11.9981 9.4038 10.9155 8.32117 9.58468 8.32117V8.32117Z" fill="#EC9D05"/>
</svg>
