<svg width="25" height="26" viewBox="0 0 25 26" fill="none" xmlns="http://www.w3.org/2000/svg">
<path d="M14.2014 25.0002H11.3515L11.2515 23.5002C11.1015 23.4502 11.0015 23.4002 10.9015 23.3502L9.75152 24.3502L7.75155 22.3502L8.75153 21.2003C8.70153 21.1003 8.65154 20.9503 8.60154 20.8503L7.10156 20.7503V17.9003L8.55154 17.8003C8.60154 17.6503 8.65154 17.5503 8.70153 17.4503L7.70155 16.3003L9.70152 14.3004L10.8015 15.3004C10.9015 15.2504 11.0515 15.2004 11.1515 15.1504L11.2515 13.6504H14.1014L14.2014 15.1004C14.3514 15.1504 14.4514 15.2004 14.5514 15.2504L15.7014 14.2504L17.7514 16.2503L16.7514 17.4003C16.8014 17.5003 16.8514 17.6503 16.9014 17.7503L18.4014 17.8503V20.7003L16.9514 20.8003C16.9014 20.9503 16.8514 21.0503 16.8014 21.2003L17.8014 22.4002L15.8014 24.4002L14.6514 23.4002C14.5514 23.4502 14.4014 23.5002 14.3014 23.5502L14.2014 25.0002ZM12.2515 24.0002H13.3015L13.4015 22.8002L13.7014 22.7002C14.0014 22.6002 14.2514 22.5002 14.5514 22.4002L14.8514 22.2502L15.8014 23.0502L16.5014 22.3502L15.7014 21.3503L15.9014 20.9503C16.0014 20.7503 16.1014 20.5503 16.1514 20.3503L16.2014 19.9503L17.5014 19.8503V18.8003L16.2514 18.6503L16.1514 18.3503C16.0514 18.0503 15.9514 17.8003 15.8514 17.5003L15.7014 17.2003L16.5014 16.2503L15.7514 15.5504L14.7514 16.4003L14.3514 16.2003C14.1514 16.1003 13.9514 16.0003 13.7514 15.9504L13.3515 15.9004L13.2515 14.6004H12.2015L12.1015 15.8004L11.8015 15.9004C11.5015 16.0003 11.2515 16.1003 10.9515 16.2003L10.6515 16.3503L9.75152 15.5504L9.05153 16.2503L9.85151 17.2003L9.65152 17.6003C9.55152 17.8003 9.45152 18.0003 9.40152 18.2003L9.35152 18.6003L8.05155 18.7003V19.7503L9.25152 19.8503L9.35152 20.1503C9.45152 20.4503 9.55152 20.7003 9.65152 21.0003L9.80152 21.3003L9.00153 22.2502L9.70152 22.9502L10.6515 22.1002L10.9515 22.3002C11.1515 22.4002 11.4015 22.5502 11.6515 22.6002L12.0515 22.6502L12.2515 24.0002Z" fill="#EC9D05" stroke="#EC9D05" stroke-width="0.5"/>
<path d="M12.7496 21.4498C11.5496 21.4498 10.5996 20.4998 10.5996 19.2999C10.5996 18.0999 11.5496 17.1499 12.7496 17.1499C13.9495 17.1499 14.8995 18.0999 14.8995 19.2999C14.8995 20.4998 13.9495 21.4498 12.7496 21.4498ZM12.7496 18.1499C12.0996 18.1499 11.5996 18.6999 11.5996 19.2999C11.5996 19.9499 12.1496 20.4498 12.7496 20.4498C13.3496 20.4498 13.8996 19.8999 13.8996 19.2999C13.8996 18.6499 13.3996 18.1499 12.7496 18.1499Z" fill="#EC9D05" stroke="#EC9D05" stroke-width="0.5"/>
<path d="M12.7496 21.4498C11.5496 21.4498 10.5996 20.4998 10.5996 19.2999C10.5996 18.0999 11.5496 17.1499 12.7496 17.1499C13.9495 17.1499 14.8995 18.0999 14.8995 19.2999C14.8995 20.4998 13.9495 21.4498 12.7496 21.4498ZM12.7496 18.1499C12.0996 18.1499 11.5996 18.6499 11.5996 19.2999C11.5996 19.9499 12.0996 20.4498 12.7496 20.4498C13.3996 20.4498 13.8996 19.9499 13.8996 19.2999C13.8996 18.6499 13.3996 18.1499 12.7496 18.1499Z" fill="#EC9D05" stroke="#EC9D05" stroke-width="0.5"/>
<path d="M18.3504 13.6501L17.6504 12.9502L21.6003 9.00023V5.30029H22.6003V9.40022L18.3504 13.6501Z" fill="#EC9D05" stroke="#EC9D05" stroke-width="0.5"/>
<path d="M20.7019 13.8002H17.502V10.5503H18.5019V12.8003H20.7019V13.8002Z" fill="#EC9D05" stroke="#EC9D05" stroke-width="0.5"/>
<path d="M22.1011 5.79992C20.8012 5.79992 19.7012 4.74993 19.7012 3.39996C19.7012 2.04998 20.8012 1 22.1011 1C23.4011 1 24.5011 2.04998 24.5011 3.39996C24.5011 4.74993 23.4011 5.79992 22.1011 5.79992ZM22.1011 1.99998C21.3011 1.99998 20.7012 2.64997 20.7012 3.39996C20.7012 4.19994 21.3511 4.79993 22.1011 4.79993C22.8511 4.79993 23.5011 4.14994 23.5011 3.39996C23.5011 2.59997 22.9011 1.99998 22.1011 1.99998Z" fill="#EC9D05" stroke="#EC9D05" stroke-width="0.5"/>
<path d="M12.7511 12.6498L10.4512 10.3499L11.1512 9.6499L12.7511 11.2499L14.3511 9.6499L15.0511 10.3499L12.7511 12.6498Z" fill="#EC9D05" stroke="#EC9D05" stroke-width="0.5"/>
<path d="M7.15129 13.6497L2.90137 9.39973V5.2998H3.90135V8.99974L7.85128 12.9497L7.15129 13.6497Z" fill="#EC9D05" stroke="#EC9D05" stroke-width="0.5"/>
<path d="M8.00072 13.7997H4.80078V12.7998H7.00074V10.5498H8.00072V13.7997Z" fill="#EC9D05" stroke="#EC9D05" stroke-width="0.5"/>
<path d="M3.39996 5.79992C2.09998 5.79992 1 4.74993 1 3.39996C1 2.04998 2.09998 1 3.39996 1C4.69993 1 5.79992 2.04998 5.79992 3.39996C5.79992 4.74993 4.69993 5.79992 3.39996 5.79992ZM3.39996 1.99998C2.59997 1.99998 1.99998 2.59997 1.99998 3.39996C1.99998 4.19994 2.64997 4.79993 3.39996 4.79993C4.19994 4.79993 4.79993 4.14994 4.79993 3.39996C4.79993 2.59997 4.19994 1.99998 3.39996 1.99998Z" fill="#EC9D05" stroke="#EC9D05" stroke-width="0.5"/>
<path d="M12.25 5.30029H13.25V11.9502H12.25V5.30029Z" fill="#EC9D05" stroke="#EC9D05" stroke-width="0.5"/>
<path d="M12.7515 5.79992C11.4515 5.79992 10.3516 4.74993 10.3516 3.39996C10.3516 2.04998 11.4515 1 12.7515 1C14.0515 1 15.1515 2.04998 15.1515 3.39996C15.1515 4.74993 14.0515 5.79992 12.7515 5.79992ZM12.7515 1.99998C11.9515 1.99998 11.3515 2.64997 11.3515 3.39996C11.3515 4.19994 12.0015 4.79993 12.7515 4.79993C13.5515 4.79993 14.1515 4.14994 14.1515 3.39996C14.1515 2.59997 13.5515 1.99998 12.7515 1.99998Z" fill="#EC9D05" stroke="#EC9D05" stroke-width="0.5"/>
</svg>
