<svg width="69" height="69" viewBox="0 0 69 69" fill="none" xmlns="http://www.w3.org/2000/svg">
<path d="M58.9845 48.9688C53.4622 48.9688 48.9683 53.4616 48.9683 58.985C48.9683 64.5084 53.4622 69.0012 58.9845 69.0012C64.5068 69.0012 69.0008 64.5084 69.0008 58.985C69.0008 53.4616 64.5068 48.9688 58.9845 48.9688ZM55.6458 66.0131V62.3237C55.6458 61.7094 56.1455 61.2108 56.7587 61.2108H61.2103C61.8236 61.2108 62.3233 61.7094 62.3233 62.3237V66.0131C61.3094 66.4961 60.1809 66.7754 58.9845 66.7754C57.7881 66.7754 56.6596 66.4961 55.6458 66.0131ZM57.3151 57.3156C57.3151 56.3952 58.0641 55.6462 58.9845 55.6462C59.9049 55.6462 60.6539 56.3952 60.6539 57.3156C60.6539 58.236 59.9049 58.985 58.9845 58.985C58.0641 58.985 57.3151 58.236 57.3151 57.3156ZM64.5491 64.426V62.3237C64.5491 60.8914 63.6387 59.6783 62.37 59.2042C62.685 58.6422 62.8797 58.0045 62.8797 57.3156C62.8797 55.1677 61.1324 53.4204 58.9845 53.4204C56.8366 53.4204 55.0893 55.1677 55.0893 57.3156C55.0893 58.0045 55.2841 58.6422 55.599 59.2042C54.3303 59.6783 53.4199 60.8914 53.4199 62.3237V64.426C52.0455 63.0204 51.1941 61.1007 51.1941 58.985C51.1941 54.6903 54.6887 51.1946 58.9845 51.1946C63.2804 51.1946 66.7749 54.6903 66.7749 58.985C66.7749 61.1018 65.9235 63.0215 64.5491 64.426Z" fill="white"/>
<path d="M10.0162 48.9688C4.49396 48.9688 0 53.4616 0 58.985C0 64.5084 4.49396 69.0012 10.0162 69.0012C15.5385 69.0012 20.0325 64.5084 20.0325 58.985C20.0325 53.4616 15.5385 48.9688 10.0162 48.9688ZM6.6775 66.0131V62.3237C6.6775 61.7094 7.1772 61.2108 7.79041 61.2108H12.2421C12.8553 61.2108 13.355 61.7094 13.355 62.3237V66.0131C12.3411 66.4961 11.2126 66.7754 10.0162 66.7754C8.81986 66.7754 7.69136 66.4961 6.6775 66.0131ZM8.34687 57.3156C8.34687 56.3952 9.09587 55.6462 10.0162 55.6462C10.9366 55.6462 11.6856 56.3952 11.6856 57.3156C11.6856 58.236 10.9366 58.985 10.0162 58.985C9.09587 58.985 8.34687 58.236 8.34687 57.3156ZM15.5808 64.426V62.3237C15.5808 60.8914 14.6705 59.6783 13.4017 59.2042C13.7167 58.6422 13.9115 58.0045 13.9115 57.3156C13.9115 55.1677 12.1642 53.4204 10.0162 53.4204C7.86832 53.4204 6.12104 55.1677 6.12104 57.3156C6.12104 58.0045 6.3158 58.6422 6.63076 59.2042C5.36203 59.6783 4.45167 60.8914 4.45167 62.3237V64.426C3.07721 63.0215 2.22583 61.1018 2.22583 58.985C2.22583 54.6903 5.72039 51.1946 10.0162 51.1946C14.3121 51.1946 17.8067 54.6903 17.8067 58.985C17.8067 61.1018 16.9553 63.0215 15.5808 64.426Z" fill="white"/>
<path d="M34.5001 48.9688C28.9778 48.9688 24.4839 53.4616 24.4839 58.985C24.4839 64.5084 28.9778 69.0012 34.5001 69.0012C40.0224 69.0012 44.5164 64.5084 44.5164 58.985C44.5164 53.4616 40.0224 48.9688 34.5001 48.9688ZM31.1614 66.0131V62.3237C31.1614 61.7094 31.6611 61.2108 32.2743 61.2108H36.726C37.3392 61.2108 37.8389 61.7094 37.8389 62.3237V66.0131C36.825 66.4961 35.6965 66.7754 34.5001 66.7754C33.3037 66.7754 32.1753 66.4961 31.1614 66.0131ZM32.8308 57.3156C32.8308 56.3952 33.5798 55.6462 34.5001 55.6462C35.4205 55.6462 36.1695 56.3952 36.1695 57.3156C36.1695 58.236 35.4205 58.985 34.5001 58.985C33.5798 58.985 32.8308 58.236 32.8308 57.3156ZM40.0647 64.426V62.3237C40.0647 60.8914 39.1544 59.6783 37.8856 59.2042C38.2006 58.6422 38.3953 58.0045 38.3953 57.3156C38.3953 55.1677 36.6481 53.4204 34.5001 53.4204C32.3522 53.4204 30.6049 55.1677 30.6049 57.3156C30.6049 58.0045 30.7997 58.6422 31.1146 59.2042C29.8459 59.6783 28.9356 60.8914 28.9356 62.3237V64.426C27.5611 63.0204 26.7097 61.1007 26.7097 58.985C26.7097 54.6903 30.2043 51.1946 34.5001 51.1946C38.796 51.1946 42.2905 54.6903 42.2905 58.985C42.2905 61.1018 41.4392 63.0215 40.0647 64.426Z" fill="white"/>
<path d="M15.5806 21.1446C15.5806 26.205 25.3286 28.935 34.5001 28.935C43.6717 28.935 53.4197 26.205 53.4197 21.1446C53.4197 17.9227 49.1784 15.2294 42.2906 14.013V11.1283H45.6293C46.1023 11.1283 46.523 10.829 46.6799 10.3838C46.8357 9.93862 46.6944 9.44115 46.3249 9.14622L35.1957 0.242894C34.7895 -0.0809647 34.2119 -0.0809647 33.8057 0.242894L22.6765 9.14622C22.307 9.44226 22.1657 9.93862 22.3215 10.3838C22.4773 10.829 22.898 11.1283 23.371 11.1283H26.7097V14.013C19.8219 15.2294 15.5806 17.9227 15.5806 21.1446ZM51.1939 21.1446C51.1939 23.7711 44.0545 26.7092 34.5001 26.7092C24.9458 26.7092 17.8064 23.7711 17.8064 21.1446C17.8064 19.4986 20.8602 17.3718 26.7097 16.2711V21.1446C26.7097 21.76 27.2083 22.2575 27.8226 22.2575H41.1776C41.792 22.2575 42.2906 21.76 42.2906 21.1446V16.2711C48.14 17.3718 51.1939 19.4986 51.1939 21.1446ZM40.0647 11.1283V20.0317H28.9356V11.1283H40.0647ZM26.5439 8.9025L34.5001 2.53661L42.4564 8.9025H41.1776H27.8226H26.5439Z" fill="white"/>
<path d="M8.90332 36.7247V40.0635H6.67748C6.25569 40.0635 5.87062 40.3017 5.68142 40.6789C5.49223 41.0562 5.53452 41.5069 5.78715 41.8442L9.1259 46.2958C9.33624 46.5763 9.66566 46.741 10.0162 46.741C10.3668 46.741 10.6962 46.5763 10.9066 46.2958L14.2453 41.8442C14.4991 41.5069 14.5391 41.0562 14.351 40.6789C14.163 40.3017 13.7768 40.0635 13.355 40.0635H11.1291V37.8377H33.3875V40.0635H31.1616C30.7398 40.0635 30.3548 40.3017 30.1656 40.6789C29.9764 41.0562 30.0187 41.5069 30.2713 41.8442L33.6101 46.2958C33.8193 46.5763 34.1498 46.741 34.5004 46.741C34.851 46.741 35.1804 46.5763 35.3907 46.2958L38.7295 41.8442C38.9832 41.5069 39.0233 41.0562 38.8352 40.6789C38.6471 40.3017 38.2609 40.0635 37.8391 40.0635H35.6133V37.8377H57.8716V40.0635H55.6458C55.224 40.0635 54.8389 40.3017 54.6497 40.6789C54.4605 41.0562 54.5028 41.5069 54.7555 41.8442L58.0942 46.2958C58.3034 46.5763 58.634 46.741 58.9846 46.741C59.3351 46.741 59.6645 46.5763 59.8749 46.2958L63.2136 41.8442C63.4674 41.5069 63.5074 41.0562 63.3194 40.6789C63.1313 40.3017 62.7451 40.0635 62.3233 40.0635H60.0975V36.7247C60.0975 36.1093 59.5989 35.6118 58.9846 35.6118H35.6133V31.1602H33.3875V35.6118H10.0162C9.4019 35.6118 8.90332 36.1093 8.90332 36.7247ZM10.0162 43.7728L8.90332 42.2893H11.1291L10.0162 43.7728ZM34.5004 43.7728L33.3875 42.2893H35.6133L34.5004 43.7728ZM58.9846 43.7728L57.8716 42.2893H60.0975L58.9846 43.7728Z" fill="white"/>
</svg>
