<svg width="62" height="56" viewBox="0 0 62 56" fill="none" xmlns="http://www.w3.org/2000/svg">
<path d="M60.1949 7.46715C60.1912 7.46715 60.1874 7.46667 60.1836 7.46667H43.7148V5.6C43.7148 2.51222 41.2703 0 38.2656 0H23.7344C20.7297 0 18.2852 2.51222 18.2852 5.6V7.46667H1.81641C0.805084 7.46667 0 8.31833 0 9.33333V50.4C0 53.4878 2.44458 56 5.44922 56H56.5508C59.5554 56 62 53.4878 62 50.4V9.37271C62 9.37028 62 9.36785 62 9.36542C61.9305 8.13944 61.1968 7.47396 60.1949 7.46715ZM21.918 5.6C21.918 4.5709 22.733 3.73333 23.7344 3.73333H38.2656C39.267 3.73333 40.082 4.5709 40.082 5.6V7.46667H21.918V5.6ZM57.6633 11.2L52.0225 28.5901C51.7751 29.3538 51.0826 29.8667 50.2998 29.8667H40.082V28C40.082 26.969 39.2689 26.1333 38.2656 26.1333H23.7344C22.7311 26.1333 21.918 26.969 21.918 28V29.8667H11.7002C10.9174 29.8667 10.2249 29.3538 9.97746 28.5901L4.33667 11.2H57.6633ZM36.4492 29.8667V33.6H25.5508V29.8667H36.4492ZM58.3672 50.4C58.3672 51.4291 57.5522 52.2667 56.5508 52.2667H5.44922C4.44783 52.2667 3.63281 51.4291 3.63281 50.4V20.8362L6.53102 29.7709C7.27367 32.0615 9.35118 33.6 11.7002 33.6H21.918V35.4667C21.918 36.4977 22.7311 37.3333 23.7344 37.3333H38.2656C39.2689 37.3333 40.082 36.4977 40.082 35.4667V33.6H50.2998C52.6488 33.6 54.7263 32.0615 55.469 29.7709L58.3672 20.8362V50.4Z" fill="#65B43B"/>
</svg>
