<svg width="20" height="20" viewBox="0 0 20 20" fill="none" xmlns="http://www.w3.org/2000/svg">
<path d="M17.0703 0C15.6555 0 14.4718 1.00812 14.1996 2.34375H0.585938C0.262344 2.34375 0 2.60609 0 2.92969V19.4141C0 19.7377 0.262344 20 0.585938 20H17.0703C18.6857 20 20 18.6857 20 17.0703V2.92969C20 1.31426 18.6857 0 17.0703 0ZM17.0703 18.8281H1.17188V3.51562H14.1406V4.6875H5.27344C4.94984 4.6875 4.6875 4.94984 4.6875 5.27344V17.0703C4.6875 17.3939 4.94984 17.6562 5.27344 17.6562H17.0703C17.7122 17.6562 18.3277 17.4427 18.828 17.0675C18.828 17.0684 18.8281 17.0693 18.8281 17.0703C18.8281 18.0396 18.0396 18.8281 17.0703 18.8281ZM12.3828 8.28125H10.5242C10.2823 7.59926 9.63105 7.10938 8.86719 7.10938C7.89793 7.10938 7.10938 7.89793 7.10938 8.86719C7.10938 9.83645 7.89793 10.625 8.86719 10.625C9.63105 10.625 10.2823 10.1351 10.5242 9.45312H11.7969V12.9688H10.5242C10.2823 12.2868 9.63105 11.7969 8.86719 11.7969C7.89793 11.7969 7.10938 12.5854 7.10938 13.5547C7.10938 14.5239 7.89793 15.3125 8.86719 15.3125C9.63105 15.3125 10.2823 14.8226 10.5242 14.1406H12.3828C12.7064 14.1406 12.9688 13.8783 12.9688 13.5547V11.7969H14.1406V16.4844H5.85938V5.85938H14.1406V10.625H12.9688V8.86719C12.9688 8.54359 12.7064 8.28125 12.3828 8.28125ZM9.45312 8.86719C9.45312 9.19027 9.19027 9.45312 8.86719 9.45312C8.5441 9.45312 8.28125 9.19027 8.28125 8.86719C8.28125 8.5441 8.5441 8.28125 8.86719 8.28125C9.19027 8.28125 9.45312 8.5441 9.45312 8.86719ZM9.45312 13.5547C9.45312 13.8778 9.19027 14.1406 8.86719 14.1406C8.5441 14.1406 8.28125 13.8778 8.28125 13.5547C8.28125 13.2316 8.5441 12.9688 8.86719 12.9688C9.19027 12.9688 9.45312 13.2316 9.45312 13.5547ZM15.4133 16.4844C15.6552 15.8024 16.3064 15.3125 17.0703 15.3125C17.5895 15.3125 18.0567 15.5389 18.3788 15.8981C18.0482 16.2659 17.5727 16.4844 17.0703 16.4844H15.4133ZM18.8281 14.7282C18.3381 14.3595 17.7293 14.1406 17.0703 14.1406C16.4114 14.1406 15.8025 14.3594 15.3125 14.7279V2.92969C15.3125 1.96043 16.1011 1.17188 17.0703 1.17188C18.0396 1.17188 18.8281 1.96043 18.8281 2.92969V14.7282Z" fill="#EC9D05"/>
</svg>
