<svg width="19" height="24" viewBox="0 0 19 24" fill="none" xmlns="http://www.w3.org/2000/svg">
<path d="M18.3221 6.34497L12.9316 1.18885C12.8058 1.06845 12.634 1 12.4551 1H3.02148C1.90684 1 1 1.86741 1 2.93359V21.0664C1 22.1326 1.90684 23 3.02148 23H16.498C17.6127 23 18.5195 22.1326 18.5195 21.0664V6.80078C18.5195 6.62504 18.4424 6.46 18.3221 6.34497ZM13.1289 3.20056L16.2189 6.15625H13.8027C13.4312 6.15625 13.1289 5.86711 13.1289 5.51172V3.20056ZM16.498 21.7109H3.02148C2.64994 21.7109 2.34766 21.4218 2.34766 21.0664V2.93359C2.34766 2.5782 2.64994 2.28906 3.02148 2.28906H11.7812V5.51172C11.7812 6.5779 12.6881 7.44531 13.8027 7.44531H17.1719V21.0664C17.1719 21.4218 16.8696 21.7109 16.498 21.7109Z" fill="#EC9D05" stroke="#EC9D05" stroke-width="0.5"/>
<path d="M13.8027 10.1094H5.7168C5.34466 10.1094 5.04297 10.398 5.04297 10.7539C5.04297 11.1099 5.34466 11.3984 5.7168 11.3984H13.8027C14.1749 11.3984 14.4766 11.1099 14.4766 10.7539C14.4766 10.398 14.1749 10.1094 13.8027 10.1094Z" fill="#EC9D05" stroke="#EC9D05" stroke-width="0.5"/>
<path d="M13.8027 12.6875H5.7168C5.34466 12.6875 5.04297 12.9761 5.04297 13.332C5.04297 13.688 5.34466 13.9766 5.7168 13.9766H13.8027C14.1749 13.9766 14.4766 13.688 14.4766 13.332C14.4766 12.9761 14.1749 12.6875 13.8027 12.6875Z" fill="#EC9D05" stroke="#EC9D05" stroke-width="0.5"/>
<path d="M13.8027 15.2656H5.7168C5.34466 15.2656 5.04297 15.5542 5.04297 15.9102C5.04297 16.2661 5.34466 16.5547 5.7168 16.5547H13.8027C14.1749 16.5547 14.4766 16.2661 14.4766 15.9102C14.4766 15.5542 14.1749 15.2656 13.8027 15.2656Z" fill="#EC9D05" stroke="#EC9D05" stroke-width="0.5"/>
<path d="M11.1074 17.8438H5.7168C5.34466 17.8438 5.04297 18.1323 5.04297 18.4883C5.04297 18.8442 5.34466 19.1328 5.7168 19.1328H11.1074C11.4796 19.1328 11.7812 18.8442 11.7812 18.4883C11.7812 18.1323 11.4796 17.8438 11.1074 17.8438Z" fill="#EC9D05" stroke="#EC9D05" stroke-width="0.5"/>
</svg>
