<svg width="23" height="22" viewBox="0 0 23 22" fill="none" xmlns="http://www.w3.org/2000/svg">
<path d="M23.0002 5.03808V3.88525C23.0002 1.74297 21.474 0 19.5979 0H11.9764H11.3043H8.82736C8.03161 0 7.36968 0.66565 7.24556 1.5349H6.32847C5.33511 1.5349 4.52695 2.45782 4.52695 3.59213V3.69411H0V5.22902H4.52691V5.33105C4.52691 6.46541 5.33511 7.38827 6.32843 7.38827H7.24551C7.36968 8.25753 8.03157 8.92318 8.82732 8.92318H12.863L13.9175 11.9472H15.2601L16.328 14.8892C16.3321 14.9022 16.3374 14.9281 16.3191 14.9588C16.2982 14.9937 16.2713 14.9937 16.2612 14.9937H14.5063V22H20.4636C21.7899 22 22.8689 20.7679 22.8689 19.2533V14.7923L20.5638 8.76379C21.9708 8.28744 23.0002 6.79742 23.0002 5.03808ZM7.21515 5.85352H6.32843C6.07623 5.85352 5.87103 5.61919 5.87103 5.3312V3.59228C5.87103 3.30429 6.07623 3.06996 6.32843 3.06996H7.21515V5.85352ZM11.3043 7.38843H8.82736C8.68456 7.38843 8.56843 7.25582 8.56843 7.09279V1.83064C8.56843 1.66756 8.68456 1.53501 8.82736 1.53501H11.3043V7.38843ZM21.5247 19.2535C21.5247 19.9217 21.0487 20.4652 20.4635 20.4652H15.8504V19.1892H21.5247V19.2535ZM21.6561 5.03808C21.6561 6.33404 20.7328 7.38838 19.5979 7.38838H18.5711L21.5247 15.113V17.6543H15.8504V16.5289H16.2613C16.7289 16.5289 17.1655 16.2655 17.4292 15.8246C17.6929 15.3837 17.7487 14.8235 17.5785 14.3262L15.0603 7.38843H12.6485V1.53501H19.5979C20.7328 1.53501 21.6561 2.58935 21.6561 3.8853V5.03808Z" fill="#EC9D05"/>
</svg>
