<svg width="24" height="24" viewBox="0 0 24 24" fill="none" xmlns="http://www.w3.org/2000/svg">
<path d="M12.0944 1C9.99774 1 7.98178 1.58669 6.24355 2.67383V1.6501C6.24355 1.29107 5.95248 1 5.59346 1C5.23443 1 4.94336 1.29107 4.94336 1.6501V3.93146C4.94336 4.18149 5.08673 4.40933 5.31214 4.51755C5.53751 4.62572 5.805 4.59512 6.00011 4.43871C7.74528 3.0397 9.85268 2.30019 12.0944 2.30019C17.4953 2.30019 21.8892 6.69412 21.8892 12.095C21.8892 14.1852 21.1815 16.2784 19.8964 17.9892C19.6807 18.2763 19.7386 18.6838 20.0257 18.8994C20.3127 19.115 20.7203 19.0572 20.9359 18.7701C22.3891 16.8356 23.1894 14.465 23.1894 12.095C23.1894 5.98586 18.2032 1 12.0944 1Z" fill="#EC9D05" stroke="#EC9D05" stroke-width="0.3"/>
<path d="M12.095 23.19C14.1917 23.19 16.2076 22.6033 17.9459 21.5162V22.5399C17.9459 22.8989 18.2369 23.19 18.596 23.19C18.955 23.19 19.2461 22.8989 19.2461 22.5399V20.2585C19.2461 20.0085 19.1027 19.7807 18.8773 19.6725C18.6518 19.5642 18.3844 19.5949 18.1893 19.7513C16.4441 21.1503 14.3367 21.8898 12.095 21.8898C6.69412 21.8898 2.30019 17.4959 2.30019 12.095C2.30019 10.0048 3.00793 7.91159 4.29305 6.20079C4.50871 5.91371 4.4508 5.50619 4.16372 5.29057C3.87659 5.07491 3.46911 5.13286 3.2535 5.4199C1.80031 7.35441 1 9.72502 1 12.095C1 18.2041 5.9862 23.19 12.095 23.19Z" fill="#EC9D05" stroke="#EC9D05" stroke-width="0.3"/>
<path d="M12.095 20.5896C12.454 20.5896 12.7451 20.2985 12.7451 19.9395V17.9817C14.0968 17.948 15.2003 17.7887 16.0948 17.2782C17.3404 16.5672 17.9459 15.2971 17.9459 13.3952C17.9459 10.346 14.5282 5.89756 12.5695 3.80615C12.4466 3.67487 12.2748 3.60037 12.095 3.60037C11.9152 3.60037 11.7434 3.67487 11.6205 3.80615C9.68654 5.87112 6.24414 10.3321 6.24414 13.3952C6.24414 15.2971 6.84964 16.5672 8.09523 17.2782C8.98976 17.7887 10.0932 17.948 11.4449 17.9817V19.9395C11.4449 20.2985 11.736 20.5896 12.095 20.5896ZM8.73978 16.1489C8.22659 15.856 7.54434 15.2519 7.54434 13.3952C7.54434 10.7134 10.8469 6.66168 12.0976 5.22362C13.7034 7.05945 16.6457 10.9323 16.6457 13.3952C16.6457 15.2519 15.9634 15.856 15.4503 16.1489C14.7628 16.5413 13.774 16.6539 12.7451 16.6812V14.9647L15.1551 12.5547C15.409 12.3008 15.409 11.8892 15.1551 11.6354C14.9012 11.3815 14.4896 11.3815 14.2357 11.6354L12.7451 13.1259V11.0641L13.8549 9.95429C14.1088 9.70041 14.1088 9.28881 13.8549 9.03493C13.601 8.78104 13.1894 8.78104 12.9355 9.03493L12.095 9.87542L11.2545 9.03488C11.0006 8.781 10.589 8.781 10.3351 9.03488C10.0812 9.28877 10.0812 9.70037 10.3351 9.95425L11.4449 11.0641V13.1259L9.95429 11.6353C9.70045 11.3814 9.28881 11.3814 9.03492 11.6353C8.78104 11.8892 8.78104 12.3008 9.03492 12.5546L11.4449 14.9646V16.6812C10.416 16.6539 9.42719 16.5413 8.73978 16.1489Z" fill="#EC9D05" stroke="#EC9D05" stroke-width="0.3"/>
</svg>
