<svg width="25" height="25" viewBox="0 0 25 25" fill="none" xmlns="http://www.w3.org/2000/svg">
<path d="M23.6049 17.06L21.022 14.4771C23.9846 8.26032 19.4309 1 12.5001 1C5.58123 1 1.00958 8.24783 3.97815 14.4771L1.39523 17.06C0.676392 17.7789 0.982041 19.0056 1.95676 19.3025L4.82583 20.1739L5.69727 23.043C5.9929 24.0138 7.21715 24.3258 7.93972 23.6045L11.7104 19.8339C12.2287 19.8769 12.7537 19.8783 13.2898 19.8339L17.0604 23.6045C17.7804 24.3245 19.0066 24.0158 19.3029 23.043L20.1743 20.1739L23.0434 19.3025C24.0196 19.0052 24.3225 17.7776 23.6049 17.06ZM6.98697 22.6513L6.11509 19.7822C5.98436 19.351 5.6488 19.0154 5.21759 18.8843L2.34852 18.0129L4.67094 15.6904C5.9323 17.5627 7.84682 18.9602 10.0852 19.5532L6.98697 22.6513ZM5.64471 14.7165C2.25912 9.3251 6.19806 2.34761 12.5001 2.34761C18.853 2.34761 22.7106 9.37348 19.3554 14.7165C16.1787 19.7828 8.821 19.7822 5.64471 14.7165ZM19.7826 18.8843C19.3514 19.0154 19.0158 19.351 18.8847 19.7822L18.0132 22.6513L14.9151 19.5531C17.1535 18.9601 19.068 17.5627 20.3294 15.6904L22.6518 18.0128L19.7826 18.8843Z" fill="#EC9D05" stroke="#EC9D05" stroke-width="0.3"/>
<path d="M12.4998 3.69519C7.99054 3.69519 4.73056 8.0722 6.05459 12.4004C7.18267 16.0968 11.1843 18.0609 14.7638 16.7801C17.3709 15.8471 19.2379 13.3528 19.2379 10.4333C19.2379 6.71789 16.2152 3.69519 12.4998 3.69519ZM8.86575 14.4105C5.22717 11.0895 7.62083 5.0428 12.4998 5.0428C15.8203 5.0428 18.3479 8.0306 17.8234 11.2787C17.1634 15.4888 12.0389 17.3142 8.86575 14.4105Z" fill="#EC9D05" stroke="#EC9D05" stroke-width="0.3"/>
<path d="M14.544 8.61106L11.5739 10.8156L10.545 9.71937C10.2903 9.44795 9.86395 9.43443 9.59258 9.68914C9.32125 9.9438 9.30769 10.3702 9.56239 10.6416L11.0021 12.1756C11.2364 12.4253 11.6205 12.4593 11.895 12.2556L15.3472 9.69318C15.646 9.4714 15.7084 9.04932 15.4866 8.7505C15.2648 8.45172 14.8428 8.38928 14.544 8.61106Z" fill="#EC9D05" stroke="#EC9D05" stroke-width="0.3"/>
</svg>
