<svg width="21" height="17" viewBox="0 0 21 17" fill="none" xmlns="http://www.w3.org/2000/svg">
<path d="M17.7083 0H3.125C2.2962 0 1.50134 0.32924 0.915291 0.915291C0.32924 1.50134 0 2.2962 0 3.125V13.5417C0 14.3705 0.32924 15.1653 0.915291 15.7514C1.50134 16.3374 2.2962 16.6667 3.125 16.6667H17.7083C18.5371 16.6667 19.332 16.3374 19.918 15.7514C20.5041 15.1653 20.8333 14.3705 20.8333 13.5417V3.125C20.8333 2.2962 20.5041 1.50134 19.918 0.915291C19.332 0.32924 18.5371 0 17.7083 0ZM17.0104 2.08333L10.4167 7.03125L3.82292 2.08333H17.0104ZM17.7083 14.5833H3.125C2.84873 14.5833 2.58378 14.4736 2.38843 14.2782C2.19308 14.0829 2.08333 13.8179 2.08333 13.5417V3.38542L9.79167 9.16667C9.97198 9.3019 10.1913 9.375 10.4167 9.375C10.6421 9.375 10.8614 9.3019 11.0417 9.16667L18.75 3.38542V13.5417C18.75 13.8179 18.6403 14.0829 18.4449 14.2782C18.2496 14.4736 17.9846 14.5833 17.7083 14.5833Z" fill="#65B43B"/>
</svg>
