<svg width="52" height="52" viewBox="0 0 52 52" fill="none" xmlns="http://www.w3.org/2000/svg">
<path d="M43.3333 52H11.5556C8.37778 52 5.48889 50.8444 3.46667 48.5333C1.15555 46.5111 0 43.6222 0 40.4444V5.77778C0 4.33333 0.577777 2.88889 1.73333 1.73333C2.88889 0.577777 4.33333 0 5.77778 0H34.6667C36.1111 0 37.5556 0.577777 38.7111 1.73333C39.8667 2.88889 40.4444 4.33333 40.4444 5.77778H46.2222C47.6667 5.77778 49.1111 6.35556 50.2667 7.51111C51.4222 8.66667 52 10.1111 52 11.5556V43.3333C52 45.6444 51.1333 47.9556 49.4 49.4C47.6667 50.8444 45.6444 52 43.3333 52ZM43.3333 46.2222C44.2 46.2222 44.7778 45.9333 45.3556 45.3556C45.9333 44.7778 46.2222 44.2 46.2222 43.3333V11.5556H40.4444V43.3333C40.4444 44.2 40.7333 44.7778 41.3111 45.3556C41.8889 45.9333 42.4667 46.2222 43.3333 46.2222ZM5.77778 5.77778V40.4444C5.77778 41.8889 6.35556 43.3333 7.51111 44.4889C8.66667 45.6444 10.1111 46.2222 11.5556 46.2222H35.2444C34.9556 45.3556 34.6667 44.2 34.6667 43.3333V5.77778H5.77778Z" fill="#65B43B"/>
<path d="M26.0001 17.3333H14.4446C12.7112 17.3333 11.5557 16.1777 11.5557 14.4444C11.5557 12.7111 12.7112 11.5555 14.4446 11.5555H26.0001C27.7334 11.5555 28.889 12.7111 28.889 14.4444C28.889 16.1777 27.7334 17.3333 26.0001 17.3333Z" fill="#65B43B"/>
<path d="M26.0001 28.8889H14.4446C12.7112 28.8889 11.5557 27.7334 11.5557 26C11.5557 24.2667 12.7112 23.1112 14.4446 23.1112H26.0001C27.7334 23.1112 28.889 24.2667 28.889 26C28.889 27.7334 27.7334 28.8889 26.0001 28.8889Z" fill="#65B43B"/>
<path d="M26.0001 40.4444H14.4446C12.7112 40.4444 11.5557 39.2889 11.5557 37.5556C11.5557 35.8222 12.7112 34.6667 14.4446 34.6667H26.0001C27.7334 34.6667 28.889 35.8222 28.889 37.5556C28.889 39.2889 27.7334 40.4444 26.0001 40.4444Z" fill="#65B43B"/>
</svg>
