<svg width="41" height="41" viewBox="0 0 41 41" fill="none" xmlns="http://www.w3.org/2000/svg">
<path d="M27.3066 26.1054V14.8945C27.3066 14.2311 26.7688 13.6933 26.1054 13.6933H14.8945C14.2312 13.6933 13.6934 14.2311 13.6934 14.8945V26.1054C13.6934 26.7688 14.2312 27.3066 14.8945 27.3066H26.1054C26.7688 27.3066 27.3066 26.7688 27.3066 26.1054ZM24.9043 24.9042H16.0957V16.0957H24.9043V24.9042Z" fill="#65B43B"/>
<path d="M1.13991 11.5263C1.25114 12.5273 2.47089 12.9552 3.1831 12.243L5.16495 10.2611L8.84549 13.9417C9.31459 14.4107 10.0751 14.4107 10.5442 13.9417L13.9416 10.5442C14.4107 10.0751 14.4107 9.31459 13.9416 8.84549L10.261 5.16495L12.2429 3.1831C12.9551 2.47089 12.5272 1.25114 11.5262 1.13991L1.33402 0.0075274C0.568954 -0.0774353 -0.0774353 0.568954 0.0075274 1.33402L1.13991 11.5263ZM8.7771 3.25165L7.71311 4.31564C7.24401 4.78474 7.24401 5.54524 7.71311 6.01433L11.3937 9.69488L9.69488 11.3937L6.01433 7.71311C5.54524 7.24401 4.78474 7.24401 4.31564 7.71311L3.25165 8.7771L2.56097 2.56097L8.7771 3.25165Z" fill="#65B43B"/>
<path d="M30.4558 13.9416C30.9248 14.4107 31.6853 14.4107 32.1544 13.9416L35.835 10.2611L37.8168 12.243C38.5291 12.9552 39.7488 12.5273 39.86 11.5263L40.9924 1.33402C41.0774 0.569033 40.431 -0.0774361 39.6659 0.0075266L29.4738 1.13999C28.4727 1.25122 28.0448 2.47096 28.7571 3.18318L30.7389 5.16503L27.0584 8.84549C26.5893 9.31459 26.5893 10.0751 27.0584 10.5442L30.4558 13.9416ZM33.2869 6.01433C33.756 5.54524 33.756 4.78474 33.2869 4.31564L32.2229 3.25164L38.439 2.56097L37.7484 8.7771L36.6844 7.71311C36.2153 7.24401 35.4548 7.24401 34.9857 7.71311L31.3051 11.3936L29.6064 9.69488L33.2869 6.01433Z" fill="#65B43B"/>
<path d="M10.5442 27.0583C10.0751 26.5892 9.3146 26.5892 8.8455 27.0583L5.16496 30.7389L3.18311 28.7569C2.4709 28.0447 1.25115 28.4727 1.13992 29.4736L0.00754007 39.6659C-0.0775027 40.431 0.568967 41.0773 1.33403 40.9923L11.5263 39.8599C12.5273 39.7487 12.9552 38.5289 12.243 37.8167L10.2611 35.8349L13.9417 32.1543C14.4108 31.6852 14.4108 30.9247 13.9417 30.4556L10.5442 27.0583ZM7.71312 34.9856C7.24402 35.4547 7.24402 36.2152 7.71312 36.6843L8.77712 37.7483L2.56099 38.4389L3.25166 32.2228L4.31565 33.2868C4.78475 33.7559 5.54525 33.7559 6.01435 33.2868L9.69489 29.6063L11.3937 31.305L7.71312 34.9856Z" fill="#65B43B"/>
<path d="M39.86 29.4737C39.7488 28.4727 38.5291 28.0448 37.8168 28.757L35.835 30.7389L32.1544 27.0583C31.6853 26.5892 30.9248 26.5892 30.4558 27.0583L27.0584 30.4557C26.5893 30.9248 26.5893 31.6853 27.0584 32.1544L30.7389 35.835L28.7571 37.8168C28.0448 38.529 28.4727 39.7488 29.4738 39.86L39.666 40.9924C40.4311 41.0774 41.0775 40.431 40.9925 39.666L39.86 29.4737ZM32.2229 37.7483L33.2869 36.6843C33.756 36.2152 33.756 35.4547 33.2869 34.9857L29.6064 31.3052L31.3051 29.6064L34.9857 33.287C35.4548 33.7561 36.2153 33.7561 36.6844 33.287L37.7484 32.223L38.439 38.4391L32.2229 37.7483Z" fill="#65B43B"/>
</svg>
