<svg width="21" height="23" viewBox="0 0 21 23" fill="none" xmlns="http://www.w3.org/2000/svg">
<path d="M20.5676 9.22844C21.1179 9.22761 21.1407 8.4281 20.6486 8.34324C20.6387 8.32031 20.6353 8.29786 20.6201 8.27457C19.6606 6.79881 17.3379 5.79258 15.9053 4.81284C14.7513 4.02348 13.7939 3.08652 12.8775 2.0446C12.3085 1.39754 11.5214 0.33873 10.642 0.0757693C9.02295 -0.408314 7.43207 1.54634 6.46556 2.55906C4.41636 4.70635 2.31516 6.80152 0.0871468 8.76752C-0.0436833 8.88299 -0.0126008 9.05684 0.0843104 9.16982C0.0836013 9.34154 0.192331 9.5161 0.39549 9.49837C0.965729 9.4485 1.53916 9.41352 2.112 9.37617C1.73428 10.764 1.8527 12.3919 1.86972 13.7636C1.88922 15.3277 1.6187 17.5941 2.2147 19.0593C2.28089 19.222 2.48629 19.227 2.55094 19.0593C3.06149 17.735 2.60554 15.7229 2.57245 14.3243C2.5325 12.6358 2.71781 10.9947 2.80787 9.32665C5.9342 9.14831 9.09268 9.13508 12.2474 9.15907C12.2767 9.17916 12.305 9.20114 12.3344 9.22088C12.4264 9.28257 12.5131 9.23683 12.5539 9.16131C14.8491 9.18058 17.1417 9.21698 19.4175 9.2249C18.7089 12.4644 19.3839 15.9231 18.9699 19.2116C18.9683 19.224 18.9723 19.2338 18.9729 19.245C18.8882 19.2537 18.8029 19.2628 18.7253 19.2674C16.9029 19.3753 15.0473 19.1896 13.2139 19.2793C13.0022 19.2897 12.7902 19.2966 12.5782 19.3026C12.9482 17.0359 12.9386 14.7318 12.6566 12.4543C12.6389 12.3112 12.5675 12.1615 12.4092 12.1292C10.8721 11.8164 9.29395 11.8135 7.75578 12.1208C7.61809 12.1482 7.4862 12.3113 7.5018 12.4543C7.74254 14.6568 7.46481 16.8764 7.85174 19.0663C7.89169 19.292 8.25901 19.238 8.24849 19.0127C8.1803 17.5525 8.27461 16.1005 8.30628 14.6405C8.31006 14.4637 8.18041 12.7389 8.30569 12.7133C8.95736 12.5804 9.6381 12.575 10.3003 12.5737C10.6377 12.5728 11.9852 12.4789 12.0385 12.8978C12.1173 13.5175 12.1513 14.1421 12.1804 14.7657C12.2509 16.2825 12.1558 17.8161 11.8933 19.3108C11.848 19.2916 11.8012 19.295 11.7594 19.3142C8.27177 19.3343 4.74621 18.9108 1.28932 19.3753C1.03073 19.41 1.01738 19.6965 1.16735 19.7987C1.08403 20.1332 1.13142 20.5665 1.18236 20.8159C1.23235 21.0615 1.32997 21.312 1.48338 21.5102C1.48279 21.5156 1.47924 21.5209 1.4809 21.5265C1.74646 22.4598 6.54238 21.9322 7.13519 21.9106C11.5834 21.7484 16.0203 22.0184 20.4678 21.9201C20.7701 21.9134 20.9125 21.6567 20.8758 21.3847C20.791 20.7557 20.7673 20.1254 20.6711 19.4983C20.6255 19.2019 20.3586 19.1478 20.1432 19.2439C19.9091 19.1829 19.6467 19.1864 19.3878 19.2066C20.1588 15.9553 19.7674 12.5395 20.0759 9.22714C20.2401 9.22714 20.4042 9.2288 20.5676 9.22844ZM2.00303 21.3348C1.86169 21.1336 1.80791 20.9137 1.79881 20.6233C1.79787 20.5934 1.80247 20.5604 1.80484 20.5286C2.0041 20.8042 2.22829 21.0659 2.48724 21.2793C2.30807 21.2959 2.1419 21.3141 2.00303 21.3348ZM2.94981 21.2416C2.53002 20.9393 2.17582 20.586 1.86015 20.1778C1.87941 20.0826 1.89797 19.9872 1.90624 19.8946C2.06272 19.9078 2.22014 19.9173 2.37697 19.9292C2.79629 20.3066 3.13075 20.8034 3.52726 21.2082C3.32812 21.2182 3.13359 21.2291 2.94981 21.2416ZM4.08698 21.1839C3.84269 20.936 3.58316 20.6992 3.34573 20.4476C3.18795 20.2802 3.0271 20.1177 2.85845 19.9647C3.15699 19.9849 3.45765 19.9944 3.75701 20.0103C4.10033 20.3971 4.43787 20.8045 4.81369 21.1603C4.5739 21.1671 4.32938 21.1746 4.08698 21.1839ZM5.34316 21.1473C4.98223 20.7662 4.6012 20.3972 4.21816 20.0336C4.4173 20.0429 4.61715 20.0472 4.81653 20.0551C5.09202 20.3148 5.34765 20.5942 5.60281 20.8761C5.67219 20.9526 5.74712 21.0439 5.82724 21.1379C5.67242 21.1406 5.51216 21.1436 5.34316 21.1473ZM6.46414 21.128C6.27067 20.9402 6.04092 20.768 5.87901 20.5998C5.70741 20.4218 5.5358 20.2458 5.35971 20.0746C5.60033 20.0825 5.84119 20.087 6.08205 20.0935C6.22482 20.3047 6.36829 20.5153 6.5165 20.7227C6.60951 20.8531 6.71032 20.9894 6.81597 21.1231C6.71516 21.1244 6.60088 21.1258 6.46414 21.128ZM7.33646 21.1083C7.15091 20.9119 6.9572 20.7209 6.78442 20.5158C6.67084 20.381 6.56294 20.2417 6.45409 20.1029C6.63184 20.107 6.80912 20.1076 6.98687 20.1109C7.21461 20.3217 7.43361 20.5416 7.64681 20.7683C7.7332 20.86 7.83059 20.9736 7.93613 21.0854C7.73616 21.0939 7.53643 21.0983 7.33646 21.1083ZM8.55908 21.0622C8.36005 20.8592 8.10395 20.6779 7.91473 20.5006C7.77658 20.3712 7.637 20.2444 7.49613 20.119C7.66336 20.1216 7.82893 20.1211 7.99605 20.1235C8.23537 20.4038 8.49467 20.6672 8.77086 20.9113C8.82003 20.9548 8.87628 21.0045 8.93549 21.0544C8.8101 21.0575 8.68459 21.0585 8.55908 21.0622ZM9.70511 21.0381C9.61813 21.0014 9.46957 20.8633 9.40705 20.822C9.21323 20.6934 9.03347 20.5444 8.85773 20.3925C8.76093 20.3088 8.67017 20.2171 8.57657 20.1288C8.76578 20.1311 8.95346 20.1317 9.14267 20.1339C9.38696 20.3696 9.61517 20.6233 9.84776 20.8684C9.89964 20.9231 9.95401 20.9806 10.0088 21.0375C9.90756 21.0387 9.80639 21.0366 9.70511 21.0381ZM10.6942 21.0357C10.4537 20.8209 10.2112 20.6095 9.98284 20.3788C9.90248 20.2975 9.8201 20.2192 9.73927 20.1392C9.94502 20.1414 10.1496 20.1425 10.3555 20.1448C10.624 20.4445 10.9062 20.7597 11.2127 21.0378C11.0399 21.0378 10.867 21.0349 10.6942 21.0357ZM11.9926 21.0409C11.7771 20.8941 11.5666 20.7405 11.3675 20.5616C11.2217 20.4305 11.0843 20.29 10.9465 20.1502C11.1725 20.1523 11.3999 20.1555 11.6244 20.1564C11.7828 20.1571 11.9409 20.1528 12.0993 20.1516C12.3046 20.3882 12.5149 20.6202 12.7377 20.8406C12.798 20.9002 12.8702 20.9744 12.9503 21.0502C12.631 21.0469 12.3118 21.0425 11.9926 21.0409ZM13.7059 21.0573C13.6622 21.0212 13.6139 20.9868 13.5587 20.9437C13.3556 20.7849 13.1618 20.6153 12.9733 20.4394C12.8727 20.3455 12.779 20.2442 12.6828 20.1456C12.9865 20.1404 13.2904 20.133 13.5938 20.1252C13.9108 20.3998 14.1824 20.746 14.4724 21.067C14.217 21.0638 13.9615 21.0604 13.7059 21.0573ZM15.1577 21.0756C14.8659 20.7597 14.566 20.4162 14.2433 20.1092C14.4348 20.1042 14.6265 20.1013 14.8181 20.0969C15.19 20.3894 15.5161 20.7423 15.8529 21.0817C15.6212 21.0791 15.3892 21.0786 15.1577 21.0756ZM16.4452 21.0869C16.1075 20.7388 15.7433 20.3861 15.3544 20.0853C15.6178 20.0807 15.8814 20.0841 16.1449 20.0828C16.4013 20.332 16.6515 20.5873 16.898 20.8464C16.9725 20.9246 17.0471 21.0073 17.1227 21.0905C16.8972 21.0891 16.6713 21.0891 16.4452 21.0869ZM17.7711 21.0939C17.579 20.9106 17.3722 20.7389 17.1842 20.5603C17.0146 20.3995 16.8449 20.2389 16.6728 20.0811C16.7709 20.0819 16.869 20.0786 16.9673 20.0801C17.103 20.0825 17.2392 20.0882 17.3752 20.0947C17.658 20.3245 17.9079 20.5863 18.1532 20.8648C18.2172 20.9374 18.279 21.014 18.3411 21.0904C18.1513 21.0906 17.9612 21.0945 17.7711 21.0939ZM18.9195 21.0872C18.7346 20.8787 18.5329 20.6817 18.3477 20.4878C18.2235 20.3577 18.0903 20.2377 17.953 20.1224C18.2108 20.1338 18.4685 20.1409 18.7257 20.1292C18.7339 20.1288 18.741 20.1291 18.7491 20.1288C19.0211 20.3455 19.266 20.59 19.5003 20.8526C19.5613 20.9209 19.6221 21.0001 19.6844 21.0827C19.4294 21.0845 19.1745 21.0858 18.9195 21.0872ZM19.8463 19.7186C19.8134 19.8347 19.8417 19.9351 19.9026 20.0084C19.9303 20.2536 19.951 20.4997 19.9718 20.7457C19.8674 20.6579 19.7665 20.574 19.6809 20.4958C19.5377 20.3646 19.3877 20.2425 19.2323 20.1287C19.5416 20.1284 19.7426 20.0845 19.8463 19.7186ZM1.1293 8.70689C1.34747 8.53943 1.55807 8.3631 1.77187 8.19066C1.77411 8.26417 1.789 8.33946 1.81938 8.41297C1.84313 8.47052 1.87433 8.53387 1.91002 8.59781C1.64943 8.63114 1.38859 8.66293 1.1293 8.70689ZM2.31339 8.5451C2.164 8.37586 2.01367 8.18877 2.09758 8.04825C2.12429 8.00346 2.12027 7.96068 2.10077 7.9264C2.24992 7.80337 2.39564 7.67621 2.54314 7.55129C2.66546 7.68094 2.78624 7.812 2.91069 7.93964C3.07674 8.11018 3.25023 8.3001 3.44465 8.45173C3.06681 8.47525 2.68933 8.50421 2.31339 8.5451ZM3.91679 8.42751C3.91029 8.4073 3.90072 8.38732 3.88547 8.36841C3.68184 8.11443 3.39146 7.91766 3.14718 7.70304C3.0193 7.59064 2.8958 7.47352 2.77052 7.35829C2.90206 7.24543 3.02911 7.12724 3.15959 7.01319C3.41995 7.25854 3.64698 7.53616 3.87117 7.81696C4.01713 7.9998 4.18153 8.24101 4.37889 8.41592C4.2249 8.42089 4.07043 8.42041 3.91679 8.42751ZM4.89229 8.40304C4.66336 8.07732 4.29026 7.81247 4.01914 7.5143C3.80535 7.27911 3.5925 7.04735 3.3579 6.83733C3.46817 6.74007 3.57642 6.6402 3.68633 6.54235C3.95473 6.90588 4.22762 7.26599 4.51374 7.61605C4.71737 7.86518 4.96024 8.18369 5.24424 8.40056C5.12688 8.40186 5.00953 8.40068 4.89229 8.40304ZM5.76543 8.39666C5.5306 8.05558 5.14 7.79286 4.85258 7.49243C4.50961 7.13398 4.20209 6.74373 3.89824 6.35195C3.96927 6.28825 4.03852 6.22219 4.10943 6.15837C4.74586 6.89678 5.31598 7.68944 5.98727 8.39831C5.91328 8.39831 5.8393 8.39642 5.76543 8.39666ZM6.2884 8.40056C6.29537 8.3618 6.28875 8.31948 6.25814 8.28108C5.63141 7.49314 5.00787 6.70048 4.31247 5.97199C4.52095 5.78337 4.72671 5.59108 4.93448 5.40163C5.40438 6.00461 5.7899 6.66999 6.226 7.29837C6.47809 7.66155 6.8207 8.14079 7.23671 8.40907C6.9208 8.40588 6.60466 8.40162 6.2884 8.40056ZM7.85151 8.4145C7.84619 8.40623 7.8469 8.39749 7.83921 8.38945C7.58535 8.12992 7.2659 7.95122 7.00472 7.69464C6.68042 7.37602 6.4158 6.99452 6.15284 6.6259C5.81566 6.15317 5.49302 5.67334 5.12038 5.23145C5.25724 5.10605 5.39386 4.98042 5.53072 4.85515C6.47289 6.03723 7.36045 7.36266 8.44444 8.41781C8.24636 8.41581 8.04946 8.41663 7.85151 8.4145ZM8.93029 8.42041C7.95279 7.12405 6.76728 5.93216 5.6775 4.72042C5.71213 4.68827 5.74759 4.65695 5.7821 4.62457C5.88634 4.52659 6.00901 4.39423 6.14528 4.24C7.25385 5.74697 8.49845 7.36668 10.0462 8.42656C9.67497 8.42739 9.30234 8.42301 8.93029 8.42041ZM10.6645 8.42183C9.09622 7.03967 7.64823 5.65904 6.28675 4.07785C6.44452 3.89525 6.61943 3.68808 6.80475 3.47121C7.05861 4.51773 8.35013 5.56331 9.06443 6.28388C9.77106 6.99677 10.5001 7.75055 11.283 8.41557C11.077 8.41722 10.8708 8.42053 10.6645 8.42183ZM12.0169 8.40812C11.1802 7.55743 10.2323 6.7929 9.37668 5.97187C8.5378 5.1668 7.804 4.0691 6.89646 3.36472C7.05955 3.17504 7.23175 2.97897 7.40891 2.78396C9.01787 4.75729 10.7774 6.88674 12.8396 8.39926C12.5653 8.4021 12.291 8.40564 12.0169 8.40812ZM13.5138 8.39193C13.5039 8.36818 13.4895 8.34537 13.4685 8.3248C11.5197 6.40407 9.53256 4.51962 7.58677 2.59062C7.79974 2.36311 8.01992 2.14234 8.2427 1.93906C11.0353 3.3347 12.3241 6.58997 14.7983 8.37929C14.3701 8.38425 13.9419 8.38721 13.5138 8.39193ZM15.5302 8.37219C14.1504 7.19189 12.9684 5.86834 11.7477 4.52116C10.7911 3.46553 9.75983 2.33616 8.4169 1.78448C8.67667 1.56099 8.93857 1.37083 9.19668 1.22653C10.9384 4.16117 14.1111 6.29853 16.8172 8.35955C16.3882 8.3644 15.9593 8.36747 15.5302 8.37219ZM9.44959 1.10267C9.86064 0.926461 10.2564 0.891951 10.6091 1.0957C11.6315 1.68639 12.4711 2.70348 13.3299 3.66775C12.3639 2.89352 11.4119 2.10535 10.5085 1.24839C10.4068 1.15184 10.2603 1.2991 10.3551 1.40168C11.5756 2.72133 12.961 3.87138 14.3441 5.01458C15.6228 6.0715 16.777 7.28159 18.0388 8.34773C17.8823 8.3495 17.7258 8.35069 17.5695 8.35234C14.9916 5.74708 11.6659 4.08447 9.44959 1.10267ZM18.6131 8.34218C18.2157 7.76355 17.7214 7.24909 17.188 6.76962C17.9631 7.26788 18.7364 7.76851 19.4557 8.33402C19.1748 8.33556 18.8938 8.33922 18.6131 8.34218Z" fill="#F59C05"/>
<path d="M11.8842 15.5568C11.6377 15.0314 10.8845 14.9321 10.5411 15.4242C10.5197 15.4549 10.5114 15.4912 10.5116 15.5283C10.3067 15.8271 10.2091 16.2271 10.2781 16.5546C10.4048 17.1557 11.0943 17.2986 11.5704 16.9791C12.0096 16.6845 12.0968 16.0105 11.8842 15.5568ZM11.256 16.501C11.0494 16.6968 10.8069 16.5941 10.778 16.3421C10.7551 16.1418 10.8001 15.9156 10.8864 15.7162C11.0806 15.6582 11.2911 15.5821 11.3825 15.815C11.4711 16.0402 11.4349 16.3315 11.256 16.501Z" fill="#F59C05"/>
<path d="M6.304 10.7694C6.27729 10.6071 6.10664 10.5182 5.96009 10.5076C5.08434 10.4435 3.91172 10.4247 3.33509 11.2259C2.84262 11.9101 2.78424 13.381 3.25922 14.0713C3.32576 14.168 3.45493 14.2073 3.56047 14.1791C3.56886 14.2632 3.61673 14.3398 3.71517 14.3567C4.49247 14.4895 5.27864 14.4782 6.05948 14.5751C6.25271 14.599 6.37444 14.405 6.3917 14.2429C6.51532 13.0803 6.4944 11.9237 6.304 10.7694ZM5.64737 11.2C5.70386 11.5889 5.73376 11.9789 5.75031 12.3695C5.40616 12.3451 5.05444 12.3736 4.70993 12.3662C4.74243 11.9817 4.78486 11.5834 4.71821 11.2187C5.0282 11.1741 5.36101 11.1821 5.64737 11.2ZM4.20209 11.3702C4.15919 11.6823 4.16439 12.0154 4.1794 12.3444C4.00165 12.3358 3.8239 12.327 3.64639 12.3158C3.66034 12.117 3.70477 11.9199 3.81197 11.7263C3.90179 11.5639 4.03995 11.4519 4.20209 11.3702ZM3.77415 13.9224C3.75689 13.9209 3.74283 13.926 3.72747 13.9287C3.78821 13.5261 3.68988 13.1147 3.6536 12.7066C3.83312 12.7397 4.01607 12.774 4.20233 12.8067C4.20682 12.8897 4.2119 12.9741 4.21486 13.0542C4.22727 13.3889 4.24842 13.689 4.40147 13.9593C4.19217 13.9507 3.98298 13.9392 3.77415 13.9224ZM5.74109 13.9384C5.38098 13.9683 5.01993 13.9749 4.65888 13.9673C4.5934 13.6631 4.65616 13.2154 4.67708 12.8811C5.04699 12.9318 5.41585 12.9605 5.76272 12.9341C5.76378 13.2687 5.75787 13.6033 5.74109 13.9384Z" fill="#F59C05"/>
<path d="M17.5475 10.4669C17.5433 10.2764 17.3875 10.1023 17.1891 10.1086C16.8119 10.1204 16.437 10.1587 16.0624 10.1986C15.9853 9.9164 15.556 9.93531 15.5211 10.253C15.2169 10.2832 14.912 10.3098 14.6056 10.3169C14.406 10.3215 14.2695 10.4726 14.2569 10.6656C14.1876 11.7187 14.0268 12.7892 14.0944 13.8454C14.1051 14.0141 14.2109 14.1076 14.3322 14.1351C14.317 14.1717 14.3155 14.2115 14.3457 14.247C14.5821 14.5264 15.0521 14.4709 15.3881 14.4907C15.9464 14.5238 16.5333 14.5588 17.0899 14.4861C17.243 14.4661 17.3769 14.3961 17.4202 14.2346C17.7509 13.0012 17.5742 11.724 17.5475 10.4669ZM14.922 10.9972C15.1131 10.9866 15.3036 10.9674 15.4944 10.9505C15.4834 11.4074 15.4811 11.8653 15.488 12.3197C15.4882 12.3435 15.4891 12.3692 15.4894 12.3935C15.2632 12.4167 15.0369 12.4379 14.8108 12.4619C14.8409 11.9735 14.8734 11.4854 14.922 10.9972ZM14.766 13.9741C14.7406 13.9754 14.712 13.9765 14.684 13.9777C14.7027 13.9399 14.7152 13.8959 14.7193 13.8454C14.7459 13.5083 14.7671 13.1714 14.7876 12.8346C15.0263 12.8473 15.2652 12.8406 15.5041 12.8343C15.525 13.2074 15.5789 13.595 15.7189 13.927C15.6565 13.9302 15.5929 13.9329 15.5308 13.9368C15.2761 13.9535 15.0211 13.9605 14.766 13.9741ZM16.7837 13.8466C16.565 13.8784 16.3428 13.8942 16.1205 13.9063C16.0886 13.5464 16.0504 13.1913 16.0277 12.8321C16.3101 12.8413 16.5894 12.8556 16.8514 12.748C16.8437 13.1129 16.8277 13.4784 16.7837 13.8466ZM16.0097 12.3305C16.0097 12.327 16.0094 12.3232 16.0094 12.3196C16.009 11.8484 16.0547 11.3754 16.0741 10.9034C16.3273 10.88 16.5803 10.8557 16.8342 10.8423C16.8416 11.3519 16.8591 11.856 16.8593 12.3601C16.582 12.2496 16.3 12.288 16.0097 12.3305Z" fill="#F59C05"/>
</svg>
