<svg width="76" height="76" viewBox="0 0 76 76" fill="none" xmlns="http://www.w3.org/2000/svg">
<g clip-path="url(#clip0_371_9396)">
<path d="M71.8914 12.2491L54.0789 0.374063C53.7131 0.13018 53.2834 0 52.8439 0H17.2189C15.9892 0 14.9923 0.996906 14.9923 2.22656V47.7969H5.34387C4.11422 47.7969 3.11731 48.7938 3.11731 50.0234V67.8359C3.11731 72.3376 6.77971 76 11.2814 76H64.7189C69.2205 76 72.8829 72.3376 72.8829 67.8359V14.1016C72.8829 13.357 72.5109 12.6619 71.8914 12.2491ZM14.9923 67.8359C14.9923 69.8821 13.3276 71.5469 11.2814 71.5469C9.23516 71.5469 7.57043 69.8821 7.57043 67.8359V52.25H14.9923V67.8359ZM55.0704 6.38697L63.3026 11.875H55.0704V6.38697ZM68.4298 67.8359C68.4298 69.8821 66.7651 71.5469 64.7189 71.5469H18.5496C19.1209 70.4326 19.4454 69.1719 19.4454 67.8359V4.45312H50.6173V14.1016C50.6173 15.3312 51.6142 16.3281 52.8439 16.3281H68.4298V67.8359Z" fill="white"/>
<path d="M55.4336 41.856L55.433 41.8556C47.8051 37.4967 40.0702 37.4967 32.4423 41.8556L32.4417 41.856C31.7484 42.2522 31.3206 42.9895 31.3206 43.7879V50.6204C31.3206 54.2473 32.4442 57.8027 34.6165 60.7071C36.8037 63.6315 39.817 65.7084 43.326 66.711H43.3262C43.7258 66.8253 44.1496 66.8253 44.5492 66.711H44.5493C48.0584 65.7084 51.0716 63.6315 53.2589 60.7071C55.4311 57.8028 56.5548 54.2473 56.5548 50.6204V43.7879C56.5548 42.9895 56.1268 42.2522 55.4336 41.856ZM52.1017 50.7949C52.1017 55.9539 48.7753 60.5697 43.9376 62.2365C39.0999 60.5697 35.7735 55.9539 35.7735 50.7949V45.1184C41.2558 42.3525 46.6194 42.3525 52.1017 45.1184V50.7949Z" fill="white"/>
<path d="M26.1251 16.3281H43.9376C45.1673 16.3281 46.1642 15.3312 46.1642 14.1016C46.1642 12.8719 45.1673 11.875 43.9376 11.875H26.1251C24.8955 11.875 23.8986 12.8719 23.8986 14.1016C23.8986 15.3312 24.8955 16.3281 26.1251 16.3281Z" fill="white"/>
<path d="M26.1251 25.2344H35.0314C36.261 25.2344 37.2579 24.2375 37.2579 23.0078C37.2579 21.7782 36.261 20.7812 35.0314 20.7812H26.1251C24.8955 20.7812 23.8986 21.7782 23.8986 23.0078C23.8986 24.2375 24.8955 25.2344 26.1251 25.2344Z" fill="white"/>
<path d="M29.0939 29.6875H26.1251C24.8955 29.6875 23.8986 30.6844 23.8986 31.9141C23.8986 33.1437 24.8955 34.1406 26.1251 34.1406H29.0939C30.3235 34.1406 31.3204 33.1437 31.3204 31.9141C31.3204 30.6844 30.3235 29.6875 29.0939 29.6875Z" fill="white"/>
<path d="M35.7736 31.9141C35.7736 33.1437 36.7705 34.1406 38.0001 34.1406H43.9376C45.1673 34.1406 46.1642 33.1437 46.1642 31.9141C46.1642 30.6844 45.1673 29.6875 43.9376 29.6875H38.0001C36.7705 29.6875 35.7736 30.6844 35.7736 31.9141Z" fill="white"/>
<path d="M61.7501 29.6875H52.8439C51.6142 29.6875 50.6173 30.6844 50.6173 31.9141C50.6173 33.1437 51.6142 34.1406 52.8439 34.1406H61.7501C62.9798 34.1406 63.9767 33.1437 63.9767 31.9141C63.9767 30.6844 62.9798 29.6875 61.7501 29.6875Z" fill="white"/>
<path d="M41.7111 23.0078C41.7111 24.2375 42.708 25.2344 43.9376 25.2344H61.7501C62.9798 25.2344 63.9767 24.2375 63.9767 23.0078C63.9767 21.7782 62.9798 20.7812 61.7501 20.7812H43.9376C42.708 20.7812 41.7111 21.7782 41.7111 23.0078Z" fill="white"/>
</g>
<defs>
<clipPath id="clip0_371_9396">
<rect width="76" height="76" fill="white"/>
</clipPath>
</defs>
</svg>
