<svg width="77" height="78" viewBox="0 0 77 78" fill="none" xmlns="http://www.w3.org/2000/svg">
<path d="M62.4714 32.2626C62.6262 31.6846 62.5451 31.0689 62.246 30.5509L57.7343 22.7363C57.4352 22.2182 56.9423 21.8401 56.3645 21.6852C55.7869 21.5304 55.1709 21.6113 54.6528 21.9106L51.6693 23.633C49.7997 22.0472 47.6289 20.8072 45.2678 19.9766V16.4922C45.2678 15.2464 44.2578 14.2363 43.0119 14.2363H33.9885C32.7427 14.2363 31.7326 15.2464 31.7326 16.4922V19.9766C29.3715 20.8072 27.2006 22.0472 25.3311 23.633L22.3477 21.9106C21.8296 21.6113 21.2131 21.5303 20.6359 21.6852C20.058 21.8399 19.5653 22.218 19.2662 22.7363L14.7544 30.5509C14.4553 31.0689 14.3743 31.6848 14.529 32.2626C14.6839 32.8406 15.062 33.3332 15.5801 33.6324L18.5908 35.3704C18.3241 36.6672 18.1973 37.865 18.1973 39.0508C18.1973 40.2366 18.3241 41.4343 18.5905 42.7311L15.5798 44.4692C15.0617 44.7683 14.6836 45.2612 14.5287 45.839C14.374 46.4169 14.455 47.0326 14.7541 47.5507L19.2659 55.3653C19.565 55.8834 20.0578 56.2615 20.6356 56.4164C21.2137 56.5714 21.8294 56.4902 22.3474 56.191L25.3308 54.4685C27.2005 56.0544 29.3712 57.2944 31.7323 58.125V61.6094C31.7323 62.8552 32.7424 63.8652 33.9882 63.8652H43.0116C44.2575 63.8652 45.2675 62.8552 45.2675 61.6094V58.125C47.6286 57.2944 49.7995 56.0544 51.669 54.4685L54.6525 56.191C55.1706 56.4901 55.7867 56.5711 56.3642 56.4164C56.9422 56.2616 57.4349 55.8836 57.734 55.3653L62.2457 47.5507C62.5448 47.0326 62.6259 46.4168 62.4711 45.839C62.3162 45.261 61.9382 44.7683 61.4201 44.4692L58.4094 42.7311C58.676 41.4343 58.8028 40.2366 58.8028 39.0508C58.8028 37.865 58.676 36.6672 58.4097 35.3704L61.4204 33.6324C61.9384 33.3332 62.3164 32.8406 62.4714 32.2626ZM53.6459 34.8642C54.0861 36.4502 54.2911 37.7804 54.2911 39.0508C54.2911 40.3211 54.0861 41.6513 53.6459 43.2374C53.371 44.2284 53.801 45.2801 54.6917 45.7943L57.2108 47.2484L54.9549 51.1556L52.4843 49.7293C51.5937 49.2151 50.468 49.3682 49.7473 50.1018C47.7847 52.099 45.2594 53.5415 42.4441 54.2735C41.45 54.532 40.7558 55.4295 40.7558 56.4568V59.3535H36.2441V56.4568C36.2441 55.4295 35.55 54.532 34.5558 54.2735C31.7405 53.5415 29.2151 52.0991 27.2525 50.1018C26.5317 49.368 25.4056 49.2149 24.5155 49.7293L22.0449 51.1556L19.7891 47.2484L22.3081 45.7943C23.1989 45.2801 23.6288 44.2284 23.3539 43.2374C22.914 41.6513 22.7091 40.3211 22.7091 39.0508C22.7091 37.7804 22.914 36.4502 23.3542 34.8642C23.6291 33.8731 23.1992 32.8215 22.3084 32.3073L19.7894 30.8531L22.0452 26.946L24.5159 28.3723C25.4065 28.8863 26.532 28.7334 27.2528 27.9998C29.2154 26.0026 31.7408 24.56 34.5561 23.8281C35.5502 23.5696 36.2444 22.672 36.2444 21.6447V18.748H40.7561V21.6447C40.7561 22.672 41.4501 23.5696 42.4444 23.8281C45.2597 24.56 47.785 26.0024 49.7476 27.9998C50.4683 28.7334 51.5943 28.8863 52.4846 28.3723L54.9552 26.946L57.2111 30.8531L54.692 32.3073C53.801 32.8215 53.371 33.8731 53.6459 34.8642Z" fill="white"/>
<path d="M38.5 27.7715C32.2806 27.7715 27.2207 32.8314 27.2207 39.0508C27.2207 45.2702 32.2806 50.3301 38.5 50.3301C44.7194 50.3301 49.7793 45.2702 49.7793 39.0508C49.7793 32.8314 44.7194 27.7715 38.5 27.7715ZM38.5 45.8184C34.7684 45.8184 31.7324 42.7824 31.7324 39.0508C31.7324 35.3191 34.7684 32.2832 38.5 32.2832C42.2316 32.2832 45.2676 35.3191 45.2676 39.0508C45.2676 42.7824 42.2316 45.8184 38.5 45.8184Z" fill="white"/>
<path d="M68.8072 18.3142C69.7245 17.3968 69.3522 16.0054 69.3522 16.0054L66.1619 6.43451C65.7679 5.25244 64.4902 4.61358 63.3084 5.00776C62.1265 5.40178 61.4878 6.67935 61.8817 7.86127L62.1528 8.67473C60.1286 7.13398 57.9472 5.7761 55.6507 4.63704C50.2613 1.96385 44.3306 0.550781 38.5 0.550781C28.2719 0.550781 18.6193 4.57087 11.3198 11.8704C4.01994 19.17 0 28.8229 0 39.0508C0 43.7747 0.992428 48.614 2.94931 53.4346C3.30513 54.3111 4.14928 54.8424 5.04019 54.8424C5.32277 54.8424 5.61017 54.789 5.88809 54.6762C7.04249 54.2074 7.59834 52.8918 7.12972 51.7374C5.39241 47.4585 4.51172 43.1901 4.51172 39.0508C4.51172 20.3096 19.7588 5.0625 38.5 5.0625C45.379 5.0625 52.3232 7.35084 58.0926 11.3197C56.9899 11.093 55.8665 11.7204 55.5015 12.8151C55.1076 13.9971 55.7463 15.2746 56.9283 15.6686L66.4991 18.8589C66.4991 18.8589 67.8478 19.2735 68.8072 18.3142Z" fill="white"/>
<path d="M7.64711 62.0962L10.8373 71.667C11.1526 72.6124 12.0325 73.2103 12.9773 73.2102C13.2137 73.2102 13.4543 73.1727 13.6909 73.0939C14.8728 72.6999 15.5115 71.4225 15.1176 70.2404L14.8465 69.427C16.8707 70.9677 19.0521 72.3256 21.3486 73.4648C26.7386 76.1378 32.6693 77.5509 38.4999 77.5509C48.728 77.5509 58.3806 73.531 65.6801 66.2313C72.98 58.9317 76.9999 49.2788 76.9999 39.0509C76.9999 34.327 76.0075 29.4877 74.0506 24.6671C73.582 23.5127 72.2661 22.957 71.1118 23.4255C69.9574 23.8942 69.4016 25.2099 69.8702 26.3643C71.6075 30.6432 72.4882 34.9116 72.4882 39.0509C72.4882 57.7921 57.2411 73.0392 38.4999 73.0392C31.621 73.0392 24.6767 70.7509 18.9073 66.7819C20.0101 67.0085 21.1334 66.3813 21.4984 65.2864C21.8923 64.1045 21.2536 62.8269 20.0716 62.4329L10.5008 59.2427C9.1635 58.7969 8.19198 59.7877 8.19198 59.7877C7.25489 60.7246 7.64711 62.0962 7.64711 62.0962Z" fill="white"/>
</svg>
