<svg width="76" height="77" viewBox="0 0 76 77" fill="none" xmlns="http://www.w3.org/2000/svg">
<path d="M53.4405 15.0853C47.6886 10.4089 40.149 8.61147 32.7533 10.1527C23.1433 12.156 15.5463 20.0851 13.8811 29.7636C12.4199 38.2523 15.3434 46.3137 21.064 51.7907C24.7517 55.3213 26.8669 60.2342 26.8669 65.2694V69.8709C26.8669 73.554 29.8635 76.5506 33.5465 76.5506H42.4527C46.1358 76.5506 49.1323 73.554 49.1323 69.8709C49.1323 65.8023 49.1323 73.6787 49.1323 63.9439C49.1323 59.6306 51.1397 55.3648 54.7851 51.9328C59.6823 47.322 62.491 40.8215 62.491 34.0978C62.4916 26.6917 59.1924 19.7622 53.4405 15.0853ZM42.4527 72.0969H33.5465C32.319 72.0969 31.32 71.0979 31.32 69.8704V67.4954H44.6792V69.8704C44.6792 71.0979 43.6802 72.0969 42.4527 72.0969ZM37.9996 47.896L31.9584 38.8345L33.5465 37.2463L36.4254 40.1252C37.2946 40.9943 38.7047 40.9943 39.5739 40.1252L42.4527 37.2463L44.0409 38.8345L37.9996 47.896ZM51.7329 48.6904C47.4305 52.7411 44.957 57.8064 44.7013 63.0423H40.2262V52.5839L48.636 39.9692L52.9331 35.6721C53.8029 34.8023 53.8029 33.3928 52.9331 32.523C52.0634 31.6539 50.6538 31.6539 49.7841 32.523L46.9058 35.4019L44.0269 32.523C43.1572 31.6539 41.7476 31.6539 40.8779 32.523L37.999 35.4019L35.1208 32.523C34.251 31.6539 32.8415 31.6539 31.9717 32.523L29.0929 35.4019L26.214 32.523C25.3449 31.6539 23.9353 31.6539 23.0656 32.523C22.1958 33.3928 22.1958 34.8023 23.0656 35.6721L27.3627 39.9692L35.7725 52.5839V63.0423H31.2087C30.6671 57.5971 28.1594 52.4193 24.1435 48.5738C19.2427 43.8824 17.102 37.3014 18.2692 30.5186C19.6353 22.579 25.8209 16.1463 33.6613 14.5118C39.7385 13.2449 45.9236 14.7136 50.6306 18.5405C55.3382 22.3679 58.0379 28.038 58.0379 34.0973C58.0385 39.6798 55.7992 44.8624 51.7329 48.6904Z" fill="white"/>
<path d="M8.90617 34.0971C8.90617 32.8679 7.90944 31.8706 6.67963 31.8706H2.22654C0.997305 31.8706 0 32.8679 0 34.0971C0 35.327 0.997305 36.3237 2.22654 36.3237H6.67963C7.90944 36.3237 8.90617 35.327 8.90617 34.0971Z" fill="white"/>
<path d="M73.7728 31.8706H69.3197C68.0899 31.8706 67.0931 32.8679 67.0931 34.0971C67.0931 35.327 68.0899 36.3237 69.3197 36.3237H73.7728C75.002 36.3237 75.9993 35.327 75.9993 34.0971C75.9993 32.8679 75.002 31.8706 73.7728 31.8706Z" fill="white"/>
<path d="M12.1172 16.5835L8.26079 14.3569C7.19623 13.7417 5.83421 14.107 5.21959 15.1722C4.60497 16.2367 4.96968 17.5987 6.03425 18.2134L9.89069 20.4399C10.9553 21.0545 12.3179 20.6904 12.9325 19.6252C13.5471 18.5601 13.1824 17.1987 12.1172 16.5835Z" fill="white"/>
<path d="M69.9644 49.9814L66.108 47.7549C65.0428 47.1397 63.6814 47.505 63.0668 48.5695C62.4516 49.6347 62.8163 50.9961 63.8814 51.6113L67.7379 53.8379C68.8019 54.4525 70.1639 54.0884 70.7791 53.0226C71.3943 51.9581 71.0296 50.596 69.9644 49.9814Z" fill="white"/>
<path d="M20.4853 7.74755C21.1005 8.8127 22.4625 9.17683 23.5271 8.56221C24.5916 7.94759 24.9569 6.58557 24.3417 5.52101L22.1152 1.66457C21.5006 0.599424 20.1386 0.234712 19.074 0.84933C18.0088 1.46453 17.6441 2.82597 18.2588 3.89111L20.4853 7.74755Z" fill="white"/>
<path d="M9.89069 47.7549L6.03425 49.9814C4.96968 50.596 4.60497 51.9581 5.21959 53.0226C5.83479 54.0884 7.19681 54.4525 8.26079 53.8379L12.1172 51.6113C13.1824 50.9961 13.5471 49.6347 12.9325 48.5695C12.3179 47.505 10.9558 47.1397 9.89069 47.7549Z" fill="white"/>
<path d="M66.108 20.4396L69.9644 18.2131C71.0296 17.5985 71.3943 16.2365 70.7791 15.1719C70.1645 14.1067 68.803 13.742 67.7379 14.3567L63.8814 16.5832C62.8163 17.1984 62.4516 18.5598 63.0668 19.625C63.6814 20.6895 65.0428 21.0548 66.108 20.4396Z" fill="white"/>
<path d="M52.4722 8.56221C53.5362 9.17683 54.8982 8.81328 55.5134 7.74755L57.7399 3.89111C58.3551 2.82597 57.9898 1.46453 56.9253 0.84933C55.8601 0.234712 54.4981 0.599424 53.8835 1.66457L51.6569 5.52101C51.0423 6.58557 51.407 7.94759 52.4722 8.56221Z" fill="white"/>
</svg>
