<svg width="71" height="79" viewBox="0 0 71 79" fill="none" xmlns="http://www.w3.org/2000/svg">
<path d="M16.9432 0C12.9623 0 9.68182 2.97412 9.68182 6.58333V8.77778H7.26136C3.28044 8.77778 0 11.7519 0 15.3611V72.4167C0 76.0259 3.28044 79 7.26136 79H54.0568C58.0377 79 61.3182 76.0259 61.3182 72.4167V70.2222H63.7386C67.7196 70.2222 71 67.2481 71 63.6389V6.58333C71 2.97412 67.7196 0 63.7386 0H16.9432ZM16.9432 4.38889H63.7386C65.1214 4.38889 66.1591 5.32965 66.1591 6.58333V63.6389C66.1591 64.8926 65.1214 65.8333 63.7386 65.8333H58.8977C58.2558 65.8334 57.6402 66.0646 57.1863 66.4761C56.7324 66.8877 56.4773 67.4458 56.4773 68.0278V72.4167C56.4773 73.6703 55.4396 74.6111 54.0568 74.6111H7.26136C5.87856 74.6111 4.84091 73.6703 4.84091 72.4167V15.3611C4.84091 14.1074 5.87856 13.1667 7.26136 13.1667H12.1023C12.7442 13.1666 13.3598 12.9354 13.8137 12.5239C14.2676 12.1123 14.5227 11.5542 14.5227 10.9722V6.58333C14.5227 5.32965 15.5604 4.38889 16.9432 4.38889ZM20.1705 8.77778C19.8497 8.77367 19.5313 8.82739 19.2336 8.93582C18.936 9.04426 18.6651 9.20525 18.4367 9.40943C18.2083 9.61361 18.0269 9.85691 17.9031 10.1252C17.7793 10.3935 17.7155 10.6814 17.7155 10.9722C17.7155 11.263 17.7793 11.551 17.9031 11.8192C18.0269 12.0875 18.2083 12.3308 18.4367 12.535C18.6651 12.7392 18.936 12.9002 19.2336 13.0086C19.5313 13.1171 19.8497 13.1708 20.1705 13.1667H54.0568C55.4396 13.1667 56.4773 14.1074 56.4773 15.3611V60.713C56.4727 61.0038 56.532 61.2925 56.6516 61.5623C56.7712 61.8322 56.9488 62.0778 57.174 62.2848C57.3992 62.4919 57.6675 62.6564 57.9635 62.7686C58.2594 62.8809 58.577 62.9387 58.8977 62.9387C59.2185 62.9387 59.5361 62.8809 59.832 62.7686C60.1279 62.6564 60.3963 62.4919 60.6215 62.2848C60.8467 62.0778 61.0243 61.8322 61.1439 61.5623C61.2635 61.2925 61.3227 61.0038 61.3182 60.713V15.3611C61.3182 11.7519 58.0377 8.77778 54.0568 8.77778H20.1705Z" fill="white"/>
<path d="M18.304 45.091C18.0148 45.0869 17.7278 45.1404 17.4595 45.2482C17.1912 45.356 16.947 45.516 16.7411 45.7191C16.5352 45.9221 16.3717 46.164 16.2601 46.4307C16.1485 46.6974 16.0911 46.9837 16.0911 47.2729C16.0911 47.562 16.1485 47.8483 16.2601 48.115C16.3717 48.3818 16.5352 48.6237 16.7411 48.8267C16.947 49.0297 17.1912 49.1897 17.4595 49.2975C17.7278 49.4053 18.0148 49.4588 18.304 49.4547H42.9687C43.2578 49.4588 43.5449 49.4053 43.8132 49.2975C44.0815 49.1897 44.3257 49.0297 44.5316 48.8267C44.7375 48.6237 44.901 48.3818 45.0126 48.115C45.1242 47.8483 45.1816 47.562 45.1816 47.2729C45.1816 46.9837 45.1242 46.6974 45.0126 46.4307C44.901 46.164 44.7375 45.9221 44.5316 45.7191C44.3257 45.516 44.0815 45.356 43.8132 45.2482C43.5449 45.1404 43.2578 45.0869 42.9687 45.091H18.304Z" fill="white"/>
<path d="M18.304 53.8181C18.0148 53.814 17.7278 53.8674 17.4595 53.9752C17.1912 54.083 16.947 54.2431 16.7411 54.4461C16.5352 54.6491 16.3717 54.891 16.2601 55.1578C16.1485 55.4245 16.0911 55.7108 16.0911 55.9999C16.0911 56.2891 16.1485 56.5753 16.2601 56.8421C16.3717 57.1088 16.5352 57.3507 16.7411 57.5537C16.947 57.7567 17.1912 57.9168 17.4595 58.0246C17.7278 58.1324 18.0148 58.1858 18.304 58.1817H32.7869C33.076 58.1858 33.3631 58.1324 33.6314 58.0246C33.8997 57.9168 34.1439 57.7567 34.3498 57.5537C34.5557 57.3507 34.7191 57.1088 34.8307 56.8421C34.9423 56.5753 34.9998 56.2891 34.9998 55.9999C34.9998 55.7108 34.9423 55.4245 34.8307 55.1578C34.7191 54.891 34.5557 54.6491 34.3498 54.4461C34.1439 54.2431 33.8997 54.083 33.6314 53.9752C33.3631 53.8674 33.076 53.814 32.7869 53.8181H18.304ZM40.0596 53.8181C39.7705 53.814 39.4835 53.8674 39.2152 53.9752C38.9469 54.083 38.7027 54.2431 38.4968 54.4461C38.2909 54.6491 38.1274 54.891 38.0158 55.1578C37.9042 55.4245 37.8467 55.7108 37.8467 55.9999C37.8467 56.2891 37.9042 56.5753 38.0158 56.8421C38.1274 57.1088 38.2909 57.3507 38.4968 57.5537C38.7027 57.7567 38.9469 57.9168 39.2152 58.0246C39.4835 58.1324 39.7705 58.1858 40.0596 58.1817H42.9687C43.2578 58.1858 43.5449 58.1324 43.8132 58.0246C44.0815 57.9168 44.3257 57.7567 44.5316 57.5537C44.7375 57.3507 44.901 57.1088 45.0126 56.8421C45.1242 56.5753 45.1816 56.2891 45.1816 55.9999C45.1816 55.7108 45.1242 55.4245 45.0126 55.1578C44.901 54.891 44.7375 54.6491 44.5316 54.4461C44.3257 54.2431 44.0815 54.083 43.8132 53.9752C43.5449 53.8674 43.2578 53.814 42.9687 53.8181H40.0596Z" fill="white"/>
<path d="M18.304 62.5456C18.0148 62.5415 17.7278 62.595 17.4595 62.7028C17.1912 62.8106 16.947 62.9706 16.7411 63.1736C16.5352 63.3766 16.3717 63.6186 16.2601 63.8853C16.1485 64.152 16.0911 64.4383 16.0911 64.7274C16.0911 65.0166 16.1485 65.3029 16.2601 65.5696C16.3717 65.8363 16.5352 66.0782 16.7411 66.2813C16.947 66.4843 17.1912 66.6443 17.4595 66.7521C17.7278 66.8599 18.0148 66.9134 18.304 66.9093H37.1505C37.4397 66.9134 37.7267 66.8599 37.995 66.7521C38.2633 66.6443 38.5075 66.4843 38.7134 66.2813C38.9193 66.0782 39.0828 65.8363 39.1944 65.5696C39.306 65.3029 39.3634 65.0166 39.3634 64.7274C39.3634 64.4383 39.306 64.152 39.1944 63.8853C39.0828 63.6186 38.9193 63.3766 38.7134 63.1736C38.5075 62.9706 38.2633 62.8106 37.995 62.7028C37.7267 62.595 37.4397 62.5415 37.1505 62.5456H18.304Z" fill="white"/>
<path d="M30.6022 17.4543C30.0806 17.4625 29.5791 17.6572 29.1888 18.0033C28.7984 18.3494 28.545 18.8238 28.4743 19.3407C26.3438 20.2087 24.8181 22.3032 24.8181 24.7271C24.8181 26.424 25.6376 27.9045 26.5937 28.8606C27.5497 29.8167 28.605 30.4146 29.5141 30.96C30.4232 31.5055 31.1861 31.9985 31.5937 32.406C32.0012 32.8136 32.0908 32.9695 32.0908 33.4543C32.0908 34.2835 31.4654 34.9089 30.6363 34.9089C29.8071 34.9089 29.1817 34.2835 29.1817 33.4543C29.1858 33.1652 29.1324 32.8782 29.0246 32.6099C28.9168 32.3416 28.7567 32.0974 28.5537 31.8915C28.3507 31.6856 28.1088 31.5221 27.8421 31.4105C27.5753 31.2989 27.2891 31.2414 26.9999 31.2414C26.7108 31.2414 26.4245 31.2989 26.1578 31.4105C25.891 31.5221 25.6491 31.6856 25.4461 31.8915C25.2431 32.0974 25.083 32.3416 24.9752 32.6099C24.8674 32.8782 24.814 33.1652 24.8181 33.4543C24.8181 35.8791 26.3453 37.9733 28.4772 38.8407C28.5508 39.3612 28.81 39.8377 29.2069 40.1824C29.6039 40.5272 30.1119 40.717 30.6377 40.717C31.1634 40.717 31.6715 40.5272 32.0685 40.1824C32.4654 39.8377 32.7245 39.3612 32.7982 38.8407C34.9287 37.9727 36.4545 35.8782 36.4545 33.4543C36.4545 31.7574 35.635 30.2769 34.6789 29.3208C33.7228 28.3647 32.6675 27.764 31.7584 27.2185C30.8493 26.6731 30.0864 26.1829 29.6789 25.7753C29.2713 25.3678 29.1817 25.2119 29.1817 24.7271C29.1817 23.8979 29.8071 23.2725 30.6363 23.2725C31.4654 23.2725 32.0908 23.8979 32.0908 24.7271C32.0867 25.0162 32.1401 25.3032 32.248 25.5715C32.3558 25.8398 32.5158 26.084 32.7188 26.2899C32.9218 26.4958 33.1637 26.6593 33.4305 26.7709C33.6972 26.8825 33.9835 26.9399 34.2726 26.9399C34.5618 26.9399 34.848 26.8825 35.1148 26.7709C35.3815 26.6593 35.6234 26.4958 35.8264 26.2899C36.0294 26.084 36.1895 25.8398 36.2973 25.5715C36.4051 25.3032 36.4585 25.0162 36.4545 24.7271C36.4545 22.3022 34.9272 20.208 32.7954 19.3407C32.7232 18.8127 32.4603 18.3293 32.0563 17.9818C31.6523 17.6343 31.135 17.4467 30.6022 17.4543V17.4543Z" fill="white"/>
</svg>
