<svg width="71" height="72" viewBox="0 0 71 72" fill="none" xmlns="http://www.w3.org/2000/svg">
<g clip-path="url(#clip0_371_9513)">
<path d="M64.4642 2.22021L33.2723 2.22021C29.6684 2.22021 26.7363 5.38404 26.7363 9.27264L26.7363 30.863L20.9446 27.7553C20.749 27.6501 20.5502 27.5507 20.3498 27.4566C22.0502 25.5413 23.0983 22.9461 23.0983 20.0909C23.0983 14.2139 18.6673 9.4322 13.2207 9.4322C7.77345 9.4322 3.34245 14.2139 3.34245 20.0909C3.34245 23.2846 4.65279 26.1532 6.72204 28.1083C2.91127 30.4217 0.000244147 34.9346 0.000244148 40.5252L0.00024415 47.7372C0.00024415 50.842 1.86852 53.4844 4.45616 54.4237L4.45616 66.9697C4.45616 68.2088 5.38732 69.2141 6.53624 69.2141L19.904 69.2141C21.0529 69.2141 21.9841 68.2088 21.9841 66.9697L21.9841 41.752L28.6436 45.3443C31.1922 46.719 34.6493 45.8995 36.2126 42.7696L43.6705 42.7696L35.7733 66.2023C35.3805 67.3672 35.9379 68.6554 37.0175 69.0785C38.2515 69.5631 39.3489 68.7279 39.6832 67.7366L48.0972 42.7696L49.5554 42.7696L58.0555 67.7436C58.3784 68.691 59.4677 69.5748 60.7255 69.0762C61.8035 68.6489 62.3571 67.3596 61.9606 66.1959L53.9869 42.7696L64.4642 42.7696C67.9982 42.7696 71.0002 39.6934 71.0002 35.7172L71.0002 9.27264C71.0002 5.29579 67.9982 2.22021 64.4642 2.22021ZM7.50261 20.0909C7.50261 16.6886 10.0675 13.9211 13.2201 13.9211C16.3733 13.9211 18.9382 16.6886 18.9382 20.0909C18.9382 23.4926 16.3733 26.2602 13.2201 26.2602C10.0675 26.2602 7.50261 23.4926 7.50261 20.0909ZM32.6575 40.3697C32.6521 40.3861 32.6466 40.403 32.6418 40.42C32.4998 40.8472 32.1792 41.2073 31.7864 41.3814C31.371 41.5638 30.9035 41.5445 30.5043 41.3294C26.5489 39.1943 20.8335 36.1135 20.8335 36.1135C19.4533 35.3688 17.8239 36.4536 17.8239 38.1212L17.8239 64.7253L8.61632 64.7253L8.61632 52.5452C8.61632 51.306 7.68462 50.3007 6.53624 50.3007C5.2259 50.3007 4.1604 49.151 4.1604 47.7372L4.1604 40.5252C4.1604 35.0409 8.29889 30.7496 13.2201 30.7496L15.0581 30.7496C16.4524 30.7496 17.845 31.1027 19.0893 31.7731C19.0893 31.7731 29.4068 37.3093 32.0345 38.7214C32.5973 39.023 32.8649 39.7314 32.6575 40.3697ZM66.8401 35.7172C66.8401 36.4028 66.5936 37.0463 66.1451 37.5303C65.7036 38.0072 65.091 38.2807 64.4642 38.2807L36.6649 38.2807C36.6611 38.2685 36.6584 38.2562 36.6546 38.2445L41.8169 27.1048C42.3304 25.996 41.9144 24.6482 40.8868 24.0935C39.8597 23.5394 38.6101 23.9883 38.096 25.097L33.6932 34.5979C32.8725 34.1566 31.9186 33.644 30.8964 33.0958L30.8964 9.27264C30.8964 7.85935 31.9619 6.70908 33.2723 6.70908L64.4642 6.70908C65.091 6.70908 65.7036 6.98262 66.1456 7.46073C66.5936 7.94351 66.8401 8.58703 66.8401 9.27264L66.8401 35.7172Z" fill="white"/>
<path d="M60.0084 13.5693L37.7283 13.5693C36.5794 13.5693 35.6482 14.5005 35.6482 15.6494C35.6482 16.7983 36.5794 17.7295 37.7283 17.7295L60.0084 17.7295C61.1568 17.7295 62.0885 16.7983 62.0885 15.6494C62.0885 14.5005 61.1573 13.5693 60.0084 13.5693Z" fill="white"/>
<path d="M60.0083 21.3677L48.8679 21.3677C47.7195 21.3677 46.7878 22.2988 46.7878 23.4478C46.7878 24.5967 47.7195 25.5278 48.8679 25.5278L60.0083 25.5278C61.1566 25.5278 62.0883 24.5967 62.0883 23.4478C62.0883 22.2988 61.1572 21.3677 60.0083 21.3677Z" fill="white"/>
<path d="M60.0083 29.166L48.8679 29.166C47.7195 29.166 46.7878 30.0972 46.7878 31.2461C46.7878 32.3945 47.7195 33.3262 48.8679 33.3262L60.0083 33.3262C61.1566 33.3262 62.0883 32.3945 62.0883 31.2461C62.0883 30.0972 61.1572 29.166 60.0083 29.166Z" fill="white"/>
</g>
<defs>
<clipPath id="clip0_371_9513">
<rect width="71" height="71" fill="white" transform="translate(0.000244141 0.220215)"/>
</clipPath>
</defs>
</svg>
