<svg width="23" height="23" viewBox="0 0 23 23" fill="none" xmlns="http://www.w3.org/2000/svg">
<path d="M11.5 10.8262C11.8721 10.8262 12.1738 10.5245 12.1738 10.1523C12.1738 9.7802 11.8721 9.47852 11.5 9.47852C11.1279 9.47852 10.8262 9.7802 10.8262 10.1523C10.8262 10.5245 11.1279 10.8262 11.5 10.8262Z" fill="#EC9D05"/>
<path d="M22.3262 17.5195H0.673828C0.301695 17.5195 0 17.8212 0 18.1934V22.3262C0 22.6983 0.301695 23 0.673828 23H22.3262C22.6983 23 23 22.6983 23 22.3262V18.1934C23 17.8212 22.6983 17.5195 22.3262 17.5195ZM21.6523 21.6523H17.5645V20.9336C17.5645 20.5615 17.2628 20.2598 16.8906 20.2598C16.5185 20.2598 16.2168 20.5615 16.2168 20.9336V21.6523H12.1738V20.9336C12.1738 20.5615 11.8721 20.2598 11.5 20.2598C11.1279 20.2598 10.8262 20.5615 10.8262 20.9336V21.6523H6.7832V20.9336C6.7832 20.5615 6.48151 20.2598 6.10938 20.2598C5.73724 20.2598 5.43555 20.5615 5.43555 20.9336V21.6523H1.34766V18.8672H2.74023V19.5859C2.74023 19.9581 3.04193 20.2598 3.41406 20.2598C3.7862 20.2598 4.08789 19.9581 4.08789 19.5859V18.8672H8.13086V19.5859C8.13086 19.9581 8.43255 20.2598 8.80469 20.2598C9.17682 20.2598 9.47852 19.9581 9.47852 19.5859V18.8672H13.5215V19.5859C13.5215 19.9581 13.8232 20.2598 14.1953 20.2598C14.5674 20.2598 14.8691 19.9581 14.8691 19.5859V18.8672H18.9121V19.5859C18.9121 19.9581 19.2138 20.2598 19.5859 20.2598C19.9581 20.2598 20.2598 19.9581 20.2598 19.5859V18.8672H21.6523V21.6523Z" fill="#EC9D05"/>
<path d="M2.10748 14.7905C2.21956 15.1455 2.59816 15.3422 2.95295 15.2301C3.30779 15.1181 3.50464 14.7395 3.3926 14.3847L3.18686 13.7331C3.57341 13.9628 4.02429 14.2125 4.53124 14.4626C6.15305 15.2628 8.6786 16.2168 11.4999 16.2168C14.3211 16.2168 16.8467 15.2628 18.4686 14.4626C18.934 14.233 19.3519 14.0038 19.7164 13.79L19.5329 14.3714C19.4208 14.7263 19.6176 15.1048 19.9725 15.2169C20.3281 15.3292 20.7061 15.1314 20.818 14.7772L21.576 12.3767C21.5761 12.3766 21.5761 12.3765 21.5761 12.3764C21.699 11.9848 21.4435 11.5805 21.0519 11.5105L18.6935 11.0893C18.3272 11.024 17.9772 11.2679 17.9118 11.6342C17.8463 12.0006 18.0903 12.3506 18.4567 12.416L19.1744 12.5442C18.7961 12.7708 18.3475 13.0208 17.841 13.2695C16.3548 13.9992 14.0482 14.8691 11.4999 14.8691C8.9515 14.8691 6.64499 13.9992 5.15875 13.2695C4.65221 13.0207 4.20362 12.7708 3.82538 12.5442L4.46879 12.4293C4.83513 12.3638 5.0791 12.0138 5.0137 11.6475C4.94825 11.2811 4.59817 11.0374 4.23192 11.1026L1.87352 11.5237C1.47408 11.5951 1.22683 12.0018 1.34942 12.39L2.10748 14.7905Z" fill="#EC9D05"/>
<path d="M11.5 13.5215C13.3577 13.5215 14.8691 12.0101 14.8691 10.1523C14.8691 9.0987 14.3613 8.10373 13.5215 7.471V2.02148C13.5215 0.906838 12.6146 0 11.5 0C10.3854 0 9.47852 0.906838 9.47852 2.02148V7.471C8.63875 8.10373 8.13086 9.09875 8.13086 10.1523C8.13086 12.0101 9.64226 13.5215 11.5 13.5215ZM11.5 1.34766C11.8715 1.34766 12.1738 1.64994 12.1738 2.02148V2.69531H10.8262V2.02148C10.8262 1.64994 11.1285 1.34766 11.5 1.34766ZM10.4913 8.41328C10.6986 8.29262 10.8262 8.0708 10.8262 7.83092V4.04297H12.1738V7.83087C12.1738 8.07075 12.3014 8.29258 12.5087 8.41324C13.1429 8.78232 13.5215 9.43247 13.5215 10.1523C13.5215 11.267 12.6146 12.1738 11.5 12.1738C10.3854 12.1738 9.47852 11.267 9.47852 10.1523C9.47852 9.43247 9.85712 8.78232 10.4913 8.41328Z" fill="#EC9D05"/>
</svg>
