<svg width="40" height="43" viewBox="0 0 40 43" fill="none" xmlns="http://www.w3.org/2000/svg">
<path d="M28.5185 11.094C27.2078 9.91359 25.6636 9.02184 23.9861 8.47655C22.3086 7.93126 20.5353 7.74462 18.781 7.92872C17.0267 8.11283 15.3308 8.66357 13.803 9.54524C12.2753 10.4269 10.9499 11.6198 9.91284 13.0466C8.87576 14.4734 8.15013 16.1023 7.783 17.8275C7.41586 19.5528 7.41543 21.336 7.78172 23.0614C8.14801 24.7868 8.87285 26.416 9.90924 27.8433C10.9456 29.2707 12.2704 30.4642 13.7977 31.3466C13.907 31.4017 13.9989 31.4859 14.0632 31.59C14.1275 31.6941 14.1617 31.8139 14.1621 31.9363V33.0625C14.1644 33.5172 14.2603 33.9665 14.4438 34.3825C14.6273 34.7986 14.8945 35.1724 15.2287 35.4806C14.9681 35.9585 14.8293 36.4932 14.8246 37.0375V38.3625C14.8246 39.241 15.1736 40.0836 15.7948 40.7048C16.416 41.326 17.2586 41.675 18.1371 41.675H18.7996C18.7996 42.0264 18.9392 42.3634 19.1877 42.6119C19.4362 42.8604 19.7732 43 20.1246 43C20.476 43 20.813 42.8604 21.0615 42.6119C21.31 42.3634 21.4496 42.0264 21.4496 41.675H22.1121C22.9906 41.675 23.8332 41.326 24.4544 40.7048C25.0756 40.0836 25.4246 39.241 25.4246 38.3625V37.0375C25.4198 36.4932 25.281 35.9585 25.0205 35.4806C25.3547 35.1724 25.6219 34.7986 25.8054 34.3825C25.9889 33.9665 26.0848 33.5172 26.0871 33.0625V31.9363C26.0881 31.8157 26.1219 31.6977 26.1849 31.595C26.2479 31.4923 26.3378 31.4087 26.4448 31.3532C28.1621 30.3553 29.6188 28.9651 30.6959 27.2964C31.773 25.6276 32.4399 23.7277 32.6421 21.7518C32.8444 19.776 32.5762 17.7803 31.8595 15.928C31.1428 14.0756 29.9979 12.4192 28.5185 11.094ZM22.7746 38.3625C22.7746 38.5382 22.7048 38.7067 22.5806 38.831C22.4563 38.9552 22.2878 39.025 22.1121 39.025H18.1371C17.9614 39.025 17.7929 38.9552 17.6686 38.831C17.5444 38.7067 17.4746 38.5382 17.4746 38.3625V37.0375C17.4746 36.8618 17.5444 36.6933 17.6686 36.569C17.7929 36.4448 17.9614 36.375 18.1371 36.375H22.1121C22.2878 36.375 22.4563 36.4448 22.5806 36.569C22.7048 36.6933 22.7746 36.8618 22.7746 37.0375V38.3625ZM25.1132 29.0875C24.6115 29.3771 24.1934 29.7917 23.8997 30.2909C23.6059 30.7902 23.4465 31.3571 23.4371 31.9363V33.0625C23.4371 33.2382 23.3673 33.4067 23.2431 33.531C23.1188 33.6552 22.9503 33.725 22.7746 33.725H17.4746C17.2989 33.725 17.1304 33.6552 17.0061 33.531C16.8819 33.4067 16.8121 33.2382 16.8121 33.0625V31.9363C16.8027 31.3571 16.6433 30.7902 16.3495 30.2909C16.0558 29.7917 15.6377 29.3771 15.136 29.0875C13.2368 27.9943 11.7522 26.304 10.9133 24.2796C10.0743 22.2552 9.92795 20.0103 10.497 17.8942C11.0661 15.778 12.3187 13.9093 14.0599 12.5788C15.8011 11.2483 17.9333 10.5307 20.1246 10.5375C22.3148 10.5336 24.4449 11.2534 26.1839 12.5849C27.9228 13.9164 29.1732 15.7852 29.7406 17.9006C30.3079 20.016 30.1606 22.2596 29.3214 24.2827C28.4822 26.3057 26.9981 27.9948 25.1 29.0875H25.1132Z" fill="#65B43B"/>
<path d="M25.9751 22.2638C25.7473 22.1337 25.486 22.0742 25.2243 22.0927C24.9627 22.1113 24.7124 22.2072 24.5052 22.3681C24.2981 22.5291 24.1434 22.7479 24.0607 22.9968C23.978 23.2458 23.9711 23.5137 24.0408 23.7666C24.1106 24.0195 24.2538 24.246 24.4524 24.4174C24.651 24.5889 24.896 24.6975 25.1564 24.7295C25.4167 24.7615 25.6807 24.7156 25.915 24.5974C26.1492 24.4792 26.3431 24.2942 26.472 24.0658C26.6442 23.7607 26.6886 23.3999 26.5955 23.0622C26.5024 22.7245 26.2793 22.4374 25.9751 22.2638Z" fill="#65B43B"/>
<path d="M19.2776 13.2339C18.9262 13.2725 18.6045 13.4492 18.3834 13.725C18.1622 14.0008 18.0597 14.3532 18.0983 14.7046C18.137 15.056 18.3137 15.3777 18.5895 15.5988C18.8653 15.82 19.2177 15.9225 19.5691 15.8839C20.5831 15.7607 21.6095 15.9757 22.4888 16.4956C23.3681 17.0155 24.0511 17.8112 24.4318 18.7591C24.5701 19.0743 24.8256 19.3234 25.1442 19.4535C25.4629 19.5837 25.8197 19.5847 26.1391 19.4565C26.4585 19.3282 26.7154 19.0806 26.8555 18.7663C26.9956 18.4519 27.0079 18.0953 26.8897 17.772C26.2961 16.2841 25.2287 15.0332 23.8527 14.2129C22.4767 13.3925 20.8688 13.0485 19.2776 13.2339Z" fill="#65B43B"/>
<path d="M20.1248 5.23751C20.4762 5.23751 20.8132 5.09791 21.0617 4.84942C21.3102 4.60094 21.4498 4.26392 21.4498 3.91251V1.92501C21.4498 1.57359 21.3102 1.23658 21.0617 0.98809C20.8132 0.739604 20.4762 0.600006 20.1248 0.600006C19.7734 0.600006 19.4364 0.739604 19.1879 0.98809C18.9394 1.23658 18.7998 1.57359 18.7998 1.92501V3.91251C18.7998 4.26392 18.9394 4.60094 19.1879 4.84942C19.4364 5.09791 19.7734 5.23751 20.1248 5.23751Z" fill="#65B43B"/>
<path d="M32.302 6.42338L30.8975 7.82788C30.7129 8.01356 30.5875 8.24976 30.537 8.50667C30.4866 8.76357 30.5134 9.02967 30.614 9.27137C30.7147 9.51306 30.8847 9.71952 31.1026 9.86469C31.3204 10.0099 31.5764 10.0872 31.8383 10.087C32.1882 10.0873 32.524 9.94915 32.7724 9.70275L34.1769 8.29825C34.3 8.17515 34.3976 8.029 34.4643 7.86815C34.5309 7.70731 34.5652 7.53491 34.5652 7.36082C34.5652 7.18672 34.5309 7.01432 34.4643 6.85348C34.3976 6.69263 34.3 6.54649 34.1769 6.42338C34.0538 6.30027 33.9076 6.20262 33.7468 6.136C33.5859 6.06937 33.4135 6.03508 33.2394 6.03508C33.0653 6.03508 32.893 6.06937 32.7321 6.136C32.5713 6.20262 32.4251 6.30027 32.302 6.42338Z" fill="#65B43B"/>
<path d="M38.6748 19.15H36.6873C36.3359 19.15 35.9989 19.2896 35.7504 19.5381C35.5019 19.7866 35.3623 20.1236 35.3623 20.475C35.3623 20.8264 35.5019 21.1634 35.7504 21.4119C35.9989 21.6604 36.3359 21.8 36.6873 21.8H38.6748C39.0262 21.8 39.3632 21.6604 39.6117 21.4119C39.8602 21.1634 39.9998 20.8264 39.9998 20.475C39.9998 20.1236 39.8602 19.7866 39.6117 19.5381C39.3632 19.2896 39.0262 19.15 38.6748 19.15Z" fill="#65B43B"/>
<path d="M32.772 31.2473C32.5233 30.9986 32.1861 30.859 31.8345 30.859C31.4829 30.859 31.1457 30.9986 30.8971 31.2473C30.6485 31.4959 30.5088 31.8331 30.5088 32.1847C30.5088 32.5363 30.6485 32.8735 30.8971 33.1221L32.3016 34.5266C32.4249 34.6506 32.5714 34.749 32.7329 34.8161C32.8944 34.8832 33.0675 34.9176 33.2423 34.9175C33.5049 34.9177 33.7617 34.8399 33.98 34.6939C34.1983 34.5479 34.3683 34.3403 34.4684 34.0975C34.5685 33.8548 34.5942 33.5877 34.5422 33.3303C34.4902 33.0729 34.3629 32.8367 34.1765 32.6518L32.772 31.2473Z" fill="#65B43B"/>
<path d="M7.47786 31.2473L6.07336 32.6518C5.82473 32.9004 5.68506 33.2376 5.68506 33.5892C5.68506 33.9408 5.82473 34.278 6.07336 34.5266C6.32198 34.7753 6.65919 34.9149 7.0108 34.9149C7.3624 34.9149 7.69961 34.7753 7.94823 34.5266L9.35273 33.1221C9.47584 32.999 9.57349 32.8529 9.64012 32.692C9.70674 32.5312 9.74103 32.3588 9.74103 32.1847C9.74103 32.0106 9.70674 31.8382 9.64012 31.6774C9.57349 31.5165 9.47584 31.3704 9.35273 31.2473C9.22963 31.1242 9.08348 31.0265 8.92263 30.9599C8.76179 30.8933 8.58939 30.859 8.4153 30.859C8.2412 30.859 8.0688 30.8933 7.90796 30.9599C7.74711 31.0265 7.60096 31.1242 7.47786 31.2473Z" fill="#65B43B"/>
<path d="M3.5625 19.15H1.575C1.22359 19.15 0.886569 19.2896 0.638083 19.5381C0.389598 19.7866 0.25 20.1236 0.25 20.475C0.25 20.8264 0.389598 21.1634 0.638083 21.4119C0.886569 21.6604 1.22359 21.8 1.575 21.8H3.5625C3.91391 21.8 4.25093 21.6604 4.49942 21.4119C4.7479 21.1634 4.8875 20.8264 4.8875 20.475C4.8875 20.1236 4.7479 19.7866 4.49942 19.5381C4.25093 19.2896 3.91391 19.15 3.5625 19.15Z" fill="#65B43B"/>
<path d="M7.47786 9.70275C7.72628 9.94915 8.06209 10.0873 8.41198 10.087C8.6738 10.0872 8.9298 10.0099 9.14769 9.86469C9.36557 9.71952 9.53557 9.51306 9.63622 9.27137C9.73686 9.02967 9.76365 8.76357 9.7132 8.50667C9.66274 8.24976 9.53731 8.01356 9.35273 7.82788L7.94823 6.42338C7.82513 6.30027 7.67898 6.20262 7.51813 6.136C7.35729 6.06937 7.18489 6.03508 7.0108 6.03508C6.8367 6.03508 6.6643 6.06937 6.50346 6.136C6.34261 6.20262 6.19646 6.30027 6.07336 6.42338C5.95025 6.54649 5.8526 6.69263 5.78597 6.85348C5.71935 7.01432 5.68506 7.18672 5.68506 7.36082C5.68506 7.53491 5.71935 7.70731 5.78597 7.86815C5.8526 8.029 5.95025 8.17515 6.07336 8.29825L7.47786 9.70275Z" fill="#65B43B"/>
</svg>
