<svg width="21" height="20" viewBox="0 0 21 20" fill="none" xmlns="http://www.w3.org/2000/svg">
<path d="M19.8422 10.6211C20.149 10.2786 20.3359 9.8266 20.3359 9.33203C20.3359 8.26598 19.4684 7.39844 18.4023 7.39844H14.6495C15.0211 6.27051 15.1797 4.77391 15.1797 4.13238V3.48828C15.1797 2.06687 14.023 0.910156 12.6016 0.910156H11.957C11.6614 0.910156 11.4036 1.11125 11.3318 1.39828L10.9808 2.80293C10.4888 4.77004 8.92688 6.94039 7.31039 7.33484C7.02723 6.61812 6.32812 6.10938 5.51172 6.10938H1.64453C1.28875 6.10938 1 6.39813 1 6.75391V18.3555C1 18.7113 1.28875 19 1.64453 19H5.51172C6.28043 19 6.94559 18.5493 7.25711 17.8979L9.47172 18.6361C10.1957 18.8775 10.9503 19 11.7138 19H17.1133C18.1793 19 19.0469 18.1325 19.0469 17.0664C19.0469 16.815 18.9988 16.5744 18.9111 16.354C19.7309 16.1301 20.3359 15.3786 20.3359 14.4883C20.3359 13.9937 20.149 13.5417 19.8422 13.1992C20.149 12.8568 20.3359 12.4047 20.3359 11.9102C20.3359 11.4156 20.149 10.9636 19.8422 10.6211ZM6.15625 17.0664C6.15625 17.4218 5.86707 17.7109 5.51172 17.7109H2.28906V7.39844H5.51172C5.86707 7.39844 6.15625 7.68762 6.15625 8.04297V17.0664ZM17.1133 11.2656H18.4023C18.7577 11.2656 19.0469 11.5548 19.0469 11.9102C19.0469 12.2655 18.7577 12.5547 18.4023 12.5547H17.1133C16.7575 12.5547 16.4688 12.8434 16.4688 13.1992C16.4688 13.555 16.7575 13.8438 17.1133 13.8438H18.4023C18.7577 13.8438 19.0469 14.1329 19.0469 14.4883C19.0469 14.8436 18.7577 15.1328 18.4023 15.1328H17.1133C16.7575 15.1328 16.4688 15.4216 16.4688 15.7773C16.4688 16.1331 16.7575 16.4219 17.1133 16.4219C17.4686 16.4219 17.7578 16.7111 17.7578 17.0664C17.7578 17.4218 17.4686 17.7109 17.1133 17.7109H11.7138C11.0891 17.7109 10.4716 17.6108 9.87906 17.4132L7.44531 16.6019V8.62648C8.45637 8.43441 9.44594 7.79418 10.3393 6.74617C11.2115 5.72266 11.9188 4.3657 12.2312 3.11574L12.4602 2.19922H12.6016C13.3123 2.19922 13.8906 2.77758 13.8906 3.48828V4.13238C13.8906 4.99777 13.6199 6.65766 13.2736 7.39844H11.957C11.6012 7.39844 11.3125 7.68719 11.3125 8.04297C11.3125 8.39875 11.6012 8.6875 11.957 8.6875H18.4023C18.7577 8.6875 19.0469 8.97668 19.0469 9.33203C19.0469 9.68738 18.7577 9.97656 18.4023 9.97656H17.1133C16.7575 9.97656 16.4688 10.2653 16.4688 10.6211C16.4688 10.9769 16.7575 11.2656 17.1133 11.2656Z" fill="#EC9D05" stroke="#EC9D05" stroke-width="0.5"/>
</svg>
