<svg width="177" height="71" viewBox="0 0 177 71" fill="none" xmlns="http://www.w3.org/2000/svg">
<path d="M8.60624 34.4092C8.62976 35.6049 8.65406 36.801 8.67914 37.9975V38.2754L8.51807 38.2671C8.52394 37.2343 8.52512 36.2015 8.53923 35.1688C8.54746 34.9156 8.47574 34.653 8.60624 34.4092Z" fill="#029A96"/>
<path d="M35.565 1.54507C35.9909 1.54507 36.3362 1.19919 36.3362 0.772533C36.3362 0.345875 35.9909 0 35.565 0C35.139 0 34.7937 0.345875 34.7937 0.772533C34.7937 1.19919 35.139 1.54507 35.565 1.54507Z" fill="#46AB37"/>
<path d="M38.5407 5.30764C38.8939 5.30764 39.1803 5.02082 39.1803 4.667C39.1803 4.31319 38.8939 4.02637 38.5407 4.02637C38.1875 4.02637 37.9011 4.31319 37.9011 4.667C37.9011 5.02082 38.1875 5.30764 38.5407 5.30764Z" fill="#46AB37"/>
<path d="M30.7763 2.43972C31.3192 2.43972 31.7592 1.99894 31.7592 1.45521C31.7592 0.911482 31.3192 0.470703 30.7763 0.470703C30.2335 0.470703 29.7935 0.911482 29.7935 1.45521C29.7935 1.99894 30.2335 2.43972 30.7763 2.43972Z" fill="#46AB37"/>
<path d="M29.3325 6.90406C30.0338 6.90406 30.6023 6.33463 30.6023 5.6322C30.6023 4.92978 30.0338 4.36035 29.3325 4.36035C28.6312 4.36035 28.0627 4.92978 28.0627 5.6322C28.0627 6.33463 28.6312 6.90406 29.3325 6.90406Z" fill="#46AB37"/>
<path d="M23.1532 12.1498C24.0888 12.1498 24.8474 11.3901 24.8474 10.4528C24.8474 9.51562 24.0888 8.75586 23.1532 8.75586C22.2175 8.75586 21.459 9.51562 21.459 10.4528C21.459 11.3901 22.2175 12.1498 23.1532 12.1498Z" fill="#46AB37"/>
<path d="M23.8372 6.1181C24.5372 6.1181 25.1046 5.54972 25.1046 4.8486C25.1046 4.14747 24.5372 3.5791 23.8372 3.5791C23.1373 3.5791 22.5698 4.14747 22.5698 4.8486C22.5698 5.54972 23.1373 6.1181 23.8372 6.1181Z" fill="#46AB37"/>
<path d="M33.4958 9.82018C34.0601 9.82018 34.5175 9.362 34.5175 8.79681C34.5175 8.23162 34.0601 7.77344 33.4958 7.77344C32.9315 7.77344 32.4741 8.23162 32.4741 8.79681C32.4741 9.362 32.9315 9.82018 33.4958 9.82018Z" fill="#46AB37"/>
<path d="M29.3301 10.9687C29.7983 10.9687 30.1778 10.5885 30.1778 10.1196C30.1778 9.65065 29.7983 9.27051 29.3301 9.27051C28.8619 9.27051 28.4824 9.65065 28.4824 10.1196C28.4824 10.5885 28.8619 10.9687 29.3301 10.9687Z" fill="#46AB37"/>
<path d="M19.2804 6.89699C19.9797 6.89699 20.5466 6.32914 20.5466 5.62867C20.5466 4.9282 19.9797 4.36035 19.2804 4.36035C18.5811 4.36035 18.0142 4.9282 18.0142 5.62867C18.0142 6.32914 18.5811 6.89699 19.2804 6.89699Z" fill="#46AB37"/>
<path d="M18.1552 11.7712C18.8675 11.7712 19.445 11.1929 19.445 10.4794C19.445 9.76589 18.8675 9.1875 18.1552 9.1875C17.4429 9.1875 16.8655 9.76589 16.8655 10.4794C16.8655 11.1929 17.4429 11.7712 18.1552 11.7712Z" fill="#46AB37"/>
<path d="M23.0531 16.6251C23.7518 16.6251 24.3182 16.0578 24.3182 15.358C24.3182 14.6581 23.7518 14.0908 23.0531 14.0908C22.3545 14.0908 21.7881 14.6581 21.7881 15.358C21.7881 16.0578 22.3545 16.6251 23.0531 16.6251Z" fill="#46AB37"/>
<path d="M27.1105 15.3614C27.7982 15.3614 28.3556 14.8031 28.3556 14.1143C28.3556 13.4255 27.7982 12.8672 27.1105 12.8672C26.4229 12.8672 25.8655 13.4255 25.8655 14.1143C25.8655 14.8031 26.4229 15.3614 27.1105 15.3614Z" fill="#46AB37"/>
<path d="M13.0786 12.1642C14.0233 12.1642 14.7892 11.3971 14.7892 10.4508C14.7892 9.50445 14.0233 8.7373 13.0786 8.7373C12.1338 8.7373 11.3679 9.50445 11.3679 10.4508C11.3679 11.3971 12.1338 12.1642 13.0786 12.1642Z" fill="#46AB37"/>
<path d="M8.29464 18.1629C9.24979 18.1629 10.0241 17.3873 10.0241 16.4306C10.0241 15.4738 9.24979 14.6982 8.29464 14.6982C7.33949 14.6982 6.56519 15.4738 6.56519 16.4306C6.56519 17.3873 7.33949 18.1629 8.29464 18.1629Z" fill="#46AB37"/>
<path d="M23.9407 21.7228C24.8634 21.7228 25.6114 20.9736 25.6114 20.0494C25.6114 19.1252 24.8634 18.376 23.9407 18.376C23.018 18.376 22.27 19.1252 22.27 20.0494C22.27 20.9736 23.018 21.7228 23.9407 21.7228Z" fill="#46AB37"/>
<path d="M34.3469 6.24698C34.6826 6.24698 34.9547 5.97439 34.9547 5.63814C34.9547 5.30188 34.6826 5.0293 34.3469 5.0293C34.0112 5.0293 33.739 5.30188 33.739 5.63814C33.739 5.97439 34.0112 6.24698 34.3469 6.24698Z" fill="#46AB37"/>
<path d="M8.68247 33.8799H4.13721V38.4326H8.68247V33.8799Z" fill="#46AB37"/>
<path d="M5.60336 26.29H1.61303C1.58121 26.29 1.55542 26.3159 1.55542 26.3477V30.3447C1.55542 30.3765 1.58121 30.4024 1.61303 30.4024H5.60336C5.63517 30.4024 5.66097 30.3765 5.66097 30.3447V26.3477C5.66097 26.3159 5.63517 26.29 5.60336 26.29Z" fill="#46AB37"/>
<path d="M10.8753 24.5205H7.10604C7.07552 24.5205 7.05078 24.5453 7.05078 24.5759V28.3514C7.05078 28.3819 7.07552 28.4067 7.10604 28.4067H10.8753C10.9059 28.4067 10.9306 28.3819 10.9306 28.3514V24.5759C10.9306 24.5453 10.9059 24.5205 10.8753 24.5205Z" fill="#46AB37"/>
<path d="M15.8462 25.7373H12.1063C12.0765 25.7373 12.0522 25.7616 12.0522 25.7915V29.5376C12.0522 29.5675 12.0765 29.5917 12.1063 29.5917H15.8462C15.8761 29.5917 15.9003 29.5675 15.9003 29.5376V25.7915C15.9003 25.7616 15.8761 25.7373 15.8462 25.7373Z" fill="#46AB37"/>
<path d="M20.7183 24.4971H17.4616C17.4356 24.4971 17.4146 24.5182 17.4146 24.5442V27.8062C17.4146 27.8323 17.4356 27.8533 17.4616 27.8533H20.7183C20.7442 27.8533 20.7653 27.8323 20.7653 27.8062V24.5442C20.7653 24.5182 20.7442 24.4971 20.7183 24.4971Z" fill="#46AB37"/>
<path d="M20.7841 18.9951H16.9972C16.9666 18.9951 16.9419 19.0199 16.9419 19.0505V22.8436C16.9419 22.8742 16.9666 22.899 16.9972 22.899H20.7841C20.8146 22.899 20.8393 22.8742 20.8393 22.8436V19.0505C20.8393 19.0199 20.8146 18.9951 20.7841 18.9951Z" fill="#46AB37"/>
<path d="M14.9442 19.2686H11.1632C11.1326 19.2686 11.1079 19.2933 11.1079 19.3239V23.1112C11.1079 23.1418 11.1326 23.1665 11.1632 23.1665H14.9442C14.9747 23.1665 14.9995 23.1418 14.9995 23.1112V19.3239C14.9995 19.2933 14.9747 19.2686 14.9442 19.2686Z" fill="#46AB37"/>
<path d="M8.75903 19.9854H5.47765C5.45102 19.9854 5.42944 20.007 5.42944 20.0336V23.3204C5.42944 23.3471 5.45102 23.3687 5.47765 23.3687H8.75903C8.78565 23.3687 8.80723 23.3471 8.80723 23.3204V20.0336C8.80723 20.007 8.78565 19.9854 8.75903 19.9854Z" fill="#46AB37"/>
<path d="M3.6141 32.1094H0V35.7294H3.6141V32.1094Z" fill="#46AB37"/>
<path d="M3.65775 39.8477H0.0166016V43.4948H3.65775V39.8477Z" fill="#46AB37"/>
<path d="M20.7276 12.9639H17.3275C17.3002 12.9639 17.2781 12.986 17.2781 13.0133V16.4191C17.2781 16.4464 17.3002 16.4685 17.3275 16.4685H20.7276C20.7549 16.4685 20.777 16.4464 20.777 16.4191V13.0133C20.777 12.986 20.7549 12.9639 20.7276 12.9639Z" fill="#46AB37"/>
<path d="M14.6903 14.1152H11.2537C11.2265 14.1152 11.2043 14.1374 11.2043 14.1647V17.6069C11.2043 17.6343 11.2265 17.6564 11.2537 17.6564H14.6903C14.7176 17.6564 14.7397 17.6343 14.7397 17.6069V14.1647C14.7397 14.1374 14.7176 14.1152 14.6903 14.1152Z" fill="#46AB37"/>
<path d="M20.1727 30.2959H16.4446V34.0302H20.1727V30.2959Z" fill="#1F9995"/>
<path d="M16.541 33.9453H12.1274V38.3662H16.541V33.9453Z" fill="#1F9995"/>
<path d="M20.3914 37.9746H16.6479V41.7242H20.3914V37.9746Z" fill="#1F9995"/>
<path d="M27.1704 48.6143H23.0625V52.7289H27.1704V48.6143Z" fill="#1F9995"/>
<path d="M32.9127 59.9951H28.9165V63.9979H32.9127V59.9951Z" fill="#16649B"/>
<path d="M43.4081 50.7266H39.4119V54.7294H43.4081V50.7266Z" fill="#16649B"/>
<path d="M42.6649 56.8955H38.6687V60.8983H42.6649V56.8955Z" fill="#16649B"/>
<path d="M46.0112 64.7793H40.2114V68.7821H46.0112V64.7793Z" fill="#16649B"/>
<path d="M27.1141 64.2725H17.8801V68.2753H27.1141V64.2725Z" fill="#16649B"/>
<path d="M68.3199 58.9385H59.9866V62.9413H68.3199V58.9385Z" fill="#16649B"/>
<path d="M36.9088 51.2393H32.9126V59.9938H36.9088V51.2393Z" fill="#16649B"/>
<path d="M21.3037 46.6973H17.1958V50.8119H21.3037V46.6973Z" fill="#1F9995"/>
<path d="M12.2461 37.9297H8.50977V41.6722H12.2461V37.9297Z" fill="#1F9995"/>
<path d="M16.4517 41.6904H12.0205V46.129H16.4517V41.6904Z" fill="#1F9995"/>
<path d="M12.0675 45.4189H8.51807V48.9742H12.0675V45.4189Z" fill="#1F9995"/>
<path d="M15.7487 50.8105H11.9888V54.5766H15.7487V50.8105Z" fill="#1F9995"/>
<path d="M20.9768 54.0215H16.9336V60.2206H20.9768V54.0215Z" fill="#1F9995"/>
<path d="M8.63899 48.7275H4.53345V52.8399H8.63899V48.7275Z" fill="#1F9995"/>
<path d="M11.3524 58.2278V54.1943H7.24805V62.2612H11.3524H15.3792V58.2278H11.3524Z" fill="#1F9995"/>
<path d="M26.7189 58.1346H30.7457V54.0234H22.6921V58.1346V62.168H26.7189V58.1346Z" fill="#16649B"/>
<path d="M34.642 67.015H30.6152V71.0002H38.6688V66.889V62.752H34.642V67.015Z" fill="#16649B"/>
<path d="M53.5672 63.0006H48.6504V66.9857H57.6445V58.8965H53.5672V63.0006Z" fill="#16649B"/>
<path d="M8.64615 41.5693H4.17261V46.0503H8.64615V41.5693Z" fill="#46AB37"/>
<path d="M12.5106 29.8242H8.07589C8.04018 29.8242 8.01123 29.8532 8.01123 29.889V34.3311C8.01123 34.3668 8.04018 34.3958 8.07589 34.3958H12.5106C12.5463 34.3958 12.5753 34.3668 12.5753 34.3311V29.889C12.5753 29.8532 12.5463 29.8242 12.5106 29.8242Z" fill="#46AB37"/>
<path d="M54.931 28.1035V40.6595H44.626V63.0006H48.6516V56.4517H68.3093V28.1035H54.931ZM54.5101 51.3796C54.5101 51.448 54.483 51.5136 54.4347 51.562C54.3864 51.6103 54.3209 51.6375 54.2526 51.6375H51.5485C51.4802 51.6375 51.4147 51.6103 51.3664 51.562C51.3181 51.5136 51.291 51.448 51.291 51.3796V48.671C51.291 48.6026 51.3181 48.537 51.3664 48.4887C51.4147 48.4403 51.4802 48.4131 51.5485 48.4131H54.2526C54.3209 48.4131 54.3864 48.4403 54.4347 48.4887C54.483 48.537 54.5101 48.6026 54.5101 48.671V51.3796ZM54.5101 46.2474C54.5101 46.2813 54.5034 46.3148 54.4905 46.3461C54.4776 46.3774 54.4586 46.4059 54.4347 46.4298C54.4108 46.4538 54.3824 46.4727 54.3511 46.4857C54.3199 46.4987 54.2864 46.5053 54.2526 46.5053H51.5485C51.5147 46.5053 51.4812 46.4987 51.45 46.4857C51.4187 46.4727 51.3903 46.4538 51.3664 46.4298C51.3425 46.4059 51.3236 46.3774 51.3106 46.3461C51.2977 46.3148 51.291 46.2813 51.291 46.2474V43.5424C51.291 43.474 51.3181 43.4084 51.3664 43.36C51.4147 43.3117 51.4802 43.2845 51.5485 43.2845H54.2526C54.3209 43.2845 54.3864 43.3117 54.4347 43.36C54.483 43.4084 54.5101 43.474 54.5101 43.5424V46.2474ZM65.9214 33.7268C65.9214 33.7606 65.9148 33.7942 65.9018 33.8254C65.8889 33.8567 65.8699 33.8852 65.846 33.9091C65.8221 33.9331 65.7937 33.9521 65.7625 33.965C65.7313 33.978 65.6978 33.9847 65.664 33.9847H60.1993C60.1655 33.9847 60.132 33.978 60.1008 33.965C60.0695 33.9521 60.0411 33.9331 60.0172 33.9091C59.9933 33.8852 59.9744 33.8567 59.9614 33.8254C59.9485 33.7942 59.9418 33.7606 59.9418 33.7268V31.0182C59.9418 30.9843 59.9485 30.9508 59.9614 30.9195C59.9744 30.8882 59.9933 30.8598 60.0172 30.8358C60.0411 30.8119 60.0695 30.7929 60.1008 30.7799C60.132 30.7669 60.1655 30.7603 60.1993 30.7603H65.664C65.7322 30.7603 65.7977 30.7874 65.846 30.8358C65.8943 30.8842 65.9214 30.9498 65.9214 31.0182V33.7268Z" fill="#16649B"/>
<path d="M80.03 40.7615C80.3067 40.7571 80.5704 40.6432 80.7634 40.4445C80.9565 40.2459 81.0631 39.9788 81.0599 39.7016C81.0544 39.4989 80.9893 39.3023 80.8728 39.1364C80.7563 38.9705 80.5936 38.8427 80.405 38.7689C80.2164 38.6951 80.0102 38.6787 79.8123 38.7216C79.6145 38.7646 79.4336 38.865 79.2924 39.0103C79.1511 39.1557 79.0558 39.3395 79.0183 39.5388C78.9808 39.7381 79.0028 39.944 79.0815 40.1309C79.1602 40.3178 79.2922 40.4772 79.4609 40.5894C79.6296 40.7015 79.8275 40.7614 80.03 40.7615Z" fill="#173450"/>
<path d="M81.3043 38.5417C81.4999 38.5481 81.693 38.4958 81.8587 38.3915C82.0245 38.2872 82.1554 38.1358 82.2347 37.9565C82.314 37.7773 82.338 37.5784 82.3038 37.3854C82.2695 37.1924 82.1785 37.014 82.0424 36.8731C81.9063 36.7322 81.7313 36.6353 81.5398 36.5946C81.3483 36.554 81.1491 36.5715 80.9676 36.645C80.7862 36.7185 80.6307 36.8446 80.5213 37.0071C80.4118 37.1696 80.3533 37.3612 80.3532 37.5572C80.351 37.6845 80.3739 37.8109 80.4205 37.9292C80.4671 38.0476 80.5366 38.1556 80.625 38.247C80.7133 38.3385 80.8188 38.4115 80.9353 38.4621C81.0519 38.5127 81.1773 38.5398 81.3043 38.5417Z" fill="#173450"/>
<path d="M81.57 39.6986C81.5739 39.903 81.638 40.1018 81.7541 40.27C81.8702 40.4382 82.0333 40.5684 82.2229 40.6442C82.4125 40.7201 82.6202 40.7382 82.8201 40.6964C83.0199 40.6546 83.203 40.5548 83.3465 40.4093C83.49 40.2638 83.5874 40.0791 83.6267 39.8785C83.666 39.6778 83.6453 39.4699 83.5672 39.281C83.4892 39.092 83.3572 38.9303 83.1879 38.816C83.0185 38.7018 82.8193 38.6401 82.6152 38.6387C82.4766 38.638 82.3394 38.6651 82.2114 38.7183C82.0835 38.7715 81.9674 38.8498 81.8701 38.9485C81.7727 39.0472 81.696 39.1644 81.6445 39.2932C81.593 39.422 81.5676 39.5598 81.57 39.6986Z" fill="#173450"/>
<path d="M96.2664 46.8326H86.1119V41.1128H84.0521V46.8326H81.93C79.0119 46.8326 78.0596 45.801 78.0596 43.5976C78.0671 42.7115 78.2473 41.8355 78.5898 41.0186L76.3854 41.3777C76.1205 42.1689 75.9836 42.9975 75.9797 43.8319C75.9797 46.6924 77.4623 48.4589 81.7066 48.4589H98.3216V41.1128H96.2664V46.8326Z" fill="#173450"/>
<path d="M94.6756 49.7403C94.4658 49.738 94.2601 49.7981 94.0846 49.9132C93.909 50.0282 93.7716 50.1929 93.6897 50.3863C93.6078 50.5798 93.5851 50.7933 93.6246 50.9996C93.6641 51.206 93.764 51.396 93.9115 51.5454C94.059 51.6948 94.2475 51.7969 94.4531 51.8387C94.6586 51.8806 94.872 51.8603 95.066 51.7804C95.26 51.7006 95.426 51.5648 95.5428 51.3902C95.6596 51.2157 95.722 51.0103 95.722 50.8002C95.7237 50.6615 95.6979 50.5239 95.6461 50.3953C95.5942 50.2667 95.5174 50.1497 95.42 50.0511C95.3227 49.9525 95.2068 49.8742 95.079 49.8209C94.9512 49.7675 94.8141 49.7401 94.6756 49.7403Z" fill="#173450"/>
<path d="M97.267 49.7396C97.0566 49.734 96.8493 49.7914 96.6717 49.9044C96.494 50.0173 96.354 50.1808 96.2695 50.3739C96.1851 50.5671 96.1601 50.781 96.1977 50.9884C96.2353 51.1958 96.3338 51.3873 96.4805 51.5384C96.6273 51.6895 96.8158 51.7932 97.0218 51.8365C97.2278 51.8797 97.4419 51.8604 97.6369 51.7811C97.8319 51.7018 97.9989 51.566 98.1165 51.3912C98.234 51.2163 98.2969 51.0103 98.2969 50.7995C98.3004 50.5222 98.1939 50.2549 98.0008 50.0562C97.8077 49.8575 97.5438 49.7437 97.267 49.7396Z" fill="#173450"/>
<path d="M120.718 46.8323H117.801C117.846 46.3789 117.863 45.942 117.863 45.5664C117.863 42.5657 116.473 41.0183 112.963 41.0183C112.294 41.0238 111.627 41.071 110.964 41.1596V42.7695C111.558 42.686 112.158 42.6439 112.758 42.6435C115.005 42.6435 115.815 43.6598 115.815 45.6453C115.813 46.0422 115.787 46.4386 115.737 46.8323H106.308C106.121 43.3477 104.326 41.5812 101.128 40.7368L100.628 42.4562C103.078 43.0815 104.218 44.5194 104.311 46.8323H98.9165V48.4586H122.774V37.4395H120.714L120.718 46.8323Z" fill="#173450"/>
<path d="M127.49 37.4395H125.43V48.4586H127.49V37.4395Z" fill="#173450"/>
<path d="M136.228 45.8005C136.228 45.2694 136.649 44.8784 137.461 44.8784C137.88 44.8816 138.298 44.9233 138.709 45.0032L138.958 43.3781C138.494 43.3069 138.025 43.2703 137.555 43.2686C135.104 43.2686 134.169 44.564 134.169 45.8794C134.169 46.3634 134.371 46.7697 134.714 46.9393C134.239 46.8703 133.759 46.8391 133.279 46.8462V48.4561H139.392V46.8486H138.004C136.699 46.8486 136.228 46.4105 136.228 45.8005Z" fill="#173450"/>
<path d="M148.049 40.2756C148.644 40.2756 149.126 39.7926 149.126 39.1969C149.126 38.6011 148.644 38.1182 148.049 38.1182C147.454 38.1182 146.972 38.6011 146.972 39.1969C146.972 39.7926 147.454 40.2756 148.049 40.2756Z" fill="#173450"/>
<path d="M163.515 49.7246C163.302 49.7246 163.094 49.7879 162.917 49.9065C162.74 50.0251 162.602 50.1936 162.52 50.3908C162.439 50.588 162.417 50.8049 162.459 51.0142C162.501 51.2235 162.603 51.4157 162.754 51.5665C162.905 51.7173 163.097 51.82 163.306 51.8615C163.515 51.903 163.731 51.8814 163.928 51.7996C164.125 51.7178 164.293 51.5793 164.411 51.4018C164.529 51.2242 164.592 51.0156 164.592 50.8022C164.591 50.5164 164.478 50.2425 164.276 50.0405C164.074 49.8385 163.8 49.7249 163.515 49.7246Z" fill="#173450"/>
<path d="M168.135 46.8323H166.433H166.199H164.905V41.1125H162.845V46.8323H160.832H160.661H159.146H158.975H157.462H157.29H155.777H155.605H154.092H153.92H152.407H152.236H150.785H150.551H149.255V41.1125H147.195V46.8323H145.245H145.011H143.685V37.4395H141.625V48.4586H145.011H145.245H150.551H150.785H152.236H152.407H153.92H154.092H155.605H155.777H157.29H157.462H158.975H159.146H160.661H160.832H166.199H166.433H170.193V37.4395H168.135V46.8323Z" fill="#173450"/>
<path d="M174.906 37.4395H172.846V48.4586H174.906V37.4395Z" fill="#173450"/>
<path d="M78.2992 60.6905L76.819 55.4453H74.8896V63.2272H76.2205V57.8041L77.6525 62.3604H78.9458L80.3766 57.7017V63.2272H81.7075V55.4453H79.7782L78.2992 60.6905Z" fill="#173450"/>
<path d="M86.8397 57.873C86.4333 57.6889 85.9924 57.5937 85.5464 57.5938C85.1004 57.5937 84.6596 57.6889 84.2532 57.873C83.8987 58.0537 83.6106 58.3423 83.4302 58.6973C83.2322 59.0996 83.1357 59.5444 83.1492 59.9927V60.8972C83.136 61.3496 83.2324 61.7985 83.4302 62.2055C83.6106 62.5606 83.8987 62.8492 84.2532 63.0299C84.6589 63.2162 85.1001 63.3126 85.5464 63.3126C85.9928 63.3126 86.4339 63.2162 86.8397 63.0299C87.1911 62.8469 87.4767 62.5588 87.6568 62.2055C87.8536 61.8028 87.95 61.3583 87.9378 60.9101V59.9892C87.9507 59.5409 87.8543 59.0963 87.6568 58.6938C87.4769 58.3413 87.1911 58.0542 86.8397 57.873ZM86.4741 60.9054C86.4904 61.1716 86.4022 61.4336 86.2283 61.6356C86.1378 61.7247 86.0296 61.7939 85.9108 61.8385C85.7919 61.8832 85.6649 61.9023 85.5382 61.8946C85.4125 61.9027 85.2865 61.8837 85.1687 61.8391C85.0509 61.7944 84.944 61.725 84.8551 61.6356C84.6858 61.4316 84.6016 61.17 84.62 60.9054V59.9845C84.6033 59.7212 84.6907 59.4619 84.8634 59.2626C84.9523 59.1741 85.0589 59.1053 85.1762 59.0609C85.2935 59.0164 85.4189 58.9973 85.5441 59.0047C85.6707 58.9971 85.7975 59.0162 85.9164 59.0606C86.0352 59.105 86.1435 59.1738 86.2342 59.2626C86.408 59.4613 86.4964 59.7208 86.4799 59.9845L86.4741 60.9054Z" fill="#173450"/>
<path d="M92.2654 58.3941C92.1446 58.1839 91.9817 58.0011 91.7869 57.8571C91.5529 57.6837 91.2691 57.5907 90.978 57.5922C90.6205 57.575 90.2671 57.6741 89.9704 57.8746C89.6738 58.0752 89.4498 58.3665 89.332 58.705C89.1767 59.124 89.1024 59.5689 89.1134 60.0157V60.9049C89.1025 61.3467 89.1768 61.7865 89.332 62.2003C89.4528 62.5362 89.6778 62.8246 89.9739 63.0233C90.27 63.2221 90.6219 63.3207 90.978 63.3049C91.2766 63.3126 91.57 63.2256 91.8163 63.0564C92.0087 62.919 92.1632 62.7351 92.2654 62.5218V63.2283H93.7292V55.4453H92.2654V58.3941ZM92.169 61.5526C92.1079 61.6774 92.0098 61.7802 91.888 61.847C91.7504 61.9178 91.5971 61.9527 91.4424 61.9482C91.3222 61.9548 91.2021 61.9336 91.0914 61.8863C90.9807 61.8389 90.8823 61.7666 90.804 61.675C90.64 61.4532 90.5596 61.1804 90.5771 60.9049V60.0216C90.5594 59.7403 90.6396 59.4615 90.804 59.2326C90.8809 59.1388 90.9788 59.0645 91.0897 59.0156C91.2006 58.9667 91.3214 58.9446 91.4424 58.9511C91.5976 58.9461 91.7513 58.9822 91.888 59.056C92.0106 59.1248 92.1088 59.2302 92.169 59.3574C92.2374 59.5085 92.2704 59.6733 92.2654 59.8391V61.0886C92.2697 61.2486 92.2367 61.4075 92.169 61.5526Z" fill="#173450"/>
<path d="M98.6978 57.9567C98.3313 57.7081 97.8963 57.5809 97.4539 57.5929C96.9961 57.58 96.5427 57.685 96.1371 57.8979C95.7733 58.0991 95.4817 58.4097 95.3035 58.7858C95.1021 59.2268 95.0043 59.7083 95.0178 60.1931V60.8196C95.0043 61.2861 95.1069 61.7487 95.3165 62.1656C95.5108 62.5329 95.8145 62.8305 96.1853 63.0171C96.6123 63.2218 97.0818 63.3215 97.555 63.3079C97.9288 63.3068 98.2989 63.2332 98.6449 63.0913C99.0032 62.9476 99.3326 62.7401 99.6172 62.4789L98.6613 61.6275C98.5051 61.7555 98.3282 61.8559 98.1381 61.9242C97.9498 61.9934 97.7509 62.0289 97.5503 62.029C97.1694 62.029 96.8731 61.9254 96.6615 61.7181C96.4843 61.538 96.3761 61.3012 96.3558 61.0492H99.7571V60.6853C99.7712 60.1161 99.6799 59.5491 99.4878 59.0131C99.3365 58.5894 99.0612 58.2213 98.6978 57.9567ZM96.3464 60.06C96.3393 59.7591 96.4421 59.466 96.6356 59.2357C96.7424 59.1273 96.871 59.043 97.013 58.9886C97.1549 58.9342 97.3069 58.9108 97.4586 58.9201C97.5792 58.9146 97.6996 58.9353 97.8116 58.9806C97.9236 59.0259 98.0245 59.0948 98.1076 59.1827C98.2841 59.3926 98.3895 59.6532 98.4085 59.9269L98.425 60.0553L96.3464 60.06Z" fill="#173450"/>
<path d="M103.897 57.5929C103.606 57.5928 103.323 57.6897 103.093 57.8685C102.896 58.02 102.731 58.2099 102.609 58.4267V57.6742H101.039V63.2291H102.609V60.086C102.592 59.8007 102.679 59.5189 102.853 59.2922C102.938 59.1953 103.044 59.119 103.163 59.0692C103.282 59.0194 103.411 58.9974 103.539 59.0049C103.659 59.0037 103.778 59.022 103.892 59.0591C103.99 59.0918 104.08 59.1466 104.154 59.2192L105.014 58.0275C104.876 57.8855 104.709 57.775 104.525 57.7036C104.324 57.6277 104.111 57.5902 103.897 57.5929Z" fill="#173450"/>
<path d="M108.54 57.5928C108.226 57.5809 107.917 57.6727 107.661 57.8543C107.461 58.0112 107.295 58.2071 107.172 58.4301V57.6741H105.708V63.229H107.172V59.8727C107.165 59.7567 107.181 59.6404 107.219 59.5306C107.257 59.4207 107.317 59.3197 107.394 59.2333C107.478 59.154 107.577 59.0927 107.685 59.0534C107.793 59.0141 107.908 58.9976 108.022 59.0048C108.263 58.9896 108.5 59.0704 108.682 59.2298C108.763 59.313 108.825 59.4123 108.866 59.5211C108.906 59.63 108.924 59.7462 108.917 59.8622V63.2278H110.382V59.8563C110.382 59.1356 110.222 58.5781 109.901 58.184C109.58 57.7899 109.127 57.5928 108.54 57.5928Z" fill="#173450"/>
<path d="M116.375 57.4935C116.468 57.2872 116.622 57.1147 116.816 57.0001C117.03 56.8825 117.272 56.8244 117.516 56.8317C117.715 56.8288 117.911 56.8788 118.085 56.9765C118.261 57.0789 118.409 57.2223 118.518 57.3946C118.646 57.5958 118.735 57.819 118.782 58.0529H120.3C120.223 57.539 120.046 57.0453 119.779 56.5997C119.546 56.2159 119.218 55.8994 118.826 55.6811C118.423 55.467 117.972 55.3584 117.516 55.3655C116.989 55.3505 116.467 55.4684 115.998 55.7082C115.583 55.9318 115.247 56.2786 115.036 56.701C114.804 57.1912 114.691 57.7295 114.706 58.2719V60.407C114.691 60.9495 114.804 61.4878 115.036 61.978C115.247 62.4 115.583 62.7461 115.998 62.9684C116.468 63.2057 116.99 63.3223 117.516 63.3075C117.971 63.3157 118.421 63.207 118.822 62.9919C119.213 62.7741 119.541 62.4579 119.773 62.0746C120.041 61.6288 120.22 61.1353 120.3 60.6213H118.782C118.739 60.8565 118.652 61.0814 118.526 61.2844C118.418 61.4567 118.27 61.5996 118.093 61.7001C117.916 61.7959 117.717 61.8446 117.516 61.8414C117.272 61.8487 117.03 61.7905 116.816 61.673C116.622 61.5591 116.468 61.388 116.375 61.1831C116.267 60.9391 116.215 60.6739 116.223 60.407V58.2719C116.215 58.0043 116.267 57.7384 116.375 57.4935Z" fill="#173450"/>
<path d="M125.059 57.873C124.653 57.6889 124.212 57.5937 123.766 57.5938C123.32 57.5937 122.879 57.6889 122.473 57.873C122.118 58.0537 121.83 58.3423 121.65 58.6973C121.453 59.0999 121.357 59.5446 121.37 59.9927V60.8972C121.357 61.3495 121.453 61.7983 121.65 62.2055C121.831 62.5603 122.119 62.8488 122.473 63.0299C122.878 63.2162 123.32 63.3126 123.766 63.3126C124.212 63.3126 124.653 63.2162 125.059 63.0299C125.413 62.8479 125.701 62.5596 125.882 62.2055C126.079 61.8027 126.175 61.3582 126.162 60.9101V59.9892C126.175 59.541 126.079 59.0964 125.882 58.6938C125.701 58.3404 125.413 58.0532 125.059 57.873ZM124.692 60.9054C124.709 61.1717 124.621 61.4339 124.447 61.6356C124.356 61.7248 124.248 61.7941 124.13 61.8387C124.011 61.8833 123.884 61.9024 123.758 61.8946C123.632 61.9026 123.506 61.8835 123.388 61.8389C123.27 61.7942 123.163 61.7249 123.073 61.6356C122.905 61.4313 122.82 61.17 122.838 60.9054V59.9845C122.822 59.7212 122.909 59.4619 123.082 59.2626C123.171 59.174 123.277 59.1052 123.395 59.0608C123.512 59.0163 123.637 58.9972 123.762 59.0047C123.889 58.997 124.016 59.016 124.134 59.0604C124.253 59.1048 124.361 59.1737 124.451 59.2626C124.538 59.3608 124.604 59.4752 124.646 59.599C124.688 59.7229 124.706 59.8539 124.697 59.9845L124.692 60.9054Z" fill="#173450"/>
<path d="M130.323 57.5928C130.009 57.5809 129.701 57.6727 129.445 57.8543C129.244 58.0112 129.078 58.2071 128.955 58.4301V57.6741H127.492V63.229H128.955V59.8727C128.948 59.7568 128.964 59.6406 129.002 59.5308C129.04 59.421 129.099 59.3199 129.176 59.2333C129.26 59.1541 129.359 59.093 129.467 59.0537C129.575 59.0144 129.69 58.9978 129.804 59.0048C130.046 58.9894 130.283 59.0703 130.465 59.2298C130.546 59.3132 130.608 59.4124 130.649 59.5213C130.689 59.6301 130.707 59.7462 130.7 59.8622V63.2278H132.165V59.8563C132.165 59.1356 132.005 58.5781 131.684 58.184C131.364 57.7899 130.91 57.5928 130.323 57.5928Z" fill="#173450"/>
<path d="M137.124 59.963C136.779 59.8705 136.427 59.8059 136.072 59.7699C136.056 59.768 136.04 59.768 136.024 59.7699C136.008 59.7719 135.992 59.7719 135.976 59.7699L135.879 59.7593L135.784 59.7487C135.535 59.7204 135.344 59.6945 135.215 59.671C135.1 59.6516 134.99 59.6117 134.889 59.5532C134.849 59.5335 134.815 59.5026 134.792 59.4642C134.768 59.4258 134.757 59.3815 134.758 59.3365C134.758 59.2188 134.84 59.1199 135.003 59.0527C135.224 58.9753 135.458 58.9405 135.692 58.9503C135.95 58.954 136.205 58.9937 136.452 59.068C136.716 59.143 136.971 59.2489 137.21 59.3836L138.081 58.3238C137.86 58.1705 137.624 58.041 137.376 57.9375C137.116 57.8303 136.847 57.7479 136.572 57.6914C136.295 57.6351 136.013 57.6067 135.731 57.6066C135.312 57.5956 134.894 57.6656 134.501 57.8127C134.185 57.9263 133.913 58.1386 133.725 58.4183C133.538 58.6981 133.445 59.0306 133.46 59.3672C133.46 59.7911 133.546 60.115 133.719 60.3387C133.878 60.5515 134.099 60.7095 134.352 60.7909C134.677 60.8841 135.009 60.9503 135.345 60.9888H135.391L135.437 60.997L135.637 61.0182L135.832 61.0394C136.013 61.0538 136.193 61.0781 136.372 61.1124C136.486 61.1326 136.594 61.179 136.687 61.2478C136.728 61.2819 136.761 61.3255 136.783 61.3748C136.804 61.4242 136.814 61.4779 136.81 61.5317C136.81 61.6671 136.715 61.7743 136.527 61.8508C136.271 61.9388 136.001 61.9788 135.731 61.9686C135.448 61.9657 135.166 61.9188 134.897 61.8296C134.601 61.7353 134.319 61.6023 134.058 61.4339L133.155 62.5633C133.379 62.7312 133.623 62.8697 133.882 62.9755C134.166 63.0922 134.461 63.179 134.763 63.2345C135.083 63.2939 135.406 63.3235 135.731 63.3229C136.172 63.3348 136.611 63.2612 137.024 63.1062C137.356 62.9894 137.64 62.7688 137.837 62.4772C138.033 62.1855 138.13 61.8383 138.114 61.4869C138.114 61.0308 138.019 60.6849 137.828 60.4494C137.652 60.216 137.405 60.0455 137.124 59.963Z" fill="#173450"/>
<path d="M140.886 56.0557H139.423V57.6737H138.85V58.9256H139.423V61.7837C139.423 62.2689 139.536 62.6355 139.761 62.8836C139.987 63.1317 140.342 63.2558 140.828 63.2558H141.565V61.8426H141.201C141.156 61.8453 141.111 61.8367 141.07 61.8176C141.029 61.7985 140.993 61.7694 140.966 61.7331C140.907 61.6398 140.879 61.5301 140.886 61.4198V58.9244H141.565V57.6737H140.886V56.0557Z" fill="#173450"/>
<path d="M145.706 57.5929C145.415 57.5924 145.131 57.6894 144.902 57.8685C144.705 58.02 144.54 58.2098 144.418 58.4267V57.6741H142.848V63.2291H144.418V60.0859C144.402 59.8009 144.488 59.5192 144.661 59.2922C144.746 59.1953 144.852 59.1191 144.971 59.0693C145.09 59.0195 145.218 58.9975 145.347 59.0049C145.467 59.0037 145.586 59.022 145.7 59.059C145.798 59.0918 145.888 59.1465 145.962 59.2192L146.817 58.0263C146.679 57.8845 146.512 57.7741 146.328 57.7024C146.129 57.6277 145.918 57.5905 145.706 57.5929Z" fill="#173450"/>
<path d="M150.701 61.0172C150.709 61.1348 150.693 61.2529 150.655 61.3645C150.617 61.4761 150.557 61.579 150.479 61.6672C150.395 61.7466 150.295 61.8077 150.186 61.8468C150.078 61.8859 149.962 61.9022 149.847 61.8945C149.731 61.902 149.615 61.8862 149.505 61.8482C149.395 61.8102 149.295 61.7507 149.208 61.6731C149.13 61.5903 149.069 61.4921 149.03 61.3847C148.991 61.2773 148.974 61.163 148.981 61.0489V57.6738H147.515V61.1043C147.515 61.8109 147.677 62.3542 148.002 62.7341C148.326 63.1141 148.786 63.3057 149.38 63.3088C149.701 63.3175 150.014 63.2072 150.259 62.9991C150.446 62.8391 150.596 62.6407 150.7 62.4174V63.2288H152.159V57.6738H150.701V61.0172Z" fill="#173450"/>
<path d="M155.211 59.3029C155.414 59.1035 155.7 59.0042 156.071 59.005C156.266 59.0044 156.46 59.0399 156.642 59.1098C156.816 59.1763 156.976 59.2754 157.112 59.4019L158.053 58.481C157.907 58.2881 157.726 58.1246 157.519 57.9993C157.294 57.8625 157.05 57.7605 156.795 57.6966C156.515 57.626 156.227 57.5912 155.938 57.593C155.469 57.5793 155.003 57.682 154.584 57.8921C154.214 58.0854 153.914 58.3897 153.725 58.7624C153.519 59.1915 153.418 59.664 153.431 60.1403V60.7291C153.418 61.2098 153.519 61.6868 153.725 62.121C153.913 62.4969 154.213 62.8046 154.584 63.0007C155.003 63.213 155.468 63.317 155.938 63.3034C156.229 63.3081 156.52 63.2765 156.803 63.2092C157.057 63.1466 157.3 63.0465 157.524 62.9124C157.731 62.7892 157.914 62.6296 158.064 62.4414L157.123 61.4675C156.991 61.6069 156.831 61.7165 156.653 61.7889C156.47 61.8663 156.274 61.9063 156.076 61.9067C155.705 61.9067 155.418 61.8062 155.216 61.6052C155.013 61.4039 154.91 61.1165 154.91 60.7456V60.1567C154.898 60.0013 154.919 59.8449 154.97 59.6978C155.022 59.5508 155.104 59.4162 155.211 59.3029Z" fill="#173450"/>
<path d="M160.661 56.0557H159.197V57.6737H158.624V58.9256H159.197V61.7837C159.197 62.2689 159.31 62.6355 159.535 62.8836C159.761 63.1317 160.117 63.2558 160.602 63.2558H161.339V61.8426H160.976C160.93 61.8453 160.885 61.8367 160.844 61.8176C160.803 61.7985 160.768 61.7694 160.741 61.7331C160.682 61.6396 160.654 61.53 160.661 61.4198V58.9244H161.339V57.6737H160.661V56.0557Z" fill="#173450"/>
<path d="M164.005 57.6729H162.542V63.2278H164.005V57.6729Z" fill="#173450"/>
<path d="M164.005 55.0889H162.542V56.555H164.005V55.0889Z" fill="#173450"/>
<path d="M168.896 57.873C168.49 57.6889 168.049 57.5937 167.603 57.5938C167.157 57.5937 166.716 57.6889 166.31 57.873C165.956 58.0541 165.668 58.3426 165.487 58.6973C165.289 59.0998 165.193 59.5445 165.206 59.9927V60.8972C165.193 61.3496 165.289 61.7984 165.487 62.2055C165.668 62.5601 165.956 62.8486 166.31 63.0299C166.715 63.2162 167.157 63.3126 167.603 63.3126C168.049 63.3126 168.49 63.2162 168.896 63.0299C169.25 62.8483 169.538 62.5599 169.719 62.2055C169.917 61.803 170.013 61.3584 170 60.9101V59.9892C170.014 59.5409 169.917 59.0961 169.719 58.6938C169.538 58.3401 169.25 58.0528 168.896 57.873ZM168.531 60.9054C168.547 61.1716 168.459 61.4336 168.285 61.6356C168.195 61.7247 168.087 61.7938 167.968 61.8384C167.849 61.883 167.722 61.9022 167.596 61.8946C167.47 61.9028 167.344 61.8839 167.226 61.8392C167.108 61.7945 167.001 61.7251 166.912 61.6356C166.743 61.4313 166.659 61.17 166.677 60.9054V59.9845C166.66 59.7212 166.747 59.4619 166.92 59.2626C167.009 59.174 167.116 59.1052 167.233 59.0607C167.351 59.0163 167.476 58.9972 167.602 59.0047C167.728 58.9972 167.855 59.0163 167.974 59.0607C168.092 59.1051 168.2 59.1739 168.291 59.2626C168.465 59.4613 168.553 59.7208 168.537 59.9845L168.531 60.9054Z" fill="#173450"/>
<path d="M175.519 58.1836C175.198 57.791 174.745 57.5948 174.162 57.5948C173.849 57.583 173.54 57.6748 173.283 57.8562C173.083 58.0135 172.917 58.2093 172.794 58.4321V57.6737H171.33V63.2286H172.793V59.8723C172.785 59.7563 172.801 59.6399 172.839 59.5301C172.877 59.4203 172.937 59.3192 173.015 59.2329C173.098 59.1537 173.197 59.0926 173.305 59.0533C173.413 59.014 173.528 58.9973 173.643 59.0044C173.884 58.9891 174.121 59.07 174.302 59.2293C174.383 59.3126 174.446 59.4118 174.486 59.5207C174.527 59.6296 174.544 59.7457 174.537 59.8617V63.2274H176.001V59.8558C176 59.1351 175.84 58.5777 175.519 58.1836Z" fill="#173450"/>
</svg>
