<svg width="24" height="24" viewBox="0 0 24 24" fill="none" xmlns="http://www.w3.org/2000/svg">
<path d="M23.4082 17.6481L17.0173 11.2572C16.9395 11.1794 16.856 11.1089 16.7679 11.0454L18.4507 9.36259C19.9593 9.6308 21.5256 9.14723 22.6186 8.05432C24.0303 6.64261 24.4008 4.48437 23.5407 2.68386C23.3402 2.26436 22.7844 2.16937 22.4559 2.49779C22.0555 2.8981 22.4049 2.55845 20.4406 4.44843H19.552V3.55992C21.4419 1.59553 21.1023 1.94493 21.5026 1.54466C21.8314 1.21589 21.7356 0.660109 21.3165 0.459931C19.5161 -0.400315 17.3578 -0.029751 15.9462 1.38192C14.8532 2.47483 14.3696 4.0412 14.6379 5.54979L12.9739 7.2138L12.4393 6.67923C12.176 6.41601 11.7493 6.41601 11.4861 6.67923L11.0095 7.15583L7.58471 3.73107V2.10381C7.58471 1.81368 7.3991 1.55617 7.12388 1.46441L2.83451 0.0345933C2.59236 -0.0461067 2.32528 0.0168896 2.14474 0.197431L1.19157 1.1506C1.01103 1.33114 0.948034 1.59813 1.02873 1.84032L2.45855 6.12969C2.55031 6.40491 2.80786 6.59057 3.09795 6.59057H4.72516L8.14993 10.0153L7.67332 10.4919C7.41028 10.755 7.41015 11.1819 7.67332 11.4451L8.20794 11.9797L6.54393 13.6437C5.03534 13.3755 3.46897 13.8591 2.37606 14.952C0.536491 16.7915 0.536491 19.7848 2.37606 21.6243C4.21558 23.4638 7.2088 23.464 9.04841 21.6243C10.1413 20.5314 10.6249 18.965 10.3567 17.4565L12.0395 15.7736C12.103 15.8617 12.1736 15.9453 12.2513 16.023L18.6422 22.4139C19.4306 23.2023 20.7134 23.2023 21.5018 22.4139C22.5755 21.3404 22.6336 21.2822 23.4082 20.5076C24.1966 19.7193 24.1966 18.4365 23.4082 17.6481ZM15.8522 6.24194C16.0223 6.07182 16.0889 5.82388 16.0268 5.59139C15.7169 4.43104 16.0512 3.18329 16.8994 2.33508C17.6656 1.56893 18.7394 1.23197 19.775 1.38371L18.3923 2.82099C18.2715 2.94658 18.204 3.11405 18.204 3.2883V5.12247C18.204 5.4947 18.5058 5.79647 18.878 5.79647H20.7122C20.8864 5.79647 21.0539 5.72898 21.1794 5.60815L22.6168 4.22529C22.7685 5.261 22.4315 6.33486 21.6654 7.10102C20.8172 7.94913 19.5695 8.28361 18.4091 7.97362C18.1766 7.91157 17.9288 7.97807 17.7586 8.14809L15.3687 10.538C14.7612 10.2806 14.3106 9.73927 14.1775 9.07376C14.1264 8.8185 14.0883 8.54899 13.8844 8.20952L15.8522 6.24194ZM5.48094 5.44001C5.35454 5.31362 5.18312 5.24262 5.00438 5.24262H3.58377L2.43928 1.80928L2.80337 1.44518L6.23672 2.58963V4.01024C6.23672 4.18898 6.30776 4.3604 6.43415 4.48685L10.0563 8.109L9.10314 9.06217L5.48094 5.44001ZM9.14246 16.7644C8.9723 16.9345 8.9058 17.1825 8.96785 17.4149C9.27775 18.5753 8.9434 19.823 8.09525 20.6712C6.78122 21.9852 4.64321 21.9852 3.32927 20.6712C2.01529 19.3572 2.01529 17.2192 3.32927 15.9052C4.17743 15.0571 5.42522 14.7226 6.58558 15.0326C6.81802 15.0947 7.06596 15.0282 7.23608 14.8581L9.20384 12.8903C9.54021 13.0924 9.80509 13.1308 10.0681 13.1834C10.7336 13.3165 11.2749 13.7672 11.5323 14.3747L9.14246 16.7644ZM22.455 19.5544L21.9784 20.031L15.7755 13.8281C15.5123 13.5649 15.0855 13.5649 14.8223 13.8281C14.5591 14.0914 14.5591 14.5181 14.8223 14.7814L21.0252 20.9843L20.5487 21.4609C20.2858 21.7237 19.8582 21.7236 19.5954 21.4609L13.2045 15.0699C13.0352 14.9005 13.0225 14.7371 12.9761 14.5052C12.7084 13.1669 11.6707 12.1292 10.3324 11.8615C10.101 11.8152 9.93724 11.8026 9.7677 11.6331L9.10314 10.9686L11.9627 8.10896L12.6273 8.77356C12.7971 8.94328 12.8096 9.10755 12.8557 9.33828C13.1234 10.6766 14.1611 11.7143 15.4994 11.982C15.7311 12.0283 15.8946 12.0408 16.0641 12.2104L22.455 18.6013C22.7179 18.864 22.7179 19.2917 22.455 19.5544Z" fill="#EC9D05"/>
<path d="M7.1423 16.8584C6.35206 16.0682 5.07299 16.0681 4.2827 16.8584C3.49431 17.6468 3.49431 18.9296 4.2827 19.718C5.07295 20.5083 6.35197 20.5083 7.1423 19.718C7.9307 18.9296 7.9307 17.6469 7.1423 16.8584ZM6.18904 18.7648C5.9256 19.0282 5.49932 19.0283 5.23587 18.7648C4.9731 18.5021 4.9731 18.0744 5.23587 17.8117C5.49923 17.5483 5.9256 17.5483 6.18904 17.8117C6.4519 18.0745 6.4519 18.5021 6.18904 18.7648Z" fill="#EC9D05"/>
</svg>
