<svg width="24" height="24" viewBox="0 0 24 24" fill="none" xmlns="http://www.w3.org/2000/svg">
<path d="M22.1659 8.84826L19.6286 8.47428C19.4105 7.97745 19.1337 7.48982 18.7899 6.99484L19.7551 4.52359C19.9339 4.05611 19.7496 3.54098 19.3289 3.30539L15.6853 1.14033C15.2627 0.883685 14.7137 0.987236 14.4075 1.38416L12.8263 3.46218C12.214 3.39803 11.785 3.39803 11.1727 3.46218L9.59065 1.38141C9.29181 0.993681 8.76108 0.888283 8.31835 1.13758L4.6812 3.29899C4.26687 3.53088 4.07807 4.05246 4.24581 4.52634L5.20918 6.99114C4.87644 7.46322 4.59595 7.96 4.37136 8.47333L1.84237 8.84641C1.36208 8.90876 1 9.33319 1 9.83272V14.1674C1 14.6679 1.36208 15.0923 1.83412 15.1519L4.37136 15.5259C4.58951 16.0227 4.86634 16.5103 5.21008 17.0053L4.24487 19.4766C4.06612 19.945 4.25037 20.4601 4.6711 20.6948L8.32845 22.869C8.48429 22.9561 8.65294 22.9983 8.81883 22.9983C9.11397 22.9983 9.40091 22.8654 9.5934 22.6151L11.1737 20.5371C11.6613 20.5903 12.3415 20.5903 12.8282 20.5371L14.4103 22.6179C14.7082 23.0047 15.2389 23.111 15.6826 22.8626L16.7367 22.2357C16.9539 22.1064 17.0254 21.825 16.8962 21.6078C16.767 21.3905 16.4856 21.3181 16.2683 21.4483L15.1381 22.0615L13.3993 19.7745C13.3003 19.6444 13.1408 19.5784 12.9758 19.5976C12.4203 19.6691 11.5825 19.6691 11.027 19.5976C10.8629 19.5793 10.7025 19.6444 10.6036 19.7745L8.78863 22.0753L5.13128 19.901C5.09643 19.8808 5.09093 19.8369 5.10288 19.8066L6.15698 17.1081C6.21383 16.9614 6.19273 16.7973 6.10014 16.6708C5.67391 16.0851 5.35402 15.5186 5.12303 14.9393C5.06253 14.7872 4.92503 14.679 4.76369 14.6552L1.97071 14.2436C1.96796 14.2436 1.92211 14.1666 1.91936 14.1666V9.83182L1.97071 9.75392L4.76369 9.34234C4.92594 9.31849 5.06253 9.21034 5.12303 9.0582C5.36317 8.45507 5.69041 7.8739 6.09739 7.33127C6.19179 7.20477 6.21473 7.03793 6.15698 6.89038L5.10743 4.20645C5.09458 4.16795 5.10653 4.11205 5.14228 4.09186L8.86562 1.93779L10.6045 4.2248C10.7035 4.35404 10.8629 4.42004 11.0279 4.40169C11.7906 4.3036 12.214 4.3036 12.9767 4.40169C13.1426 4.42094 13.3012 4.35495 13.4002 4.2248L15.2151 1.92499L18.8716 4.0983C18.9064 4.11845 18.9128 4.16245 18.9009 4.1927L17.8468 6.89124C17.79 7.03789 17.8111 7.20198 17.9036 7.32848C18.3299 7.9142 18.6498 8.48068 18.8808 9.06C18.9413 9.21215 19.0787 9.32034 19.2401 9.34414L22.0331 9.75572C22.0358 9.75663 22.0817 9.83362 22.0844 9.83362V14.1683L22.0331 14.2453L20.242 14.5093C19.9909 14.546 19.8176 14.7788 19.8552 15.0291C19.8918 15.2793 20.1228 15.4553 20.3749 15.4159L22.1568 15.1528C22.6371 15.0914 23.0001 14.6679 23.0001 14.1674V9.83272C22.9991 9.33319 22.638 8.90876 22.1659 8.84826Z" fill="#EC9D05" stroke="#EC9D05" stroke-width="0.5"/>
<path d="M17.3412 13.9428C16.8297 13.4313 16.5511 12.7823 16.5786 12.1618C16.6272 11.0306 16.1542 9.95084 15.1321 8.86098C14.2577 7.92877 13.0835 7.39989 11.9414 7.41639C10.923 7.42924 9.9523 7.78488 9.13374 8.44575C9.01734 8.54015 8.9541 8.68499 8.96415 8.83439C8.97515 8.98378 9.05765 9.11853 9.18599 9.19462L11.9872 10.8748C11.9038 11.7172 11.4061 12.456 10.6444 12.8501L8.13648 11.345C7.99808 11.2616 7.80559 11.268 7.66259 11.3459C7.52325 11.422 7.43345 11.5641 7.42426 11.7218C7.34911 12.9996 7.78999 14.2141 8.66446 15.1417C9.52792 16.0565 10.7434 16.5808 12.0001 16.5808C12.3374 16.5808 12.6756 16.5368 13.0469 16.4424L18.8977 22.2933C19.3515 22.7479 19.9546 22.9972 20.5972 22.9972C21.9217 22.9972 22.9987 21.9193 22.9987 20.5948C22.9987 19.9531 22.7485 19.35 22.2947 18.8962L17.3412 13.9428ZM20.5971 22.0815H20.5952C20.1983 22.0815 19.8253 21.9266 19.5448 21.6461L13.5051 15.6065C13.4171 15.5194 13.3007 15.4726 13.1806 15.4726C13.1357 15.4726 13.0917 15.4781 13.0505 15.491C12.6582 15.6092 12.3254 15.6642 12.0009 15.6642C10.9798 15.6642 10.0329 15.2554 9.33263 14.5129C8.81381 13.9629 8.48657 13.2865 8.37567 12.5577L10.3895 13.7658C10.5242 13.8465 10.6892 13.852 10.8304 13.7832L11.0238 13.687C12.1906 13.1031 12.9166 11.9289 12.9166 10.6236C12.9166 10.4623 12.8314 10.3129 12.6939 10.2304L10.274 8.77844C10.7937 8.49246 11.3638 8.33936 11.9532 8.33206C12.8378 8.31921 13.7654 8.74179 14.4639 9.48701C15.32 10.4009 15.7013 11.2378 15.6628 12.1214C15.6243 12.9977 16.0002 13.8978 16.6931 14.5908L21.6466 19.5452C21.928 19.8257 22.082 20.1988 22.082 20.5966C22.0829 21.4151 21.4174 22.0815 20.5971 22.0815Z" fill="#EC9D05" stroke="#EC9D05" stroke-width="0.5"/>
</svg>
