<?xml version="1.0" encoding="UTF-8"?><svg id="Layer_2" xmlns="http://www.w3.org/2000/svg" viewBox="0 0 860 885.6"><defs><style>.cls-1{fill:#fff;}</style></defs><g id="Layer_1-2"><g><g><path class="cls-1" d="M194.74,292.19c.21,10.16,.41,20.32,.62,30.47,0,.79,.02,1.57,.03,2.36-.46-.02-.91-.05-1.37-.07,.05-8.77,.06-17.54,.19-26.31,.03-2.15-.57-4.38,.54-6.45Z"/><circle class="cls-1" cx="424.04" cy="6.56" r="6.56"/><circle class="cls-1" cx="449.35" cy="39.63" r="5.44"/><circle class="cls-1" cx="383.31" cy="12.36" r="8.36"/><circle class="cls-1" cx="371.03" cy="47.83" r="10.8"/><circle class="cls-1" cx="318.47" cy="88.76" r="14.41"/><circle class="cls-1" cx="324.29" cy="41.17" r="10.78"/><circle class="cls-1" cx="406.44" cy="74.7" r="8.69"/><circle class="cls-1" cx="371.02" cy="85.93" r="7.21"/><circle class="cls-1" cx="285.53" cy="47.8" r="10.77"/><circle class="cls-1" cx="275.96" cy="88.99" r="10.97"/><circle class="cls-1" cx="317.62" cy="130.41" r="10.76"/><circle class="cls-1" cx="352.14" cy="119.85" r="10.59"/><circle class="cls-1" cx="232.79" cy="88.74" r="14.55"/><circle class="cls-1" cx="192.09" cy="139.52" r="14.71"/><circle class="cls-1" cx="325.17" cy="170.25" r="14.21"/><circle class="cls-1" cx="413.68" cy="47.88" r="5.17"/><rect class="cls-1" x="156.73" y="287.69" width="38.66" height="38.66"/><rect class="cls-1" x="134.77" y="223.24" width="34.92" height="34.92" rx=".49" ry=".49"/><rect class="cls-1" x="181.51" y="208.22" width="33" height="33" rx=".47" ry=".47"/><rect class="cls-1" x="224.05" y="218.55" width="32.73" height="32.73" rx=".46" ry=".46"/><rect class="cls-1" x="269.66" y="208.02" width="28.5" height="28.5" rx=".4" ry=".4"/><rect class="cls-1" x="265.64" y="161.3" width="33.15" height="33.15" rx=".47" ry=".47"/><rect class="cls-1" x="216.02" y="163.62" width="33.1" height="33.1" rx=".47" ry=".47"/><rect class="cls-1" x="167.72" y="169.71" width="28.73" height="28.73" rx=".41" ry=".41"/><rect class="cls-1" x="121.54" y="272.66" width="30.74" height="30.74"/><rect class="cls-1" x="121.68" y="338.37" width="30.97" height="30.97"/><rect class="cls-1" x="268.5" y="110.08" width="29.76" height="29.76" rx=".42" ry=".42"/><rect class="cls-1" x="216.84" y="119.86" width="30.07" height="30.07" rx=".42" ry=".42"/><rect class="cls-1" x="261.41" y="257.26" width="31.71" height="31.71"/><rect class="cls-1" x="224.69" y="288.25" width="37.54" height="37.54"/><rect class="cls-1" x="263.14" y="322.46" width="31.84" height="31.84"/><rect class="cls-1" x="317.7" y="412.81" width="34.94" height="34.94"/><rect class="cls-1" x="367.49" y="509.45" width="33.99" height="33.99"/><rect class="cls-1" x="456.76" y="430.75" width="33.99" height="33.99"/><rect class="cls-1" x="450.44" y="483.13" width="33.99" height="33.99"/><rect class="cls-1" x="463.56" y="550.08" width="49.33" height="33.99"/><rect class="cls-1" x="273.62" y="545.77" width="78.54" height="33.99"/><rect class="cls-1" x="631.77" y="500.48" width="70.88" height="33.99"/><rect class="cls-1" x="401.48" y="435.1" width="33.99" height="74.34"/><rect class="cls-1" x="267.8" y="396.53" width="34.94" height="34.94"/><rect class="cls-1" x="193.92" y="322.08" width="31.78" height="31.78"/><rect class="cls-1" x="223.78" y="354.02" width="37.69" height="37.69"/><rect class="cls-1" x="193.99" y="385.68" width="30.19" height="30.19"/><rect class="cls-1" x="223.52" y="431.46" width="31.98" height="31.98"/><rect class="cls-1" x="265.57" y="458.73" width="34.39" height="52.64"/><rect class="cls-1" x="160.1" y="413.77" width="34.92" height="34.92"/><polygon class="cls-1" points="218.11 494.44 218.11 460.19 183.19 460.19 183.19 528.69 218.11 528.69 252.35 528.69 252.35 494.44 218.11 494.44"/><polygon class="cls-1" points="348.81 493.65 383.05 493.65 383.05 458.73 314.56 458.73 314.56 493.65 314.56 527.9 348.81 527.9 348.81 493.65"/><polygon class="cls-1" points="416.19 569.06 381.94 569.06 381.94 602.9 450.44 602.9 450.44 567.98 450.44 532.85 416.19 532.85 416.19 569.06"/><path class="cls-1" d="M577.17,534.97h-41.82v33.84h76.5v-68.69h-34.68v34.85Z"/><rect class="cls-1" x="157.03" y="352.99" width="38.05" height="38.05"/><rect class="cls-1" x="189.69" y="253.25" width="38.82" height="38.82" rx=".55" ry=".55"/><path class="cls-1" d="M588.76,238.65v106.61h-87.64v189.71h34.23v-55.61h167.21V238.65h-113.8Zm-3.58,197.65c0,1.21-.98,2.19-2.19,2.19h-22.99c-1.21,0-2.19-.98-2.19-2.19v-22.99c0-1.21,.98-2.19,2.19-2.19h22.99c1.21,0,2.19,.98,2.19,2.19v22.99Zm0-43.58c0,1.21-.98,2.19-2.19,2.19h-22.99c-1.21,0-2.19-.98-2.19-2.19v-22.99c0-1.21,.98-2.19,2.19-2.19h22.99c1.21,0,2.19,.98,2.19,2.19v22.99Zm97.06-106.32c0,1.21-.98,2.19-2.19,2.19h-46.48c-1.21,0-2.19-.98-2.19-2.19v-22.99c0-1.21,.98-2.19,2.19-2.19h46.48c1.21,0,2.19,.98,2.19,2.19v22.99Z"/></g><g><path class="cls-1" d="M43.68,694.14c4.91,0,8.76-4.11,8.76-9.02s-3.85-9.02-8.76-9.02-8.76,4.11-8.76,9.02,3.85,9.02,8.76,9.02Z"/><path class="cls-1" d="M54.56,675.3c4.65,0,8.23-3.72,8.23-8.36s-3.58-8.36-8.23-8.36-8.1,3.72-8.1,8.36,3.58,8.36,8.1,8.36Z"/><path class="cls-1" d="M56.82,685.12c0,5.04,3.85,9.02,8.89,9.02s8.76-4.11,8.76-9.02-3.85-9.02-8.76-9.02-8.89,4.11-8.89,9.02Z"/><path class="cls-1" d="M181.82,745.7H95.44v-48.58h-17.52v48.58h-18.05c-24.82,0-32.91-8.76-32.91-27.47,0-7.03,1.73-15.79,4.51-21.9l-18.71,3.05c-1.99,5.44-3.45,13.67-3.45,20.84,0,24.29,12.61,39.29,48.71,39.29H199.34v-62.38h-17.52v48.58Z"/><path class="cls-1" d="M168.29,770.38c-4.91,0-8.76,4.11-8.76,9.03s3.85,9.02,8.76,9.02,8.89-4.11,8.89-9.02-3.85-9.03-8.89-9.03Z"/><path class="cls-1" d="M190.32,770.38c-4.91,0-8.76,4.11-8.76,9.03s3.85,9.02,8.76,9.02,8.76-4.11,8.76-9.02-3.85-9.03-8.76-9.03Z"/><path class="cls-1" d="M389.79,745.7h-24.81c.4-3.85,.53-7.56,.53-10.75,0-25.48-11.81-38.62-41.67-38.62-5.71,0-11.81,.53-16.99,1.19v13.67c4.91-.66,9.82-1.06,15.26-1.06,19.11,0,26.01,8.63,26.01,25.48,0,3.32-.27,6.9-.66,10.09h-80.2c-1.59-29.6-16.86-44.59-44.06-51.76l-4.25,14.6c20.84,5.31,30.53,17.52,31.32,37.16h-45.88v13.8h202.92v-93.57h-17.52v79.76Z"/><rect class="cls-1" x="429.87" y="665.93" width="17.52" height="93.57"/><path class="cls-1" d="M521.7,736.94c0-4.51,3.58-7.83,10.49-7.83,4.78,0,9.42,.8,10.62,1.06l2.12-13.8c-1.46-.26-6.64-.93-11.94-.93-20.84,0-28.8,11.02-28.8,22.16,0,4.11,1.73,7.57,4.65,9.03-2.92-.53-7.56-.8-12.21-.8v13.67h52.03v-13.67h-11.81c-11.15,0-15.13-3.72-15.13-8.89Z"/><circle class="cls-1" cx="622.26" cy="680.85" r="9.16"/><path class="cls-1" d="M753.81,770.25c-5.04,0-9.16,4.11-9.16,9.16s4.11,9.16,9.16,9.16,9.16-4.11,9.16-9.16-4.11-9.16-9.16-9.16Z"/><polygon class="cls-1" points="793.09 745.7 778.63 745.7 776.64 745.7 765.62 745.7 765.62 697.12 748.1 697.12 748.1 745.7 730.98 745.7 729.52 745.7 716.65 745.7 715.19 745.7 702.32 745.7 700.86 745.7 687.99 745.7 686.53 745.7 673.66 745.7 672.2 745.7 659.33 745.7 657.86 745.7 645.53 745.7 643.53 745.7 632.52 745.7 632.52 697.12 615 697.12 615 745.7 598.41 745.7 596.42 745.7 585.14 745.7 585.14 665.93 567.62 665.93 567.62 759.5 596.42 759.5 598.41 759.5 643.53 759.5 645.53 759.5 657.86 759.5 659.33 759.5 672.2 759.5 673.66 759.5 686.53 759.5 687.99 759.5 700.86 759.5 702.32 759.5 715.19 759.5 716.65 759.5 729.52 759.5 730.98 759.5 776.64 759.5 778.63 759.5 810.61 759.5 810.61 665.93 793.09 665.93 793.09 745.7"/><rect class="cls-1" x="833.17" y="665.93" width="17.52" height="93.57"/></g><g><polygon class="cls-1" points="28.99 863.37 16.41 818.84 0 818.84 0 884.92 11.32 884.92 11.32 838.87 23.5 877.55 34.49 877.55 46.67 837.99 46.67 884.92 57.99 884.92 57.99 818.84 41.58 818.84 28.99 863.37"/><path class="cls-1" d="M101.64,839.45c-3.05-1.59-6.72-2.39-11.02-2.39s-7.98,.8-11.02,2.39c-3.04,1.59-5.36,3.91-6.95,6.95-1.59,3.05-2.39,6.7-2.39,10.98v7.68c0,4.33,.8,8.04,2.39,11.11,1.59,3.08,3.91,5.42,6.95,7.02,3.05,1.61,6.72,2.41,11.02,2.41s7.98-.8,11.02-2.41c3.04-1.61,5.36-3.93,6.95-6.98,1.59-3.04,2.39-6.72,2.39-11.02v-7.82c0-4.27-.8-7.93-2.39-10.98-1.59-3.04-3.91-5.36-6.95-6.95Zm-3.11,25.74c0,2.67-.7,4.73-2.09,6.2-1.39,1.47-3.35,2.2-5.86,2.2s-4.45-.73-5.82-2.2c-1.36-1.47-2.04-3.54-2.04-6.2v-7.82c0-2.64,.69-4.68,2.07-6.14,1.38-1.45,3.31-2.18,5.79-2.18s4.47,.73,5.86,2.18c1.39,1.45,2.09,3.5,2.09,6.14v7.82Z"/><path class="cls-1" d="M147.79,843.88c-1.12-1.89-2.47-3.42-4.07-4.57-2.08-1.5-4.37-2.25-6.88-2.25-3.33,0-6.19,.8-8.57,2.41-2.38,1.61-4.19,3.95-5.43,7.04-1.24,3.09-1.86,6.8-1.86,11.13v7.54c0,4.3,.62,7.98,1.86,11.02,1.24,3.05,3.05,5.37,5.43,6.98,2.38,1.61,5.23,2.41,8.57,2.41,2.76,0,5.14-.7,7.13-2.11,1.61-1.13,2.88-2.65,3.82-4.53v5.97h12.45v-66.08h-12.45v25.04Zm-.82,26.81c-.55,1.09-1.34,1.92-2.39,2.5-1.05,.58-2.31,.86-3.79,.86-2.33,0-4.14-.77-5.43-2.32-1.29-1.54-1.93-3.73-1.93-6.54v-7.5c0-2.88,.64-5.11,1.93-6.7,1.29-1.59,3.1-2.39,5.43-2.39,1.48,0,2.75,.3,3.79,.89,1.05,.59,1.84,1.45,2.39,2.57,.55,1.12,.82,2.48,.82,4.09v10.59c0,1.54-.27,2.86-.82,3.95Z"/><path class="cls-1" d="M202.5,840.15c-2.94-2.06-6.47-3.09-10.59-3.09-4.39,0-8.14,.86-11.25,2.59-3.11,1.73-5.47,4.24-7.09,7.54-1.62,3.3-2.43,7.29-2.43,11.95v5.32c0,4.45,.85,8.26,2.54,11.43,1.7,3.17,4.16,5.57,7.38,7.23,3.23,1.65,7.11,2.48,11.66,2.48,3.12,0,6.21-.61,9.27-1.84,3.06-1.23,5.82-2.96,8.27-5.2l-8.13-7.23c-1.33,1.09-2.82,1.93-4.45,2.52-1.64,.59-3.29,.89-4.95,.89-3.24,0-5.76-.88-7.57-2.64-1.45-1.42-2.31-3.32-2.59-5.68h28.93v-3.09c0-5.54-.77-10.28-2.3-14.2-1.53-3.92-3.76-6.91-6.7-8.98Zm-20.02,17.86c.1-2.96,.91-5.28,2.46-6.95,1.65-1.79,3.98-2.68,6.98-2.68,2.3,0,4.14,.74,5.52,2.23,1.38,1.48,2.23,3.59,2.57,6.32l.14,1.09h-17.66Z"/><path class="cls-1" d="M246.72,837.06c-2.48,0-4.76,.78-6.84,2.34-1.6,1.2-2.97,2.79-4.11,4.74v-6.4h-13.36v47.17h13.36v-26.68c0-2.88,.69-5.13,2.07-6.75,1.38-1.62,3.32-2.43,5.84-2.43,1.15,0,2.17,.15,3.04,.45,.88,.3,1.62,.76,2.23,1.36l7.27-10.13c-1.18-1.21-2.57-2.13-4.16-2.75-1.59-.62-3.37-.93-5.34-.93Z"/><path class="cls-1" d="M286.21,837.06c-3,0-5.49,.74-7.48,2.23-1.56,1.17-2.94,2.8-4.16,4.89v-6.43h-12.45v47.17h12.45v-28.49c0-2.33,.63-4.14,1.89-5.43,1.26-1.29,3.04-1.93,5.34-1.93,2.42,0,4.29,.64,5.61,1.91,1.32,1.27,1.98,3.06,1.98,5.36v28.59h12.45v-28.63c0-6.12-1.36-10.85-4.09-14.2-2.73-3.35-6.57-5.02-11.54-5.02Z"/><path class="cls-1" d="M352.86,836.22c.86-1.83,2.11-3.23,3.75-4.18,1.64-.95,3.62-1.43,5.95-1.43,1.79,0,3.4,.41,4.84,1.23,1.44,.82,2.67,2,3.68,3.54,1.01,1.54,1.76,3.41,2.25,5.59h12.91c-.82-4.82-2.29-8.93-4.43-12.34-2.14-3.41-4.84-6.01-8.11-7.79-3.27-1.79-6.98-2.68-11.13-2.68-5.03,0-9.33,.97-12.91,2.91-3.58,1.94-6.3,4.75-8.18,8.43-1.88,3.68-2.82,8.13-2.82,13.34v18.13c0,5.21,.94,9.66,2.82,13.34,1.88,3.68,4.61,6.48,8.18,8.41,3.57,1.92,7.88,2.89,12.91,2.89,4.15,0,7.85-.89,11.11-2.68,3.26-1.79,5.95-4.38,8.09-7.79,2.14-3.41,3.63-7.52,4.48-12.34h-12.91c-.45,2.21-1.18,4.09-2.18,5.64-1,1.54-2.23,2.72-3.68,3.52-1.45,.8-3.09,1.2-4.91,1.2-2.33,0-4.32-.48-5.95-1.43-1.64-.95-2.89-2.34-3.75-4.16-.86-1.82-1.3-4.01-1.3-6.59v-18.13c0-2.57,.43-4.78,1.3-6.61Z"/><path class="cls-1" d="M426.71,839.45c-3.05-1.59-6.72-2.39-11.02-2.39s-7.98,.8-11.02,2.39c-3.04,1.59-5.36,3.91-6.95,6.95-1.59,3.05-2.39,6.7-2.39,10.98v7.68c0,4.33,.8,8.04,2.39,11.11,1.59,3.08,3.91,5.42,6.95,7.02,3.05,1.61,6.72,2.41,11.02,2.41s7.98-.8,11.02-2.41c3.04-1.61,5.36-3.93,6.95-6.98,1.59-3.04,2.39-6.72,2.39-11.02v-7.82c0-4.27-.79-7.93-2.39-10.98-1.59-3.04-3.91-5.36-6.95-6.95Zm-3.11,25.74c0,2.67-.7,4.73-2.09,6.2-1.39,1.47-3.35,2.2-5.86,2.2s-4.45-.73-5.82-2.2c-1.36-1.47-2.04-3.54-2.04-6.2v-7.82c0-2.64,.69-4.68,2.07-6.14,1.38-1.45,3.31-2.18,5.79-2.18s4.47,.73,5.86,2.18c1.39,1.45,2.09,3.5,2.09,6.14v7.82Z"/><path class="cls-1" d="M471.49,837.06c-3,0-5.49,.74-7.48,2.23-1.56,1.17-2.94,2.8-4.16,4.88v-6.43h-12.45v47.17h12.45v-28.49c0-2.33,.63-4.14,1.89-5.43,1.26-1.29,3.04-1.93,5.34-1.93,2.42,0,4.29,.64,5.61,1.91,1.32,1.27,1.98,3.06,1.98,5.36v28.59h12.45v-28.63c0-6.12-1.36-10.85-4.09-14.2-2.73-3.35-6.57-5.02-11.54-5.02Z"/><path class="cls-1" d="M529.34,857.19c-2.3-.67-5.29-1.21-8.95-1.64-.12-.03-.26-.05-.41-.05s-.29-.01-.41-.05c-.27-.03-.55-.06-.82-.09-.27-.03-.55-.06-.82-.09-2.12-.24-3.73-.46-4.84-.66-1.11-.2-2.03-.51-2.77-.95-.74-.44-1.11-1.05-1.11-1.84,0-1.03,.7-1.83,2.09-2.41,1.39-.58,3.35-.86,5.86-.86,2.06,0,4.21,.32,6.45,.95,2.24,.64,4.39,1.53,6.45,2.68l7.41-9.04c-1.85-1.27-3.86-2.36-6.04-3.27-2.18-.91-4.46-1.61-6.84-2.09-2.38-.48-4.76-.73-7.16-.73-4.09,0-7.57,.58-10.45,1.75s-5.07,2.87-6.59,5.11c-1.52,2.24-2.27,4.94-2.27,8.09,0,3.61,.73,6.36,2.2,8.25,1.47,1.89,3.26,3.17,5.39,3.84,2.12,.67,4.94,1.23,8.45,1.68,.12,0,.25,0,.39,.02,.14,.01,.26,.04,.39,.07,.58,.06,1.14,.12,1.7,.18,.56,.06,1.11,.12,1.66,.18,1.97,.18,3.5,.39,4.59,.61,1.09,.23,1.98,.61,2.68,1.16,.7,.55,1.05,1.35,1.05,2.41,0,1.15-.8,2.05-2.41,2.7-1.61,.65-3.86,.98-6.77,.98-2.24,0-4.61-.39-7.09-1.18-2.48-.79-4.86-1.91-7.13-3.36l-7.68,9.59c1.79,1.36,3.85,2.53,6.18,3.5,2.33,.97,4.83,1.7,7.5,2.2,2.67,.5,5.41,.75,8.23,.75,4.27,0,7.92-.61,10.95-1.84,3.03-1.23,5.33-3.01,6.91-5.34,1.57-2.33,2.36-5.14,2.36-8.41,0-3.88-.81-6.82-2.43-8.82-1.62-2-3.58-3.33-5.89-4Z"/><path class="cls-1" d="M561.34,824.02h-12.45v13.72h-4.86v10.63h4.86v24.27c0,4.12,.96,7.23,2.89,9.34,1.92,2.11,4.95,3.16,9.07,3.16h6.27v-12h-3.09c-.88,0-1.54-.31-2-.93-.46-.62-.68-1.51-.68-2.66v-21.18h5.77v-10.63h-5.77v-13.72Z"/><path class="cls-1" d="M602.33,837.06c-2.48,0-4.76,.78-6.84,2.34-1.6,1.2-2.97,2.79-4.11,4.74v-6.4h-13.36v47.17h13.36v-26.68c0-2.88,.69-5.13,2.07-6.75,1.38-1.62,3.32-2.43,5.84-2.43,1.15,0,2.17,.15,3.05,.45,.88,.3,1.62,.76,2.23,1.36l7.27-10.13c-1.18-1.21-2.57-2.13-4.16-2.75-1.59-.62-3.37-.93-5.34-.93Z"/><path class="cls-1" d="M644.82,866.15c0,2.39-.63,4.23-1.89,5.52-1.26,1.29-3.05,1.93-5.38,1.93s-4.14-.63-5.43-1.89c-1.29-1.26-1.93-3.02-1.93-5.29v-28.68h-12.45v29.13c0,5.97,1.38,10.58,4.14,13.84,2.76,3.26,6.66,4.89,11.72,4.89,2.94,0,5.43-.88,7.48-2.64,1.62-1.39,2.86-3.04,3.75-4.94v6.89h12.41v-47.17h-12.41v28.4Z"/><path class="cls-1" d="M683.17,851.58c1.73-1.68,4.16-2.52,7.32-2.52,1.7,0,3.32,.29,4.86,.89,1.54,.59,2.89,1.42,4.04,2.48l8.04-7.82c-1.21-1.61-2.73-2.97-4.54-4.09-1.82-1.12-3.87-1.98-6.16-2.57-2.29-.59-4.72-.89-7.29-.89-4.48,0-8.32,.85-11.52,2.55-3.2,1.7-5.63,4.16-7.29,7.38-1.67,3.23-2.5,7.13-2.5,11.7v5.04c0,4.61,.83,8.54,2.5,11.82,1.67,3.27,4.1,5.76,7.29,7.48,3.2,1.71,7.04,2.57,11.52,2.57,2.57,0,5-.29,7.27-.86,2.27-.58,4.32-1.42,6.14-2.52,1.82-1.11,3.35-2.45,4.59-4.02l-8.04-8.27c-1.12,1.18-2.45,2.09-4,2.73-1.54,.64-3.18,.95-4.91,.95-3.15,0-5.59-.86-7.32-2.57-1.73-1.71-2.59-4.14-2.59-7.29v-5.04c0-3.06,.86-5.43,2.59-7.11Z"/><path class="cls-1" d="M729.53,824.02h-12.45v13.72h-4.86v10.63h4.86v24.27c0,4.12,.96,7.23,2.89,9.34,1.92,2.11,4.95,3.16,9.07,3.16h6.27v-12h-3.09c-.88,0-1.54-.31-2-.93-.46-.62-.68-1.51-.68-2.66v-21.18h5.77v-10.63h-5.77v-13.72Z"/><rect class="cls-1" x="745.52" y="837.74" width="12.45" height="47.17"/><rect class="cls-1" x="745.52" y="815.81" width="12.45" height="12.45"/><path class="cls-1" d="M799.58,839.45c-3.05-1.59-6.72-2.39-11.02-2.39s-7.98,.8-11.02,2.39c-3.05,1.59-5.36,3.91-6.95,6.95-1.59,3.05-2.39,6.7-2.39,10.98v7.68c0,4.33,.8,8.04,2.39,11.11,1.59,3.08,3.91,5.42,6.95,7.02,3.04,1.61,6.72,2.41,11.02,2.41s7.98-.8,11.02-2.41c3.04-1.61,5.36-3.93,6.95-6.98,1.59-3.04,2.39-6.72,2.39-11.02v-7.82c0-4.27-.8-7.93-2.39-10.98-1.59-3.04-3.91-5.36-6.95-6.95Zm-3.11,25.74c0,2.67-.7,4.73-2.09,6.2-1.39,1.47-3.35,2.2-5.86,2.2s-4.45-.73-5.82-2.2c-1.36-1.47-2.05-3.54-2.05-6.2v-7.82c0-2.64,.69-4.68,2.07-6.14,1.38-1.45,3.31-2.18,5.79-2.18s4.47,.73,5.86,2.18c1.39,1.45,2.09,3.5,2.09,6.14v7.82Z"/><path class="cls-1" d="M855.91,842.08c-2.73-3.35-6.57-5.02-11.54-5.02-3,0-5.49,.74-7.48,2.23-1.56,1.17-2.94,2.8-4.16,4.88v-6.43h-12.45v47.17h12.45v-28.49c0-2.33,.63-4.14,1.89-5.43,1.26-1.29,3.04-1.93,5.34-1.93,2.42,0,4.29,.64,5.61,1.91,1.32,1.27,1.98,3.06,1.98,5.36v28.59h12.45v-28.63c0-6.12-1.36-10.85-4.09-14.2Z"/></g></g></g></svg>