<svg width="25" height="25" viewBox="0 0 25 25" fill="none" xmlns="http://www.w3.org/2000/svg">
<g clip-path="url(#clip0_370_5226)">
<path d="M12.5 13.5416C13.0753 13.5416 13.5417 13.0752 13.5417 12.4999C13.5417 11.9246 13.0753 11.4583 12.5 11.4583C11.9247 11.4583 11.4584 11.9246 11.4584 12.4999C11.4584 13.0752 11.9247 13.5416 12.5 13.5416Z" fill="#65B43B"/>
<path d="M16.6667 13.5416C17.242 13.5416 17.7083 13.0752 17.7083 12.4999C17.7083 11.9246 17.242 11.4583 16.6667 11.4583C16.0914 11.4583 15.625 11.9246 15.625 12.4999C15.625 13.0752 16.0914 13.5416 16.6667 13.5416Z" fill="#65B43B"/>
<path d="M8.33329 13.5416C8.90859 13.5416 9.37496 13.0752 9.37496 12.4999C9.37496 11.9246 8.90859 11.4583 8.33329 11.4583C7.758 11.4583 7.29163 11.9246 7.29163 12.4999C7.29163 13.0752 7.758 13.5416 8.33329 13.5416Z" fill="#65B43B"/>
<path d="M19.8645 5.1353C18.1554 3.41499 15.8996 2.34489 13.486 2.10951C11.0724 1.87412 8.65239 2.48819 6.64305 3.84585C4.63371 5.20351 3.16102 7.21968 2.47886 9.54677C1.7967 11.8739 1.94783 14.366 2.90619 16.5936C3.00608 16.8007 3.03885 17.0337 2.99994 17.2603L2.08327 21.6665C2.04796 21.8355 2.05517 22.0105 2.10426 22.176C2.15335 22.3415 2.24279 22.4921 2.36452 22.6145C2.46432 22.7135 2.58314 22.7914 2.71383 22.8433C2.84452 22.8952 2.98436 22.9201 3.12494 22.9165H3.33327L7.79161 22.0207C8.0182 21.9935 8.24798 22.0258 8.45827 22.1145C10.6859 23.0728 13.1781 23.224 15.5051 22.5418C17.8322 21.8596 19.8484 20.3869 21.2061 18.3776C22.5637 16.3683 23.1778 13.9482 22.9424 11.5347C22.707 9.12109 21.6369 6.86528 19.9166 5.15613L19.8645 5.1353ZM20.7291 13.8436C20.5254 15.0874 20.0423 16.2687 19.3161 17.2987C18.5899 18.3288 17.6396 19.1807 16.5366 19.7904C15.4335 20.4 14.2066 20.7516 12.9481 20.8185C11.6896 20.8855 10.4323 20.6661 9.27077 20.177C8.85884 20.0017 8.41633 19.9097 7.96869 19.9061C7.77315 19.9075 7.57805 19.9249 7.38536 19.9582L4.44786 20.552L5.04161 17.6145C5.15986 16.9783 5.08363 16.3212 4.82286 15.729C4.33368 14.5676 4.11432 13.3102 4.18129 12.0517C4.24825 10.7932 4.5998 9.56629 5.20946 8.46327C5.81913 7.36025 6.67104 6.40988 7.70108 5.68368C8.73112 4.95749 9.91246 4.47438 11.1562 4.27071C12.4617 4.05646 13.7994 4.1561 15.0588 4.5614C16.3181 4.9667 17.4629 5.66601 18.3983 6.60148C19.3338 7.53695 20.0331 8.68171 20.4384 9.94105C20.8437 11.2004 20.9434 12.5381 20.7291 13.8436Z" fill="#65B43B"/>
</g>
<defs>
<clipPath id="clip0_370_5226">
<rect width="25" height="25" fill="white"/>
</clipPath>
</defs>
</svg>
