<?xml version="1.0" encoding="utf-8"?>
<!-- Generator: Adobe Illustrator 26.3.1, SVG Export Plug-In . SVG Version: 6.00 Build 0)  -->
<svg version="1.1" id="Layer_1" xmlns="http://www.w3.org/2000/svg" xmlns:xlink="http://www.w3.org/1999/xlink" x="0px" y="0px"
	 viewBox="0 0 1440.2 270.5" style="enable-background:new 0 0 1440.2 270.5;" xml:space="preserve">
<style type="text/css">
	.st0{opacity:4.000000e-02;fill:#FFFFFF;}
</style>
<polyline class="st0" points="940.5,63.3 900.1,63.3 900.1,103.6 859.8,103.6 859.8,143.9 940.5,143.9 940.5,63.3 "/>
<path class="st0" d="M279,8.2C279,8.2,279,8.2,279,8.2c-4.4,0-8.5,1.7-11.6,4.8c-3.1,3.1-4.8,7.2-4.8,11.6c0,4.4,1.7,8.5,4.8,11.6
	c3.1,3.1,7.3,4.8,11.6,4.8c0,0,0,0,0,0c2.2,0,4.3-0.4,6.3-1.2c2-0.8,3.8-2,5.3-3.6c1.5-1.5,2.7-3.3,3.6-5.3c0.8-2,1.2-4.1,1.2-6.3
	c0-2.2-0.4-4.3-1.3-6.3c-0.8-2-2-3.8-3.6-5.3c-1.5-1.5-3.3-2.7-5.3-3.6C283.3,8.6,281.2,8.2,279,8.2"/>
<path class="st0" d="M270.5,64.5C270.5,64.5,270.5,64.5,270.5,64.5c-4.4,0-8.5,1.7-11.6,4.8c-3.1,3.1-4.8,7.2-4.8,11.6
	c0,2.2,0.4,4.3,1.2,6.3s2,3.8,3.6,5.3c1.5,1.5,3.3,2.7,5.3,3.6c2,0.8,4.1,1.3,6.3,1.3c0,0,0,0,0,0c2.2,0,4.3-0.4,6.3-1.2
	c2-0.8,3.8-2,5.3-3.6c1.5-1.5,2.7-3.3,3.6-5.3c0.8-2,1.3-4.1,1.3-6.3V81c0-2.2-0.4-4.3-1.2-6.3c-0.8-2-2-3.8-3.6-5.4
	c-1.5-1.5-3.4-2.7-5.3-3.6C274.8,64.9,272.7,64.5,270.5,64.5"/>
<path class="st0" d="M219.5,5.3c-3.2,0-6.3,1.3-8.6,3.6c-2.3,2.3-3.6,5.4-3.6,8.6c0,3.2,1.3,6.3,3.6,8.6c2.3,2.3,5.4,3.6,8.6,3.6
	c3.2,0,6.3-1.3,8.6-3.6c2.3-2.3,3.6-5.4,3.6-8.6c0-3.2-1.3-6.3-3.6-8.6C225.9,6.6,222.8,5.3,219.5,5.3"/>
<path class="st0" d="M184.3,52.3c-1.6,0-3.2,0.3-4.7,0.9c-1.5,0.6-2.8,1.5-4,2.6c-1.1,1.1-2,2.5-2.6,4c-0.6,1.5-0.9,3.1-0.9,4.7
	c0,3.2,1.3,6.3,3.6,8.6c2.3,2.3,5.4,3.6,8.6,3.6c3.2,0,6.3-1.3,8.6-3.6c2.3-2.3,3.6-5.4,3.6-8.6c0-3.2-1.3-6.3-3.6-8.6
	C190.6,53.6,187.5,52.3,184.3,52.3"/>
<path class="st0" d="M163.3,13.6c-2.5,0-4.9,1-6.6,2.8c-1.8,1.8-2.8,4.2-2.8,6.6c0,2.5,1,4.9,2.8,6.7s4.1,2.8,6.7,2.8c0,0,0,0,0,0
	c1.2,0,2.4-0.2,3.6-0.7c1.1-0.5,2.2-1.2,3.1-2c0.9-0.9,1.6-1.9,2.1-3.1c0.5-1.1,0.7-2.4,0.7-3.6h-0.1c0-2.5-1-4.9-2.8-6.6
	C168.2,14.6,165.8,13.6,163.3,13.6"/>
<path class="st0" d="M119.6,22.9C119.6,22.9,119.6,22.9,119.6,22.9C119.6,22.9,119.6,22.9,119.6,22.9L119.6,22.9 M112.6,16
	c-1.8,0-3.6,0.8-4.9,2.1c-1.3,1.3-2,3.1-2,4.9c0,1.8,0.8,3.6,2.1,4.9c1.3,1.3,3,2,4.9,2c1.8,0,3.6-0.7,4.9-2.1c1.3-1.3,2-3.1,2-4.9
	c0-1.8-0.7-3.6-2-4.9C116.2,16.7,114.4,16,112.6,16"/>
<path class="st0" d="M119.6,59.3c-0.7,0-1.5,0.1-2.1,0.4c-0.7,0.3-1.3,0.7-1.8,1.2c-0.5,0.5-0.9,1.1-1.2,1.8
	c-0.3,0.7-0.4,1.4-0.4,2.1c0,0.7,0.2,1.5,0.4,2.1c0.3,0.7,0.7,1.3,1.2,1.8c0.5,0.5,1.1,0.9,1.8,1.2c0.7,0.3,1.4,0.4,2.1,0.4
	c0,0,0,0,0,0c1.5,0,2.9-0.6,4-1.6c1-1,1.6-2.5,1.6-4s-0.6-2.9-1.6-4C122.5,59.9,121.1,59.3,119.6,59.3
	C119.6,59.3,119.6,59.3,119.6,59.3"/>
<path class="st0" d="M221.4,79.1c-1,0-2,0.2-2.9,0.6c-0.9,0.4-1.8,1-2.5,1.7c-0.7,0.7-1.3,1.6-1.7,2.5c-0.4,1-0.6,2-0.6,3
	c0,1,0.2,2,0.6,3c0.4,0.9,1,1.8,1.7,2.5c0.7,0.7,1.6,1.3,2.5,1.7c0.9,0.4,1.9,0.6,2.9,0.6c0,0,0.1,0,0.1,0c2,0,4-0.8,5.4-2.3
	s2.2-3.4,2.2-5.4c0-1-0.2-2-0.6-3c-0.4-0.9-0.9-1.8-1.7-2.5c-0.7-0.7-1.6-1.3-2.5-1.7C223.6,79.3,222.5,79.1,221.4,79.1
	C221.5,79.1,221.5,79.1,221.4,79.1"/>
<polyline class="st0" points="511.3,67.5 474.9,67.5 474.9,103.8 511.3,103.8 511.3,67.5 "/>
<polyline class="st0" points="689.2,63.7 645.3,63.7 645.3,107.6 689.2,107.6 689.2,63.7 "/>
<polyline class="st0" points="612,29.3 571.9,29.3 571.9,69.5 612,69.5 612,29.3 "/>
<polyline class="st0" points="983.4,0.6 939.8,0.6 939.8,43.1 983.4,43.1 983.4,0.6 "/>
<polyline class="st0" points="739.5,15.3 698.1,15.3 698.1,56.8 739.5,56.8 739.5,15.3 "/>
<polyline class="st0" points="887.5,0.6 795.1,0.6 795.1,40 887.5,40 887.5,0.6 "/>
<polyline class="st0" points="1242.3,64.1 1121.3,64.1 1121.3,124.6 1181.8,124.6 1181.8,188.2 1242.3,188.2 1242.3,64.1 "/>
<polyline class="st0" points="677.2,0.6 637.1,0.6 637.1,30.6 677.2,30.6 677.2,0.6 "/>
<polyline class="st0" points="826,68.3 764.2,68.3 764.2,108.4 826,108.4 826,68.3 "/>
<polyline class="st0" points="547.6,0.6 485.9,0.6 485.9,38.4 547.6,38.4 547.6,0.6 "/>
<path class="st0" d="M325.9,21.7c-0.3,0-0.6,0.1-0.9,0.2c-0.3,0.1-0.5,0.3-0.7,0.5c-0.2,0.2-0.4,0.5-0.5,0.7
	c-0.1,0.3-0.2,0.6-0.2,0.9h0v29.3c0,0.6,0.3,1.2,0.7,1.6c0.4,0.4,1,0.7,1.6,0.7h29.3c0.6,0,1.2-0.2,1.6-0.7c0.4-0.4,0.7-1,0.7-1.6
	V23.9c0-0.3-0.1-0.6-0.2-0.9c-0.1-0.3-0.3-0.5-0.5-0.7c-0.2-0.2-0.5-0.4-0.7-0.5c-0.3-0.1-0.6-0.2-0.9-0.2L325.9,21.7
	C325.9,21.7,325.9,21.7,325.9,21.7"/>
<path class="st0" d="M417.3,60.4H382c-0.6,0-1.2,0.3-1.6,0.7c-0.4,0.4-0.7,1-0.7,1.7V98c0,0.3,0.1,0.6,0.2,0.9
	c0.1,0.3,0.3,0.5,0.5,0.8c0.2,0.2,0.5,0.4,0.8,0.5c0.3,0.1,0.6,0.2,0.9,0.2h35.2c0.6,0,1.2-0.2,1.7-0.7c0.4-0.4,0.7-1,0.7-1.7V62.8
	c0-0.6-0.2-1.2-0.7-1.7C418.5,60.7,417.9,60.4,417.3,60.4"/>
<path class="st0" d="M451.4-0.5h-35.2c-0.6,0-1.2,0.2-1.7,0.7c-0.4,0.4-0.7,1-0.7,1.6v35.2c0,0.6,0.2,1.2,0.7,1.6
	c0.4,0.4,1,0.7,1.7,0.7h35.2c0.6,0,1.2-0.2,1.7-0.7c0.4-0.4,0.7-1,0.7-1.6V1.9c0-0.6-0.3-1.2-0.7-1.6C452.6-0.2,452-0.5,451.4-0.5"
	/>
<polyline class="st0" points="1104.8,0.6 1051.3,0.6 1051.3,53.2 1104.8,53.2 1104.8,0.6 "/>
<polyline class="st0" points="1051.3,53.2 997.9,53.2 997.9,169.6 1051.3,169.6 1051.3,53.2 "/>
<rect x="1285.6" y="0.6" class="st0" width="154.3" height="137.2"/>
<polygon class="st0" points="1356.9,94.7 1356.9,137.7 1356.9,269.9 1439.9,269.9 1439.9,137.7 1439.9,94.7 "/>
</svg>
