<svg width="59" height="52" viewBox="0 0 59 52" fill="none" xmlns="http://www.w3.org/2000/svg">
<path d="M58.1789 5.64073C58.1789 4.27449 57.6467 2.99038 56.6809 2.02452C55.715 1.0591 54.4313 0.527344 53.066 0.527344C53.0655 0.527344 53.0646 0.527344 53.0642 0.527344L5.11205 0.538884C2.29348 0.539328 0 2.83325 0 5.65227V9.87702C0 11.1492 0.461625 12.3503 1.30542 13.289C0.494471 14.1941 0 15.3886 0 16.6971V35.7378C0 37.1036 0.5322 38.3881 1.49806 39.354C2.46392 40.3194 3.74759 40.8512 5.11338 40.8512H5.11471L53.0669 40.8396C55.8854 40.8387 58.1789 38.5452 58.1789 35.7262V16.6855C58.1789 15.4134 57.7173 14.2123 56.8735 13.2735C57.6844 12.368 58.1789 11.1736 58.1789 9.86548V5.64073ZM54.77 35.7262C54.77 36.6659 54.0057 37.4307 53.066 37.4307L5.11383 37.4422C4.65841 37.4422 4.23052 37.2651 3.90827 36.9433C3.58647 36.6211 3.40892 36.1932 3.40892 35.7378V16.6971C3.40892 15.757 4.17326 14.9926 5.11294 14.9926L53.0651 14.9811C53.5205 14.9806 53.9484 15.1582 54.2706 15.48C54.5924 15.8022 54.77 16.2301 54.77 16.6855V35.7262ZM3.40892 5.65227C3.40892 4.71259 4.17326 3.94781 5.11294 3.94781L53.0651 3.93626H53.066C53.5209 3.93626 53.9488 4.11337 54.2706 4.43517C54.5929 4.75742 54.77 5.18531 54.77 5.64073V9.86548C54.77 10.8052 54.0057 11.5699 53.066 11.5699L5.11383 11.5815C5.11383 11.5815 5.11383 11.5815 5.11338 11.5815C4.65841 11.5815 4.23052 11.4044 3.90827 11.0826C3.58647 10.7603 3.40892 10.3324 3.40892 9.87702V5.65227Z" fill="#65B43B"/>
<path d="M9.59802 9.46947H27.3812C28.3222 9.46947 29.0857 8.70601 29.0857 7.76501C29.0857 6.82356 28.3222 6.06055 27.3812 6.06055H9.59802C8.65657 6.06055 7.89355 6.82356 7.89355 7.76501C7.89355 8.70601 8.65657 9.46947 9.59802 9.46947Z" fill="#65B43B"/>
<path d="M9.59802 20.5144H19.9007C20.8421 20.5144 21.6051 19.7514 21.6051 18.8099C21.6051 17.8689 20.8421 17.1055 19.9007 17.1055H9.59802C8.65657 17.1055 7.89355 17.8689 7.89355 18.8099C7.89355 19.7514 8.65657 20.5144 9.59802 20.5144Z" fill="#65B43B"/>
<path d="M48.2175 22.543H9.75036C8.80891 22.543 8.0459 23.306 8.0459 24.2474C8.0459 25.1884 8.80891 25.9519 9.75036 25.9519H48.2179C49.1589 25.9519 49.9224 25.1884 49.9224 24.2474C49.9224 23.306 49.1589 22.543 48.2175 22.543Z" fill="#65B43B"/>
<path d="M35.4154 27.9805H9.75036C8.80891 27.9805 8.0459 28.7435 8.0459 29.6849C8.0459 30.6264 8.80891 31.3894 9.75036 31.3894H35.4154C36.3564 31.3894 37.1198 30.6264 37.1198 29.6849C37.1198 28.7435 36.3564 27.9805 35.4154 27.9805Z" fill="#65B43B"/>
<path d="M31.3221 45.5449H5.6571C4.71609 45.5449 3.95264 46.3084 3.95264 47.2494C3.95264 48.1908 4.71609 48.9538 5.6571 48.9538H31.3221C32.2635 48.9538 33.0266 48.1908 33.0266 47.2494C33.0266 46.3084 32.2635 45.5449 31.3221 45.5449Z" fill="#65B43B"/>
<path d="M43.8271 43.9193L40.7826 46.9638L39.684 45.8652C39.0186 45.1998 37.9396 45.1998 37.2738 45.8652C36.608 46.531 36.608 47.6101 37.2738 48.2759L39.5775 50.5791C39.9099 50.912 40.3462 51.0785 40.7826 51.0785C41.2184 51.0785 41.6548 50.912 41.9877 50.5791L46.2373 46.3295C46.9031 45.6641 46.9031 44.5851 46.2373 43.9193C45.5719 43.2535 44.4929 43.2535 43.8271 43.9193Z" fill="#65B43B"/>
</svg>
