<?xml version="1.0" encoding="UTF-8"?><svg id="Layer_2" xmlns="http://www.w3.org/2000/svg" viewBox="0 0 70.87 89.87"><defs><style>.cls-1{fill:#fff;}</style></defs><g id="Layer_1-2"><g><path class="cls-1" d="M3.48,89.09c-.08,.04-.19,.08-.27,.08s-.27-.04-.27-.23v-1.51h.35v1.43s.04,.08,.08,.08h.12v.15Zm-.39-2.01c-.12,0-.19-.08-.23-.19,0-.12,.12-.19,.23-.23,.12,0,.23,.08,.23,.19s-.12,.23-.23,.23"/><path class="cls-1" d="M5.45,89.09c-.08,.04-.19,.08-.27,.08s-.27-.04-.27-.23v-.96c0-.23-.08-.27-.23-.27-.19,.04-.39,.11-.54,.23v1.2h-.35v-1.74h.35v.23c.15-.15,.39-.23,.62-.23,.35,0,.54,.08,.54,.54v.89s.04,.08,.08,.08h.12l-.04,.19Z"/><path class="cls-1" d="M6.26,89.09c-.08,.04-.19,.08-.27,.08s-.27-.04-.27-.23v-1.51h.35v1.43s.04,.08,.08,.08h.11v.15Zm-.35-2.01c-.12,0-.19-.08-.23-.19,0-.12,.12-.19,.23-.23,.12,0,.23,.08,.23,.19-.04,.12-.12,.23-.23,.23"/><path class="cls-1" d="M6.57,88.75c.15,.04,.31,.08,.46,.08,.23,0,.42-.08,.42-.23,0-.31-.89-.23-.89-.81,0-.39,.39-.5,.69-.5,.15,0,.35,.04,.5,.08l-.08,.27c-.12-.08-.27-.08-.42-.08-.23,0-.35,.08-.35,.19,0,.27,.89,.23,.89,.81,0,.35-.31,.54-.7,.54-.19,0-.39,0-.58-.08l.04-.27Z"/><path class="cls-1" d="M8.96,89.09c-.12,.04-.27,.08-.39,.08-.23,0-.39-.08-.39-.42v-1.04h-.27l.08-.27h.23v-.46l.35-.12v.58h.39v.27h-.39v1c0,.19,.08,.19,.19,.19,.08,0,.12-.04,.19-.04v.23Z"/><path class="cls-1" d="M9.27,89.13v-1.74h.35v.23c.04-.16,.19-.23,.35-.23,.12,0,.23,.04,.35,.08l-.08,.27c-.08-.04-.19-.04-.27-.08-.12,0-.23,.12-.31,.23v1.2l-.39,.04Z"/><path class="cls-1" d="M10.39,87.43h.39l.46,1.24,.39-1.24h.35l-.62,1.78c-.19,.54-.35,.66-.66,.66-.12,0-.23,0-.39-.08l.08-.31c.08,.04,.19,.04,.27,.08,.08,0,.23,0,.39-.46l-.66-1.66Z"/><path class="cls-1" d="M14.17,88.28c0-.54-.23-.66-.46-.66-.27,0-.46,.08-.46,.66,0,.54,.19,.62,.46,.62,.23,0,.46-.11,.46-.62m-1.31,0c0-.69,.39-.89,.81-.89,.46,0,.85,.19,.85,.89s-.39,.89-.85,.89-.81-.19-.81-.89"/><path class="cls-1" d="M15.02,89.13v-1.43h-.27l.08-.27h.23v-.23c0-.31,.08-.54,.5-.54,.12,0,.23,.04,.39,.08l-.08,.27c-.08-.04-.15-.04-.23-.04-.15,0-.19,.04-.19,.23v.31h.39v.27h-.35v1.43l-.46-.08Z"/><polygon class="cls-1" points="18.8 89.13 18.8 87.12 18.18 89.13 17.72 89.13 17.1 87.12 17.1 89.13 16.76 89.13 16.76 86.7 17.3 86.7 17.95 88.82 18.61 86.7 19.11 86.7 19.11 89.13 18.8 89.13"/><path class="cls-1" d="M21.27,89.09c-.08,.04-.19,.08-.27,.08-.27,0-.27-.23-.27-.23-.15,.15-.39,.23-.58,.23-.35,0-.54-.08-.54-.54v-1.2h.35v1.16c0,.23,.08,.27,.23,.27,.19,0,.39-.11,.54-.23v-1.2h.35v1.43s.04,.08,.08,.08h.12v.15Z"/><path class="cls-1" d="M23.24,89.09c-.08,.04-.19,.08-.27,.08s-.27-.04-.27-.23v-.96c0-.23-.08-.27-.23-.27-.19,.04-.39,.11-.54,.23v1.2h-.35v-1.74h.35v.23c.15-.15,.39-.23,.62-.23,.35,0,.54,.08,.54,.54v.89s.04,.08,.08,.08h.12l-.04,.19Z"/><path class="cls-1" d="M24.09,89.09c-.08,.04-.19,.08-.27,.08-.15,0-.27-.08-.27-.23v-1.51h.35v1.43s.04,.08,.08,.08h.12v.15Zm-.42-2.01c-.12,0-.23-.08-.23-.19s.12-.19,.23-.23c.12,0,.23,.08,.23,.19s-.12,.23-.23,.23"/><path class="cls-1" d="M25.56,89.09c-.15,.08-.35,.12-.54,.08-.35,0-.77-.23-.77-.93,0-.39,.23-.89,.81-.89,.19,0,.39,.04,.54,.08l-.08,.31c-.15-.08-.27-.08-.42-.08-.46,0-.5,.39-.5,.62,0,.46,.23,.58,.54,.58,.15,0,.31-.04,.43-.08v.31Z"/><path class="cls-1" d="M26.52,89.09c-.08,.04-.19,.08-.27,.08s-.27-.04-.27-.23v-1.51h.35v1.43s.04,.08,.08,.08h.11v.15Zm-.35-2.01c-.12,0-.23-.08-.23-.19s.12-.19,.23-.23c.12,0,.23,.08,.23,.19-.04,.12-.12,.23-.23,.23"/><path class="cls-1" d="M27.14,88.71c.12,.08,.27,.15,.39,.15,.31,0,.5-.12,.5-.58,0-.39-.08-.62-.42-.62-.23,0-.46,.15-.46,.42v.62Zm-.35,1.12v-2.43h.35v.23c.12-.19,.35-.31,.58-.27,.35,0,.69,.19,.69,.89,0,.5-.23,.89-.77,.89-.19,0-.35-.04-.5-.15v.81h-.35v.04Z"/><path class="cls-1" d="M29.8,88.32c-.08,0-.19-.04-.23-.04-.27,0-.42,.08-.42,.31s.23,.23,.31,.23c.19,0,.35-.16,.39-.35v-.15h-.04Zm.54,.77c-.08,.04-.19,.08-.27,.08-.12,0-.27-.08-.27-.19v-.04c-.12,.15-.31,.27-.5,.23-.39,0-.54-.19-.54-.5,0-.46,.39-.58,.77-.58,.08,0,.19,0,.27,.04v-.15c0-.23-.23-.23-.43-.23s-.35,.04-.54,.08l.08-.27c.19-.08,.35-.12,.54-.08,.42,0,.66,.12,.66,.66v.81s.04,.08,.08,.08h.12l.04,.08Z"/><path class="cls-1" d="M31.15,89.09c-.08,.04-.19,.08-.27,.08s-.27-.04-.27-.23v-2.2h.35v2.12s.04,.08,.08,.08h.12v.15Z"/><path class="cls-1" d="M32.66,88.01c-.08,.04-.27,.12-.27,.46s.23,.39,.42,.39c.15,0,.31-.08,.42-.19-.12-.19-.39-.46-.58-.66m1.51,1.12c-.08,.04-.15,.04-.23,.04-.19-.04-.35-.12-.42-.27-.19,.19-.43,.27-.7,.27-.42,0-.81-.19-.81-.69-.04-.31,.15-.62,.46-.73-.12-.15-.19-.35-.23-.54,0-.31,.23-.54,.54-.54h.08c.19,0,.39,.04,.58,.12l-.08,.31c-.15-.08-.31-.08-.46-.08-.19,0-.31,.08-.31,.23,0,.27,.19,.54,.81,1.2,.08-.23,.15-.46,.12-.69h.66l-.08,.31h-.27c0,.23-.08,.46-.19,.7,.11,.15,.19,.23,.35,.23,.08,0,.12,0,.19-.04v.19Z"/><path class="cls-1" d="M55.27,88.01c-.08,.04-.27,.12-.27,.46s.23,.39,.42,.39c.15,0,.31-.08,.42-.19-.12-.19-.39-.46-.58-.66m1.51,1.12c-.08,.04-.15,.04-.23,.04-.19-.04-.35-.12-.42-.27-.15,.19-.43,.27-.66,.27-.43,0-.81-.19-.81-.69-.04-.31,.16-.62,.46-.73-.11-.15-.19-.35-.23-.54,0-.31,.23-.54,.54-.54h.04c.19,0,.39,.04,.58,.12l-.08,.31c-.15-.08-.31-.08-.46-.08-.19,0-.31,.08-.31,.23,0,.27,.19,.54,.81,1.2,.08-.23,.15-.46,.12-.69h.66l-.08,.31h-.27c0,.23-.08,.46-.19,.7,.11,.15,.19,.23,.35,.23,.08,0,.12,0,.19-.04v.19Z"/><path class="cls-1" d="M36.17,87.9c.19,0,.39-.08,.39-.42,0-.27-.15-.46-.39-.46h-.5v.89h.5Zm.43,1.23l-.46-.89h-.42v.89h-.39v-2.43h.77c.58,0,.85,.31,.85,.77,0,.31-.15,.58-.42,.7l.54,.96h-.46Z"/><path class="cls-1" d="M39.03,89.09c-.08,.04-.19,.08-.27,.08-.27,0-.27-.23-.27-.23-.15,.15-.39,.23-.58,.23-.35,0-.54-.08-.54-.54v-1.2h.35v1.16c0,.23,.08,.27,.23,.27,.19,0,.39-.11,.54-.23v-1.2h.35v1.43s.04,.08,.08,.08h.12v.15Z"/><path class="cls-1" d="M39.3,89.13v-1.74h.35v.23c.04-.16,.19-.23,.35-.23,.12,0,.23,.04,.35,.08l-.08,.27c-.08-.04-.19-.04-.27-.08-.12,0-.23,.12-.31,.23v1.2l-.39,.04Z"/><path class="cls-1" d="M41.53,88.32c-.08,0-.19-.04-.23-.04-.27,0-.42,.08-.42,.31s.23,.23,.31,.23c.19,0,.35-.16,.39-.35v-.15h-.04Zm.54,.77c-.08,.04-.19,.08-.27,.08-.12,0-.27-.08-.27-.19v-.04c-.12,.15-.31,.27-.5,.23-.39,0-.54-.19-.54-.5,0-.46,.39-.58,.77-.58,.08,0,.19,0,.27,.04v-.15c0-.23-.23-.23-.43-.23s-.35,.04-.54,.08l.08-.27c.19-.08,.35-.12,.54-.08,.42,0,.69,.12,.69,.66v.81s.04,.08,.08,.08h.12v.08Z"/><path class="cls-1" d="M42.88,89.09c-.08,.04-.19,.08-.27,.08-.15,0-.27-.08-.27-.23v-2.2h.35v2.12s.04,.08,.08,.08h.12v.15Z"/><path class="cls-1" d="M44.74,87.16l-.39,1.08h.69l-.31-1.08Zm.62,1.97l-.19-.54h-.89l-.19,.54h-.39l.81-2.43h.39l.81,2.43h-.35Z"/><path class="cls-1" d="M47.32,89.13v-1.43h-.27l.08-.27h.23v-.23c0-.31,.08-.54,.5-.54,.12,0,.23,.04,.39,.08l-.08,.27c-.08-.04-.15-.04-.23-.04-.15,0-.19,.04-.19,.23v.31h.39v.27h-.39v1.43l-.42-.08Zm-1.2,0v-1.43h-.27l.08-.27h.23v-.23c0-.31,.08-.54,.5-.54,.12,0,.23,.04,.39,.08l-.08,.27c-.08-.04-.15-.04-.23-.04-.15,0-.19,.04-.19,.23v.31h.39v.27h-.39v1.43l-.42-.08Z"/><path class="cls-1" d="M49.33,88.32c-.08,0-.19-.04-.23-.04-.27,0-.42,.08-.42,.31s.23,.23,.31,.23c.19,0,.35-.16,.39-.35v-.15h-.04Zm.58,.77c-.08,.04-.19,.08-.27,.08-.12,0-.27-.08-.27-.19v-.04c-.12,.15-.31,.27-.5,.23-.39,0-.54-.19-.54-.5,0-.46,.39-.58,.77-.58,.08,0,.19,0,.27,.04v-.15c0-.23-.23-.23-.43-.23s-.35,.04-.54,.08l.08-.27c.19-.08,.35-.12,.54-.08,.42,0,.66,.12,.66,.66v.81s.04,.08,.08,.08h.12l.04,.08Z"/><path class="cls-1" d="M50.76,89.09c-.08,.04-.19,.08-.27,.08s-.27-.04-.27-.23v-1.51h.35v1.43s.04,.08,.08,.08h.12v.15Zm-.42-2.01c-.12,0-.23-.08-.23-.19s.12-.19,.23-.23c.12,0,.19,.08,.23,.19,0,.12-.12,.23-.23,.23"/><path class="cls-1" d="M50.99,89.13v-1.74h.35v.23c.04-.16,.19-.23,.35-.23,.12,0,.23,.04,.35,.08l-.08,.27c-.08-.04-.19-.04-.27-.08-.12,0-.23,.12-.31,.23v1.2l-.39,.04Z"/><path class="cls-1" d="M52.3,88.75c.15,.04,.31,.08,.46,.08,.23,0,.42-.08,.42-.23,0-.31-.89-.23-.89-.81,0-.39,.39-.5,.69-.5,.15,0,.35,.04,.5,.08l-.08,.27c-.12-.08-.27-.08-.42-.08-.23,0-.35,.08-.35,.19,0,.27,.89,.23,.89,.81,0,.35-.31,.54-.7,.54-.19,0-.39,0-.58-.08l.04-.27Z"/><polygon class="cls-1" points="57.94 86.7 58.4 86.7 58.4 87.66 59.36 87.66 59.36 86.7 59.83 86.7 59.83 89.09 59.36 89.09 59.36 88.05 58.4 88.05 58.4 89.09 57.94 89.09 57.94 86.7"/><path class="cls-1" d="M60.25,88.24c0-.12,.04-.27,.08-.39,.08-.23,.27-.42,.46-.5,.12-.04,.27-.08,.39-.08s.27,.04,.39,.08c.23,.08,.39,.27,.46,.5,.04,.12,.08,.27,.08,.39s-.04,.27-.08,.39c-.04,.12-.12,.19-.19,.27-.08,.08-.19,.15-.31,.19-.12,.04-.23,.08-.39,.08-.12,0-.27-.04-.39-.08-.23-.08-.39-.27-.46-.46,0-.15-.04-.27-.04-.39m.5-.08v.08s0,.08,.04,.12c0,.04,0,.08,.04,.12,0,.04,.04,.08,.08,.11,.04,.04,.08,.08,.12,.08,.04,.04,.08,.04,.12,.04h.12c.08,0,.15,0,.23-.04,.04-.04,.12-.08,.12-.15,.04-.08,.04-.11,.08-.19,0-.08,.04-.15,.04-.23s0-.16-.04-.19c0-.08-.04-.12-.08-.16-.04-.04-.08-.08-.15-.11-.08-.04-.12-.04-.19-.04s-.12,0-.19,.04c-.04,.04-.12,.08-.15,.11-.04,.04-.08,.12-.08,.16-.08,.15-.08,.23-.08,.27"/><path class="cls-1" d="M64.11,89.09h-.42v-.23c-.16,.19-.35,.27-.58,.27-.08,0-.19,0-.27-.04-.08-.04-.15-.08-.19-.15-.04-.08-.08-.15-.11-.23-.04-.08-.04-.19-.04-.27v-1.12h.46v1.12s0,.08,.04,.12c0,.04,.04,.11,.12,.11,.04,.04,.12,.04,.15,.04,.08,0,.15,0,.19-.04,.04-.04,.08-.08,.12-.15,.04-.08,.04-.12,.08-.19,0-.08,.04-.12,.04-.19v-.85h.46l-.04,1.81Z"/><path class="cls-1" d="M65.62,87.7c-.08-.04-.12-.04-.19-.04h-.27s-.08,0-.08,.04c-.04,0-.04,.04-.08,.08,0,.04-.04,.08-.04,.08,0,.04,0,.08,.04,.08t.08,.04s.08,.04,.11,.04l.16,.04s.12,.04,.15,.08l.12,.12s.08,.08,.08,.15c.04,.08,.04,.15,.04,.19,0,.08,0,.19-.08,.27-.04,.08-.12,.12-.15,.19-.08,.04-.15,.08-.23,.12-.08,.04-.19,.04-.27,.04s-.19,0-.27-.04c-.08,0-.15-.04-.27-.04l.04-.39c.15,.08,.31,.12,.46,.12h.12s.08-.04,.08-.04c.04,0,.04-.04,.08-.08s.04-.08,.04-.12v-.08s0-.04-.04-.04c0-.04-.04-.04-.08-.04s-.08-.04-.12-.04l-.12-.04s-.08-.04-.12-.04-.08-.04-.11-.08c-.08-.04-.16-.12-.19-.23-.04-.04-.04-.11-.04-.19,0-.15,.08-.31,.23-.42,.08-.04,.15-.08,.23-.12,.08-.04,.15-.04,.27-.04h.27c.08,0,.15,.04,.23,.04l-.08,.39Z"/><path class="cls-1" d="M66.12,86.58h.46v.42h-.46v-.42Zm0,.77h.46v1.78h-.46v-1.78Z"/><path class="cls-1" d="M67.05,87.36h.42v.23c.08-.08,.15-.16,.27-.23,.12-.04,.23-.08,.35-.08,.08,0,.19,0,.27,.04,.08,.04,.16,.08,.19,.15,.04,.08,.08,.15,.12,.23,.04,.08,.04,.19,.04,.27v1.12h-.46v-1.08s0-.12-.04-.15c0-.04-.04-.12-.12-.12-.04-.04-.12-.04-.15-.04-.08,0-.15,0-.19,.04-.04,.04-.08,.08-.12,.15-.04,.08-.04,.12-.08,.19,0,.08-.04,.12-.04,.19v.85h-.46v-1.78Z"/><path class="cls-1" d="M70.75,87.36v1.58c.04,.27-.08,.5-.23,.69-.19,.15-.46,.23-.7,.23-.12,0-.19,0-.31-.04-.12-.04-.19-.04-.31-.08l.04-.39s.08,.04,.12,.04c.04,.04,.08,.04,.15,.04s.08,.04,.15,.04h.12c.08,0,.15,0,.19-.04,.08,0,.12-.04,.16-.08s.08-.08,.11-.15c.04-.08,.04-.12,.04-.19v-.23l-.12,.12s-.08,.08-.12,.08c-.04,.04-.12,.04-.15,.04h-.15c-.12,0-.23-.04-.35-.08-.08-.04-.15-.12-.23-.19-.08-.08-.12-.19-.12-.27-.04-.12-.04-.23-.04-.35s0-.23,.04-.35c.04-.12,.08-.19,.12-.31,.08-.08,.15-.15,.23-.23,.12-.04,.23-.08,.35-.08s.23,.04,.31,.08c.08,.04,.19,.12,.23,.23v-.23l.46,.12Zm-.85,1.39c.08,0,.12,0,.19-.04,.04-.04,.08-.08,.12-.12,.04-.04,.04-.12,.08-.19,0-.08,.04-.12,.04-.19v-.19c0-.08-.04-.12-.08-.19-.04-.04-.08-.12-.11-.12-.04-.04-.12-.04-.19-.04s-.15,0-.19,.04c-.04,.04-.08,.08-.12,.12-.04,.04-.04,.12-.08,.19,0,.08-.04,.11-.04,.19s0,.11,.04,.19c0,.08,.04,.11,.08,.19,.04,.04,.08,.12,.12,.12,.04,.04,.08,.04,.15,.04"/><path class="cls-1" d="M35.44,57.33c-17.18,0-31.15-14.01-31.15-31.15l.23-4.32h4.86v-6.52h.54v-1.04h2.32l.7,1.12h1.23v8.3h.96v1.2h.35v-6.64h3.9v1.74h1.27v3.24h2.2v-3.13h2.93l1.04,1.31v3.55h6.02v.85h-6.91v-4.13l-.58-.73h-1.58v4.21h-1.24v-1.08h-2.78v-3.24h-1.2v-1.74h-2.12v6.72h-2.12v-1.2h-.96v-8.34h-.81l-.69-1.12h-.93v1.04h-.54v6.52H5.45l-.19,3.43c0,16.63,13.55,30.18,30.22,30.18s30.18-13.47,30.22-30.1h-3.13v-5.25h-1.81v-2.74h-2.12v-1.2h-2.62v.81l-.54,.58v4.9h-2.66v-3.63l-.7-.77h-1.39v-1.27h-1.66v8.14h-2.7v-2.97h-2.39v2.97h-6.37v-.89h5.44v-2.97h4.21v2.97h.89v-8.07h3.47v1.27h.96l1.16,1.27v3.13h.81v-4.36l.54-.58v-1.35h4.4v1.2h2.12v2.74h1.81v5.25h3.09v.77c.12,17.14-13.89,31.11-31.07,31.11"/><path class="cls-1" d="M23.66,44.79c-.27,0-.5,.08-.77,.19-.66,.46-.85,1.35-.46,2.05,.19,.35,.5,.54,.96,.69,.15,0,.27,.04,.46,.04,1.89,0,3.59-1.2,4.98-2.32l.23-.23,.19,.27c.66,1.08,1.7,1.81,2.93,2.08h.27c.81,0,1.77-.39,1.93-1.27,.08-.69-.27-1.35-.89-1.66-.35-.15-.85-.15-1.51,.15-.15,.08-.23,.23-.27,.54-.08,.27-.19,.73-.66,.73-.42-.04-.85-.27-1.08-.66-.12-.19-.12-.42,0-.62,.96-1.47,2.28-2.51,3.47-3.47,.58-.46,1.16-.93,1.7-1.43l.23-.19,.23,.19c.54,.5,1.08,.96,1.7,1.39,1.27,1.04,2.66,2.08,3.47,3.67,.08,.12,.08,.23,.04,.35-.12,.27-.66,.73-1.04,.77-.15,.04-.35,0-.46-.12-.12-.15-.15-.31-.15-.5,0-.11,0-.23-.04-.35-.19-.35-.58-.46-.96-.58-.73-.19-1.54,.39-1.74,1.2-.08,.35,0,.73,.19,1.04,.39,.5,.96,.81,1.62,.81,1.27,0,2.7-1.08,3.32-2.12l.19-.27,.23,.23c1.27,1.04,2.97,2.2,4.67,2.2,.46,0,.89-.08,1.31-.23,.31-.15,.54-.46,.66-.77,.12-.39,.04-.77-.19-1.12-.27-.42-.77-.66-1.27-.66s-.96,.23-1.27,.66l-.15,.23-.23-.08c-.85-.35-1.93-.81-2.47-1.78-.23-.35-.12-.77,.08-1.12,.19-.31,.35-.39,.5-.39,.08,0,.15,0,.19,.04,.39,.23,.81,.39,1.27,.39,.69,.04,1.31-.46,1.47-1.16,.08-.39,0-.77-.23-1.08-.23-.35-.58-.58-.96-.7h-.23c-.69,0-1.35,.31-1.77,.85-.27,.35-.39,.73-.54,1.2-.12,.39-.27,.77-.46,1.12l-.19,.27-5.4-4.98,.23-.23c5.83-5.6,13.62-7.57,20.03-8.14-.81-.08-1.66-.12-2.47-.12-7.06,0-13.74,2.43-18.76,6.83l-.19,.15-.19-.15c-2.62-1.93-6.17-4.32-10.27-5.52-3.82-1.12-7.6-1.54-11.27-1.24,6.37,.58,14.2,2.55,20.07,8.18l.23,.23-5.36,4.98-.19-.27c-.23-.35-.39-.73-.46-1.12-.15-.43-.23-.81-.54-1.2-.39-.39-.85-.66-1.35-.81-.81-.19-1.62,.31-1.81,1.12v.08c-.11,.66,.27,1.31,.89,1.66,.12,.04,.23,.04,.35,.04,.39,0,.77-.19,1.2-.35l.19-.08s.12-.04,.19-.04c.27,.04,.5,.19,.62,.43,.19,.35,.27,.77,.04,1.08-.54,.93-1.62,1.39-2.47,1.78l-.23,.08-.15-.19c-.39-.39-.89-.7-1.39-.7m.23,3.55c-.19,0-.39,0-.58-.04-.73-.19-1.16-.5-1.39-.96-.54-.93-.23-2.16,.69-2.82,.89-.5,2.05-.31,2.74,.46,.73-.27,1.58-.73,1.97-1.43,.04-.12,.04-.23,0-.35-.04-.12-.08-.19-.15-.27l-.15,.08c-.46,.23-.93,.35-1.43,.35-.19,0-.39-.04-.58-.12-.85-.42-1.35-1.35-1.27-2.28,.23-1.04,1.04-1.74,2.05-1.74,.15,0,.35,.04,.5,.08h.04c.62,.19,1.16,.54,1.62,1,.31,.42,.54,.89,.7,1.39,.08,.23,.15,.42,.27,.66l4.36-4.05c-6.68-6.25-15.9-7.8-22.5-7.95l-2.74-.08,2.66-.5c4.67-.89,9.61-.66,14.55,.81,4.05,1.2,7.6,3.55,10.27,5.48,5.13-4.4,11.85-6.83,18.99-6.83,1.89,0,3.78,.19,5.64,.54l2.74,.5-2.82,.08c-6.6,.19-15.82,1.74-22.5,7.99l4.36,4.05c.12-.23,.15-.42,.23-.66,.15-.46,.27-.96,.66-1.39,.62-.77,1.62-1.16,2.62-1.04,.54,.12,1,.46,1.31,.89,.31,.46,.42,1,.35,1.54-.23,.97-1.08,1.62-2.05,1.58-.5,0-.96-.16-1.39-.39-.08,.15-.15,.42-.08,.54,.39,.73,1.27,1.16,1.97,1.43,.39-.46,1-.73,1.62-.73,.69,0,1.35,.35,1.77,.93,.35,.46,.43,1.08,.23,1.62-.12,.5-.46,.93-.97,1.16-.5,.23-1,.31-1.54,.35-1.78,0-3.47-1.12-4.79-2.12-.81,1.08-2.28,2.12-3.67,2.12-.85,0-1.62-.39-2.12-1.08-.31-.46-.42-1-.27-1.54,.23-.96,1.12-1.7,2.01-1.7,.15,0,.31,.04,.42,.08,.5,.12,1.08,.27,1.35,.85,.15,.19,.12,.46,.12,.66,.19-.08,.35-.19,.46-.35-.77-1.43-2.01-2.36-3.32-3.4-.54-.39-1.04-.81-1.51-1.27-.5,.46-1,.85-1.51,1.27-1.27,1-2.43,1.97-3.32,3.36,.04,.12,.35,.35,.54,.35,.04-.08,.08-.23,.11-.27,.08-.35,.19-.77,.66-.96,.77-.35,1.39-.35,1.97-.12,.85,.42,1.35,1.35,1.24,2.32-.27,1.35-1.74,1.89-2.9,1.78-1.31-.23-2.43-1-3.2-2.08-1.43,1.16-3.09,2.28-5.06,2.24"/><path class="cls-1" d="M46.82,8.16l.77,.58-.54-.77c-3.47-4.98-7.37-5.13-8.65-5.02,.35-.39,.81-.7,1.27-.89l.42-.19-.42-.12c-.93-.23-2.28-.46-3.36,.46-.19-.93-.62-1.97-.85-2.16-.08-.04-.15-.08-.19-.04-.27,.08-.81,.85-1.08,2.2-.77-.66-2.16-.93-3.28-.35l-.35,.19,.35,.12c.46,.19,.89,.5,1.2,.89-5.09,.12-6.91,2.62-8.41,4.63l-.35,.42,.23,.23c2.08-1.93,5.33-2.59,6.87-2.2-1.85,.77-5.4,2.89-6.64,9.03l-.15,.77,.42-.69c2.05-3.24,4.01-5.17,6.37-6.25-1.54,2.32-3.63,6.33-2.82,9.92l.12,.66,.15-.7c.77-3.55,2.86-6.48,4.24-7.83-1.12,3.94-.7,7.76-.12,9.26l.27,.7,.04-.73c.23-3.28,1.12-6.75,1.77-8.41l.46,3.24-.27,.08,.23,4.44h-.35l.35,4.55-.39,.12v.15s.27,2.86,.39,4.48c-.46,.27-.89,.62-1.27,1v.27h3.98v-.35c-.38-.5-1-.81-1.23-.96l.42-4.79-.42,.04,.27-4.71-.35,.04,.23-4.44h-.35c.08-.39,.23-1.47,.39-3.28,.85,1.47,1.62,4.52,2.01,8.34l.12,1.16,.19-1.12c.73-4.63,.04-8.18-.27-9.38,1.2,1.16,3.55,5.21,4.32,8.1l.23,.85,.08-.89c.27-3.86-.62-6.83-3.05-10,1,.27,2.24,1.12,3.51,2.39,1.2,1.16,2.2,2.47,3.01,3.94l.35,.69-.08-.77c-.46-4.75-4.01-8.07-6.56-9.07,2.35-.35,5.71,1.43,6.75,2.16"/><path class="cls-1" d="M3.87,68.56h-1.39v-.58l-.42,.58h-.35c-.58,0-.96-.15-1.27-.46-.23-.31-.39-.7-.35-1.08v-1.43c-.04-.46,.15-.89,.5-1.2,.27-.23,.66-.35,1-.35h1.74v3.59h.54v.93Zm-2.74-5.56c-.12,0-.27-.04-.35-.15-.19-.19-.23-.54-.04-.73s.54-.23,.73-.04,.23,.54,.04,.73c-.12,.16-.27,.19-.39,.19m1.35,4.71v-2.74h-.85c-.39,0-.62,.23-.62,.66v1.47c-.08,.31,.12,.58,.39,.66h.23l.85-.04Zm-.08-4.71c-.27,0-.5-.23-.5-.5s.23-.5,.5-.5c.12,0,.27,.04,.35,.15,.19,.19,.19,.5,0,.73-.08,.08-.19,.15-.35,.11m2.9,5.56h-1.43v-.85h1.43v.85Zm1.93-.31c-.31,.19-.66,.31-1.04,.27h-.96v-.85h1.04c.42,0,.66-.19,.66-.58v-3.01h.85v2.97c0,.5-.19,.93-.54,1.2m-.73,2.12c0,.27-.23,.5-.5,.5-.15,0-.27-.04-.35-.16-.19-.19-.19-.5,0-.73,.19-.23,.5-.19,.73,0,.08,.12,.12,.23,.12,.39m.81,.5c-.15,0-.27-.04-.39-.16-.19-.19-.19-.5,0-.73,.12-.12,.23-.15,.39-.15,.12,0,.27,.04,.35,.15,.19,.19,.19,.5,0,.73-.08,.12-.19,.16-.35,.16m5.64-2.32h-3.98v-.85h2.59v-1.43c0-.85-.42-1.27-1.27-1.27h-.58v-.85h.66c1.08-.08,2.01,.77,2.08,1.85v1.74h.54v.85l-.04-.04Zm2.35,0h-2.39v-.85h1v-5.4h.85v5.4h.54v.85Zm3.01,0h-3.05v-.85h1.7v-3.59h.85v3.59h.54l-.04,.85Zm-.96,2.32c-.15,0-.27-.04-.39-.16-.19-.19-.19-.5,0-.73,.12-.12,.23-.15,.39-.15,.27,0,.5,.23,.5,.5,0,.31-.19,.54-.5,.54m2.35-2.7c-.23,.23-.62,.35-1.12,.35h-.39v-.85h.35c.19,.04,.39-.04,.54-.15,.11-.12,.15-.27,.15-.5v-4.75h.85v4.82c.08,.42-.08,.81-.39,1.08m2.55,.39l-.85,.46v-6.75h.85v6.29Zm7.1,1.12c.35-.19,.54-.58,.54-.96v-4.63h.85v4.71c0,.77-.35,1.27-1,1.7-.54,.31-1.16,.46-1.78,.42-.77,0-1.43-.19-1.97-.58-.5-.35-.81-.96-.77-1.58v-2.28l.85-.58v2.74c-.04,.46,.23,.93,.7,1.12,.39,.19,.81,.27,1.24,.27,.42,.04,.93-.08,1.35-.35m-1.31-6.64c-.15,0-.27-.04-.39-.15-.19-.19-.19-.5,0-.73,.11-.11,.23-.15,.39-.15,.27,0,.5,.23,.5,.5,0,.11-.04,.27-.15,.35-.08,.12-.23,.19-.35,.19m6.56,7.29c-.35,.35-.89,.5-1.66,.54l-.58-.77h.15c1.2,0,1.77-.42,1.77-1.27v-.23h-.77c-.54,0-.93-.15-1.23-.42-.27-.23-.39-.62-.39-1.12v-1.47c0-.5,.15-.89,.43-1.16,.27-.23,.62-.35,1.08-.35h1.74v4.55c.08,.77-.15,1.35-.54,1.7m-.27-2.62v-2.74h-.85c-.23,0-.39,.04-.46,.15-.12,.15-.15,.31-.15,.5v1.43c0,.23,.04,.42,.15,.54,.19,.12,.42,.15,.66,.15l.66-.04Zm5.87,.85h-.54v.12c0,.77-.19,1.31-.58,1.7-.35,.35-.89,.5-1.66,.54l-.58-.77h.15c1.2,0,1.77-.42,1.77-1.27v-.23h-.73c-.54,0-.93-.15-1.23-.42-.27-.31-.42-.7-.39-1.12v-1.51c0-.5,.15-.89,.42-1.16,.23-.23,.62-.35,1.08-.35h1.74v3.59h.54v.89Zm-1.35-5.52h-1.62v-.35h.39c-.08-.12-.12-.23-.12-.35,0-.19,.08-.35,.19-.5,.12-.12,.31-.19,.5-.19h.35v.35h-.27c-.27,0-.42,.12-.42,.35s.15,.35,.42,.35h.5v.35h.08Zm-.08,4.67v-2.74h-.85c-.23,0-.39,.04-.46,.15-.12,.15-.15,.31-.15,.5v1.43c0,.23,.04,.42,.15,.54,.19,.12,.42,.15,.66,.15l.66-.04Zm9.76,.85h-8.41v-.85h2.51v-3.59h.85v3.59h1.51v-3.59h.85v3.59h1.51v-3.59h.85v3.59h.35v.85Zm-3.24-6.06c0,.27-.23,.5-.5,.5s-.5-.23-.5-.5c0-.16,.04-.27,.15-.39,.12-.12,.23-.16,.39-.16,.12,0,.27,.04,.35,.16,.08,.12,.08,.23,.11,.39m.54-1.2c0,.12-.04,.23-.15,.35-.08,.08-.19,.15-.35,.15-.12,0-.23-.04-.35-.15-.08-.08-.15-.19-.15-.35,0-.12,.04-.23,.15-.35,.08-.08,.19-.16,.35-.16,.12,0,.23,.04,.35,.16,.12,.12,.15,.23,.15,.35m.81,1.2c0,.27-.23,.5-.5,.5-.15,0-.27-.04-.39-.15-.12-.08-.15-.23-.15-.35,0-.16,.04-.27,.15-.39,.11-.12,.23-.16,.39-.16,.11,0,.27,.04,.35,.16,.08,.12,.12,.23,.15,.39m3.32,5.67c-.23,.23-.62,.35-1.12,.35h-.35v-.85h.35c.27,0,.43-.04,.54-.15,.11-.12,.15-.27,.15-.5v-4.75h.85v4.82c0,.42-.12,.81-.42,1.08m2.51,.39l-.85,.46v-6.75h.85v6.29Zm6.17-4.48v2.93c0,.58-.19,.96-.58,1.23-.31,.19-.66,.31-1.04,.27-.5,0-.93-.15-1.2-.42-.31-.31-.46-.7-.42-1.12v-1.39c0-.5,.15-.89,.46-1.2,.31-.23,.66-.39,1.04-.35h1.74v.04Zm-2.24-1.04c-.12,0-.27-.04-.35-.15-.19-.19-.23-.54,0-.73,.23-.19,.54-.23,.73,0,.19,.19,.23,.54,0,.73-.12,.08-.27,.15-.39,.15m.62,4.67c.5,0,.77-.23,.73-.66v-2.12h-.85c-.39,0-.62,.23-.62,.66v1.43c0,.46,.23,.66,.73,.69m.7-4.67c-.27,0-.5-.23-.5-.5,0-.12,.04-.27,.16-.35,.19-.19,.54-.19,.73,0,.19,.19,.19,.5,0,.7-.12,.08-.23,.15-.39,.15m3.71,5.91c0,.93-.42,1.58-1.31,1.97l-.62-.77c.42-.15,.73-.27,.85-.5,.15-.31,.23-.62,.23-.97v-4.59h.85v4.86Zm2.12-.39l-.85,.46v-6.75h.85v6.29Zm2.78,.39c0,.93-.42,1.58-1.31,1.97l-.62-.77c.42-.15,.73-.27,.85-.5,.15-.31,.23-.62,.23-.97v-4.59h.85v4.86Zm-.42-5.91c-.15,0-.27-.04-.39-.15-.19-.19-.19-.5,0-.73,.12-.11,.23-.15,.39-.15,.27,0,.5,.23,.5,.5,0,.31-.23,.54-.5,.54m4.28,7.29c-.35,.35-.89,.5-1.66,.54l-.58-.77h.15c1.2,0,1.78-.42,1.78-1.27v-.23h-.77c-.54,0-.93-.15-1.24-.42-.27-.31-.42-.7-.39-1.12v-1.47c0-.5,.15-.89,.42-1.16,.27-.23,.62-.35,1.08-.35h1.74v4.55c.04,.77-.12,1.35-.54,1.7m-.27-2.62v-2.74h-.85c-.23,0-.39,.04-.46,.15-.12,.15-.16,.31-.16,.5v1.43c0,.23,.04,.42,.16,.54,.19,.12,.42,.15,.66,.15l.66-.04Z"/><path class="cls-1" d="M64.96,71.07l-.77-1,.19-.08c.31-.08,.58-.23,.77-.46,.16-.19,.19-.46,.19-.89v-4.71h1.12v4.98c0,.96-.46,1.7-1.39,2.08l-.12,.08Zm-.39-.89l.42,.54c.77-.35,1.16-.93,1.16-1.78v-4.71h-.58v4.44c0,.46-.08,.81-.27,1.04-.16,.23-.42,.39-.73,.46m-4.55,.89l-.77-1,.19-.08c.31-.08,.58-.23,.77-.46,.15-.19,.19-.46,.19-.89v-4.71h1.12v4.98c0,.96-.46,1.7-1.39,2.08l-.12,.08Zm-.31-.89l.42,.54c.77-.35,1.16-.93,1.16-1.78v-4.71h-.58v4.44c0,.46-.08,.81-.27,1.04-.19,.19-.46,.35-.73,.46m-31.76,.89c-.73,0-1.43-.19-2.05-.58-.54-.39-.89-1-.85-1.7v-2.32l1.16-.77v2.97c0,.42,.23,.81,.62,.96,.35,.15,.77,.27,1.16,.27,.46,.04,.93-.08,1.31-.35,.31-.19,.46-.5,.46-.85v-4.75h1.16v4.83c.04,.77-.38,1.47-1.08,1.78-.62,.35-1.23,.5-1.89,.5m-2.66-4.48v2.2c0,.58,.27,1.12,.77,1.47,.58,.39,1.24,.58,1.89,.54,.62,0,1.2-.12,1.74-.42,.62-.31,.96-.93,.93-1.58v-4.55h-.62v4.48c.04,.42-.19,.85-.58,1.08-.42,.27-.97,.42-1.47,.39-.46,0-.89-.08-1.27-.27-.46-.23-.77-.7-.73-1.23v-2.47l-.66,.39Zm43.19,4.44l-.77-1.04h.39c1.12,0,1.66-.39,1.66-1.2v-.15h-.62c-.58,0-1-.15-1.31-.46-.31-.31-.46-.73-.42-1.2v-1.39c-.04-.46,.15-.93,.5-1.27,.31-.27,.73-.42,1.16-.39h1.81v4.71c0,.77-.23,1.39-.66,1.78-.39,.35-.97,.54-1.74,.62m-.23-.81l.35,.5c.7-.08,1.2-.23,1.47-.5,.35-.35,.54-.85,.54-1.58v-4.4h-1.58c-.7-.08-1.31,.42-1.35,1.12v1.7c0,.42,.12,.77,.35,1,.31,.27,.7,.42,1.12,.39h.85v.39c.08,.89-.54,1.35-1.74,1.39m-30.91,.81l-.77-1.04h.39c1.12,0,1.66-.39,1.66-1.2v-.15h-.62c-.58,0-1-.15-1.31-.46-.31-.31-.46-.73-.42-1.2v-1.43c-.04-.46,.15-.93,.5-1.27,.31-.27,.73-.42,1.16-.39h1.81v3.59h2.74v-3.59h1.12v3.59h1.24v-3.59h1.12v3.59h1.24v-3.59h1.12v3.59h.5c.23,.08,.46-.08,.54-.31,.04-.08,.04-.16,0-.23v-4.86h1.12v4.94c0,.5-.15,.89-.46,1.2-.35,.27-.77,.42-1.2,.39h-9.07c0,.77-.23,1.39-.66,1.78-.35,.35-.93,.54-1.74,.58v.08Zm-.23-.81l.35,.5c.7-.08,1.2-.23,1.47-.5,.35-.35,.54-.85,.54-1.58v-.23h.46v-.58h-.46v-3.59h-1.58c-.69-.08-1.31,.42-1.35,1.12v1.7c0,.42,.12,.77,.35,1,.31,.27,.7,.42,1.12,.39h.85v.39c.04,.89-.54,1.35-1.74,1.39m11.58-1.81h.19c.42,0,.77-.12,1-.35,.27-.23,.35-.54,.35-1v-4.71h-.58v4.63c.08,.35-.15,.69-.5,.77-.08,.04-.19,.04-.31,0h-.16v.66Zm-8.41,0h8.07v-.58h-.35v-3.59h-.58v3.59h-1.74v-3.59h-.58v3.59h-1.78v-3.59h-.58v3.59h-2.47v.58Zm-7.37,2.62l-.77-1.04h.39c1.12,0,1.66-.39,1.66-1.2v-.15h-.62c-.58,0-1-.15-1.31-.46-.31-.31-.46-.73-.43-1.2v-1.43c-.04-.46,.15-.93,.5-1.27,.31-.27,.73-.42,1.16-.39h1.81v4.71c0,.77-.23,1.39-.66,1.78-.39,.35-.96,.58-1.74,.66m-.27-.81l.35,.5c.7-.08,1.2-.23,1.47-.5,.35-.35,.54-.85,.54-1.58v-4.4h-1.58c-.42,0-.77,.12-.96,.35-.27,.27-.42,.66-.39,1.04v1.43c0,.42,.12,.77,.35,1,.31,.27,.7,.42,1.12,.39h.85v.39c.08,.89-.54,1.35-1.74,1.39m-15.28,.81c-.15,0-.35-.08-.46-.19-.12-.11-.19-.31-.19-.46s.08-.35,.19-.46c.23-.27,.66-.27,.89-.04l.04,.04c.12,.12,.19,.31,.19,.46,0,.35-.23,.62-.58,.66h-.08Zm0-1.04c-.23,0-.39,.19-.39,.43,0,.12,.04,.19,.12,.27,.15,.15,.39,.15,.54,0,.08-.08,.12-.19,.12-.27,0-.12-.04-.19-.12-.27-.08-.12-.15-.16-.27-.16m-10.04,1.04c-.15,0-.35-.08-.46-.19-.12-.11-.19-.31-.19-.46s.08-.35,.19-.46c.23-.27,.66-.27,.89-.04l.04,.04c.11,.12,.19,.31,.19,.46s-.08,.35-.19,.46c-.12,.12-.27,.19-.46,.19m0-1.04c-.11,0-.19,.04-.27,.12-.15,.15-.15,.42,0,.58,.15,.15,.39,.15,.54,0,.08-.08,.12-.19,.12-.27,0-.12-.04-.19-.12-.27-.08-.12-.15-.16-.27-.16m-1.31,1.04c-.15,0-.35-.08-.46-.19-.12-.11-.19-.31-.19-.46s.08-.35,.19-.46c.27-.27,.66-.27,.93,0,.12,.12,.19,.31,.19,.46,0,.35-.23,.62-.58,.66h-.08Zm0-1.04c-.12,0-.19,.04-.27,.12-.15,.15-.15,.42,0,.58,.15,.15,.39,.15,.54,0,.08-.08,.12-.19,.12-.27,0-.12-.04-.19-.12-.27-.08-.12-.19-.16-.27-.16m56.5-.73v-7.1h1.16v6.48l-1.16,.62Zm.31-6.83v6.37l.62-.35v-6.06l-.62,.04Zm-11.35,6.83v-7.1h1.16v6.48l-1.16,.62Zm.31-6.83v6.37l.62-.35v-6.06l-.62,.04Zm-30.53,6.83v-7.1h1.16v6.48l-1.16,.62Zm.23-6.83v6.37l.62-.35v-6.06l-.62,.04Zm35.55,6.25c-.54,0-1-.15-1.27-.46-.31-.35-.46-.77-.46-1.23v-1.39c-.04-.46,.15-.93,.5-1.27,.31-.27,.69-.39,1.12-.39h1.85v3.09c0,.62-.23,1.08-.62,1.35-.35,.23-.73,.31-1.12,.31m-.08-4.48c-.35,0-.69,.12-.93,.35-.27,.27-.39,.58-.39,1.08v1.39c0,.46,.12,.77,.35,1.04,.31,.27,.69,.42,1.12,.39,.35,.04,.7-.08,.97-.23,.35-.27,.54-.7,.5-1.12v-2.82h-1.62v-.08Zm-38.36,4.48H8.81v-1.12h2.58v-1.31c0-.77-.35-1.16-1.12-1.16h-.73v-1.12h.77c.58-.04,1.16,.19,1.58,.66,.39,.42,.62,.96,.62,1.54v1.39h1.24v-5.4h1.12v5.4h1.89v-3.59h1.12v3.59h.66c.23,.08,.46-.08,.54-.27,.04-.08,.04-.15,0-.23v-4.86h1.12v4.94c0,.5-.15,.89-.46,1.2-.23,.23-.62,.35-1.16,.35m-.15-.27h.15c.42,0,.77-.12,1-.35,.23-.23,.35-.54,.35-1v-4.71h-.58v4.63c.08,.35-.15,.69-.5,.77-.08,.04-.19,.04-.31,0h-.15l.04,.66Zm-3.01,0h2.7v-.58h-.46v-3.59h-.62v3.59h-1.62v.58Zm-2.32,0h2.01v-.58h-.46v-5.4h-.58v5.4h-.96v.58Zm-3.98,0h3.63v-.58h-.46v-1.7c.04-.5-.19-1-.54-1.35-.39-.35-.89-.54-1.39-.54h-.46v.58h.43c.89,0,1.39,.5,1.39,1.43v1.58h-2.59v.58Zm-2.93,.27H2.36v-.27l-.23,.27h-.39c-.62,0-1.08-.19-1.35-.5-.27-.31-.42-.73-.39-1.16v-1.43c0-.58,.19-1,.54-1.27,.31-.27,.7-.39,1.12-.35h1.81v3.59h2.78c.35,0,.5-.16,.5-.46v-3.16h1.12v3.09c0,.58-.19,1-.58,1.27-.31,.27-.66,.39-1.12,.39m-.77-.27h.77c.35,0,.7-.08,.96-.27,.35-.23,.46-.58,.46-1.08v-2.82h-.58v2.86c0,.46-.27,.73-.77,.73h-.81l-.04,.58Zm-1.39,0h1.08v-.58h-1.08v.58Zm-1.39,0h1.08v-.58h-.46v-3.59H1.67c-.35,0-.66,.08-.93,.27-.31,.27-.46,.66-.42,1.08v1.43c0,.35,.12,.7,.35,.97,.23,.27,.66,.39,1.16,.39h.27l.42-.58h-.77c-.23,0-.43-.04-.62-.19-.15-.15-.19-.35-.19-.62v-1.47c0-.5,.27-.73,.77-.73h1l-.08,3.63Zm-1-3.36c-.35,0-.46,.15-.46,.5v1.47c0,.16,.04,.27,.12,.39,.11,.08,.27,.12,.42,.12h.69v-2.47h-.77Zm55.38,2.78c-.58,0-.85-.27-.85-.77v-1.47c0-.5,.23-.77,.73-.77h1v2.24c0,.5-.31,.77-.89,.77m-.08-2.78c-.35,0-.46,.15-.46,.54v1.43c0,.23,.08,.5,.62,.5s.62-.27,.62-.5v-1.97h-.77Zm13.12,2.78h-.77c-.35,0-.62-.04-.73-.19-.16-.12-.23-.35-.23-.62v-1.43c0-.23,.04-.42,.19-.62,.15-.16,.35-.23,.58-.19h1l-.04,3.05Zm-1-2.78c-.15,0-.27,.04-.39,.12-.08,.12-.11,.27-.11,.39v1.43c0,.15,0,.31,.11,.42,.04,.04,.19,.12,.58,.12h.54v-2.47h-.73Zm-30.18,2.78h-.77c-.35,0-.62-.04-.73-.19-.15-.12-.23-.35-.23-.62v-1.43c0-.23,.04-.42,.19-.62,.15-.16,.35-.23,.58-.23h1l-.04,3.09Zm-.96-2.78c-.23-.04-.42,.08-.5,.31v1.62c0,.15,0,.31,.12,.42,.04,.04,.19,.12,.58,.12h.54v-2.47h-.73Zm-3.47,2.78h-.77c-.35,0-.62-.04-.73-.19-.15-.12-.23-.35-.23-.62v-1.43c0-.23,.04-.42,.19-.62,.15-.16,.35-.23,.58-.23h1l-.04,3.09Zm-.96-2.78c-.23-.04-.42,.08-.5,.31v1.62c0,.15,.04,.31,.12,.42,.04,.04,.19,.12,.58,.12h.54v-2.47h-.73Zm32.42-1.89c-.15,0-.35-.08-.46-.19-.11-.12-.19-.31-.19-.46s.08-.35,.19-.46c.23-.27,.66-.27,.93-.04l.04,.04c.12,.11,.19,.31,.19,.46,.04,.35-.23,.62-.58,.66h-.11Zm0-1.04c-.19,0-.39,.15-.39,.35v.04c0,.12,.04,.19,.11,.27,.12,.15,.35,.15,.5,.04,0,0,.04,0,.04-.04,.08-.08,.11-.19,.11-.27,0-.12-.04-.19-.11-.27s-.19-.12-.27-.12m-8.18,1.04c-.19,0-.35-.08-.46-.23-.12-.11-.19-.31-.23-.46,0,.16-.08,.31-.19,.43-.27,.23-.66,.23-.93,0-.27-.23-.27-.62-.08-.85t.08-.08c.23-.27,.66-.27,.93,0,.11,.12,.19,.27,.19,.46,0-.16,.08-.35,.23-.42,.27-.23,.66-.23,.93,0,.27,.23,.27,.62,.08,.85t-.08,.08c-.12,.16-.27,.23-.46,.23m0-1.08c-.23,0-.39,.19-.39,.42,0,.12,.04,.19,.12,.27,.12,.15,.35,.15,.5,.04,0,0,.04,0,.04-.04,.08-.08,.11-.19,.11-.27,0-.12-.04-.19-.11-.27-.08-.12-.16-.16-.27-.16m-1.31,0c-.23,0-.39,.19-.39,.42,0,.12,.04,.19,.12,.27,.12,.15,.31,.19,.46,.08t.08-.08c.08-.08,.12-.19,.12-.27,0-.12-.04-.19-.12-.27-.08-.12-.19-.16-.27-.16m-10.3,1.08c-.15,0-.35-.08-.46-.19-.12-.12-.19-.31-.19-.46s.08-.35,.19-.46c.27-.23,.66-.23,.93,0,.12,.11,.19,.31,.19,.46,0,.19-.08,.35-.23,.46-.12,.12-.27,.19-.43,.19m0-1.08c-.11,0-.19,.04-.27,.12-.08,.08-.12,.19-.12,.27,0,.12,.04,.19,.12,.27,.15,.16,.42,.16,.58,0,.15-.15,.15-.42,0-.58-.12-.04-.19-.08-.31-.08m-1.31,1.08c-.15,0-.35-.08-.46-.19-.12-.12-.23-.27-.23-.46,0-.15,.08-.35,.19-.46,.27-.23,.66-.23,.93,0,.12,.11,.19,.31,.19,.46s-.08,.35-.19,.46c-.12,.12-.27,.19-.42,.19m0-1.08c-.19,0-.39,.16-.39,.35v.04c0,.12,.04,.19,.12,.27,.15,.16,.42,.16,.58,0,.15-.15,.15-.42,0-.58-.12-.04-.23-.08-.31-.08m-5.83,1.08h-1.89v-.62h.35c-.04-.08-.04-.15-.04-.23,0-.23,.08-.46,.23-.62,.15-.15,.39-.27,.62-.27h.5v.62h-.35c-.35,0-.35,.15-.35,.23,0,.12,.04,.23,.35,.23h.66l-.08,.66Zm-1.62-.27h1.35v-.08h-.35c-.54,0-.58-.35-.58-.5s.08-.46,.58-.46h.12v-.08h-.27c-.15,0-.31,.04-.39,.15-.12,.12-.15,.23-.15,.39,0,.12,.04,.19,.08,.27l.12,.23h-.5v.08Zm-9.3,.27c-.19,0-.35-.08-.46-.23-.27-.23-.27-.62-.08-.85t.08-.08c.27-.23,.66-.23,.93,0,.12,.12,.19,.31,.19,.46s-.08,.35-.19,.46c-.12,.16-.31,.23-.46,.23m0-1.08c-.23,0-.39,.19-.39,.42,0,.12,.04,.19,.12,.27,.12,.15,.35,.15,.5,.04,0,0,.04,0,.04-.04,.08-.08,.12-.19,.12-.27,0-.12-.04-.19-.12-.27-.12-.12-.19-.16-.27-.16m-25.63,1.08c-.19,0-.35-.08-.46-.23-.12-.11-.15-.27-.19-.42,0,.15-.08,.31-.19,.42-.27,.23-.66,.23-.93,0-.27-.23-.27-.62-.08-.85l.08-.08c.27-.23,.66-.23,.93,0,.12,.12,.19,.27,.19,.42,0-.16,.08-.31,.19-.42,.27-.23,.66-.23,.93,0,.12,.12,.19,.31,.19,.46s-.08,.35-.19,.46c-.12,.16-.27,.23-.46,.23m0-1.08c-.12,0-.19,.04-.27,.12-.15,.15-.15,.42,0,.58,.15,.15,.39,.15,.54,0,.08-.08,.12-.19,.12-.27,0-.12-.04-.19-.12-.27-.08-.12-.15-.16-.27-.16m-1.27,0c-.23,0-.39,.19-.39,.42,0,.12,.04,.19,.12,.27,.19,.19,.39,.19,.54,0,.08-.08,.12-.19,.12-.27,0-.12-.04-.19-.12-.27-.11-.12-.19-.16-.27-.16m44.23-.15c-.15,0-.31-.08-.43-.19-.11-.12-.19-.27-.19-.42s.08-.31,.19-.42c.23-.23,.58-.27,.85-.04l.04,.04c.12,.12,.19,.27,.19,.42s-.08,.31-.19,.42c-.12,.12-.27,.19-.46,.19m0-.97c-.08,0-.19,.04-.23,.12-.08,.08-.11,.15-.11,.23s.04,.19,.11,.27c.12,.11,.31,.15,.43,.04l.04-.04c.08-.08,.11-.16,.11-.27,0-.08-.04-.19-.11-.23-.04-.08-.12-.12-.23-.12"/><path class="cls-1" d="M4.37,81.45c.35-.19,.54-.58,.54-.96v-4.63h.85v4.71c0,.73-.35,1.27-1,1.7-.54,.31-1.16,.42-1.77,.42-.77,0-1.43-.19-1.97-.58-.5-.35-.81-.96-.77-1.58v-2.24l.85-.58v2.74c0,.46,.23,.93,.7,1.12,.39,.19,.81,.27,1.23,.27,.42-.04,.93-.12,1.35-.39m-1.31-6.68c-.15,0-.27-.04-.39-.15-.19-.19-.19-.5,0-.73,.12-.11,.23-.15,.39-.15,.27,0,.5,.23,.5,.5,0,.31-.23,.54-.5,.54m5.33,5.52h0c-.42,0-.77-.15-1.04-.42-.23-.27-.35-.58-.35-.93v-4.9h.85v4.82c0,.35,.15,.54,.46,.54h.04v.89h.04Zm1.39,0h-1.43v-.85h1.43v.85Zm1.43,0h-1.43v-.85h1.43v.85Zm5.17,0h-5.25v-.85h3.86v-2.12c0-.42-.23-.66-.62-.66h-2.24v-1.12c0-1,.54-1.54,1.62-1.54h1.5v.85h-1.62c-.43,0-.66,.23-.66,.62v.35h1.35c.5,0,.89,.15,1.16,.43,.23,.31,.39,.69,.35,1.08v2.08h.54v.89Zm7.6-.39c-.27,.23-.66,.35-1.12,.35h-6.52v-.85h2.51v-3.59h.85v3.59h1.51v-3.59h.85v3.59h.85c.42,0,.66-.23,.66-.62v-2.97h.85v2.93c0,.54-.15,.93-.42,1.16m5.64,.04c-.27,.27-.62,.35-1.12,.35h-2.86v-.85h1.54l-1.39-3.59h.93l1.39,3.59h.35c.27,0,.43-.04,.54-.15,.11-.12,.15-.23,.15-.5v-4.71h.85v4.83c.04,.39-.12,.77-.39,1.04m-2.32,2.7h-1.62v-.35h.39c-.08-.12-.12-.23-.12-.35,0-.19,.08-.35,.19-.5,.12-.15,.31-.23,.5-.23h.39v.35h-.27c-.27,0-.42,.12-.42,.35s.15,.35,.42,.35h.5v.39h.04Zm4.83-2.35l-.85,.46v-6.75h.85v6.29Zm3.86,1.81c-.35,.35-.89,.5-1.66,.54l-.58-.77h.15c1.2,0,1.77-.42,1.77-1.27v-.27h-.73c-.54,0-.93-.15-1.23-.42-.27-.31-.42-.7-.39-1.12v-1.43c0-.5,.15-.89,.43-1.16,.23-.27,.62-.35,1.08-.35h1.74v4.55c.04,.77-.19,1.31-.58,1.7m-.31-2.66v-2.74h-.85c-.23,0-.39,.04-.46,.15-.12,.15-.15,.31-.15,.5v1.43c0,.27,.04,.42,.15,.54,.19,.12,.43,.15,.66,.15l.66-.04Zm7.6,.85h-1.39v-.58l-.42,.58h-.35c-.58,0-.96-.15-1.27-.46-.23-.31-.39-.7-.35-1.08v-1.43c-.04-.46,.16-.89,.5-1.2,.27-.23,.66-.35,1-.35h1.74v3.59h.54v.93Zm-2.82-5.52c-.27,0-.5-.23-.5-.5s.23-.5,.5-.5,.5,.23,.5,.5c0,.12-.04,.23-.15,.35-.08,.11-.19,.19-.35,.15m1.39,4.67v-2.74h-.85c-.39,0-.62,.23-.62,.66v1.47c-.08,.27,.12,.58,.39,.66h.23l.85-.04Zm-.04-4.67c-.27,0-.5-.23-.5-.5,0-.12,.04-.27,.15-.35,.19-.19,.5-.19,.73,0,.19,.19,.19,.5,0,.73-.12,.08-.27,.12-.39,.12m2.86,5.52h-1.43v-.85h1.43v.85Zm1.35,0h-1.43v-.85h1.43v.85Zm1.39,0h-1.43v-.85h1.43v.85Zm1.97-.27c-.31,.19-.66,.31-1.04,.27h-.96v-.85h1.04c.42,0,.66-.19,.66-.58v-3.01h.85v2.97c-.04,.5-.19,.93-.54,1.2m-.73,2.12c0,.27-.23,.5-.5,.5-.15,0-.27-.04-.35-.15-.19-.19-.19-.54,0-.73,.19-.19,.5-.19,.7,0,.12,.11,.15,.23,.15,.39m.81,.5c-.15,0-.27-.04-.39-.15-.19-.19-.19-.5,0-.73,.12-.12,.23-.16,.39-.16s.27,.04,.35,.16c.19,.19,.23,.5,.04,.69-.08,.12-.23,.19-.39,.19m4.28-.54c-.35,.35-.89,.5-1.66,.54l-.58-.77h.15c1.2,0,1.77-.42,1.77-1.27v-.27h-.77c-.54,0-.93-.15-1.23-.42-.27-.31-.42-.7-.39-1.12v-1.43c0-.5,.15-.89,.43-1.16,.27-.27,.62-.35,1.08-.35h1.74v4.55c.08,.77-.15,1.31-.54,1.7m-.31-2.66v-2.74h-.85c-.23,0-.39,.04-.46,.15-.12,.15-.15,.31-.15,.5v1.43c0,.27,.04,.42,.15,.54,.19,.12,.42,.15,.66,.15l.66-.04Zm3.67,1.24c0,.93-.42,1.58-1.31,1.97l-.62-.73c.42-.15,.73-.27,.85-.5,.15-.31,.23-.62,.23-.96v-4.59h.85v3.59h.54v.85h-.54v.39Zm5.21-.39h-4.75v-.85h1v-2.08c0-.5,.15-.89,.46-1.2,.31-.23,.66-.39,1.04-.35h1.74v3.59h.54l-.04,.89Zm-2.78-5.52c-.15,0-.27-.04-.39-.15-.19-.19-.19-.5,0-.73,.12-.11,.23-.15,.39-.15,.27,0,.5,.23,.5,.5s-.19,.54-.5,.54m1.39,4.67v-2.74h-.85c-.39,0-.62,.23-.62,.66v2.08h1.47Zm-.08-4.67c-.27,0-.5-.23-.5-.5s.23-.5,.5-.5,.5,.23,.5,.5c0,.12-.04,.23-.15,.35-.08,.11-.23,.19-.35,.15m2.9,5.17c-.27,.27-.62,.35-1.12,.35h-.35v-.85h.35c.19,.04,.39-.04,.54-.15,.12-.12,.15-.23,.15-.5v-4.71h.85v4.83c0,.39-.15,.77-.42,1.04m2.51,.35l-.85,.46v-6.75h.85v6.29Zm3.86,1.81c-.35,.35-.89,.5-1.66,.54l-.58-.77h.15c1.2,0,1.78-.42,1.78-1.27v-.27h-.73c-.54,0-.93-.15-1.23-.42-.27-.31-.42-.7-.39-1.12v-1.43c0-.5,.15-.89,.42-1.16,.27-.27,.62-.35,1.08-.35h1.74v4.55c0,.77-.15,1.31-.58,1.7m-.27-2.66v-2.74h-.85c-.23,0-.39,.04-.46,.15-.12,.15-.16,.31-.16,.5v1.43c0,.27,.04,.42,.16,.54,.19,.12,.42,.15,.66,.15l.66-.04Z"/><path class="cls-1" d="M55.74,82.8l-.77-1,.19-.08c.31-.08,.58-.23,.77-.46,.15-.19,.19-.46,.19-.89v-4.71h1.12v3.59h1.2v-1.89c-.04-.46,.15-.93,.5-1.27,.31-.27,.7-.39,1.12-.39h1.89v3.59h.7c.23,.08,.46-.08,.54-.27,.04-.08,.04-.16,0-.27v-4.86h1.12v4.94c0,.5-.15,.89-.46,1.2-.35,.27-.77,.42-1.2,.39h-5.48v.23c0,.97-.46,1.7-1.39,2.08l-.04,.08Zm-.35-.85l.42,.54c.77-.35,1.16-.93,1.16-1.77v-.54h.46v-.58h-.46v-3.59h-.58v4.44c0,.46-.08,.81-.23,1.04-.23,.23-.5,.39-.77,.46m7.06-1.78h.19c.42,0,.77-.12,1-.35,.23-.23,.35-.54,.35-1v-4.71h-.58v4.67c0,.23-.04,.43-.19,.62-.19,.11-.39,.19-.62,.19h-.15v.58Zm-4.67,0h4.32v-.58h-.46v-3.59h-1.62c-.35-.04-.7,.12-.93,.35-.27,.23-.39,.62-.39,1.08v2.24h-.93v.5Zm-54.81,2.62c-.73,0-1.43-.19-2.05-.58-.54-.39-.89-1-.85-1.7v-2.32l1.16-.73v2.97c0,.42,.23,.81,.62,.96,.35,.15,.77,.27,1.16,.23,.46,.04,.93-.08,1.31-.35,.31-.19,.46-.5,.46-.85v-4.71h1.16v4.82c.04,.77-.39,1.47-1.08,1.78-.62,.35-1.24,.5-1.89,.46m-2.66-4.44v2.2c0,.58,.27,1.12,.73,1.47,.58,.39,1.24,.58,1.89,.54,.62,0,1.2-.11,1.74-.42,.62-.27,.97-.93,.93-1.58v-4.55h-.62v4.48c.04,.43-.19,.85-.58,1.08-.42,.27-.96,.42-1.47,.39-.46,0-.89-.08-1.27-.27-.46-.23-.77-.7-.77-1.23v-2.47l-.58,.39Zm68.12,4.44l-.77-1.04h.39c1.12,0,1.66-.39,1.66-1.2v-.15h-.62c-.58,0-1-.15-1.31-.46-.31-.31-.46-.73-.42-1.2v-1.43c-.04-.46,.15-.93,.5-1.27,.31-.27,.73-.42,1.16-.39h1.81v4.71c0,.77-.23,1.39-.66,1.78-.39,.35-.97,.58-1.74,.66m-.27-.81l.35,.5c.69-.08,1.2-.23,1.47-.5,.35-.35,.54-.85,.54-1.58v-4.4h-1.58c-.7-.08-1.31,.43-1.35,1.12v1.66c0,.43,.12,.77,.35,1,.27,.27,.66,.35,1.12,.35h.85v.39c.08,.97-.54,1.43-1.74,1.47m-16.13,.81l-.77-1.04h.39c1.12,0,1.66-.39,1.66-1.2v-.15h-.62c-.58,0-1-.15-1.31-.46s-.46-.73-.42-1.2v-1.43c-.04-.46,.15-.93,.5-1.27,.31-.27,.73-.42,1.16-.39h1.81v4.71c0,.77-.23,1.39-.66,1.78-.35,.35-.93,.58-1.74,.66m-.23-.81l.35,.5c.69-.08,1.2-.23,1.47-.5,.35-.35,.54-.85,.54-1.58v-4.4h-1.58c-.69-.08-1.31,.43-1.35,1.12v1.66c0,.43,.12,.77,.35,1,.23,.27,.66,.35,1.12,.35h.85v.39c.04,.97-.58,1.43-1.74,1.47m-17.52,.81l-.77-1.04h.39c1.12,0,1.66-.39,1.66-1.2v-.15h-.58c-.58,0-1-.15-1.31-.46s-.46-.73-.42-1.2v-1.43c-.04-.46,.15-.93,.5-1.27,.31-.27,.73-.42,1.16-.39h1.81v4.71c0,.77-.23,1.39-.66,1.78-.39,.35-.93,.58-1.78,.66m-.23-.81l.35,.5c.7-.08,1.2-.23,1.47-.5,.35-.35,.54-.85,.54-1.58v-4.4h-1.58c-.69-.08-1.31,.43-1.35,1.12v1.66c0,.43,.12,.77,.35,1,.23,.27,.66,.35,1.12,.35h.85v.39c.04,.97-.58,1.43-1.74,1.47m15.4,.81c-.15,0-.35-.08-.46-.19-.12-.12-.19-.31-.19-.46s.08-.35,.19-.46c.23-.27,.66-.27,.93-.04l.04,.04c.12,.12,.19,.31,.19,.46,0,.35-.23,.62-.58,.66h-.12Zm0-1.04c-.12,0-.19,.04-.27,.12-.15,.15-.15,.42,0,.58,.15,.15,.39,.15,.54,0,.08-.08,.12-.19,.12-.27,0-.12-.04-.19-.12-.27-.08-.11-.15-.19-.27-.15m-1.35,1.04c-.35,0-.62-.23-.66-.58v-.08c0-.16,.08-.35,.19-.46,.27-.23,.66-.23,.93,0,.12,.12,.19,.31,.19,.46s-.08,.35-.19,.46c-.11,.12-.27,.19-.46,.19m0-1.04c-.12,0-.19,.04-.27,.12-.15,.15-.15,.42,0,.58,.15,.15,.39,.15,.54,0,.08-.08,.12-.19,.12-.27,0-.12-.04-.19-.12-.27-.08-.15-.15-.19-.27-.15m-20.65,1.04h-1.93v-.66h.35c-.04-.08-.04-.16-.04-.23,0-.23,.08-.42,.23-.62,.15-.16,.39-.23,.62-.23h.54v.66h-.39c-.35,0-.35,.15-.35,.23s0,.23,.35,.23h.62v.62Zm-1.66-.27h1.35v-.12h-.35c-.54,0-.58-.35-.58-.46,0-.15,.08-.46,.58-.46h.12v-.12h-.27c-.16,0-.31,.04-.39,.15-.12,.12-.15,.27-.15,.42,0,.12,.04,.19,.08,.27l.15,.23h-.5v.08h-.04Zm39.44-1.51v-7.1h1.16v6.48l-1.16,.62Zm.31-6.87v6.37l.62-.35v-6.06h-.62v.04Zm-34.46,6.87v-7.1h1.16v6.48l-1.16,.62Zm.31-6.87v6.37l.62-.35v-6.06h-.62v.04Zm16.94,6.29h-6.6v-.27l-.23,.27h-.39c-.62,0-1.08-.19-1.35-.5-.27-.31-.42-.73-.39-1.16v-1.43c0-.58,.19-1,.54-1.27,.31-.23,.69-.39,1.12-.35h1.81v3.59h5.52c.35,0,.5-.15,.5-.46v-3.16h1.12v3.09c0,.58-.19,1-.58,1.27-.27,.27-.62,.39-1.08,.39m-.81-.27h.77c.35,0,.66-.08,.96-.23,.35-.27,.46-.58,.46-1.08v-2.86h-.58v2.86c0,.46-.27,.73-.77,.73h-.85v.58Zm-1.35,0h1.04v-.58h-1.04v.58Zm-1.39,0h1.04v-.58h-1.04v.58Zm-1.43,0h1.08v-.58h-1.08v.58Zm-1.35,0h1.08v-.58h-.46v-3.59h-1.58c-.35,0-.66,.08-.93,.27-.31,.27-.46,.66-.42,1.08v1.43c0,.35,.11,.7,.35,.97,.27,.27,.66,.39,1.16,.39h.27l.43-.58h-.73c-.23,0-.42-.04-.62-.19-.15-.15-.19-.35-.19-.62v-1.47c0-.5,.23-.77,.73-.77h1v3.59l-.08,.08Zm-1-3.36c-.35,0-.46,.15-.46,.5v1.47c0,.16,.04,.27,.11,.39,.12,.08,.27,.12,.43,.12h.7v-2.47h-.77Zm-12.47,3.63h-3.01v-1.12h1.51l-1.39-3.59h1.24l1.39,3.59h.23c.23,.08,.46-.08,.54-.27,.04-.08,.04-.15,0-.27v-4.9h1.12v4.94c0,.5-.15,.89-.46,1.2-.31,.31-.73,.46-1.16,.42m-2.74-.27h2.74c.42,0,.77-.12,1-.35,.27-.23,.35-.54,.35-1v-4.71h-.58v4.67c.08,.35-.15,.7-.5,.77-.08,.04-.19,.04-.31,0h-.42l-1.39-3.55h-.7l1.39,3.59h-1.62v.58h.04Zm-2.93,.27H8.19c-.39,0-.73-.19-.96-.46-.27-.27-.39-.66-.39-1.04v-5.02h1.16v4.98c0,.35,.19,.42,.35,.42h6.52v-1.97c0-.35-.15-.5-.46-.5h-2.39v-1.27c0-1.08,.62-1.66,1.74-1.66h1.62v1.16h-1.74c-.35,0-.5,.15-.5,.46v.19h1.23c.46-.04,.93,.15,1.27,.5,.27,.31,.43,.73,.39,1.16v1.93h2.74v-3.59h1.12v3.59h1.23v-3.59h1.12v3.59h.73c.35,0,.5-.15,.5-.46v-3.13h1.12v3.09c0,.54-.15,.93-.46,1.24-.35,.23-.73,.39-1.27,.39m-6.33-.27h6.33c.43,0,.77-.12,1-.35,.27-.27,.42-.66,.39-1.04v-2.82h-.58v2.86c.04,.39-.27,.73-.62,.73h-1.12v-3.55h-.62v3.59h-1.77v-3.59h-.58v3.59h-2.43v.58Zm-5.25,0h4.86v-.58h-.46v-2.24c0-.42-.12-.77-.35-.96-.27-.27-.66-.42-1.04-.39h-1.51v-.46c0-.5,.27-.73,.73-.73h1.47v-.62h-1.35c-.96,0-1.47,.46-1.47,1.39v1h2.12c.5,0,.73,.27,.73,.77v2.24h-3.78l.04,.58Zm-1.35,0h1.04v-.58h-1.04v.58Zm-1.39,0h1.08v-.58h-1.08v.58Zm-1.39-6.02v4.79c0,.31,.12,.62,.35,.85,.19,.23,.46,.35,.77,.39v-.62c-.23-.04-.46-.19-.46-.7v-4.75h-.66v.04Zm62.83,5.44h-.77c-.35,0-.62-.08-.73-.19-.15-.12-.23-.35-.23-.62v-1.43c0-.23,.04-.42,.19-.62,.15-.15,.35-.23,.58-.23h1l-.04,3.09Zm-1-2.78c-.23-.04-.46,.08-.5,.31v1.62c0,.15,.04,.31,.12,.42,.04,.04,.19,.12,.58,.12h.54v-2.47h-.73Zm-7.95,2.78h-1.78v-2.24c0-.5,.27-.77,.77-.77h1v3.01Zm-1.47-.31h1.23v-2.47h-.73c-.35,0-.46,.15-.46,.54l-.04,1.93Zm-5.98,.31h-.77c-.35,0-.62-.08-.73-.19-.15-.12-.23-.35-.23-.62v-1.43c0-.23,.04-.42,.19-.62,.15-.15,.35-.23,.58-.23h1l-.04,3.09Zm-1-2.78c-.15,0-.27,.04-.39,.12-.08,.11-.11,.27-.11,.42v1.43c0,.16,.04,.31,.11,.43,.04,.04,.19,.11,.58,.11h.54v-2.47h-.73v-.04Zm-16.75,2.78h-.77c-.35,0-.62-.08-.73-.19-.15-.12-.23-.35-.23-.62v-1.43c0-.23,.04-.42,.19-.62,.15-.15,.35-.23,.58-.23h1l-.04,3.09Zm-1-2.78c-.15,0-.27,.04-.39,.12-.08,.11-.12,.27-.12,.42v1.43c0,.16,.04,.31,.12,.43,.04,.04,.19,.11,.58,.11h.54v-2.47h-.73v-.04Zm26.01-1.89c-.19,0-.35-.08-.46-.23-.11-.08-.15-.23-.19-.35-.04,.11-.08,.27-.19,.35-.23,.27-.66,.27-.89,.04l-.04-.04c-.27-.23-.27-.62-.08-.85l.08-.08c.27-.27,.66-.27,.93,0,.12,.08,.15,.23,.19,.35,.04-.12,.08-.27,.19-.35,.12-.12,.31-.19,.46-.19s.35,.08,.46,.19c.12,.12,.19,.31,.19,.46s-.08,.35-.19,.46c-.12,.15-.27,.27-.46,.23m0-1.08c-.23,0-.39,.19-.39,.42,0,.12,.04,.19,.11,.27,.12,.15,.31,.19,.46,.08t.08-.08c.08-.08,.12-.19,.12-.27,0-.11-.04-.19-.12-.27-.08-.12-.19-.15-.27-.15m-1.27,0c-.23,0-.39,.19-.39,.42,0,.12,.04,.19,.12,.27,.12,.15,.35,.15,.5,.04,0,0,.04,0,.04-.04,.08-.08,.12-.19,.12-.27,0-.11-.04-.19-.12-.27-.12-.12-.19-.15-.27-.15m-17.79,1.08c-.19,0-.35-.08-.46-.23-.12-.12-.15-.27-.19-.43,0,.16-.08,.31-.19,.43-.23,.27-.66,.27-.89,.04l-.04-.04c-.27-.23-.27-.62-.08-.85t.08-.08c.12-.12,.31-.19,.46-.19s.35,.08,.46,.19c.11,.12,.15,.27,.19,.42,0-.35,.27-.62,.62-.62h.04c.15,0,.35,.08,.46,.19,.12,.12,.19,.31,.19,.46s-.08,.35-.19,.46c-.12,.15-.27,.23-.46,.23m0-1.08c-.12,0-.19,.04-.27,.12-.15,.15-.15,.42,0,.58,.15,.15,.39,.15,.54,0,.08-.08,.12-.19,.12-.27,0-.11-.04-.19-.12-.27-.08-.12-.15-.15-.27-.15m-1.31,0c-.23,0-.38,.19-.38,.42,0,.12,.04,.19,.11,.27,.12,.15,.31,.19,.46,.08t.08-.08c.08-.08,.12-.19,.12-.27,0-.11-.04-.19-.12-.27-.08-.12-.15-.15-.27-.15m-37.4,1.08c-.19,0-.39-.08-.5-.23-.27-.23-.27-.62-.08-.85t.08-.08c.27-.27,.66-.27,.93,0,.11,.12,.19,.31,.19,.46s-.08,.35-.19,.46c-.12,.15-.27,.23-.42,.23m0-1.08c-.23,0-.39,.19-.39,.42,0,.12,.04,.19,.12,.27,.12,.15,.35,.15,.5,.04,0,0,.04,0,.04-.04,.08-.08,.12-.19,.12-.27,0-.11-.04-.19-.12-.27-.08-.12-.19-.15-.27-.15"/></g></g></svg>