<svg width="103" height="102" viewBox="0 0 103 102" fill="none" xmlns="http://www.w3.org/2000/svg">
<path d="M90.1641 77.5625H88.9296C89.6092 74.716 89.9668 71.7707 89.9668 68.7734C89.9668 47.7729 72.7106 30.6875 51.5 30.6875C30.2894 30.6875 13.0332 47.7729 13.0332 68.7734C13.0332 71.7707 13.3908 74.716 14.0704 77.5625H12.8359C6.3096 77.5625 1 82.8195 1 89.2812C1 95.743 6.3096 101 12.8359 101H90.1641C96.6904 101 102 95.743 102 89.2812C102 82.8195 96.6904 77.5625 90.1641 77.5625ZM51.5 36.5469C69.4474 36.5469 84.0488 51.0037 84.0488 68.7734C84.0488 79.3033 78.8937 89.0943 70.2164 95.1406H32.7836C24.1063 89.0943 18.9512 79.3033 18.9512 68.7734C18.9512 51.0037 33.5526 36.5469 51.5 36.5469ZM6.91797 89.2812C6.91797 86.0504 9.57277 83.4219 12.8359 83.4219H15.9859C17.806 87.751 20.4267 91.7273 23.7374 95.1406H12.8359C9.57277 95.1406 6.91797 92.5121 6.91797 89.2812ZM90.1641 95.1406H79.2626C82.5733 91.7273 85.194 87.751 87.0141 83.4219H90.1641C93.4272 83.4219 96.082 86.0504 96.082 89.2812C96.082 92.5121 93.4272 95.1406 90.1641 95.1406Z" fill="#65B43B" stroke="#65B43B"/>
<path d="M51.5 77.5625C49.8684 77.5625 48.541 76.2482 48.541 74.6328C48.541 73.0148 47.2162 71.7031 45.582 71.7031C43.9479 71.7031 42.623 73.0148 42.623 74.6328C42.623 78.4521 45.097 81.7086 48.541 82.918V86.3516C48.541 87.9695 49.8659 89.2812 51.5 89.2812C53.1341 89.2812 54.459 87.9695 54.459 86.3516V82.918C57.903 81.7086 60.377 78.4521 60.377 74.6328C60.377 69.7865 56.3948 65.8438 51.5 65.8438C49.8684 65.8438 48.541 64.5295 48.541 62.9141C48.541 61.2986 49.8684 59.9844 51.5 59.9844C53.1316 59.9844 54.459 61.2986 54.459 62.9141C54.459 64.532 55.7838 65.8438 57.418 65.8438C59.0521 65.8438 60.377 64.532 60.377 62.9141C60.377 59.0947 57.903 55.8383 54.459 54.6289V51.1953C54.459 49.5773 53.1341 48.2656 51.5 48.2656C49.8659 48.2656 48.541 49.5773 48.541 51.1953V54.6289C45.097 55.8383 42.623 59.0947 42.623 62.9141C42.623 67.7604 46.6052 71.7031 51.5 71.7031C53.1316 71.7031 54.459 73.0174 54.459 74.6328C54.459 76.2482 53.1316 77.5625 51.5 77.5625Z" fill="#65B43B" stroke="#65B43B"/>
<path d="M51.5 24.4375C53.1341 24.4375 54.459 23.1258 54.459 21.5078V9.78906C54.459 8.17109 53.1341 6.85938 51.5 6.85938C49.8659 6.85938 48.541 8.17109 48.541 9.78906V21.5078C48.541 23.1258 49.8659 24.4375 51.5 24.4375Z" fill="#65B43B" stroke="#65B43B"/>
<path d="M63.3359 18.5781C64.9701 18.5781 66.2949 17.2664 66.2949 15.6484V3.92969C66.2949 2.31172 64.9701 1 63.3359 1C61.7018 1 60.377 2.31172 60.377 3.92969V15.6484C60.377 17.2664 61.7018 18.5781 63.3359 18.5781Z" fill="#65B43B" stroke="#65B43B"/>
<path d="M39.6641 18.5781C41.2982 18.5781 42.623 17.2664 42.623 15.6484V3.92969C42.623 2.31172 41.2982 1 39.6641 1C38.0299 1 36.7051 2.31172 36.7051 3.92969V15.6484C36.7051 17.2664 38.0299 18.5781 39.6641 18.5781Z" fill="#65B43B" stroke="#65B43B"/>
</svg>
