<svg width="52" height="52" viewBox="0 0 52 52" fill="none" xmlns="http://www.w3.org/2000/svg">
<path d="M43.3333 52H11.5556C8.37778 52 5.48889 50.8444 3.46667 48.5333C1.15555 46.5111 0 43.6222 0 40.4444V5.77778C0 4.33333 0.577777 2.88889 1.73333 1.73333C2.88889 0.577777 4.33333 0 5.77778 0H34.6667C36.1111 0 37.5556 0.577777 38.7111 1.73333C39.8667 2.88889 40.4444 4.33333 40.4444 5.77778H46.2222C47.6667 5.77778 49.1111 6.35556 50.2667 7.51111C51.4222 8.66667 52 10.1111 52 11.5556V43.3333C52 45.6444 51.1333 47.9556 49.4 49.4C47.6667 50.8444 45.6444 52 43.3333 52ZM43.3333 46.2222C44.2 46.2222 44.7778 45.9333 45.3556 45.3556C45.9333 44.7778 46.2222 44.2 46.2222 43.3333V11.5556H40.4444V43.3333C40.4444 44.2 40.7333 44.7778 41.3111 45.3556C41.8889 45.9333 42.4667 46.2222 43.3333 46.2222ZM5.77778 5.77778V40.4444C5.77778 41.8889 6.35556 43.3333 7.51111 44.4889C8.66667 45.6444 10.1111 46.2222 11.5556 46.2222H35.2444C34.9556 45.3556 34.6667 44.2 34.6667 43.3333V5.77778H5.77778Z" fill="#EC9D05"/>
<path d="M26 17.3333H14.4444C12.7111 17.3333 11.5555 16.1778 11.5555 14.4444C11.5555 12.7111 12.7111 11.5555 14.4444 11.5555H26C27.7333 11.5555 28.8889 12.7111 28.8889 14.4444C28.8889 16.1778 27.7333 17.3333 26 17.3333Z" fill="#EC9D05"/>
<path d="M26 28.889H14.4444C12.7111 28.889 11.5555 27.7334 11.5555 26.0001C11.5555 24.2668 12.7111 23.1112 14.4444 23.1112H26C27.7333 23.1112 28.8889 24.2668 28.8889 26.0001C28.8889 27.7334 27.7333 28.889 26 28.889Z" fill="#EC9D05"/>
<path d="M26 40.4444H14.4444C12.7111 40.4444 11.5555 39.2888 11.5555 37.5555C11.5555 35.8222 12.7111 34.6666 14.4444 34.6666H26C27.7333 34.6666 28.8889 35.8222 28.8889 37.5555C28.8889 39.2888 27.7333 40.4444 26 40.4444Z" fill="#EC9D05"/>
</svg>
