<svg width="25" height="25" viewBox="0 0 25 25" fill="none" xmlns="http://www.w3.org/2000/svg">
<g clip-path="url(#clip0_370_5225)">
<path d="M6.87496 22.9167C11.1278 22.9112 15.2048 21.2193 18.212 18.2121C21.2192 15.2049 22.9111 11.1279 22.9166 6.87504C22.9166 5.60421 22.4118 4.38543 21.5132 3.48682C20.6146 2.58821 19.3958 2.08337 18.125 2.08337C17.8559 2.08132 17.5872 2.10574 17.3229 2.15629C17.0673 2.1941 16.8161 2.2569 16.5729 2.34379C16.4018 2.40382 16.2493 2.50747 16.1306 2.64449C16.0118 2.78151 15.9309 2.94715 15.8958 3.12504L14.4687 9.37504C14.4302 9.54469 14.4349 9.72127 14.4822 9.88867C14.5295 10.0561 14.618 10.209 14.7395 10.3334C14.875 10.4792 14.8854 10.4896 16.1666 11.1563C15.1406 13.4072 13.3404 15.2148 11.0937 16.25C10.4166 14.9584 10.4062 14.948 10.2604 14.8125C10.136 14.691 9.98307 14.6025 9.81567 14.5552C9.64827 14.5079 9.47169 14.5032 9.30204 14.5417L3.05204 15.9688C2.87985 16.0087 2.72066 16.0919 2.58945 16.2103C2.45824 16.3288 2.35933 16.4786 2.30204 16.6459C2.21412 16.8931 2.1479 17.1476 2.10412 17.4063C2.0622 17.6681 2.0413 17.9328 2.04162 18.198C2.06083 19.4634 2.57986 20.6698 3.4854 21.5538C4.39095 22.4379 5.60946 22.9279 6.87496 22.9167ZM18.125 4.1667C18.8424 4.16945 19.5297 4.45567 20.037 4.96299C20.5443 5.47031 20.8305 6.15759 20.8333 6.87504C20.8305 10.5762 19.359 14.1249 16.7419 16.742C14.1248 19.3591 10.5761 20.8306 6.87496 20.8334C6.15751 20.8306 5.47023 20.5444 4.96291 20.0371C4.45559 19.5298 4.16937 18.8425 4.16662 18.125V17.7813L8.99996 16.6667L9.30204 17.2396C9.77079 18.1459 10.1145 18.8021 10.9895 18.448C12.7157 17.8301 14.2826 16.8355 15.5763 15.5364C16.87 14.2373 17.8581 12.6663 18.4687 10.9375C18.8437 10.125 18.1354 9.75004 17.2395 9.28129L16.6666 9.00004L17.7812 4.1667H18.125Z" fill="#65B43B"/>
</g>
<defs>
<clipPath id="clip0_370_5225">
<rect width="25" height="25" fill="white" transform="matrix(-1 0 0 1 25 0)"/>
</clipPath>
</defs>
</svg>
