<svg width="26" height="24" viewBox="0 0 26 24" fill="none" xmlns="http://www.w3.org/2000/svg">
<path d="M10.6489 3.33865C8.55216 1.243 4.44915 1 1.54491 1C1.24413 1 1 1.24408 1 1.54485C1 4.4491 1.24193 8.55211 3.33865 10.6489C4.22356 11.5338 5.58034 11.9294 6.92511 11.9294C8.3865 11.9294 9.83481 11.4619 10.6489 10.6478C12.2105 9.08614 12.4972 5.18582 10.6489 3.33865ZM9.87844 9.87839C8.71236 11.0433 5.47465 11.2428 4.11026 9.87839C2.41782 8.186 2.12465 4.74773 2.09303 2.09303C4.74773 2.12465 8.186 2.41777 9.87839 4.11021C11.2428 5.47459 11.0434 8.71343 9.87844 9.87839Z" fill="#EC9D05" stroke="#EC9D05" stroke-width="0.5"/>
<path d="M24.4548 3.15625C21.5506 3.15625 17.4476 3.39818 15.3508 5.4949C13.5025 7.34207 13.7891 11.2424 15.3508 12.8041C16.1649 13.617 17.6121 14.0846 19.0735 14.0846C20.4183 14.0846 21.774 13.69 22.661 12.8052C24.7567 10.7085 24.9997 6.60545 24.9997 3.70116C24.9997 3.40038 24.7556 3.15625 24.4548 3.15625ZM21.8884 12.0336C20.524 13.398 17.2852 13.1985 16.1202 12.0336C14.9553 10.8686 14.7558 7.62977 16.1202 6.26539C17.8127 4.57294 21.2509 4.27983 23.9056 4.24821C23.874 6.90398 23.5808 10.3422 21.8884 12.0336Z" fill="#EC9D05" stroke="#EC9D05" stroke-width="0.5"/>
<path d="M20.5202 7.87258C20.3916 7.59903 20.0232 7.50534 19.7519 7.63172C15.5726 9.59659 13.5195 13.0229 12.5866 16.545C11.4325 9.05603 8.0945 6.77296 6.67888 5.80416C6.50234 5.6832 6.36502 5.59493 6.28876 5.51973C6.07625 5.30722 5.73077 5.30722 5.51827 5.51973C5.30576 5.73224 5.30576 6.07771 5.51827 6.29022C5.62615 6.39704 5.81251 6.53108 6.06425 6.70323C7.65968 7.79412 11.8978 10.694 11.8978 22.2511C11.8978 22.5519 12.1419 22.796 12.4427 22.796C12.7435 22.796 12.9876 22.5519 12.9876 22.2522C12.9876 17.5826 14.242 11.4264 20.2161 8.61911C20.2161 8.61804 20.3044 8.57661 20.3044 8.57661C20.5757 8.44798 20.6487 8.14501 20.5202 7.87258Z" fill="#EC9D05" stroke="#EC9D05" stroke-width="0.5"/>
</svg>
