<svg width="60" height="60" viewBox="0 0 60 60" fill="none" xmlns="http://www.w3.org/2000/svg">
<path d="M58.9054 17.4515C58.8438 17.3052 58.7556 17.1723 58.6444 17.0623L42.9361 1.354C42.7113 1.12687 42.4032 1 42.0831 1H16.7081C13.3768 1 10.6665 3.71025 10.6665 7.04162V21.5416C10.6664 22.2086 11.2078 22.75 11.8748 22.75C12.5418 22.75 13.0831 22.2086 13.0831 21.5416V7.04162C13.0831 5.043 14.7095 3.41662 16.7081 3.41662H41.5828L54.8744 16.7082H46.9163C44.9177 16.7082 43.2913 15.0819 43.2913 13.0832V9.45824C43.2913 8.79124 42.75 8.24987 42.083 8.24987C41.416 8.24987 40.8747 8.79136 40.8747 9.45835V13.0833C40.8747 16.4147 43.585 19.125 46.9163 19.125H56.5829V52.9583C56.5829 54.9569 54.9566 56.5833 52.9579 56.5833H32.4163C31.7494 56.5833 31.208 57.1246 31.208 57.7916C31.208 58.4586 31.7494 59 32.4163 59H52.9579C56.2894 58.9999 58.9997 56.2896 58.9997 52.9583V17.9166C58.9997 17.7547 58.967 17.5976 58.9054 17.4515Z" fill="#65B43B" stroke="#65B43B"/>
<path d="M17.9166 25.167C8.58836 25.167 1 32.7553 1 42.0837C1 51.4121 8.58836 59.0003 17.9166 59.0003C27.2448 59.0003 34.8332 51.4119 34.8332 42.0837C34.8332 32.7555 27.245 25.167 17.9166 25.167ZM17.9166 56.5837C9.92111 56.5837 3.41662 50.0792 3.41662 42.0837C3.41662 34.0882 9.92111 27.5837 17.9166 27.5837C25.9121 27.5837 32.4166 34.0882 32.4166 42.0837C32.4166 50.0792 25.9122 56.5837 17.9166 56.5837Z" fill="#65B43B" stroke="#65B43B"/>
<path d="M22.7499 8.25C20.0843 8.25 17.9165 10.4177 17.9165 13.0834C17.9165 15.749 20.0843 17.9167 22.7499 17.9167C25.4155 17.9167 27.5832 15.749 27.5832 13.0834C27.5832 10.4177 25.4155 8.25 22.7499 8.25ZM22.7499 15.5C21.4171 15.5 20.3332 14.4161 20.3332 13.0834C20.3332 11.7506 21.4171 10.6666 22.7499 10.6666C24.0826 10.6666 25.1665 11.7505 25.1665 13.0832C25.1665 14.416 24.0826 15.5 22.7499 15.5Z" fill="#65B43B" stroke="#65B43B"/>
<path d="M50.5418 32.417H39.6669C38.9999 32.417 38.4585 32.9584 38.4585 33.6254C38.4585 34.2924 38.9999 34.8337 39.6669 34.8337H50.5418C51.2088 34.8337 51.7502 34.2924 51.7502 33.6254C51.7502 32.9584 51.2088 32.417 50.5418 32.417Z" fill="#65B43B" stroke="#65B43B"/>
<path d="M50.5418 39.667H39.6669C38.9999 39.667 38.4585 40.2084 38.4585 40.8754C38.4585 41.5424 38.9999 42.0837 39.6669 42.0837H50.5418C51.2088 42.0837 51.7502 41.5424 51.7502 40.8754C51.7502 40.2084 51.2088 39.667 50.5418 39.667Z" fill="#65B43B" stroke="#65B43B"/>
<path d="M45.7085 46.916H39.6669C38.9999 46.916 38.4585 47.4574 38.4585 48.1244C38.4585 48.7914 38.9999 49.3328 39.6669 49.3328H45.7085C46.3755 49.3328 46.9169 48.7914 46.9169 48.1244C46.9167 47.4574 46.3755 46.916 45.7085 46.916Z" fill="#65B43B" stroke="#65B43B"/>
<path d="M22.75 39.6664C23.417 39.6664 23.9583 39.125 23.9583 38.458V37.2497C23.9583 35.2511 22.332 33.6247 20.3334 33.6247H19.125V32.4164C19.125 31.7494 18.5836 31.208 17.9166 31.208C17.2496 31.208 16.7082 31.7494 16.7082 32.4164V33.6247H15.5C13.5014 33.6247 11.875 35.2511 11.875 37.2497V39.6664C11.875 41.665 13.5014 43.2914 15.5 43.2914H20.3334C20.9991 43.2914 21.5417 43.8339 21.5417 44.4997V46.9164C21.5417 47.5821 20.9992 48.1247 20.3334 48.1247H15.5C14.8342 48.1247 14.2916 47.5822 14.2916 46.9164V45.708C14.2916 45.041 13.7503 44.4996 13.0833 44.4996C12.4163 44.4996 11.875 45.0411 11.875 45.7081V46.9165C11.875 48.9151 13.5014 50.5415 15.5 50.5415H16.7084V51.7497C16.7084 52.4167 17.2497 52.9581 17.9167 52.9581C18.5837 52.9581 19.125 52.4167 19.125 51.7497V50.5413H20.3334C22.332 50.5413 23.9583 48.915 23.9583 46.9164V44.4997C23.9583 42.5011 22.332 40.8747 20.3334 40.8747H15.5C14.8342 40.8747 14.2916 40.3322 14.2916 39.6664V37.2497C14.2916 36.584 14.8341 36.0414 15.5 36.0414H20.3334C20.9991 36.0414 21.5417 36.5839 21.5417 37.2497V38.4581C21.5416 39.1251 22.083 39.6664 22.75 39.6664Z" fill="#65B43B" stroke="#65B43B"/>
</svg>
