<svg width="70" height="79" viewBox="0 0 70 79" fill="none" xmlns="http://www.w3.org/2000/svg">
<path d="M34.4001 24.567L35.6289 25.1666L36.8982 24.6582C41.5501 22.795 45.1675 20.5974 47.6507 18.1262C50.1349 15.6537 51.5026 12.8563 51.6055 10.0364C51.7948 4.85397 47.8836 0.646187 42.7009 0.456753C40.0229 0.358722 37.939 1.1459 36.4744 2.02217C35.0774 1.04155 33.0585 0.104705 30.3783 0.00682778C25.0297 -0.190005 20.9818 3.89478 20.7988 8.91131C20.6957 11.7312 21.8556 14.6209 24.153 17.2682C26.449 19.9138 29.8966 22.3695 34.4001 24.567ZM30.0123 6.16552C30.0586 6.16552 30.1054 6.16629 30.1532 6.16814C32.4306 6.25138 33.633 7.64662 33.8044 7.86087L36.0271 11.3718L38.7271 8.0184C38.7391 8.00345 40.0396 6.52959 42.4758 6.61822C44.4984 6.69205 45.5 8.28059 45.4442 9.81147C45.3403 12.6525 41.7921 15.8187 35.8759 18.4037C30.164 15.394 26.8562 11.9776 26.96 9.13635C27.0195 7.50913 28.2037 6.16552 30.0123 6.16552Z" fill="#EC9D05"/>
<path d="M45.3382 45.6247C45.3382 40.5252 41.1895 36.3765 36.09 36.3765C30.9905 36.3765 26.8418 40.5252 26.8418 45.6247C26.8418 50.7241 30.9905 54.8729 36.09 54.8729C41.1895 54.8729 45.3382 50.7241 45.3382 45.6247ZM36.09 48.7074C34.3902 48.7074 33.0073 47.3245 33.0073 45.6247C33.0073 43.9249 34.3902 42.5419 36.09 42.5419C37.7898 42.5419 39.1727 43.9249 39.1727 45.6247C39.1727 47.3245 37.7898 48.7074 36.09 48.7074Z" fill="#EC9D05"/>
<path d="M57.669 51.7902C57.669 53.49 56.2861 54.8729 54.5863 54.8729H36.0899H17.5934C15.8936 54.8729 14.5107 53.49 14.5107 51.7902V36.3765H8.34521V51.7902C8.34521 56.8896 12.494 61.0384 17.5934 61.0384H20.6762V78.9182H51.5035V61.0384H54.5863C59.6857 61.0384 63.8345 56.8896 63.8345 51.7902V36.3765H57.669V51.7902ZM45.3381 72.7528H26.8416V61.0384H45.3381V72.7528Z" fill="#EC9D05"/>
<path d="M70.0003 17.8798H63.8349V11.7144H57.6694V17.8798H51.5039V24.0453H57.6694V30.2108H63.8349V24.0453H70.0003V17.8798Z" fill="#EC9D05"/>
<path d="M8.34543 30.2108H14.5109V22.2395L18.4964 26.2251L22.8562 21.8655L11.4282 10.4375L0 21.8655L4.35976 26.2251L8.34543 22.2395V30.2108Z" fill="#EC9D05"/>
</svg>
