<svg width="58" height="58" viewBox="0 0 58 58" fill="none" xmlns="http://www.w3.org/2000/svg">
<path d="M56.5016 18.2527C54.5141 16.265 51.28 16.2651 49.2918 18.2531C48.6804 18.8652 44.7761 22.7726 44.1797 23.3696V9.90373C44.1797 8.54209 43.6494 7.26201 42.6865 6.29923L37.8806 1.49305C36.9178 0.530156 35.6376 0 34.276 0H5.09766C2.28681 0 0 2.28681 0 5.09766V52.9023C0 55.7132 2.28681 58 5.09766 58H39.082C41.8929 58 44.1797 55.7132 44.1797 52.9023V37.7941L56.5015 25.4619C58.4938 23.4697 58.4942 20.2451 56.5016 18.2527ZM33.9845 3.39844C34.3055 3.39844 34.9242 3.34282 35.4775 3.89608L40.2836 8.70227C40.8228 9.2416 40.7814 9.83259 40.7814 10.1953H33.9845V3.39844ZM40.7812 52.9023C40.7812 53.8393 40.0191 54.6016 39.082 54.6016H5.09766C4.16071 54.6016 3.39844 53.8393 3.39844 52.9023V5.09766C3.39844 4.16071 4.16071 3.39844 5.09766 3.39844H30.5859V11.8945C30.5859 12.833 31.3467 13.5938 32.2852 13.5938H40.7812V26.771C40.7812 26.771 35.7681 31.7884 35.7679 31.7885L33.366 34.1905C33.1795 34.377 33.0388 34.6045 32.9554 34.8547L30.5523 42.0639C30.3487 42.6745 30.5077 43.3478 30.9628 43.8028C31.4186 44.2585 32.092 44.4167 32.7017 44.2133L39.9109 41.8103C40.1611 41.7269 40.3886 41.5863 40.5751 41.3998L40.7812 41.1936V52.9023ZM36.9705 35.3921L39.3735 37.7952L38.4556 38.7131L34.8511 39.9145L36.0526 36.3099L36.9705 35.3921ZM41.7761 35.3916L39.3731 32.9885C40.6527 31.7079 46.3359 26.0198 47.5412 24.8135L49.9442 27.2165L41.7761 35.3916ZM54.098 23.0593L52.3464 24.8124L49.9433 22.4094L51.6956 20.6557C52.3585 19.9931 53.4362 19.9932 54.0987 20.6557C54.7611 21.3184 54.7646 22.3926 54.098 23.0593Z" fill="#65B43B"/>
<path d="M32.2856 16.9912H8.49658C7.55816 16.9912 6.79736 17.752 6.79736 18.6904C6.79736 19.6289 7.55816 20.3896 8.49658 20.3896H32.2856C33.2241 20.3896 33.9849 19.6289 33.9849 18.6904C33.9849 17.752 33.2241 16.9912 32.2856 16.9912Z" fill="#65B43B"/>
<path d="M25.4888 23.79H8.49658C7.55816 23.79 6.79736 24.5508 6.79736 25.4893C6.79736 26.4277 7.55816 27.1885 8.49658 27.1885H25.4888C26.4272 27.1885 27.188 26.4277 27.188 25.4893C27.188 24.5508 26.4272 23.79 25.4888 23.79Z" fill="#65B43B"/>
<path d="M25.4883 30.5859H8.49609C7.55767 30.5859 6.79688 31.3467 6.79688 32.2852C6.79688 33.2236 7.55767 33.9844 8.49609 33.9844H25.4883C26.4267 33.9844 27.1875 33.2236 27.1875 32.2852C27.1875 31.3467 26.4267 30.5859 25.4883 30.5859Z" fill="#65B43B"/>
<path d="M25.4888 37.3818H8.49658C7.55816 37.3818 6.79736 38.1426 6.79736 39.0811C6.79736 40.0195 7.55816 40.7803 8.49658 40.7803H25.4888C26.4272 40.7803 27.188 40.0195 27.188 39.0811C27.188 38.1426 26.4272 37.3818 25.4888 37.3818Z" fill="#65B43B"/>
<path d="M32.2852 47.8037H22.0898C21.1514 47.8037 20.3906 48.5645 20.3906 49.5029C20.3906 50.4414 21.1514 51.2021 22.0898 51.2021H32.2852C33.2236 51.2021 33.9844 50.4414 33.9844 49.5029C33.9844 48.5645 33.2236 47.8037 32.2852 47.8037Z" fill="#65B43B"/>
</svg>
