<svg width="54" height="69" viewBox="0 0 54 69" fill="none" xmlns="http://www.w3.org/2000/svg">
<path d="M17.9005 31.1905C16.942 30.232 16.942 28.6778 17.9005 27.7193L25.2642 20.3556C26.2227 19.3971 27.7769 19.3971 28.7354 20.3556L36.099 27.7193C37.0575 28.6778 37.0575 30.232 36.099 31.1905C35.1405 32.149 33.5863 32.149 32.6278 31.1905L29.4543 28.017V39.2731C29.4543 40.6287 28.3554 41.7276 26.9998 41.7276C25.6441 41.7276 24.5452 40.6287 24.5452 39.2731V28.017L21.3717 31.1905C20.4132 32.149 18.859 32.149 17.9005 31.1905Z" fill="#EC9D05"/>
<path d="M39.2729 49.0907C40.6286 49.0907 41.7275 47.9918 41.7275 46.6362C41.7275 45.2805 40.6286 44.1816 39.2729 44.1816H14.7275C13.3718 44.1816 12.2729 45.2805 12.2729 46.6362C12.2729 47.9918 13.3718 49.0907 14.7275 49.0907H39.2729Z" fill="#EC9D05"/>
<path fill-rule="evenodd" clip-rule="evenodd" d="M8.88212 2.76362C10.2795 1.01684 12.3952 0 14.632 0H46.6364C50.7033 0 54 3.29682 54 7.36364V61.3636C54 65.4306 50.7033 68.7273 46.6364 68.7273H7.36364C3.29682 68.7273 0 65.4306 0 61.3636V16.4493C0 14.7772 0.569062 13.1549 1.61359 11.8493L8.88212 2.76362ZM14.632 4.90909C13.8866 4.90909 13.1814 5.24804 12.7155 5.83031L5.44696 14.916C5.09878 15.3512 4.90909 15.8919 4.90909 16.4493V61.3636C4.90909 62.7193 6.00804 63.8182 7.36364 63.8182H46.6364C47.992 63.8182 49.0909 62.7193 49.0909 61.3636V7.36364C49.0909 6.00804 47.992 4.90909 46.6364 4.90909H14.632Z" fill="#EC9D05"/>
</svg>
