<svg width="48" height="59" viewBox="0 0 48 59" fill="none" xmlns="http://www.w3.org/2000/svg">
<path d="M47.3851 15.3178L32.5736 0.50634C32.2496 0.182186 31.8099 0 31.3515 0H6.35713C2.85182 0 0 2.85182 0 6.35702V52.6429C0 56.1482 2.85182 59 6.35702 59H41.5344C45.0397 59 47.8914 56.1482 47.8914 52.6429V16.5399C47.8914 16.0815 47.7093 15.6419 47.3851 15.3178ZM33.08 5.9015L41.9898 14.8114H35.9801C34.381 14.8114 33.08 13.5104 33.08 11.9113V5.9015ZM41.5344 55.543H6.35702C4.75803 55.543 3.45703 54.242 3.45703 52.6429V6.35702C3.45703 4.75803 4.75803 3.45703 6.35702 3.45703H29.6228V11.9113C29.6228 15.4166 32.4747 18.2685 35.98 18.2685H44.4344V52.6429C44.4344 54.242 43.1335 55.543 41.5344 55.543Z" fill="#65B43B"/>
<path d="M16.54 25.9199H9.13428C8.17968 25.9199 7.40576 26.6938 7.40576 27.6484V35.0542C7.40576 36.0088 8.17968 36.7827 9.13428 36.7827H16.54C17.4946 36.7827 18.2686 36.0088 18.2686 35.0542V27.6483C18.2686 26.6937 17.4948 25.9199 16.54 25.9199ZM14.8115 33.3257H10.8628V29.3768H14.8115V33.3257Z" fill="#65B43B"/>
<path d="M16.54 40.7314H9.13428C8.17968 40.7314 7.40576 41.5054 7.40576 42.46V49.8657C7.40576 50.8203 8.17968 51.5942 9.13428 51.5942H16.54C17.4946 51.5942 18.2686 50.8203 18.2686 49.8657V42.46C18.2686 41.5054 17.4948 40.7314 16.54 40.7314ZM14.8115 48.1371H10.8628V44.1884H14.8115V48.1371Z" fill="#65B43B"/>
<path d="M22.2173 27.6484C22.2173 28.603 22.9912 29.377 23.9458 29.377H31.3516C32.3062 29.377 33.0801 28.603 33.0801 27.6484C33.0801 26.6938 32.3062 25.9199 31.3516 25.9199H23.9458C22.9912 25.9199 22.2173 26.6937 22.2173 27.6484Z" fill="#65B43B"/>
<path d="M38.7572 33.3262H23.9458C22.9912 33.3262 22.2173 34.1001 22.2173 35.0547C22.2173 36.0093 22.9912 36.7832 23.9458 36.7832H38.7572C39.7118 36.7832 40.4857 36.0093 40.4857 35.0547C40.4857 34.1001 39.7118 33.3262 38.7572 33.3262Z" fill="#65B43B"/>
<path d="M23.9458 44.1885H31.3516C32.3062 44.1885 33.0801 43.4146 33.0801 42.46C33.0801 41.5054 32.3062 40.7314 31.3516 40.7314H23.9458C22.9912 40.7314 22.2173 41.5054 22.2173 42.46C22.2173 43.4146 22.9912 44.1885 23.9458 44.1885Z" fill="#65B43B"/>
<path d="M38.7572 48.1367H23.9458C22.9912 48.1367 22.2173 48.9106 22.2173 49.8652C22.2173 50.8198 22.9912 51.5938 23.9458 51.5938H38.7572C39.7118 51.5938 40.4857 50.8198 40.4857 49.8652C40.4857 48.9106 39.7118 48.1367 38.7572 48.1367Z" fill="#65B43B"/>
<path d="M9.13428 12.7139H18.3914C19.346 12.7139 20.1199 11.94 20.1199 10.9854C20.1199 10.0307 19.346 9.25684 18.3914 9.25684H9.13428C8.17968 9.25684 7.40576 10.0307 7.40576 10.9854C7.40576 11.94 8.17968 12.7139 9.13428 12.7139Z" fill="#65B43B"/>
<path d="M9.13428 20.1201H23.9457C24.9003 20.1201 25.6742 19.3462 25.6742 18.3916C25.6742 17.437 24.9003 16.6631 23.9457 16.6631H9.13428C8.17968 16.6631 7.40576 17.437 7.40576 18.3916C7.40576 19.3462 8.17968 20.1201 9.13428 20.1201Z" fill="#65B43B"/>
</svg>
