<svg width="70" height="70" viewBox="0 0 70 70" fill="none" xmlns="http://www.w3.org/2000/svg">
<path d="M69.126 14.2729L55.4546 0.600742C55.07 0.216016 54.5483 0 54.0045 0H22.5586C19.1662 0 16.4062 2.75994 16.4062 6.15234V33.2005C7.19059 34.224 0 42.0589 0 51.543C0 61.7202 8.27982 70 18.457 70H63.5742C66.9666 70 69.7266 67.2401 69.7266 63.8477V15.7231C69.7266 15.1791 69.5105 14.6576 69.126 14.2729ZM56.0547 7.00178L60.5103 11.4576L62.7247 13.6719H56.0547V7.00178ZM4.10156 51.543C4.10156 43.6274 10.5414 37.1875 18.457 37.1875C26.3726 37.1875 32.8125 43.6274 32.8125 51.543C32.8125 59.4586 26.3726 65.8984 18.457 65.8984C10.5414 65.8984 4.10156 59.4586 4.10156 51.543ZM63.5742 65.8984H30.0438C33.7302 62.9173 36.2493 58.5486 36.7996 53.5938H58.1055C59.238 53.5938 60.1562 52.6755 60.1562 51.543C60.1562 50.4104 59.238 49.4922 58.1055 49.4922H36.7995C36.4651 46.4816 35.4044 43.6872 33.7961 41.2891H58.1055C59.238 41.2891 60.1562 40.3709 60.1562 39.2383C60.1562 38.1057 59.238 37.1875 58.1055 37.1875H30.0438C27.3749 35.0293 24.095 33.5989 20.5078 33.2005V6.15234C20.5078 5.02154 21.4278 4.10156 22.5586 4.10156H51.9531V15.7227C51.9531 16.8552 52.8713 17.7734 54.0039 17.7734H65.625V63.8477C65.625 64.9785 64.705 65.8984 63.5742 65.8984Z" fill="#EC9D05"/>
<path d="M58.1055 24.8828H28.0273C26.8948 24.8828 25.9766 25.801 25.9766 26.9336C25.9766 28.0662 26.8948 28.9844 28.0273 28.9844H58.1055C59.238 28.9844 60.1562 28.0662 60.1562 26.9336C60.1562 25.801 59.238 24.8828 58.1055 24.8828Z" fill="#EC9D05"/>
<path d="M26.6064 46.4014C25.8056 45.6006 24.507 45.6006 23.7061 46.4014L15.586 54.5215L12.9345 51.87C12.1337 51.0692 10.8352 51.0692 10.0343 51.87C9.23337 52.6707 9.23337 53.9693 10.0343 54.7702L14.1358 58.8717C14.5363 59.2722 15.0611 59.4725 15.586 59.4725C16.1109 59.4725 16.6357 59.2722 17.036 58.8717L26.6064 49.3014C27.4073 48.5007 27.4073 47.2021 26.6064 46.4014Z" fill="#EC9D05"/>
</svg>
