<svg width="60" height="60" viewBox="0 0 60 60" fill="none" xmlns="http://www.w3.org/2000/svg">
<path d="M34.126 26.1853C34.477 26.1853 34.8136 26.0459 35.0618 25.7977C35.31 25.5495 35.4495 25.2129 35.4495 24.8618C35.4495 24.5108 35.31 24.1742 35.0618 23.926C34.8136 23.6778 34.477 23.5384 34.126 23.5384H31.4791V22.2149C31.4791 21.8639 31.3397 21.5273 31.0915 21.2791C30.8433 21.0309 30.5066 20.8915 30.1556 20.8915C29.8046 20.8915 29.468 21.0309 29.2198 21.2791C28.9716 21.5273 28.8322 21.8639 28.8322 22.2149V23.5384H26.1853C25.8343 23.5384 25.4976 23.6778 25.2494 23.926C25.0013 24.1742 24.8618 24.5108 24.8618 24.8618V30.1557C24.8618 30.5067 25.0013 30.8433 25.2494 31.0915C25.4976 31.3397 25.8343 31.4791 26.1853 31.4791H32.8026V34.126H26.1853C25.8343 34.126 25.4976 34.2655 25.2494 34.5137C25.0013 34.7619 24.8618 35.0985 24.8618 35.4495C24.8618 35.8005 25.0013 36.1371 25.2494 36.3853C25.4976 36.6335 25.8343 36.773 26.1853 36.773H28.8322V38.0964C28.8322 38.4474 28.9716 38.784 29.2198 39.0322C29.468 39.2804 29.8046 39.4199 30.1556 39.4199C30.5066 39.4199 30.8433 39.2804 31.0915 39.0322C31.3397 38.784 31.4791 38.4474 31.4791 38.0964V36.773H34.126C34.477 36.773 34.8136 36.6335 35.0618 36.3853C35.31 36.1371 35.4495 35.8005 35.4495 35.4495V30.1557C35.4495 29.8047 35.31 29.468 35.0618 29.2198C34.8136 28.9717 34.477 28.8322 34.126 28.8322H27.5087V26.1853H34.126Z" fill="#65B43B" stroke="#65B43B"/>
<path d="M52.6544 46.0372C51.3578 46.0374 50.0902 46.421 49.011 47.1396L44.142 42.2706C47.0705 38.914 48.6841 34.6102 48.6841 30.1557C48.6841 25.7011 47.0705 21.3973 44.142 18.0408L49.011 13.1718C50.3828 14.0798 52.043 14.4459 53.6696 14.1992C55.2961 13.9525 56.7731 13.1105 57.814 11.8365C58.8549 10.5625 59.3855 8.94731 59.303 7.30423C59.2205 5.66115 58.5307 4.10727 57.3674 2.94398C56.2041 1.78068 54.6502 1.09088 53.0071 1.00836C51.364 0.925843 49.7489 1.45649 48.4749 2.49738C47.2009 3.53828 46.3589 5.01523 46.1121 6.64177C45.8654 8.26832 46.2316 9.92853 47.1396 11.3004L42.2706 16.1694C38.914 13.2409 34.6102 11.6273 30.1557 11.6273C25.7011 11.6273 21.3973 13.2409 18.0408 16.1694L13.1718 11.3004C14.0798 9.92853 14.4459 8.26832 14.1992 6.64177C13.9525 5.01523 13.1105 3.53828 11.8365 2.49738C10.5625 1.45649 8.94731 0.925843 7.30423 1.00836C5.66115 1.09088 4.10727 1.78068 2.94398 2.94398C1.78068 4.10727 1.09088 5.66115 1.00836 7.30423C0.925843 8.94731 1.45649 10.5625 2.49738 11.8365C3.53828 13.1105 5.01523 13.9525 6.64177 14.1992C8.26832 14.4459 9.92853 14.0798 11.3004 13.1718L16.1694 18.0408C13.2409 21.3973 11.6273 25.7011 11.6273 30.1557C11.6273 34.6102 13.2409 38.914 16.1694 42.2706L11.3004 47.1396C9.92853 46.2316 8.26832 45.8654 6.64177 46.1121C5.01523 46.3589 3.53828 47.2009 2.49738 48.4749C1.45649 49.7489 0.925843 51.364 1.00836 53.0071C1.09088 54.6502 1.78068 56.2041 2.94398 57.3674C4.10727 58.5307 5.66115 59.2205 7.30423 59.303C8.94731 59.3855 10.5625 58.8549 11.8365 57.814C13.1105 56.7731 13.9525 55.2961 14.1992 53.6696C14.4459 52.043 14.0798 50.3828 13.1718 49.011L18.0408 44.142C21.3973 47.0705 25.7011 48.6841 30.1557 48.6841C34.6102 48.6841 38.914 47.0705 42.2706 44.142L47.1396 49.011C46.328 50.2414 45.9505 51.7075 46.0669 53.1768C46.1832 54.6461 46.7868 56.0346 47.7819 57.1219C48.777 58.2092 50.1066 58.9332 51.5599 59.179C53.0132 59.4248 54.5069 59.1784 55.8042 58.4789C57.1016 57.7793 58.1282 56.6666 58.7213 55.3173C59.3145 53.968 59.4401 52.4592 59.0784 51.0304C58.7167 49.6015 57.8882 48.3344 56.7245 47.4298C55.5608 46.5253 54.1284 46.0351 52.6544 46.0372ZM52.6544 3.68655C53.4397 3.68655 54.2073 3.91941 54.8602 4.35568C55.5132 4.79195 56.0221 5.41204 56.3226 6.13753C56.6231 6.86302 56.7017 7.66133 56.5485 8.4315C56.3953 9.20168 56.0172 9.90913 55.4619 10.4644C54.9066 11.0197 54.1992 11.3978 53.429 11.551C52.6588 11.7042 51.8605 11.6256 51.135 11.3251C50.4096 11.0246 49.7895 10.5157 49.3532 9.86274C48.9169 9.20982 48.6841 8.44219 48.6841 7.65692C48.6841 6.60391 49.1024 5.59404 49.847 4.84945C50.5915 4.10486 51.6014 3.68655 52.6544 3.68655V3.68655ZM7.65692 11.6273C6.87166 11.6273 6.10403 11.3944 5.4511 10.9582C4.79818 10.5219 4.28929 9.90181 3.98878 9.17632C3.68827 8.45083 3.60965 7.65252 3.76284 6.88234C3.91604 6.11217 4.29418 5.40471 4.84945 4.84945C5.40471 4.29418 6.11217 3.91604 6.88234 3.76284C7.65252 3.60965 8.45083 3.68827 9.17632 3.98878C9.90181 4.28929 10.5219 4.79818 10.9582 5.4511C11.3944 6.10403 11.6273 6.87166 11.6273 7.65692C11.6273 8.70993 11.209 9.71981 10.4644 10.4644C9.71981 11.209 8.70993 11.6273 7.65692 11.6273V11.6273ZM7.65692 56.6248C6.87166 56.6248 6.10403 56.3919 5.4511 55.9557C4.79818 55.5194 4.28929 54.8993 3.98878 54.1738C3.68827 53.4483 3.60965 52.65 3.76284 51.8799C3.91604 51.1097 4.29418 50.4022 4.84945 49.847C5.40471 49.2917 6.11217 48.9136 6.88234 48.7604C7.65252 48.6072 8.45083 48.6858 9.17632 48.9863C9.90181 49.2868 10.5219 49.7957 10.9582 50.4486C11.3944 51.1015 11.6273 51.8692 11.6273 52.6544C11.6273 53.7074 11.209 54.7173 10.4644 55.4619C9.71981 56.2065 8.70993 56.6248 7.65692 56.6248ZM14.2742 30.1557C14.2742 27.0146 15.2056 23.9441 16.9507 21.3324C18.6958 18.7207 21.1761 16.6851 24.0781 15.4831C26.9801 14.2811 30.1733 13.9666 33.254 14.5794C36.3347 15.1922 39.1645 16.7047 41.3856 18.9258C43.6066 21.1468 45.1192 23.9767 45.732 27.0574C46.3448 30.1381 46.0303 33.3313 44.8282 36.2333C43.6262 39.1352 41.5906 41.6156 38.979 43.3606C36.3673 45.1057 33.2967 46.0372 30.1557 46.0372C25.945 46.0326 21.9082 44.3579 18.9308 41.3805C15.9534 38.4032 14.2788 34.3663 14.2742 30.1557V30.1557ZM52.6544 56.6248C51.8692 56.6248 51.1015 56.3919 50.4486 55.9557C49.7957 55.5194 49.2868 54.8993 48.9863 54.1738C48.6858 53.4483 48.6072 52.65 48.7604 51.8799C48.9136 51.1097 49.2917 50.4022 49.847 49.847C50.4022 49.2917 51.1097 48.9136 51.8799 48.7604C52.65 48.6072 53.4483 48.6858 54.1738 48.9863C54.8993 49.2868 55.5194 49.7957 55.9557 50.4486C56.3919 51.1015 56.6248 51.8692 56.6248 52.6544C56.6248 53.7074 56.2065 54.7173 55.4619 55.4619C54.7173 56.2065 53.7074 56.6248 52.6544 56.6248Z" fill="#65B43B" stroke="#65B43B"/>
</svg>
