<svg width="70" height="70" viewBox="0 0 70 70" fill="none" xmlns="http://www.w3.org/2000/svg">
<path d="M23.9258 12.3047H43.0664C44.199 12.3047 45.1172 11.3865 45.1172 10.2539C45.1172 9.12133 44.199 8.20312 43.0664 8.20312H23.9258C22.7932 8.20312 21.875 9.12133 21.875 10.2539C21.875 11.3865 22.7932 12.3047 23.9258 12.3047Z" fill="#EC9D05"/>
<path d="M23.9258 20.5078H43.0664C44.199 20.5078 45.1172 19.5896 45.1172 18.457C45.1172 17.3245 44.199 16.4062 43.0664 16.4062H23.9258C22.7932 16.4062 21.875 17.3245 21.875 18.457C21.875 19.5896 22.7932 20.5078 23.9258 20.5078Z" fill="#EC9D05"/>
<path d="M26.6602 51.9531H10.2539C9.12133 51.9531 8.20312 52.8713 8.20312 54.0039C8.20312 55.1365 9.12133 56.0547 10.2539 56.0547H26.6602C27.7927 56.0547 28.7109 55.1365 28.7109 54.0039C28.7109 52.8713 27.7927 51.9531 26.6602 51.9531Z" fill="#EC9D05"/>
<path d="M68.1979 59.4973L54.953 46.2524C55.6886 44.435 56.0947 42.4502 56.0947 40.3721C56.0947 37.0672 55.0689 33.9979 53.3202 31.4639V6.15234C53.3202 2.75994 50.5602 0 47.1678 0H15.7227C15.1787 0 14.6571 0.216152 14.2726 0.600742L0.600742 14.2726C0.216016 14.6572 0 15.1788 0 15.7227V63.8477C0 67.2401 2.75994 70 6.15234 70H47.168C50.5604 70 53.3203 67.2401 53.3203 63.8477V62.021L59.4973 68.1978C60.6592 69.3599 62.2043 69.9999 63.8477 69.9999C65.491 69.9999 67.0361 69.3599 68.1979 68.1979C69.3599 67.0359 70 65.491 70 63.8477C70 62.2043 69.36 60.6594 68.1979 59.4973ZM40.3722 51.9933C33.9644 51.9933 28.7511 46.7801 28.7511 40.3722C28.7511 33.9644 33.9644 28.7511 40.3722 28.7511C46.7801 28.7511 51.9933 33.9644 51.9933 40.3722C51.9933 46.7801 46.7801 51.9933 40.3722 51.9933ZM25.4081 35.5469H12.3047V28.7109H29.8376C27.8131 30.5416 26.2665 32.8908 25.4081 35.5469ZM13.6719 7.00178V13.6719H7.00178L13.6719 7.00178ZM49.2188 63.8477C49.2188 64.9785 48.2988 65.8984 47.168 65.8984H6.15234C5.02154 65.8984 4.10156 64.9785 4.10156 63.8477V17.7734H15.7227C16.8552 17.7734 17.7734 16.8552 17.7734 15.7227V4.10156H47.168C48.2988 4.10156 49.2188 5.02154 49.2188 6.15234V27.3813C46.6968 25.6586 43.6503 24.6094 40.3722 24.6094H10.2539C9.12133 24.6094 8.20312 25.5276 8.20312 26.6602V37.5977C8.20312 38.7302 9.12133 39.6484 10.2539 39.6484H24.6668C24.6559 39.8884 24.6496 40.1296 24.6496 40.3722C24.6496 41.5315 24.7769 42.6614 25.0161 43.75H10.2539C9.12133 43.75 8.20312 44.6682 8.20312 45.8008C8.20312 46.9334 9.12133 47.8516 10.2539 47.8516H26.5453C29.2096 52.7572 34.4084 56.0949 40.3722 56.0949C42.4502 56.0949 44.435 55.6887 46.2524 54.9531L49.2188 57.9195V63.8477ZM65.2976 65.2978C64.9104 65.685 64.3955 65.8984 63.8477 65.8984C63.2998 65.8984 62.7849 65.6852 62.3976 65.2978L49.9395 52.8399C51.0274 52.0032 52.003 51.0275 52.8399 49.9395L65.2978 62.3975C65.6852 62.7848 65.8986 63.2998 65.8986 63.8477C65.8984 64.3954 65.685 64.9104 65.2976 65.2978Z" fill="#EC9D05"/>
</svg>
