<svg width="60" height="60" viewBox="0 0 60 60" fill="none" xmlns="http://www.w3.org/2000/svg">
<path d="M11.25 13.125V13.1259H48.75V13.125C49.7864 13.125 50.625 12.2864 50.625 11.25C50.625 10.2155 49.7864 9.375 48.75 9.375C48.7484 9.375 48.7471 9.37594 48.7454 9.37594H11.2546C11.2529 9.37594 11.2516 9.375 11.25 9.375C10.2155 9.375 9.375 10.2155 9.375 11.25C9.375 12.2864 10.2155 13.125 11.25 13.125Z" fill="#65B43B"/>
<path d="M11.25 20.626H30C31.0364 20.626 31.875 19.7864 31.875 18.751C31.875 17.7155 31.0364 16.876 30 16.876H11.25C10.2155 16.876 9.375 17.7155 9.375 18.751C9.375 19.7864 10.2155 20.626 11.25 20.626Z" fill="#65B43B"/>
<path d="M11.25 28.126H22.5C23.5364 28.126 24.375 27.2864 24.375 26.251C24.375 25.2155 23.5364 24.376 22.5 24.376H11.25C10.2155 24.376 9.375 25.2155 9.375 26.251C9.375 27.2864 10.2155 28.126 11.25 28.126Z" fill="#65B43B"/>
<path d="M41.25 35.625C43.3181 35.625 45 33.9432 45 31.875C45 29.8069 43.3181 28.125 41.25 28.125C39.1819 28.125 37.5 29.8069 37.5 31.875C37.5 33.9432 39.1819 35.625 41.25 35.625Z" fill="#65B43B"/>
<path d="M58.125 0H1.875C0.839414 0 0 0.839414 0 1.875V39.375C0 40.4062 0.84375 41.25 1.875 41.25H31.875V58.125C31.875 58.8355 32.276 59.4846 32.9114 59.8023C33.5468 60.12 34.3057 60.0504 34.8752 59.6246L41.25 54.8438L47.6248 59.6246C47.9562 59.8727 48.3517 60 48.75 60C49.0357 60 49.3232 59.935 49.5886 59.8022C50.224 59.4845 50.625 58.8354 50.625 58.1249V41.25H58.125C59.1562 41.25 60 40.4062 60 39.375V1.875C60 0.84375 59.1562 0 58.125 0ZM34.0264 29.055L33.696 27.5142L35.1956 27.0308C35.7696 26.8459 36.2201 26.3964 36.405 25.8223L36.8893 24.3217L38.4293 24.6521C39.0171 24.7813 39.6323 24.6146 40.0809 24.21L41.2501 23.1526L42.4184 24.21C42.8652 24.6146 43.485 24.7804 44.07 24.6521L45.6108 24.3217L46.0951 25.8223C46.28 26.3962 46.7305 26.8458 47.3045 27.0308L48.8041 27.5142L48.4737 29.055C48.3464 29.6446 48.5112 30.259 48.9158 30.7066L49.9724 31.8749L48.9158 33.0431C48.5112 33.4908 48.3464 34.1052 48.4737 34.6948L48.8041 36.2357L47.3045 36.7191C46.7305 36.904 46.28 37.3535 46.0951 37.9276L45.6108 39.4282L44.0708 39.0968C43.4794 38.9659 42.8641 39.1335 42.4182 39.5391L41.25 40.5961L40.0808 39.5387C39.7329 39.2237 39.2834 39.0544 38.8229 39.0544C38.6911 39.0544 38.5593 39.0681 38.4284 39.0964L36.8884 39.4278L36.405 37.9273C36.2201 37.3532 35.7696 36.9038 35.1956 36.7187L33.696 36.2353L34.0264 34.6944C34.1537 34.1048 33.9889 33.4905 33.5843 33.0428L32.5277 31.8745L33.5843 30.7063C33.9889 30.2589 34.1537 29.6446 34.0264 29.055ZM42.3752 51.0004C42.042 50.7504 41.6455 50.625 41.25 50.625C40.8545 50.625 40.458 50.7504 40.1248 51.0004L35.625 54.375V43.4607C35.7565 43.4609 35.8859 43.4793 36.0196 43.4507L38.2781 42.9646L39.992 44.5154C40.3491 44.8386 40.7995 44.9998 41.2499 44.9998C41.7004 44.9998 42.1508 44.8386 42.5078 44.5154L44.2216 42.9646L46.4802 43.4507C46.6141 43.4795 46.7432 43.4611 46.8748 43.4611V54.375L42.3752 51.0004ZM56.25 37.5H52.836C52.8362 37.3686 52.8545 37.2393 52.8259 37.1061L52.3416 34.8466L53.8907 33.1328C54.5361 32.4186 54.5361 31.331 53.8907 30.6169L52.3416 28.903L52.8259 26.6435C53.0283 25.7024 52.4844 24.7603 51.568 24.4655L49.3689 23.7568L48.6593 21.5559C48.3645 20.6404 47.4214 20.0975 46.4813 20.2989L44.2218 20.7841L42.5079 19.2341C41.7938 18.5877 40.7061 18.5877 39.992 19.2341L38.2781 20.7841L36.0186 20.2989C35.0802 20.0993 34.1362 20.6404 33.8406 21.5559L33.131 23.7568L30.9319 24.4655C30.0155 24.7603 29.4716 25.7024 29.674 26.6435L30.1583 28.903L28.6092 30.6169C27.9638 31.331 27.9638 32.4186 28.6092 33.1328L30.1583 34.8466L29.674 37.1061C29.6454 37.2394 29.6638 37.3686 29.664 37.5H3.75V3.75H56.25V37.5Z" fill="#65B43B"/>
</svg>
