<svg width="58" height="70" viewBox="0 0 58 70" fill="none" xmlns="http://www.w3.org/2000/svg">
<path d="M51.0174 0H16.4791C12.6461 0 9.52779 2.94396 9.52779 6.5625V8.75H4.75029C2.1309 8.75 0 10.8809 0 13.5003V65.2497C0 67.8691 2.1309 70 4.75029 70H43.6907C46.3101 70 48.441 67.8691 48.441 65.2497V61.25H51.0174C54.8503 61.25 57.9688 58.306 57.9688 54.6875V6.5625C57.9688 2.94396 54.8503 0 51.0174 0ZM44.066 65.2497C44.066 65.4567 43.8977 65.625 43.6907 65.625H4.75029C4.5433 65.625 4.375 65.4567 4.375 65.2497V13.5003C4.375 13.2933 4.5433 13.125 4.75029 13.125H43.6907C43.8977 13.125 44.066 13.2933 44.066 13.5003V65.2497ZM53.5938 54.6875C53.5938 55.8936 52.4379 56.875 51.0174 56.875H48.441V13.5003C48.441 10.8809 46.3101 8.75 43.6907 8.75H13.9028V6.5625C13.9028 5.35637 15.0586 4.375 16.4791 4.375H51.0174C52.4379 4.375 53.5938 5.35637 53.5938 6.5625V54.6875Z" fill="#EC9D05"/>
<path d="M35 29.5312H14.2187C13.0107 29.5312 12.0312 28.5518 12.0312 27.3438C12.0312 26.1357 13.0107 25.1562 14.2187 25.1562H35C36.208 25.1562 37.1875 26.1357 37.1875 27.3438C37.1875 28.5518 36.208 29.5312 35 29.5312Z" fill="#EC9D05"/>
<path d="M35 38.2812H14.2187C13.0107 38.2812 12.0312 37.3018 12.0312 36.0938C12.0312 34.8857 13.0107 33.9062 14.2187 33.9062H35C36.208 33.9062 37.1875 34.8857 37.1875 36.0938C37.1875 37.3018 36.208 38.2812 35 38.2812Z" fill="#EC9D05"/>
<path d="M35 47.0312H14.2187C13.0107 47.0312 12.0312 46.0518 12.0312 44.8438C12.0312 43.6357 13.0107 42.6562 14.2187 42.6562H35C36.208 42.6562 37.1875 43.6357 37.1875 44.8438C37.1875 46.0518 36.208 47.0312 35 47.0312Z" fill="#EC9D05"/>
</svg>
