<svg width="63" height="72" viewBox="0 0 63 72" fill="none" xmlns="http://www.w3.org/2000/svg">
<path d="M48.5237 1.46993C48.2396 1.17282 47.8472 1.00355 47.4364 1H20.7698C17.4281 1 14.6364 3.73911 14.6364 7.08073V11.6061H7.1334C3.79179 11.6061 1 14.386 1 17.727V64.9193C1 68.2609 3.79179 71 7.1334 71H42.4424C45.784 71 48.5758 68.2609 48.5758 64.9193V60.3939H56.0787C59.4203 60.3939 62.2121 57.614 62.2121 54.273V16.1213C62.1985 15.7212 62.0322 15.3419 61.7475 15.0607L48.5237 1.46993ZM48.8788 6.27166L57.0417 14.6364H49.9062C49.3594 14.6269 48.9113 14.1978 48.8788 13.6515V6.27166ZM45.5455 64.9193C45.5455 66.5901 44.1132 67.9697 42.4424 67.9697H7.1334C5.46259 67.9697 4.0303 66.5901 4.0303 64.9193V17.727C4.06167 16.0284 5.43478 14.6612 7.1334 14.6364H14.6364V54.273C14.6364 57.6146 17.4281 60.3939 20.7698 60.3939H45.5455V64.9193ZM56.0787 57.3636H20.7698C19.0711 57.3388 17.698 55.9716 17.6667 54.273V7.08073C17.6667 5.40992 19.099 4.0303 20.7698 4.0303H45.8485V13.6515C45.8485 15.8485 47.7093 17.6667 49.9062 17.6667H59.1818V54.273C59.1505 55.9716 57.7773 57.3388 56.0787 57.3636Z" fill="#EC9D05" stroke="#EC9D05"/>
<path d="M52.258 48.1211H23.8306C22.9937 48.1211 22.3154 48.7994 22.3154 49.6362C22.3154 50.4731 22.9937 51.1514 23.8306 51.1514H52.258C53.0949 51.1514 53.7732 50.4731 53.7732 49.6362C53.7732 48.7994 53.0949 48.1211 52.258 48.1211Z" fill="#EC9D05" stroke="#EC9D05"/>
<path d="M23.8306 44.4834H40.8488C41.6857 44.4834 42.364 43.8052 42.364 42.9683C42.364 42.1314 41.6857 41.4531 40.8488 41.4531H23.8306C22.9937 41.4531 22.3154 42.1314 22.3154 42.9683C22.3154 43.8052 22.9937 44.4834 23.8306 44.4834Z" fill="#EC9D05" stroke="#EC9D05"/>
<path d="M38.4241 33.3149C36.9581 33.3131 35.7703 32.1252 35.7691 30.6598C35.7691 29.8229 35.0902 29.1447 34.2539 29.1447C33.417 29.1447 32.7388 29.8229 32.7388 30.6598C32.7417 33.1568 34.3711 35.3603 36.7575 36.0954V37.3638C36.7575 38.2006 37.4357 38.8789 38.2726 38.8789C39.1095 38.8789 39.7878 38.2006 39.7878 37.3638V36.1789C42.5784 35.4893 44.4155 32.826 44.0687 29.9727C43.7213 27.1187 41.2988 24.9738 38.4241 24.9738C36.9575 24.9738 35.7691 23.7854 35.7691 22.3188C35.7685 20.8527 36.9575 19.6637 38.4235 19.6637C39.8902 19.6631 41.0792 20.8522 41.0792 22.3182C41.0792 23.1551 41.7581 23.8333 42.5944 23.8333C43.4312 23.8333 44.1095 23.1551 44.1095 22.3182C44.106 19.7051 42.3239 17.4295 39.7878 16.7997V15.3941C39.7878 14.5572 39.1095 13.8789 38.2726 13.8789C37.4357 13.8789 36.7575 14.5572 36.7575 15.3941V16.8826C34.0669 17.7082 32.3848 20.3781 32.8021 23.161C33.2194 25.9445 35.6099 28.0036 38.4241 28.0041C39.8908 27.9929 41.0881 29.1731 41.0993 30.6391C41.1106 32.1057 39.931 33.3036 38.4644 33.3143C38.4508 33.3143 38.4378 33.3143 38.4241 33.3143V33.3149Z" fill="#EC9D05" stroke="#EC9D05"/>
</svg>
