<svg width="55" height="62" viewBox="0 0 55 62" fill="none" xmlns="http://www.w3.org/2000/svg">
<path d="M49.604 0H21.5184C18.9566 0 16.8724 2.08427 16.8724 4.646V9.74151H4.64152C2.08209 9.74151 0 11.8258 0 14.3875V57.3539C0 59.9157 2.08209 62 4.64152 62H35.5612C36.5644 62 37.3776 61.1867 37.3776 60.1836V52.2585H49.6041C52.1659 52.2585 54.2501 50.1742 54.2501 47.6125V4.646C54.25 2.08427 52.1659 0 49.604 0V0ZM3.63281 57.354V14.3875C3.63281 13.8289 4.08534 13.3743 4.64152 13.3743H16.8725V50.442C16.8725 51.1263 17.251 51.7223 17.81 52.0319L28.7824 58.3672H4.64152C4.08534 58.3672 3.63281 57.9126 3.63281 57.354ZM33.7448 57.0375L25.4676 52.2585H33.7448V57.0375ZM50.6172 47.6125C50.6172 48.1711 50.1627 48.6257 49.604 48.6257H20.5052V4.646C20.5052 4.0874 20.9596 3.63281 21.5184 3.63281H49.604C50.1626 3.63281 50.6172 4.0874 50.6172 4.646V47.6125Z" fill="#65B43B"/>
<path d="M46.3791 6.05469H24.7437C23.7405 6.05469 22.9272 6.86795 22.9272 7.87109V18.163C22.9272 19.1661 23.7405 19.9794 24.7437 19.9794H46.3791C47.3823 19.9794 48.1955 19.1661 48.1955 18.163V7.87109C48.1955 6.86795 47.3823 6.05469 46.3791 6.05469ZM44.5627 16.3466H26.5601V9.6875H44.5627V16.3466Z" fill="#65B43B"/>
<path d="M46.3791 23.6094H24.7437C23.7405 23.6094 22.9272 24.4226 22.9272 25.4258C22.9272 26.4289 23.7405 27.2422 24.7437 27.2422H46.3791C47.3823 27.2422 48.1955 26.4289 48.1955 25.4258C48.1955 24.4226 47.3823 23.6094 46.3791 23.6094Z" fill="#65B43B"/>
<path d="M24.7437 33.2969H41.5354C42.5385 33.2969 43.3518 32.4836 43.3518 31.4805C43.3518 30.4773 42.5385 29.6641 41.5354 29.6641H24.7437C23.7405 29.6641 22.9272 30.4773 22.9272 31.4805C22.9272 32.4836 23.7405 33.2969 24.7437 33.2969Z" fill="#65B43B"/>
<path d="M43.6368 35.7188H24.7437C23.7405 35.7188 22.9272 36.532 22.9272 37.5352C22.9272 38.5383 23.7405 39.3516 24.7437 39.3516H43.6368C44.64 39.3516 45.4532 38.5383 45.4532 37.5352C45.4532 36.532 44.6401 35.7188 43.6368 35.7188Z" fill="#65B43B"/>
<path d="M30.1447 41.7734H24.7437C23.7405 41.7734 22.9272 42.5867 22.9272 43.5898C22.9272 44.593 23.7405 45.4062 24.7437 45.4062H30.1447C31.1478 45.4062 31.9611 44.593 31.9611 43.5898C31.9611 42.5867 31.1478 41.7734 30.1447 41.7734Z" fill="#65B43B"/>
</svg>
