<svg width="22" height="22" viewBox="0 0 22 22" fill="none" xmlns="http://www.w3.org/2000/svg">
<path d="M12.9412 6.47059V9.05882C12.2276 9.05882 11.6471 8.47828 11.6471 7.76471V6.47059C11.6471 5.04344 10.486 3.88235 9.05882 3.88235V0H0V9.05882H9.05882V5.17647C9.7724 5.17647 10.3529 5.75701 10.3529 6.47059V7.76471C10.3529 9.19186 11.514 10.3529 12.9412 10.3529V11.6471C11.514 11.6471 10.3529 12.8081 10.3529 14.2353V15.5294C10.3529 16.243 9.7724 16.8235 9.05882 16.8235V12.9412H0V22H9.05882V18.1176C10.486 18.1176 11.6471 16.9566 11.6471 15.5294V14.2353C11.6471 13.5217 12.2276 12.9412 12.9412 12.9412V15.5294H22V6.47059H12.9412ZM7.76471 7.76471H1.29412V1.29412H7.76471V7.76471ZM7.76471 20.7059H1.29412V14.2353H7.76471V20.7059ZM20.7059 14.2353H14.2353V7.76471H20.7059V14.2353Z" fill="#EC9D05"/>
<path d="M2.58887 5.17676H6.47122V6.47088H2.58887V5.17676Z" fill="#EC9D05"/>
<path d="M2.58887 2.58887H6.47122V3.88298H2.58887V2.58887Z" fill="#EC9D05"/>
<path d="M2.58887 18.1182H6.47122V19.4123H2.58887V18.1182Z" fill="#EC9D05"/>
<path d="M2.58887 15.5293H6.47122V16.8234H2.58887V15.5293Z" fill="#EC9D05"/>
<path d="M15.5293 11.6475H19.4116V12.9416H15.5293V11.6475Z" fill="#EC9D05"/>
<path d="M15.5293 9.05859H19.4116V10.3527H15.5293V9.05859Z" fill="#EC9D05"/>
</svg>
