<svg width="49" height="49" viewBox="0 0 49 49" fill="none" xmlns="http://www.w3.org/2000/svg">
<path d="M39.2383 49H9.76172C7.17368 48.997 4.69252 47.9675 2.8625 46.1375C1.03248 44.3075 0.00303939 41.8263 0 39.2383L0 9.76172C0.00303939 7.17368 1.03248 4.69252 2.8625 2.8625C4.69252 1.03248 7.17368 0.00303939 9.76172 0H39.2383C41.8263 0.00303939 44.3075 1.03248 46.1375 2.8625C47.9675 4.69252 48.997 7.17368 49 9.76172V39.2383C48.997 41.8263 47.9675 44.3075 46.1375 46.1375C44.3075 47.9675 41.8263 48.997 39.2383 49V49ZM9.76172 3.82812C8.18858 3.8299 6.68037 4.45561 5.56799 5.56799C4.45561 6.68037 3.8299 8.18858 3.82812 9.76172V39.2383C3.8299 40.8114 4.45561 42.3196 5.56799 43.432C6.68037 44.5444 8.18858 45.1701 9.76172 45.1719H39.2383C40.8114 45.1701 42.3196 44.5444 43.432 43.432C44.5444 42.3196 45.1701 40.8114 45.1719 39.2383V9.76172C45.1701 8.18858 44.5444 6.68037 43.432 5.56799C42.3196 4.45561 40.8114 3.8299 39.2383 3.82812H9.76172Z" fill="white"/>
<path d="M24.5 31.0423C23.9924 31.0423 23.5055 30.8406 23.1466 30.4817C22.7876 30.1227 22.5859 29.6358 22.5859 29.1282V11.3351C22.5859 10.8274 22.7876 10.3406 23.1466 9.98164C23.5055 9.62268 23.9924 9.42102 24.5 9.42102C25.0076 9.42102 25.4945 9.62268 25.8534 9.98164C26.2124 10.3406 26.4141 10.8274 26.4141 11.3351V29.1282C26.4141 29.6358 26.2124 30.1227 25.8534 30.4817C25.4945 30.8406 25.0076 31.0423 24.5 31.0423Z" fill="white"/>
<path d="M24.5003 32.407C24.0754 32.4083 23.6544 32.3253 23.2618 32.1628C22.8692 32.0003 22.5127 31.7616 22.213 31.4605L14.7902 24.0387C14.4312 23.6797 14.2295 23.1927 14.2295 22.685C14.2295 22.1772 14.4312 21.6903 14.7902 21.3313C15.1492 20.9722 15.6362 20.7705 16.1439 20.7705C16.6517 20.7705 17.1386 20.9722 17.4977 21.3313L24.5003 28.3348L31.5029 21.3313C31.6806 21.1535 31.8917 21.0125 32.1239 20.9163C32.3562 20.8201 32.6052 20.7705 32.8566 20.7705C33.108 20.7705 33.3569 20.8201 33.5892 20.9163C33.8215 21.0125 34.0325 21.1535 34.2103 21.3313C34.3881 21.509 34.5291 21.7201 34.6253 21.9524C34.7215 22.1846 34.771 22.4336 34.771 22.685C34.771 22.9364 34.7215 23.1853 34.6253 23.4176C34.5291 23.6499 34.3881 23.8609 34.2103 24.0387L26.7876 31.4605C26.4878 31.7616 26.1313 32.0003 25.7387 32.1628C25.3461 32.3253 24.9252 32.4083 24.5003 32.407Z" fill="white"/>
<path d="M32.8571 39.3876H16.1436C15.6359 39.3876 15.1491 39.1859 14.7901 38.827C14.4312 38.468 14.2295 37.9812 14.2295 37.4735C14.2295 36.9659 14.4312 36.479 14.7901 36.1201C15.1491 35.7611 15.6359 35.5594 16.1436 35.5594H32.8571C33.3648 35.5594 33.8516 35.7611 34.2106 36.1201C34.5696 36.479 34.7712 36.9659 34.7712 37.4735C34.7712 37.9812 34.5696 38.468 34.2106 38.827C33.8516 39.1859 33.3648 39.3876 32.8571 39.3876Z" fill="white"/>
</svg>
