<svg width="102" height="102" viewBox="0 0 102 102" fill="none" xmlns="http://www.w3.org/2000/svg">
<path d="M99.2821 70.8262L88.052 59.5961C100.933 32.5666 81.1344 1 51.0002 1C20.9184 1 1.04164 32.5123 13.9485 59.5961L2.7184 70.8262C-0.406991 73.9516 0.921916 79.2853 5.15981 80.576L17.634 84.3648L21.4229 96.8391C22.7082 101.06 28.0311 102.416 31.1727 99.2805L47.5668 82.8863C49.8205 83.0732 52.103 83.0795 54.4338 82.8863L70.828 99.2805C73.9582 102.411 79.2897 101.069 80.5778 96.8391L84.3666 84.3648L96.8409 80.576C101.085 79.2834 102.402 73.9463 99.2821 70.8262ZM27.0303 95.1361L23.2395 82.6619C22.6711 80.7869 21.2122 79.3279 19.3373 78.7578L6.86313 74.9689L16.9606 64.8715C22.4448 73.0119 30.7688 79.0879 40.501 81.666L27.0303 95.1361ZM21.1944 60.6371C6.47445 37.1961 23.6002 6.85918 51.0002 6.85918C78.6215 6.85918 95.3938 37.4064 80.8061 60.6369C66.9942 82.6644 35.0043 82.6615 21.1944 60.6371ZM82.6635 78.7576C80.7885 79.3279 79.3295 80.7869 78.7594 82.6617L74.9706 95.1359L61.5002 81.6656C71.2325 79.0875 79.5563 73.0115 85.0407 64.8711L95.1381 74.9686L82.6635 78.7576Z" fill="#ec9d05" stroke="#ec9d05"/>
<path d="M51.0003 12.7183C31.3949 12.7183 17.221 31.7487 22.9777 50.5669C27.8824 66.6384 45.2806 75.1776 60.8439 69.6093C72.1792 65.5524 80.2964 54.7079 80.2964 42.0144C80.2964 25.8604 67.1542 12.7183 51.0003 12.7183ZM35.2001 59.3067C19.3802 44.8673 29.7874 18.5774 51.0003 18.5774C65.4372 18.5774 76.4269 31.5679 74.1462 45.6899C71.2769 63.995 48.9964 71.9315 35.2001 59.3067Z" fill="#ec9d05" stroke="#ec9d05"/>
<path d="M59.8888 34.0915L46.9755 43.6766L42.5021 38.9102C41.3946 37.7302 39.5409 37.6714 38.3611 38.7788C37.1814 39.886 37.1224 41.7401 38.2298 42.9198L44.4894 49.5895C45.5081 50.6753 47.178 50.8231 48.3716 49.9372L63.381 38.7964C64.6802 37.8321 64.9515 35.997 63.9872 34.6977C63.023 33.3987 61.188 33.1272 59.8888 34.0915Z" fill="#ec9d05" stroke="#ec9d05"/>
</svg>
