<svg width="58" height="58" viewBox="0 0 58 58" fill="none" xmlns="http://www.w3.org/2000/svg">
<path d="M54.6016 37.6769V5.09766C54.6016 2.28681 52.3148 0 49.5039 0H12.0078C9.19697 0 6.91016 2.28681 6.91016 5.09766V6.91016H5.09766C2.28681 6.91016 0 9.19697 0 12.0078C0 14.8187 2.28681 17.1055 5.09766 17.1055H6.91016V23.9023H5.09766C2.28681 23.9023 0 26.1892 0 29C0 31.8108 2.28681 34.0977 5.09766 34.0977H6.91016V40.8945H5.09766C2.28681 40.8945 0 43.1813 0 45.9922C0 48.803 2.28681 51.0898 5.09766 51.0898H6.91016V52.7891C6.91016 54.1433 7.43091 55.4338 8.37647 56.423C9.34865 57.4399 10.6384 58 12.0078 58H46.1055C52.6641 58 58 52.6134 58 45.9922C58 42.7588 56.7025 39.8231 54.6016 37.6769ZM5.09766 13.707C4.16071 13.707 3.39844 12.9448 3.39844 12.0078C3.39844 11.0709 4.16071 10.3086 5.09766 10.3086H8.60938C9.54632 10.3086 10.3086 11.0709 10.3086 12.0078C10.3086 12.9448 9.54632 13.707 8.60938 13.707H5.09766ZM5.09766 30.6992C4.16071 30.6992 3.39844 29.9369 3.39844 29C3.39844 28.0631 4.16071 27.3008 5.09766 27.3008H8.60938C9.54632 27.3008 10.3086 28.0631 10.3086 29C10.3086 29.9369 9.54632 30.6992 8.60938 30.6992H5.09766ZM8.60938 47.6914H5.09766C4.16071 47.6914 3.39844 46.9291 3.39844 45.9922C3.39844 45.0552 4.16071 44.293 5.09766 44.293H8.60938C9.54632 44.293 10.3086 45.0552 10.3086 45.9922C10.3086 46.9291 9.54632 47.6914 8.60938 47.6914ZM12.0078 54.6016C11.1027 54.6016 10.3086 53.7546 10.3086 52.7891V50.7976C12.2864 50.0961 13.707 48.2074 13.707 45.9922C13.707 43.777 12.2864 41.8882 10.3086 41.1868V33.8054C12.2864 33.104 13.707 31.2152 13.707 29C13.707 26.7848 12.2864 24.896 10.3086 24.1946V16.8132C12.2864 16.1118 13.707 14.223 13.707 12.0078C13.707 9.7926 12.2864 7.90386 10.3086 7.20242V5.09766C10.3086 4.16071 11.0709 3.39844 12.0078 3.39844H49.5039C50.4409 3.39844 51.2031 4.16071 51.2031 5.09766V35.2469C49.6573 34.5106 47.9287 34.0977 46.1055 34.0977C39.5468 34.0977 34.2109 39.4335 34.2109 45.9922C34.2109 49.3657 35.5967 52.4182 37.823 54.6016H12.0078ZM46.1055 54.6016C41.4207 54.6016 37.6094 50.7395 37.6094 45.9922C37.6094 41.3074 41.4207 37.4961 46.1055 37.4961C50.7902 37.4961 54.6016 41.3074 54.6016 45.9922C54.6016 50.7395 50.7902 54.6016 46.1055 54.6016Z" fill="#65B43B"/>
<path d="M46.1055 13.707H35.9102C34.9717 13.707 34.2109 14.4678 34.2109 15.4062C34.2109 16.3447 34.9717 17.1055 35.9102 17.1055H46.1055C47.0439 17.1055 47.8047 16.3447 47.8047 15.4062C47.8047 14.4678 47.0439 13.707 46.1055 13.707Z" fill="#65B43B"/>
<path d="M46.1055 27.3008H35.9102C34.9717 27.3008 34.2109 28.0616 34.2109 29C34.2109 29.9384 34.9717 30.6992 35.9102 30.6992H46.1055C47.0439 30.6992 47.8047 29.9384 47.8047 29C47.8047 28.0616 47.0439 27.3008 46.1055 27.3008Z" fill="#65B43B"/>
<path d="M49.5039 44.293H47.8047V42.5938C47.8047 41.6553 47.0439 40.8945 46.1055 40.8945C45.167 40.8945 44.4062 41.6553 44.4062 42.5938V45.9922C44.4062 46.9306 45.167 47.6914 46.1055 47.6914H49.5039C50.4423 47.6914 51.2031 46.9306 51.2031 45.9922C51.2031 45.0538 50.4423 44.293 49.5039 44.293Z" fill="#65B43B"/>
<path d="M30.2012 10.8063C29.5377 10.1427 28.4618 10.1427 27.7983 10.8064L22.2029 16.4017L19.5282 13.727C18.8647 13.0634 17.7887 13.0634 17.1251 13.727C16.4615 14.3906 16.4615 15.4664 17.1251 16.13L21.0014 20.0063C21.3331 20.3381 21.768 20.5039 22.2029 20.5039C22.6377 20.5039 23.0726 20.3381 23.4043 20.0062L30.2012 13.2093C30.8648 12.5457 30.8648 11.4699 30.2012 10.8063Z" fill="#65B43B"/>
<path d="M30.2012 24.4C29.5377 23.7364 28.4618 23.7364 27.7983 24.4001L22.2029 29.9954L19.5282 27.3208C18.8647 26.6572 17.7887 26.6572 17.1251 27.3208C16.4615 27.9844 16.4615 29.0602 17.1251 29.7238L21.0014 33.6001C21.3331 33.9319 21.768 34.0977 22.2029 34.0977C22.6377 34.0977 23.0726 33.9319 23.4043 33.5999L30.2012 26.8031C30.8648 26.1395 30.8648 25.0636 30.2012 24.4Z" fill="#65B43B"/>
<path d="M30.2012 37.9938C29.5377 37.3302 28.4618 37.3302 27.7983 37.9939L22.2029 43.5892L19.5282 40.9145C18.8647 40.2509 17.7887 40.2509 17.1251 40.9145C16.4615 41.5781 16.4615 42.6539 17.1251 43.3175L21.0014 47.1938C21.3331 47.5256 21.768 47.6914 22.2029 47.6914C22.6377 47.6914 23.0726 47.5256 23.4043 47.1937L30.2012 40.3968C30.8648 39.7332 30.8648 38.6574 30.2012 37.9938Z" fill="#65B43B"/>
</svg>
