<svg width="20" height="24" viewBox="0 0 20 24" fill="none" xmlns="http://www.w3.org/2000/svg">
<path d="M19.267 6.96916L19.2664 6.95204C19.2568 6.74072 19.2504 6.51715 19.2466 6.2684C19.2286 5.05538 18.2643 4.05199 17.0511 3.98418C14.5217 3.84302 12.5649 3.01823 10.893 1.38861L10.8787 1.37501C10.3334 0.874996 9.51079 0.874996 8.96529 1.37501L8.95103 1.38861C7.27911 3.01823 5.32236 3.84302 2.79291 3.98435C1.57989 4.05199 0.61544 5.05538 0.597481 6.26857C0.593788 6.51564 0.587242 6.73921 0.577675 6.95204L0.576668 6.99182C0.527489 9.57112 0.466393 12.7812 1.54027 15.6948C2.13076 17.2971 3.02504 18.6899 4.19812 19.8348C5.53418 21.1386 7.28414 22.1737 9.39934 22.9112C9.46816 22.9352 9.53966 22.9547 9.61251 22.9693C9.71523 22.9898 9.81862 23 9.92202 23C10.0254 23 10.129 22.9898 10.2315 22.9693C10.3044 22.9547 10.3764 22.935 10.4455 22.9109C12.5582 22.172 14.3063 21.1364 15.6412 19.8327C16.8138 18.6875 17.7081 17.2944 18.2991 15.6918C19.377 12.7694 19.316 9.55332 19.267 6.96916ZM17.0879 15.2452C15.9553 18.3161 13.6432 20.4251 10.0195 21.6923C10.0066 21.6967 9.99285 21.7005 9.97858 21.7034C9.94115 21.7108 9.90305 21.7108 9.86512 21.7032C9.85102 21.7004 9.83725 21.6967 9.8245 21.6923C6.197 20.4274 3.88341 18.3196 2.75162 15.2485C1.76183 12.5628 1.81789 9.6161 1.86741 7.01649L1.86774 7.00206C1.87781 6.77866 1.88453 6.54468 1.88822 6.28754C1.89628 5.74892 2.32529 5.30329 2.86492 5.27324C4.29631 5.19335 5.55382 4.91674 6.70927 4.42763C7.86321 3.9392 8.88808 3.25069 9.84212 2.32284C9.89063 2.28188 9.95357 2.28172 10.0019 2.32284C10.9561 3.25069 11.981 3.9392 13.1348 4.42763C14.2902 4.91674 15.5477 5.19335 16.9793 5.27324C17.5189 5.30329 17.9479 5.74892 17.9558 6.28771C17.9597 6.54619 17.9664 6.78017 17.9765 7.00206C18.0258 9.60469 18.0805 12.5537 17.0879 15.2452Z" fill="#EC9D05" stroke="#EC9D05" stroke-width="0.3"/>
<path d="M9.92167 6.51758C6.89842 6.51758 4.43896 8.9772 4.43896 12.0003C4.43896 15.0235 6.89842 17.4831 9.92167 17.4831C12.9447 17.4831 15.4044 15.0235 15.4044 12.0003C15.4044 8.9772 12.9447 6.51758 9.92167 6.51758ZM9.92167 16.1921C7.61025 16.1921 5.72987 14.3117 5.72987 12.0003C5.72987 9.68887 7.61025 7.80848 9.92167 7.80848C12.2329 7.80848 14.1133 9.68887 14.1133 12.0003C14.1133 14.3117 12.2329 16.1921 9.92167 16.1921Z" fill="#EC9D05" stroke="#EC9D05" stroke-width="0.3"/>
<path d="M11.4973 10.2981L8.95078 12.8447L8.25958 12.1535C8.00748 11.9014 7.59877 11.9014 7.34667 12.1535C7.09473 12.4056 7.09473 12.8143 7.34667 13.0662L8.4944 14.2139C8.62045 14.34 8.78561 14.4029 8.95078 14.4029C9.11594 14.4029 9.2811 14.34 9.40715 14.2139L12.4103 11.2108C12.6622 10.9587 12.6622 10.55 12.4103 10.2981C12.1582 10.0458 11.7494 10.0458 11.4973 10.2981Z" fill="#EC9D05" stroke="#EC9D05" stroke-width="0.3"/>
</svg>
