<svg width="23" height="21" viewBox="0 0 23 21" fill="none" xmlns="http://www.w3.org/2000/svg">
<path d="M21.3596 1H3.77865C3.42473 1 3.1381 1.25962 3.1381 1.5794V11.8304H1.64039C1.28695 11.8304 1 12.0896 1 12.4098V19.4206C1 19.7404 1.28695 20 1.64039 20H9.38914C9.74306 20 10.0295 19.7404 10.0295 19.4206V18.0655H21.3596C21.7131 18.0655 22 17.8062 22 17.486V1.5794C22 1.25962 21.7131 1 21.3596 1V1ZM8.74875 18.8412H2.28078V12.9892H7.84272L4.86556 15.6828C4.61578 15.9093 4.61578 16.2762 4.86556 16.5022C5.1155 16.7283 5.52053 16.7293 5.77159 16.5022L8.74875 13.8085V18.8412ZM20.7192 16.9066H10.0295V12.6497L15.0224 8.13239V10.4501C15.0224 10.7703 15.3088 11.0295 15.6628 11.0295C16.0164 11.0295 16.3032 10.7703 16.3032 10.4501V6.73369C16.3032 6.40318 16.0045 6.15429 15.6628 6.15429H11.5551C11.2012 6.15429 10.9147 6.41376 10.9147 6.73369C10.9147 7.0539 11.2012 7.31309 11.5551 7.31309H14.1168L9.12366 11.8304H4.41904V2.1588H20.7192V16.9066Z" fill="#EC9D05" stroke="#EC9D05" stroke-width="0.4"/>
</svg>
