<svg width="15" height="15" viewBox="0 0 15 15" fill="none" xmlns="http://www.w3.org/2000/svg">
<path d="M14.7364 13.4826L11.8536 10.5998C12.7273 9.456 13.2065 8.0687 13.2067 6.60479C13.2067 4.84063 12.5196 3.18195 11.2719 1.93452C10.0245 0.687086 8.36602 0 6.60164 0C4.83749 0 3.1788 0.687086 1.93137 1.93452C-0.64379 4.5099 -0.64379 8.70012 1.93137 11.2751C3.1788 12.5227 4.83749 13.2098 6.60164 13.2098C8.06555 13.2096 9.45285 12.7304 10.5966 11.8567L13.4794 14.7396C13.6528 14.9132 13.8805 15 14.1079 15C14.3354 15 14.563 14.9132 14.7364 14.7396C15.0837 14.3926 15.0837 13.8296 14.7364 13.4826ZM3.18835 10.0181C1.30635 8.13609 1.30657 5.07371 3.18835 3.1915C4.10005 2.28001 5.31233 1.77783 6.60164 1.77783C7.89118 1.77783 9.10324 2.28001 10.0149 3.1915C10.9266 4.1032 11.4288 5.31547 11.4288 6.60479C11.4288 7.89433 10.9266 9.10638 10.0149 10.0181C9.10324 10.9298 7.89118 11.432 6.60164 11.432C5.31233 11.432 4.10005 10.9298 3.18835 10.0181Z" fill="#193051"/>
</svg>
