<?xml version="1.0" encoding="utf-8"?>
<!-- Generator: Adobe Illustrator 25.2.1, SVG Export Plug-In . SVG Version: 6.00 Build 0)  -->
<svg version="1.1" id="Layer_1" xmlns="http://www.w3.org/2000/svg" xmlns:xlink="http://www.w3.org/1999/xlink" x="0px" y="0px"
	 viewBox="0 0 156 356" style="enable-background:new 0 0 156 356;" xml:space="preserve">
<style type="text/css">
	.st0{fill:#EEEEEF;}
</style>
<path class="st0" d="M77.2-1l1.6,357.4L0,356.8l-0.5-178.9L0-1H77.2z"/>
<path class="st0" d="M103.1,142.4H90.9v-10.7h24.5V153h-12.2v-10.6H103.1z"/>
<path class="st0" d="M79.1,301.9c-1,0-1.9,0.3-2.8,0.7c-0.8,0.5-1.5,1.1-1.8,1.9c-0.4,0.8-0.5,1.7-0.3,2.5c0.2,0.8,0.7,1.6,1.4,2.2
	c0.7,0.6,1.6,1,2.5,1.2c1,0.2,2,0.1,2.9-0.2c0.9-0.3,1.7-0.9,2.2-1.6c0.5-0.7,0.8-1.5,0.8-2.4c0-0.6-0.1-1.1-0.4-1.6
	c-0.2-0.5-0.6-1-1.1-1.4s-1-0.7-1.6-0.9C80.4,302,79.8,301.9,79.1,301.9z"/>
<path class="st0" d="M96.2,304.1c-1,0-1.9,0.3-2.8,0.7c-0.8,0.5-1.5,1.1-1.8,1.9c-0.4,0.8-0.5,1.7-0.3,2.5s0.7,1.6,1.4,2.2
	c0.7,0.6,1.6,1,2.5,1.2c1,0.2,2,0.1,2.9-0.2c0.9-0.3,1.7-0.9,2.2-1.6c0.5-0.7,0.8-1.5,0.8-2.4c0-0.6-0.1-1.1-0.4-1.6
	c-0.2-0.5-0.6-1-1.1-1.4s-1-0.7-1.6-0.9C97.5,304.2,96.9,304.1,96.2,304.1"/>
<path class="st0" d="M77,318.6c-0.7,0-1.4,0.2-2.1,0.5c-0.6,0.4-1.1,0.9-1.4,1.4c-0.3,0.6-0.4,1.2-0.2,1.8c0.1,0.6,0.5,1.2,1,1.6
	c0.5,0.4,1.2,0.8,1.9,0.9c0.7,0.1,1.5,0.1,2.1-0.2c0.7-0.2,1.3-0.7,1.7-1.2c0.4-0.5,0.6-1.1,0.6-1.8c0-0.4-0.1-0.8-0.3-1.2
	c-0.2-0.4-0.5-0.7-0.8-1c-0.3-0.3-0.8-0.5-1.2-0.7C77.9,318.7,77.5,318.6,77,318.6"/>
<path class="st0" d="M91.2,328c-0.7,0-1.4,0.2-2.1,0.5c-0.6,0.4-1.1,0.9-1.4,1.4c-0.3,0.6-0.4,1.2-0.2,1.8c0.1,0.6,0.5,1.2,1,1.6
	s1.2,0.8,1.9,0.9c0.7,0.1,1.5,0.1,2.1-0.2c0.7-0.2,1.3-0.7,1.7-1.2c0.4-0.5,0.6-1.1,0.6-1.8c0-0.8-0.4-1.7-1.1-2.3
	C93,328.1,92.2,328,91.2,328"/>
<path class="st0" d="M78.6,334.2c-0.6,0-1.1,0.1-1.6,0.4s-0.8,0.7-1.1,1.1c-0.2,0.5-0.3,0.9-0.2,1.4c0.1,0.5,0.4,0.9,0.8,1.3
	c0.4,0.3,0.9,0.6,1.5,0.7s1.1,0,1.6-0.1c0.5-0.2,1-0.5,1.3-0.9s0.5-0.9,0.5-1.4c0-0.3-0.1-0.6-0.2-0.9s-0.4-0.6-0.6-0.8
	c-0.3-0.2-0.6-0.4-0.9-0.5C79.4,334.3,79,334.2,78.6,334.2"/>
<path class="st0" d="M78.6,348.2c-0.4,0-0.8,0.1-1.2,0.3c-0.3,0.2-0.6,0.5-0.8,0.8c-0.2,0.3-0.2,0.7-0.1,1.1
	c0.1,0.4,0.3,0.7,0.6,0.9c0.3,0.3,0.7,0.4,1.1,0.5s0.8,0,1.2-0.1c0.4-0.1,0.7-0.4,1-0.7c0.2-0.3,0.4-0.7,0.4-1c0-0.5-0.2-1-0.6-1.3
	C79.7,348.4,79.2,348.2,78.6,348.2z"/>
<path class="st0" d="M91.4,346.8c-0.3,0-0.7,0.1-0.9,0.2c-0.3,0.2-0.5,0.4-0.6,0.7c-0.1,0.3-0.2,0.6-0.1,0.9
	c0.1,0.3,0.2,0.5,0.5,0.8c0.2,0.2,0.5,0.3,0.9,0.4c0.3,0.1,0.7,0,1-0.1s0.6-0.3,0.8-0.5c0.2-0.2,0.3-0.5,0.3-0.8
	c0-0.4-0.2-0.8-0.5-1C92.2,346.9,91.8,346.8,91.4,346.8"/>
<path class="st0" d="M98,319.3c-0.5,0-0.9,0.1-1.3,0.3c-0.4,0.2-0.7,0.5-0.9,0.9c-0.2,0.4-0.2,0.8-0.1,1.2s0.3,0.8,0.6,1.1
	c0.3,0.3,0.8,0.5,1.2,0.6c0.5,0.1,0.9,0,1.4-0.1c0.4-0.2,0.8-0.4,1.1-0.8c0.3-0.3,0.4-0.7,0.4-1.1c0-0.5-0.2-1-0.7-1.4
	C99.2,319.5,98.6,319.3,98,319.3z"/>
<path class="st0" d="M103.2,254.5V245h-11v9.5H103.2z"/>
<path class="st0" d="M104.3,209.6V198H91v11.6H104.3z"/>
<path class="st0" d="M92.7,229v-10.6H80.6V229H92.7z"/>
<path class="st0" d="M84.7,132v-11.5H71.8V132H84.7z"/>
<path class="st0" d="M88.9,195.7v-11H76.3v11H88.9z"/>
<path class="st0" d="M83.8,170.1v-24.3h-12v24.3H83.8z"/>
<path class="st0" d="M128.7,68.2h-19.3v16H91.1v-32h37.6V68.2z"/>
<path class="st0" d="M80.9,211.8v-10.6h-9.1v10.6H80.9z"/>
<path class="st0" d="M104.5,178.2v-16.3H92.4v16.3H104.5z"/>
<path class="st0" d="M83.3,251.7v-16.3H71.8v16.3H83.3z"/>
<path class="st0" d="M78.9,294.4h8.9c0.2,0,0.4-0.1,0.5-0.2s0.2-0.3,0.2-0.4v-7.7c0-0.2-0.1-0.3-0.2-0.4s-0.3-0.2-0.5-0.2h-8.9
	c-0.2,0-0.4,0.1-0.5,0.2s-0.2,0.3-0.2,0.4v7.7c0,0.1,0,0.2,0.1,0.2c0,0.1,0.1,0.1,0.2,0.2s0.1,0.1,0.2,0.1
	C78.7,294.4,78.8,294.4,78.9,294.4"/>
<path class="st0" d="M90.7,279.6h10.7c0.1,0,0.2,0,0.3,0c0.1,0,0.2-0.1,0.2-0.1c0.1-0.1,0.1-0.1,0.2-0.2c0-0.1,0.1-0.2,0.1-0.2v-9.2
	c0-0.2-0.1-0.3-0.2-0.4s-0.3-0.2-0.5-0.2H90.7c-0.2,0-0.4,0.1-0.5,0.2s-0.2,0.3-0.2,0.4v9.2c0,0.2,0.1,0.3,0.2,0.4
	C90.3,279.5,90.5,279.6,90.7,279.6"/>
<path class="st0" d="M72.2,270.6h10.7c0.2,0,0.4-0.1,0.5-0.2s0.2-0.3,0.2-0.4v-9.2c0-0.2-0.1-0.3-0.2-0.4s-0.3-0.2-0.5-0.2H72.2
	c-0.2,0-0.4,0.1-0.5,0.2s-0.2,0.3-0.2,0.4v9.2c0,0.2,0.1,0.3,0.2,0.4C71.9,270.6,72,270.6,72.2,270.6"/>
<path class="st0" d="M87.8,102.5V88.5h-16v14.1H87.8z"/>
<path class="st0" d="M123.1,116.6v-14.1H87.8v14.1H123.1z"/>
<path class="st0" d="M113,40.2V-1H72v41.2H113z"/>
<path class="st0" d="M153.5,21V-0.9h-53.2V21H153.5z"/>
</svg>
