<svg width="570" height="160" viewBox="0 0 570 160" fill="none" xmlns="http://www.w3.org/2000/svg">
<rect width="570" height="73" fill="#65B43B"/>
<path d="M420.739 105.495V92.5153H431.888V118.469H409.59V105.495H420.739Z" fill="#65B43B"/>
<path d="M253.508 80.0676C253.508 79.0227 253.241 78.0012 252.742 77.1323C252.243 76.2635 251.534 75.5863 250.705 75.1864C249.875 74.7865 248.962 74.6818 248.081 74.8857C247.201 75.0896 246.392 75.5928 245.757 76.3317C245.122 77.0706 244.689 78.012 244.514 79.0369C244.339 80.0618 244.429 81.1241 244.772 82.0895C245.116 83.055 245.698 83.8801 246.445 84.4607C247.191 85.0412 248.069 85.3511 248.967 85.3511C249.564 85.3519 250.154 85.2158 250.705 84.9506C251.257 84.6854 251.758 84.2962 252.179 83.8054C252.601 83.3146 252.935 82.7319 253.163 82.0905C253.391 81.4491 253.508 80.7617 253.508 80.0676Z" fill="#65B43B"/>
<path d="M251.158 98.2134C251.158 97.1687 250.892 96.1474 250.393 95.2787C249.894 94.41 249.185 93.7328 248.356 93.3327C247.527 92.9326 246.614 92.8276 245.733 93.031C244.853 93.2344 244.044 93.737 243.409 94.4752C242.773 95.2135 242.34 96.1544 242.165 97.1788C241.989 98.2033 242.078 99.2655 242.421 100.231C242.764 101.197 243.345 102.022 244.091 102.603C244.837 103.185 245.714 103.496 246.612 103.497C247.209 103.498 247.8 103.362 248.351 103.096C248.903 102.831 249.404 102.442 249.826 101.952C250.248 101.461 250.583 100.878 250.812 100.237C251.04 99.5953 251.158 98.9077 251.158 98.2134" fill="#65B43B"/>
<path d="M235.888 77.7848C235.887 77.0093 235.689 76.2516 235.318 75.6074C234.946 74.9632 234.42 74.4614 233.804 74.1654C233.188 73.8695 232.51 73.7927 231.857 73.9448C231.203 74.0968 230.603 74.4709 230.132 75.0197C229.661 75.5685 229.341 76.2674 229.211 77.0281C229.081 77.7888 229.148 78.5771 229.404 79.2935C229.659 80.0098 230.091 80.6221 230.645 81.0528C231.199 81.4835 231.851 81.7134 232.517 81.7134C232.96 81.7134 233.399 81.6117 233.809 81.4142C234.218 81.2167 234.59 80.9272 234.903 80.5624C235.216 80.1975 235.464 79.7643 235.633 79.2877C235.802 78.8112 235.889 78.3005 235.888 77.7848" fill="#65B43B"/>
<path d="M226.137 92.905C226.137 92.1293 225.94 91.3709 225.569 90.7259C225.199 90.0808 224.672 89.5781 224.056 89.2812C223.44 88.9844 222.763 88.9067 222.109 89.058C221.455 89.2094 220.854 89.5829 220.383 90.1315C219.912 90.68 219.59 91.3789 219.46 92.1398C219.33 92.9007 219.397 93.6893 219.652 94.406C219.907 95.1228 220.339 95.7354 220.894 96.1664C221.448 96.5974 222.1 96.8274 222.766 96.8274C223.66 96.8274 224.518 96.4142 225.15 95.6786C225.782 94.943 226.137 93.9453 226.137 92.905" fill="#65B43B"/>
<path d="M219.566 79.5418C219.566 78.9425 219.413 78.3566 219.127 77.8582C218.841 77.3598 218.435 76.9713 217.959 76.7416C217.483 76.512 216.96 76.4516 216.454 76.5681C215.949 76.6846 215.485 76.9726 215.12 77.396C214.756 77.8193 214.507 78.3589 214.406 78.9466C214.305 79.5342 214.356 80.1436 214.552 80.6976C214.749 81.2516 215.082 81.7255 215.51 82.0594C215.937 82.3932 216.44 82.572 216.955 82.5732C217.298 82.574 217.637 82.4962 217.954 82.3443C218.271 82.1923 218.559 81.9691 218.801 81.6875C219.043 81.4059 219.236 81.0715 219.367 80.7033C219.498 80.3351 219.566 79.9404 219.566 79.5418" fill="#65B43B"/>
<path d="M204.871 79.5418C204.871 79.0961 204.757 78.6605 204.544 78.29C204.331 77.9195 204.029 77.6309 203.675 77.4606C203.321 77.2904 202.931 77.2461 202.556 77.3335C202.18 77.4209 201.835 77.636 201.565 77.9516C201.295 78.2671 201.111 78.669 201.037 79.1062C200.963 79.5435 201.002 79.9965 201.149 80.4078C201.296 80.8192 201.545 81.1705 201.864 81.4172C202.183 81.6639 202.558 81.7949 202.941 81.7937C203.453 81.7921 203.944 81.5541 204.306 81.1319C204.667 80.7098 204.871 80.1379 204.871 79.5418Z" fill="#65B43B"/>
<path d="M206.423 93.0476C206.424 92.6897 206.334 92.3396 206.163 92.0416C205.993 91.7436 205.751 91.5111 205.467 91.3736C205.183 91.2361 204.87 91.1998 204.569 91.2693C204.267 91.3388 203.99 91.511 203.773 91.764C203.555 92.017 203.407 92.3394 203.347 92.6905C203.288 93.0415 203.319 93.4052 203.437 93.7356C203.555 94.0659 203.755 94.348 204.011 94.546C204.267 94.744 204.568 94.8491 204.876 94.8479C205.286 94.8479 205.68 94.6582 205.97 94.3206C206.26 93.983 206.423 93.525 206.423 93.0476" fill="#65B43B"/>
<path d="M235.197 100.125C235.202 99.6268 235.08 99.1382 234.845 98.7214C234.61 98.3047 234.274 97.9787 233.88 97.7853C233.485 97.5918 233.05 97.5396 232.63 97.6353C232.21 97.731 231.824 97.9702 231.521 98.3225C231.218 98.6748 231.013 99.124 230.931 99.613C230.848 100.102 230.893 100.608 231.059 101.067C231.226 101.526 231.506 101.917 231.864 102.19C232.222 102.463 232.642 102.606 233.07 102.6C233.634 102.6 234.175 102.339 234.574 101.875C234.973 101.411 235.197 100.781 235.197 100.125Z" fill="#65B43B"/>
<path d="M303.134 105.569H313.198V93.8641H303.134V105.569Z" fill="#65B43B"/>
<path d="M350.261 106.776H362.394V92.6578H350.261V106.776Z" fill="#65B43B"/>
<path d="M329.951 94.5137H341.058V81.5835H329.951V94.5137Z" fill="#65B43B"/>
<path d="M431.713 86.0195H443.75V72.3345H431.713V86.0195Z" fill="#65B43B"/>
<path d="M364.861 90.418H376.318V77.0856H364.861V90.418Z" fill="#65B43B"/>
<path d="M391.699 85.0171H417.251V72.3405H391.699V85.0171Z" fill="#65B43B"/>
<path d="M498.639 132.717V112.245H481.908V92.7816H515.371V132.717H498.639Z" fill="#65B43B"/>
<path d="M347.985 81.9917H359.092V72.3343H347.985V81.9917Z" fill="#65B43B"/>
<path d="M383.155 107.042H400.243V94.1177H383.155V107.042Z" fill="#65B43B"/>
<path d="M306.169 84.522H323.257V72.3404H306.169V84.522Z" fill="#65B43B"/>
<path d="M261.302 79.8574V89.2921C261.303 89.4879 261.371 89.6752 261.491 89.8131C261.61 89.951 261.772 90.0283 261.94 90.0283H270.043C270.21 90.0283 270.371 89.9508 270.49 89.8127C270.609 89.6746 270.675 89.4874 270.675 89.2921V79.8574C270.675 79.6621 270.609 79.4749 270.49 79.3368C270.371 79.1987 270.21 79.1211 270.043 79.1211H261.94C261.856 79.1203 261.774 79.1388 261.696 79.1754C261.619 79.212 261.548 79.2662 261.489 79.3346C261.43 79.403 261.383 79.4845 261.351 79.5742C261.319 79.6639 261.302 79.7602 261.302 79.8574" fill="#65B43B"/>
<path d="M276.816 92.3483V103.676C276.815 103.775 276.831 103.873 276.863 103.965C276.895 104.056 276.943 104.139 277.003 104.209C277.062 104.28 277.133 104.335 277.212 104.373C277.29 104.411 277.374 104.431 277.459 104.431H287.2C287.372 104.431 287.537 104.351 287.658 104.21C287.78 104.068 287.848 103.876 287.848 103.676V92.3483C287.848 92.1481 287.78 91.9561 287.658 91.8146C287.537 91.673 287.372 91.5935 287.2 91.5935H277.459C277.288 91.5951 277.125 91.6754 277.004 91.8167C276.884 91.9581 276.816 92.1492 276.816 92.3483" fill="#65B43B"/>
<path d="M286.264 72.7487V84.0827C286.264 84.2812 286.332 84.4716 286.452 84.612C286.573 84.7524 286.736 84.8313 286.907 84.8313H296.647C296.818 84.8313 296.983 84.7526 297.104 84.6124C297.226 84.4722 297.294 84.2818 297.296 84.0827V72.7487C297.294 72.5495 297.226 72.3592 297.104 72.2189C296.983 72.0787 296.818 72.0001 296.647 72.0001H286.907C286.736 72.0001 286.573 72.0789 286.452 72.2193C286.332 72.3597 286.264 72.5501 286.264 72.7487" fill="#65B43B"/>
<path d="M462.55 89.2859H477.325V72.3405H462.55V89.2859Z" fill="#65B43B"/>
<path d="M447.774 126.728H462.55V89.2859H447.774V126.728Z" fill="#65B43B"/>
<path d="M527.334 116.47H570V72.3345H527.334V116.47Z" fill="#65B43B"/>
<path d="M547.048 159.022H570V102.612H547.048V159.022Z" fill="#65B43B"/>
</svg>
