<svg width="369" height="88" viewBox="0 0 369 88" fill="none" xmlns="http://www.w3.org/2000/svg">
<path d="M219.739 53.6312V66.6109H230.888V40.6577H208.59V53.6312H219.739Z" fill="#009D96"/>
<path d="M52.5077 79.0588C52.5077 80.1038 52.2414 81.1253 51.7425 81.9941C51.2436 82.863 50.5345 83.5402 49.7048 83.9401C48.8751 84.34 47.9622 84.4446 47.0814 84.2408C46.2007 84.0369 45.3916 83.5337 44.7566 82.7948C44.1217 82.0559 43.6892 81.1145 43.514 80.0896C43.3388 79.0647 43.4287 78.0024 43.7724 77.0369C44.116 76.0715 44.698 75.2463 45.4447 74.6658C46.1914 74.0852 47.0692 73.7754 47.9672 73.7754C48.5637 73.7746 49.1544 73.9107 49.7056 74.1759C50.2568 74.4411 50.7576 74.8303 51.1794 75.3211C51.6011 75.8118 51.9356 76.3946 52.1635 77.036C52.3914 77.6774 52.5084 78.3648 52.5077 79.0588Z" fill="#009D96"/>
<path d="M50.1577 60.9128C50.1577 61.9575 49.8916 62.9788 49.3929 63.8475C48.8942 64.7162 48.1854 65.3934 47.356 65.7935C46.5267 66.1936 45.614 66.2986 44.7334 66.0952C43.8528 65.8918 43.0438 65.3893 42.4086 64.651C41.7734 63.9127 41.3405 62.9719 41.1647 61.9474C40.9889 60.9229 41.0781 59.8608 41.4209 58.8952C41.7637 57.9297 42.3449 57.1041 43.0909 56.5228C43.8368 55.9415 44.7142 55.6306 45.6119 55.6294C46.2087 55.6286 46.7996 55.7646 47.3511 56.0298C47.9026 56.2949 48.4038 56.684 48.826 57.1747C49.2482 57.6654 49.5831 58.2481 49.8116 58.8895C50.0401 59.5309 50.1577 60.2185 50.1577 60.9128Z" fill="#009D96"/>
<path d="M34.8882 81.3416C34.8871 82.1171 34.6885 82.8749 34.3175 83.5191C33.9465 84.1633 33.4197 84.6651 32.8037 84.961C32.1876 85.2569 31.51 85.3337 30.8565 85.1817C30.203 85.0297 29.6029 84.6556 29.132 84.1068C28.6611 83.558 28.3406 82.8591 28.211 82.0984C28.0814 81.3377 28.1484 80.5493 28.4037 79.833C28.659 79.1166 29.091 78.5044 29.6452 78.0737C30.1995 77.6429 30.8509 77.4131 31.5174 77.4131C31.9605 77.4131 32.3992 77.5147 32.8086 77.7122C33.2179 77.9097 33.5897 78.1992 33.9028 78.5641C34.2159 78.929 34.464 79.3621 34.6331 79.8387C34.8022 80.3153 34.8889 80.826 34.8882 81.3416Z" fill="#009D96"/>
<path d="M25.1373 66.2212C25.1373 66.997 24.9396 67.7553 24.5692 68.4003C24.1989 69.0454 23.6724 69.5481 23.0565 69.845C22.4406 70.1419 21.7628 70.2196 21.109 70.0682C20.4551 69.9169 19.8545 69.5433 19.383 68.9947C18.9116 68.4462 18.5906 67.7473 18.4605 66.9864C18.3305 66.2255 18.3972 65.4369 18.6523 64.7202C18.9075 64.0035 19.3395 63.3909 19.8938 62.9599C20.4482 62.5289 21.0999 62.2988 21.7666 62.2988C22.6605 62.2988 23.5179 62.7121 24.1501 63.4477C24.7822 64.1832 25.1373 65.1809 25.1373 66.2212Z" fill="#009D96"/>
<path d="M18.5659 79.5847C18.5659 80.184 18.4132 80.7699 18.1272 81.2682C17.8412 81.7666 17.4346 82.1552 16.9589 82.3848C16.4832 82.6145 15.9596 82.6748 15.4544 82.5584C14.9492 82.4419 14.485 82.1538 14.1205 81.7305C13.7559 81.3071 13.5074 80.7676 13.4062 80.1799C13.3051 79.5923 13.356 78.9829 13.5523 78.4289C13.7487 77.8748 14.0818 77.401 14.5095 77.0671C14.9372 76.7333 15.4404 76.5545 15.9554 76.5532C16.298 76.5524 16.6373 76.6302 16.954 76.7822C17.2707 76.9342 17.5585 77.1574 17.801 77.4389C18.0435 77.7205 18.2358 78.055 18.3671 78.4232C18.4983 78.7914 18.5659 79.1861 18.5659 79.5847Z" fill="#009D96"/>
<path d="M3.87061 79.5849C3.8706 80.0306 3.75698 80.4662 3.54409 80.8367C3.3312 81.2072 3.02864 81.4958 2.67471 81.6661C2.32077 81.8363 1.93136 81.8806 1.55581 81.7932C1.18026 81.7058 0.835439 81.4907 0.564999 81.1751C0.294558 80.8596 0.110678 80.4577 0.0366063 80.0205C-0.0374651 79.5832 0.00159311 79.1303 0.148885 78.7189C0.296177 78.3075 0.545077 77.9562 0.86403 77.7095C1.18298 77.4628 1.55766 77.3318 1.94064 77.333C2.45299 77.3347 2.94389 77.5726 3.30567 77.9948C3.66746 78.4169 3.87061 78.9888 3.87061 79.5849Z" fill="#009D96"/>
<path d="M5.42296 66.0792C5.42402 66.437 5.33374 66.7871 5.16355 67.0851C4.99337 67.3832 4.75096 67.6157 4.46707 67.7532C4.18318 67.8907 3.87058 67.9269 3.56894 67.8574C3.26729 67.7879 2.9902 67.6157 2.77276 67.3627C2.55532 67.1097 2.40733 66.7873 2.34759 66.4363C2.28786 66.0852 2.31906 65.7215 2.43722 65.3912C2.55538 65.0608 2.75519 64.7787 3.01131 64.5807C3.26742 64.3827 3.56832 64.2776 3.87582 64.2788C4.28615 64.2788 4.67968 64.4685 4.96983 64.8061C5.25997 65.1438 5.42296 65.6017 5.42296 66.0792Z" fill="#009D96"/>
<path d="M34.197 59.0012C34.2022 59.4994 34.0798 59.988 33.8452 60.4048C33.6106 60.8216 33.2746 61.1475 32.8801 61.3409C32.4855 61.5344 32.0504 61.5866 31.6303 61.4909C31.2101 61.3953 30.824 61.156 30.5213 60.8037C30.2185 60.4515 30.0129 60.0022 29.9307 59.5133C29.8485 59.0244 29.8933 58.518 30.0596 58.0589C30.2259 57.5999 30.506 57.2089 30.8641 56.9359C31.2223 56.663 31.6422 56.5204 32.0703 56.5266C32.6343 56.5266 33.1752 56.7873 33.5741 57.2514C33.9729 57.7155 34.197 58.3449 34.197 59.0012Z" fill="#009D96"/>
<path d="M102.134 53.5571H112.198V65.2624H102.134V53.5571Z" fill="#009D96"/>
<path d="M149.261 52.3506H161.394V66.4686H149.261V52.3506Z" fill="#009D96"/>
<path d="M128.951 64.6128H140.058V77.543H128.951V64.6128Z" fill="#009D96"/>
<path d="M230.713 73.1069H242.75V86.7919H230.713V73.1069Z" fill="#009D96"/>
<path d="M163.861 68.7085H175.318V82.0408H163.861V68.7085Z" fill="#009D96"/>
<path d="M190.699 74.1094H216.251V86.7859H190.699V74.1094Z" fill="#009D96"/>
<path d="M297.639 26.4097V46.8815H280.908V66.3448H314.371V26.4097H297.639Z" fill="#009D96"/>
<path d="M146.985 77.1348H158.092V86.7922H146.985V77.1348Z" fill="#009D96"/>
<path d="M182.155 52.0845H199.243V65.0085H182.155V52.0845Z" fill="#009D96"/>
<path d="M105.17 74.6045H122.257V86.7861H105.17V74.6045Z" fill="#009D96"/>
<path d="M60.302 79.2691V69.8344C60.3034 69.6385 60.3712 69.4513 60.4907 69.3134C60.6102 69.1755 60.7717 69.0981 60.94 69.0981H69.0426C69.2104 69.0981 69.3713 69.1757 69.49 69.3138C69.6086 69.4518 69.6753 69.6391 69.6753 69.8344V79.2691C69.6753 79.4644 69.6086 79.6516 69.49 79.7897C69.3713 79.9277 69.2104 80.0053 69.0426 80.0053H60.94C60.8564 80.0061 60.7736 79.9877 60.6962 79.9511C60.6188 79.9144 60.5484 79.8603 60.4891 79.7919C60.4298 79.7234 60.3828 79.642 60.3506 79.5523C60.3185 79.4625 60.302 79.3663 60.302 79.2691Z" fill="#009D96"/>
<path d="M75.8161 66.7779V55.4501C75.8154 55.3513 75.8315 55.2533 75.8636 55.1617C75.8956 55.0702 75.9428 54.9869 76.0026 54.9168C76.0625 54.8466 76.1336 54.7909 76.212 54.7529C76.2904 54.7149 76.3745 54.6953 76.4595 54.6953H86.1996C86.3717 54.6953 86.5367 54.7748 86.6583 54.9164C86.7799 55.0579 86.8483 55.2499 86.8483 55.4501V66.7779C86.8483 66.9781 86.7799 67.1701 86.6583 67.3116C86.5367 67.4532 86.3717 67.5327 86.1996 67.5327H76.4595C76.2883 67.5311 76.1247 67.4508 76.0042 67.3095C75.8837 67.1681 75.8161 66.9771 75.8161 66.7779Z" fill="#009D96"/>
<path d="M85.2638 86.3776V75.0435C85.2638 74.845 85.3315 74.6546 85.4522 74.5142C85.5728 74.3738 85.7364 74.2949 85.9071 74.2949H95.6472C95.8184 74.2949 95.9826 74.3736 96.1041 74.5138C96.2255 74.654 96.2945 74.8444 96.2959 75.0435V86.3776C96.2945 86.5767 96.2255 86.7671 96.1041 86.9073C95.9826 87.0475 95.8184 87.1261 95.6472 87.1261H85.9071C85.7364 87.1261 85.5728 87.0473 85.4522 86.9069C85.3315 86.7665 85.2638 86.5761 85.2638 86.3776Z" fill="#009D96"/>
<path d="M261.55 69.8408H276.325V86.7862H261.55V69.8408Z" fill="#009D96"/>
<path d="M246.774 32.3989H261.55V69.8409H246.774V32.3989Z" fill="#009D96"/>
<path d="M326.334 42.6558H369V86.7917H326.334V42.6558Z" fill="#009D96"/>
<path d="M346.048 0.104004H369V56.5143H346.048V0.104004Z" fill="#009D96"/>
</svg>
