<svg width="369" height="88" viewBox="0 0 369 88" fill="none" xmlns="http://www.w3.org/2000/svg">
<path d="M219.739 53.6312V66.6109H230.888V40.6577H208.59V53.6312H219.739Z" fill="#007DB0"/>
<path d="M52.5081 79.0588C52.5081 80.1038 52.2418 81.1253 51.7429 81.9941C51.244 82.863 50.5348 83.5402 49.7052 83.9401C48.8755 84.34 47.9626 84.4446 47.0818 84.2407C46.201 84.0369 45.392 83.5337 44.757 82.7948C44.122 82.0559 43.6896 81.1145 43.5144 80.0896C43.3392 79.0647 43.4291 78.0023 43.7728 77.0369C44.1164 76.0715 44.6984 75.2463 45.4451 74.6658C46.1917 74.0852 47.0696 73.7754 47.9676 73.7754C48.5641 73.7746 49.1548 73.9107 49.706 74.1759C50.2572 74.4411 50.758 74.8303 51.1798 75.321C51.6015 75.8118 51.936 76.3946 52.1639 77.036C52.3918 77.6774 52.5088 78.3648 52.5081 79.0588Z" fill="#007DB0"/>
<path d="M50.1582 60.9128C50.1582 61.9575 49.8921 62.9788 49.3934 63.8475C48.8947 64.7162 48.1859 65.3934 47.3565 65.7935C46.5272 66.1936 45.6145 66.2986 44.7339 66.0952C43.8533 65.8918 43.0443 65.3893 42.4091 64.651C41.7738 63.9127 41.341 62.9718 41.1652 61.9474C40.9894 60.9229 41.0785 59.8608 41.4214 58.8952C41.7642 57.9297 42.3454 57.1041 43.0914 56.5228C43.8373 55.9415 44.7146 55.6306 45.6124 55.6294C46.2091 55.6286 46.8001 55.7646 47.3516 56.0298C47.9031 56.2949 48.4043 56.684 48.8265 57.1747C49.2487 57.6654 49.5836 58.2481 49.8121 58.8895C50.0406 59.5309 50.1582 60.2185 50.1582 60.9128Z" fill="#007DB0"/>
<path d="M34.8887 81.3416C34.8876 82.1171 34.689 82.8749 34.318 83.5191C33.947 84.1633 33.4202 84.6651 32.8041 84.961C32.1881 85.2569 31.5105 85.3337 30.857 85.1817C30.2035 85.0296 29.6034 84.6556 29.1325 84.1068C28.6616 83.558 28.3411 82.8591 28.2115 82.0984C28.0819 81.3377 28.1489 80.5493 28.4042 79.833C28.6595 79.1166 29.0915 78.5044 29.6457 78.0737C30.1999 77.6429 30.8514 77.4131 31.5179 77.4131C31.961 77.4131 32.3997 77.5147 32.809 77.7122C33.2184 77.9097 33.5902 78.1992 33.9033 78.5641C34.2164 78.929 34.4645 79.3621 34.6336 79.8387C34.8027 80.3153 34.8894 80.826 34.8887 81.3416Z" fill="#007DB0"/>
<path d="M25.1378 66.2212C25.1378 66.997 24.9401 67.7553 24.5697 68.4003C24.1994 69.0454 23.6729 69.5481 23.057 69.845C22.4411 70.1419 21.7633 70.2195 21.1094 70.0682C20.4556 69.9169 19.8549 69.5433 19.3835 68.9947C18.9121 68.4462 18.5911 67.7473 18.461 66.9864C18.331 66.2255 18.3977 65.4369 18.6528 64.7202C18.908 64.0035 19.34 63.3909 19.8943 62.9599C20.4487 62.5289 21.1004 62.2988 21.7671 62.2988C22.661 62.2988 23.5184 62.7121 24.1505 63.4477C24.7827 64.1832 25.1378 65.1809 25.1378 66.2212Z" fill="#007DB0"/>
<path d="M18.5663 79.5847C18.5663 80.184 18.4136 80.7699 18.1276 81.2682C17.8416 81.7666 17.435 82.1552 16.9593 82.3848C16.4835 82.6145 15.96 82.6748 15.4548 82.5584C14.9496 82.4419 14.4854 82.1538 14.1209 81.7305C13.7563 81.3071 13.5077 80.7675 13.4066 80.1799C13.3055 79.5923 13.3563 78.9829 13.5527 78.4289C13.7491 77.8748 14.0822 77.401 14.5099 77.0671C14.9376 76.7333 15.4407 76.5545 15.9558 76.5532C16.2983 76.5524 16.6377 76.6302 16.9544 76.7822C17.2711 76.9342 17.5589 77.1574 17.8014 77.4389C18.0438 77.7205 18.2362 78.055 18.3675 78.4232C18.4987 78.7914 18.5663 79.1861 18.5663 79.5847Z" fill="#007DB0"/>
<path d="M3.87097 79.5845C3.87097 80.0301 3.75734 80.4658 3.54445 80.8362C3.33157 81.2067 3.02901 81.4953 2.67507 81.6656C2.32114 81.8359 1.93173 81.8801 1.55618 81.7927C1.18063 81.7053 0.835808 81.4902 0.565368 81.1746C0.294928 80.8591 0.111048 80.4572 0.0369766 80.02C-0.0370951 79.5827 0.00196314 79.1298 0.149255 78.7184C0.296547 78.307 0.545446 77.9557 0.8644 77.709C1.18335 77.4623 1.55802 77.3313 1.94101 77.3325C2.45336 77.3342 2.94426 77.5721 3.30604 77.9943C3.66783 78.4164 3.87097 78.9883 3.87097 79.5845Z" fill="#007DB0"/>
<path d="M5.42345 66.0787C5.4245 66.4365 5.33423 66.7866 5.16404 67.0846C4.99386 67.3827 4.75145 67.6152 4.46756 67.7527C4.18366 67.8902 3.87107 67.9264 3.56943 67.8569C3.26778 67.7874 2.99069 67.6153 2.77325 67.3622C2.55582 67.1092 2.40782 66.7868 2.34809 66.4358C2.28835 66.0848 2.31955 65.721 2.43771 65.3907C2.55588 65.0603 2.75568 64.7782 3.0118 64.5802C3.26791 64.3822 3.56881 64.2771 3.87631 64.2783C4.28664 64.2783 4.68017 64.468 4.97031 64.8056C5.26046 65.1433 5.42345 65.6012 5.42345 66.0787Z" fill="#007DB0"/>
<path d="M34.1975 59.0012C34.2027 59.4994 34.0802 59.988 33.8457 60.4048C33.6111 60.8215 33.2751 61.1475 32.8806 61.3409C32.486 61.5344 32.0509 61.5866 31.6308 61.4909C31.2106 61.3952 30.8245 61.156 30.5218 60.8037C30.219 60.4514 30.0134 60.0022 29.9312 59.5133C29.849 59.0244 29.8938 58.518 30.0601 58.0589C30.2264 57.5999 30.5065 57.2089 30.8646 56.9359C31.2228 56.663 31.6427 56.5204 32.0708 56.5266C32.6348 56.5266 33.1757 56.7873 33.5745 57.2514C33.9734 57.7155 34.1975 58.3449 34.1975 59.0012Z" fill="#007DB0"/>
<path d="M102.134 53.5571H112.199V65.2624H102.134V53.5571Z" fill="#007DB0"/>
<path d="M149.261 52.3506H161.394V66.4686H149.261V52.3506Z" fill="#007DB0"/>
<path d="M128.952 64.6128H140.058V77.543H128.952V64.6128Z" fill="#007DB0"/>
<path d="M230.713 73.1069H242.75V86.7919H230.713V73.1069Z" fill="#007DB0"/>
<path d="M163.861 68.7085H175.318V82.0408H163.861V68.7085Z" fill="#007DB0"/>
<path d="M190.7 74.1094H216.252V86.7859H190.7V74.1094Z" fill="#007DB0"/>
<path d="M297.639 26.4097V46.8814H280.908V66.3448H314.371V26.4097H297.639Z" fill="#007DB0"/>
<path d="M146.986 77.1348H158.092V86.7922H146.986V77.1348Z" fill="#007DB0"/>
<path d="M182.156 52.0845H199.243V65.0085H182.156V52.0845Z" fill="#007DB0"/>
<path d="M105.17 74.6045H122.258V86.7861H105.17V74.6045Z" fill="#007DB0"/>
<path d="M60.3025 79.2691V69.8344C60.3039 69.6385 60.3717 69.4513 60.4912 69.3134C60.6107 69.1755 60.7722 69.0981 60.9405 69.0981H69.0431C69.2109 69.0981 69.3718 69.1757 69.4905 69.3138C69.6091 69.4518 69.6758 69.6391 69.6758 69.8344V79.2691C69.6758 79.4643 69.6091 79.6516 69.4905 79.7897C69.3718 79.9277 69.2109 80.0053 69.0431 80.0053H60.9405C60.8569 80.0061 60.7741 79.9877 60.6967 79.951C60.6193 79.9144 60.5489 79.8603 60.4896 79.7919C60.4303 79.7234 60.3833 79.642 60.3511 79.5523C60.319 79.4625 60.3024 79.3663 60.3025 79.2691Z" fill="#007DB0"/>
<path d="M75.8165 66.7779V55.4501C75.8158 55.3513 75.8319 55.2533 75.8639 55.1617C75.896 55.0702 75.9432 54.9869 76.003 54.9168C76.0628 54.8466 76.134 54.7909 76.2124 54.7529C76.2908 54.7149 76.3749 54.6953 76.4598 54.6953H86.2C86.372 54.6953 86.537 54.7748 86.6587 54.9164C86.7803 55.0579 86.8486 55.2499 86.8486 55.4501V66.7779C86.8486 66.9781 86.7803 67.1701 86.6587 67.3116C86.537 67.4532 86.372 67.5327 86.2 67.5327H76.4598C76.2887 67.5311 76.1251 67.4508 76.0046 67.3095C75.8841 67.1681 75.8165 66.977 75.8165 66.7779Z" fill="#007DB0"/>
<path d="M85.2643 86.3776V75.0435C85.2643 74.845 85.332 74.6546 85.4527 74.5142C85.5733 74.3738 85.7369 74.2949 85.9076 74.2949H95.6477C95.8188 74.2949 95.983 74.3736 96.1045 74.5138C96.226 74.654 96.295 74.8444 96.2964 75.0435V86.3776C96.295 86.5767 96.226 86.767 96.1045 86.9073C95.983 87.0475 95.8188 87.1261 95.6477 87.1261H85.9076C85.7369 87.1261 85.5733 87.0473 85.4527 86.9069C85.332 86.7665 85.2643 86.5761 85.2643 86.3776Z" fill="#007DB0"/>
<path d="M261.55 69.8408H276.325V86.7862H261.55V69.8408Z" fill="#007DB0"/>
<path d="M246.775 32.3984H261.55V69.8403H246.775V32.3984Z" fill="#007DB0"/>
<path d="M326.334 42.6562H369V86.7921H326.334V42.6562Z" fill="#007DB0"/>
<path d="M346.048 0.104004H369V56.5143H346.048V0.104004Z" fill="#007DB0"/>
</svg>
