<?xml version="1.0" encoding="utf-8"?>
<!-- Generator: Adobe Illustrator 25.2.1, SVG Export Plug-In . SVG Version: 6.00 Build 0)  -->
<svg version="1.1" id="Layer_1" xmlns="http://www.w3.org/2000/svg" xmlns:xlink="http://www.w3.org/1999/xlink" x="0px" y="0px"
	 viewBox="0 0 156 356" style="enable-background:new 0 0 156 356;" xml:space="preserve">
<style type="text/css">
	.st0{fill:#193051;}
</style>
<path class="st0" d="M74.1-2.6l-1.4,358.2L-4.5,356l-0.8-179.3L-6.1-2.6L74.1-2.6z"/>
<path class="st0" d="M103.1,142.7H90.9v-10.6h24.5v21.1h-12.2V142.7z"/>
<path class="st0" d="M79.1,301.3c-1,0-1.9,0.3-2.8,0.7c-0.8,0.5-1.5,1.1-1.8,1.9c-0.4,0.8-0.5,1.7-0.3,2.5c0.2,0.8,0.7,1.6,1.4,2.2
	c0.7,0.6,1.6,1,2.5,1.2c1,0.2,2,0.1,2.9-0.2c0.9-0.3,1.7-0.9,2.2-1.6c0.5-0.7,0.8-1.5,0.8-2.4c0-0.6-0.1-1.1-0.4-1.6
	c-0.2-0.5-0.6-1-1.1-1.4c-0.5-0.4-1-0.7-1.6-0.9C80.4,301.4,79.8,301.3,79.1,301.3z"/>
<path class="st0" d="M96.2,303.5c-1,0-1.9,0.3-2.8,0.7c-0.8,0.5-1.5,1.1-1.8,1.9c-0.4,0.8-0.5,1.7-0.3,2.5c0.2,0.8,0.7,1.6,1.4,2.2
	c0.7,0.6,1.6,1,2.5,1.2c1,0.2,2,0.1,2.9-0.2c0.9-0.3,1.7-0.9,2.2-1.6c0.5-0.7,0.8-1.5,0.8-2.4c0-0.6-0.1-1.1-0.4-1.6
	c-0.2-0.5-0.6-1-1.1-1.4c-0.5-0.4-1-0.7-1.6-0.9C97.5,303.6,96.9,303.5,96.2,303.5"/>
<path class="st0" d="M77,318c-0.7,0-1.4,0.2-2.1,0.5c-0.6,0.4-1.1,0.9-1.4,1.4c-0.3,0.6-0.4,1.2-0.2,1.8c0.1,0.6,0.5,1.2,1,1.6
	c0.5,0.4,1.2,0.8,1.9,0.9c0.7,0.1,1.5,0.1,2.1-0.2c0.7-0.2,1.3-0.7,1.7-1.2c0.4-0.5,0.6-1.1,0.6-1.8c0-0.4-0.1-0.8-0.3-1.2
	c-0.2-0.4-0.5-0.7-0.8-1c-0.3-0.3-0.8-0.5-1.2-0.7C77.9,318.1,77.5,318,77,318"/>
<path class="st0" d="M91.2,327.3c-0.7,0-1.4,0.2-2.1,0.5c-0.6,0.4-1.1,0.9-1.4,1.4c-0.3,0.6-0.4,1.2-0.2,1.8c0.1,0.6,0.5,1.2,1,1.6
	c0.5,0.4,1.2,0.8,1.9,0.9c0.7,0.1,1.5,0.1,2.1-0.2c0.7-0.2,1.3-0.7,1.7-1.2c0.4-0.5,0.6-1.1,0.6-1.8c0-0.8-0.4-1.7-1.1-2.3
	S92.2,327.3,91.2,327.3"/>
<path class="st0" d="M78.6,333.5c-0.6,0-1.1,0.1-1.6,0.4c-0.5,0.3-0.8,0.7-1.1,1.1c-0.2,0.5-0.3,0.9-0.2,1.4
	c0.1,0.5,0.4,0.9,0.8,1.3c0.4,0.3,0.9,0.6,1.5,0.7c0.6,0.1,1.1,0,1.6-0.1c0.5-0.2,1-0.5,1.3-0.9c0.3-0.4,0.5-0.9,0.5-1.4
	c0-0.3-0.1-0.6-0.2-0.9c-0.1-0.3-0.4-0.6-0.6-0.8c-0.3-0.2-0.6-0.4-0.9-0.5C79.4,333.6,79,333.5,78.6,333.5"/>
<path class="st0" d="M78.6,347.4c-0.4,0-0.8,0.1-1.2,0.3c-0.3,0.2-0.6,0.5-0.8,0.8c-0.2,0.3-0.2,0.7-0.1,1.1
	c0.1,0.4,0.3,0.7,0.6,0.9c0.3,0.3,0.7,0.4,1.1,0.5s0.8,0,1.2-0.1c0.4-0.1,0.7-0.4,1-0.7c0.2-0.3,0.4-0.7,0.4-1c0-0.5-0.2-1-0.6-1.3
	C79.7,347.6,79.2,347.4,78.6,347.4z"/>
<path class="st0" d="M91.4,346c-0.3,0-0.7,0.1-0.9,0.2c-0.3,0.2-0.5,0.4-0.6,0.7c-0.1,0.3-0.2,0.6-0.1,0.9c0.1,0.3,0.2,0.5,0.5,0.8
	c0.2,0.2,0.5,0.3,0.9,0.4c0.3,0.1,0.7,0,1-0.1c0.3-0.1,0.6-0.3,0.8-0.5c0.2-0.2,0.3-0.5,0.3-0.8c0-0.4-0.2-0.8-0.5-1
	C92.2,346.1,91.8,346,91.4,346"/>
<path class="st0" d="M98,318.7c-0.5,0-0.9,0.1-1.3,0.3c-0.4,0.2-0.7,0.5-0.9,0.9c-0.2,0.4-0.2,0.8-0.1,1.2c0.1,0.4,0.3,0.8,0.6,1.1
	c0.3,0.3,0.8,0.5,1.2,0.6c0.5,0.1,0.9,0,1.4-0.1c0.4-0.2,0.8-0.4,1.1-0.8c0.3-0.3,0.4-0.7,0.4-1.1c0-0.5-0.2-1-0.7-1.4
	C99.2,318.9,98.6,318.7,98,318.7z"/>
<path class="st0" d="M103.2,254.2v-9.5h-11v9.5H103.2z"/>
<path class="st0" d="M104.3,209.5V198H91v11.5H104.3z"/>
<path class="st0" d="M92.7,228.8v-10.5H80.6v10.5H92.7z"/>
<path class="st0" d="M84.7,132.3v-11.4H71.8v11.4H84.7z"/>
<path class="st0" d="M88.9,195.7v-10.9H76.3v10.9H88.9z"/>
<path class="st0" d="M83.8,170.2V146H71.8v24.2H83.8z"/>
<path class="st0" d="M128.7,68.8h-19.3v15.9H91.1V52.9h37.6V68.8z"/>
<path class="st0" d="M80.9,211.7v-10.5h-9.1v10.5H80.9z"/>
<path class="st0" d="M104.5,178.3v-16.2H92.4v16.2H104.5z"/>
<path class="st0" d="M83.3,251.4v-16.2H71.8v16.2H83.3z"/>
<path class="st0" d="M78.9,293.9h8.9c0.2,0,0.4-0.1,0.5-0.2c0.1-0.1,0.2-0.3,0.2-0.4v-7.7c0-0.2-0.1-0.3-0.2-0.4
	c-0.1-0.1-0.3-0.2-0.5-0.2h-8.9c-0.2,0-0.4,0.1-0.5,0.2c-0.1,0.1-0.2,0.3-0.2,0.4v7.7c0,0.1,0,0.2,0.1,0.2c0,0.1,0.1,0.1,0.2,0.2
	c0.1,0.1,0.1,0.1,0.2,0.1C78.7,293.9,78.8,293.9,78.9,293.9"/>
<path class="st0" d="M90.7,279.2h10.7c0.1,0,0.2,0,0.3,0c0.1,0,0.2-0.1,0.2-0.1c0.1-0.1,0.1-0.1,0.2-0.2c0-0.1,0.1-0.2,0.1-0.2v-9.2
	c0-0.2-0.1-0.3-0.2-0.4c-0.1-0.1-0.3-0.2-0.5-0.2H90.7c-0.2,0-0.4,0.1-0.5,0.2c-0.1,0.1-0.2,0.3-0.2,0.4v9.2c0,0.2,0.1,0.3,0.2,0.4
	C90.3,279.1,90.5,279.2,90.7,279.2"/>
<path class="st0" d="M72.2,270.2h10.7c0.2,0,0.4-0.1,0.5-0.2c0.1-0.1,0.2-0.3,0.2-0.4v-9.2c0-0.2-0.1-0.3-0.2-0.4
	c-0.1-0.1-0.3-0.2-0.5-0.2H72.2c-0.2,0-0.4,0.1-0.5,0.2c-0.1,0.1-0.2,0.3-0.2,0.4v9.2c0,0.2,0.1,0.3,0.2,0.4
	C71.9,270.2,72,270.2,72.2,270.2"/>
<path class="st0" d="M87.8,103V89h-16v14H87.8z"/>
<path class="st0" d="M123.1,117v-14H87.8v14H123.1z"/>
<path class="st0" d="M113,41V0H72v41H113z"/>
<path class="st0" d="M153.5,21.9V0.1h-53.2v21.8H153.5z"/>
</svg>
