<svg width="570" height="148" viewBox="0 0 570 148" fill="none" xmlns="http://www.w3.org/2000/svg">
<rect y="84" width="570" height="64" fill="#007DB0"/>
<path d="M420.739 53.6337V66.6134H431.888V40.6602H409.589V53.6337H420.739Z" fill="#007DB0"/>
<path d="M253.508 79.0608C253.508 80.1057 253.242 81.1272 252.743 81.9961C252.244 82.8649 251.535 83.5422 250.705 83.942C249.875 84.3419 248.962 84.4466 248.082 84.2427C247.201 84.0388 246.392 83.5356 245.757 82.7967C245.122 82.0578 244.689 81.1164 244.514 80.0915C244.339 79.0666 244.429 78.0043 244.773 77.0389C245.116 76.0735 245.698 75.2483 246.445 74.6677C247.192 74.0872 248.069 73.7773 248.967 73.7773C249.564 73.7765 250.155 73.9126 250.706 74.1778C251.257 74.4431 251.758 74.8322 252.18 75.323C252.601 75.8138 252.936 76.3966 253.164 77.0379C253.392 77.6793 253.509 78.3667 253.508 79.0608Z" fill="#007DB0"/>
<path d="M251.158 60.9143C251.158 61.959 250.892 62.9803 250.393 63.849C249.894 64.7177 249.185 65.3949 248.356 65.795C247.527 66.195 246.614 66.3 245.733 66.0967C244.853 65.8933 244.044 65.3907 243.409 64.6524C242.773 63.9142 242.341 62.9733 242.165 61.9488C241.989 60.9244 242.078 59.8622 242.421 58.8967C242.764 57.9312 243.345 57.1056 244.091 56.5243C244.837 55.943 245.714 55.6321 246.612 55.6309C247.209 55.63 247.8 55.7661 248.351 56.0313C248.903 56.2964 249.404 56.6855 249.826 57.1762C250.248 57.6669 250.583 58.2496 250.812 58.891C251.04 59.5324 251.158 60.22 251.158 60.9143" fill="#007DB0"/>
<path d="M235.888 81.3426C235.887 82.1181 235.689 82.8758 235.318 83.5201C234.946 84.1643 234.42 84.6661 233.804 84.962C233.188 85.2579 232.51 85.3347 231.857 85.1827C231.203 85.0306 230.603 84.6566 230.132 84.1078C229.661 83.559 229.341 82.8601 229.211 82.0994C229.081 81.3387 229.148 80.5503 229.404 79.8339C229.659 79.1176 230.091 78.5054 230.645 78.0746C231.199 77.6439 231.851 77.4141 232.517 77.4141C232.96 77.4141 233.399 77.5157 233.809 77.7132C234.218 77.9107 234.59 78.2002 234.903 78.5651C235.216 78.93 235.464 79.3631 235.633 79.8397C235.802 80.3163 235.889 80.827 235.888 81.3426" fill="#007DB0"/>
<path d="M226.137 66.2231C226.137 66.9989 225.94 67.7573 225.569 68.4023C225.199 69.0473 224.672 69.5501 224.056 69.8469C223.44 70.1438 222.763 70.2215 222.109 70.0702C221.455 69.9188 220.854 69.5452 220.383 68.9967C219.912 68.4481 219.59 67.7492 219.46 66.9884C219.33 66.2275 219.397 65.4388 219.652 64.7221C219.907 64.0054 220.339 63.3928 220.894 62.9618C221.448 62.5308 222.1 62.3008 222.766 62.3008C223.66 62.3008 224.518 62.714 225.15 63.4496C225.782 64.1852 226.137 65.1829 226.137 66.2231" fill="#007DB0"/>
<path d="M219.566 79.5862C219.566 80.1855 219.413 80.7713 219.127 81.2697C218.841 81.7681 218.435 82.1567 217.959 82.3863C217.483 82.6159 216.96 82.6763 216.454 82.5598C215.949 82.4434 215.485 82.1553 215.12 81.7319C214.756 81.3086 214.507 80.769 214.406 80.1814C214.305 79.5937 214.356 78.9844 214.552 78.4303C214.749 77.8763 215.082 77.4024 215.51 77.0686C215.937 76.7347 216.44 76.5559 216.955 76.5547C217.298 76.5539 217.637 76.6317 217.954 76.7837C218.271 76.9357 218.559 77.1588 218.801 77.4404C219.043 77.722 219.236 78.0564 219.367 78.4246C219.498 78.7928 219.566 79.1875 219.566 79.5862" fill="#007DB0"/>
<path d="M204.871 79.5859C204.871 80.0316 204.757 80.4672 204.544 80.8377C204.331 81.2082 204.029 81.4968 203.675 81.6671C203.321 81.8373 202.931 81.8816 202.556 81.7942C202.18 81.7068 201.835 81.4917 201.565 81.1761C201.295 80.8605 201.111 80.4587 201.037 80.0215C200.963 79.5842 201.002 79.1312 201.149 78.7198C201.296 78.3085 201.545 77.9572 201.864 77.7105C202.183 77.4638 202.558 77.3328 202.941 77.334C203.453 77.3356 203.944 77.5736 204.306 77.9957C204.667 78.4179 204.871 78.9897 204.871 79.5859Z" fill="#007DB0"/>
<path d="M206.423 66.0796C206.424 66.4375 206.334 66.7876 206.163 67.0856C205.993 67.3836 205.751 67.6161 205.467 67.7536C205.183 67.8911 204.87 67.9274 204.569 67.8579C204.267 67.7884 203.99 67.6162 203.773 67.3632C203.555 67.1102 203.407 66.7877 203.347 66.4367C203.288 66.0857 203.319 65.722 203.437 65.3916C203.555 65.0613 203.755 64.7792 204.011 64.5812C204.267 64.3832 204.568 64.2781 204.876 64.2793C205.286 64.2793 205.68 64.469 205.97 64.8066C206.26 65.1442 206.423 65.6022 206.423 66.0796" fill="#007DB0"/>
<path d="M235.197 59.0022C235.202 59.5004 235.08 59.989 234.845 60.4058C234.611 60.8225 234.275 61.1484 233.88 61.3419C233.486 61.5354 233.051 61.5876 232.63 61.4919C232.21 61.3962 231.824 61.157 231.521 60.8047C231.219 60.4524 231.013 60.0031 230.931 59.5142C230.849 59.0253 230.893 58.519 231.06 58.0599C231.226 57.6008 231.506 57.2098 231.864 56.9369C232.222 56.6639 232.642 56.5214 233.07 56.5275C233.634 56.5275 234.175 56.7883 234.574 57.2524C234.973 57.7165 235.197 58.3459 235.197 59.0022Z" fill="#007DB0"/>
<path d="M303.134 53.5586H313.198V65.2638H303.134V53.5586Z" fill="#007DB0"/>
<path d="M350.261 52.3516H362.394V66.4696H350.261V52.3516Z" fill="#007DB0"/>
<path d="M329.951 64.6133H341.058V77.5435H329.951V64.6133Z" fill="#007DB0"/>
<path d="M431.713 73.1074H443.75V86.7924H431.713V73.1074Z" fill="#007DB0"/>
<path d="M364.86 68.709H376.318V82.0413H364.86V68.709Z" fill="#007DB0"/>
<path d="M391.699 74.1113H417.251V86.7879H391.699V74.1113Z" fill="#007DB0"/>
<path d="M498.639 26.4121V46.8839H481.907V66.3472H515.371V26.4121H498.639Z" fill="#007DB0"/>
<path d="M347.985 77.1367H359.092V86.7941H347.985V77.1367Z" fill="#007DB0"/>
<path d="M383.155 52.0859H400.243V65.01H383.155V52.0859Z" fill="#007DB0"/>
<path d="M306.169 74.6055H323.257V86.7871H306.169V74.6055Z" fill="#007DB0"/>
<path d="M261.302 79.2706V69.8358C261.303 69.64 261.371 69.4528 261.491 69.3149C261.61 69.177 261.772 69.0996 261.94 69.0996H270.043C270.21 69.0996 270.371 69.1772 270.49 69.3152C270.609 69.4533 270.675 69.6406 270.675 69.8358V79.2706C270.675 79.4658 270.609 79.6531 270.49 79.7911C270.371 79.9292 270.21 80.0068 270.043 80.0068H261.94C261.856 80.0076 261.774 79.9891 261.696 79.9525C261.619 79.9159 261.548 79.8618 261.489 79.7933C261.43 79.7249 261.383 79.6435 261.351 79.5537C261.319 79.464 261.302 79.3678 261.302 79.2706" fill="#007DB0"/>
<path d="M276.816 66.7799V55.452C276.815 55.3532 276.831 55.2552 276.863 55.1637C276.895 55.0721 276.943 54.9889 277.003 54.9187C277.062 54.8485 277.134 54.7928 277.212 54.7548C277.29 54.7168 277.374 54.6973 277.459 54.6973H287.2C287.372 54.6973 287.537 54.7768 287.658 54.9183C287.78 55.0599 287.848 55.2519 287.848 55.452V66.7799C287.848 66.9801 287.78 67.172 287.658 67.3136C287.537 67.4551 287.372 67.5347 287.2 67.5347H277.459C277.288 67.533 277.125 67.4528 277.004 67.3114C276.884 67.17 276.816 66.979 276.816 66.7799" fill="#007DB0"/>
<path d="M286.264 86.3795V75.0455C286.264 74.8469 286.332 74.6565 286.452 74.5162C286.573 74.3758 286.736 74.2969 286.907 74.2969H296.647C296.818 74.2969 296.983 74.3756 297.104 74.5158C297.226 74.656 297.294 74.8464 297.296 75.0455V86.3795C297.294 86.5786 297.226 86.769 297.104 86.9092C296.983 87.0494 296.818 87.1281 296.647 87.1281H286.907C286.736 87.1281 286.573 87.0492 286.452 86.9088C286.332 86.7684 286.264 86.578 286.264 86.3795" fill="#007DB0"/>
<path d="M462.549 69.8418H477.324V86.7871H462.549V69.8418Z" fill="#007DB0"/>
<path d="M447.774 32.4004H462.549V69.8423H447.774V32.4004Z" fill="#007DB0"/>
<path d="M527.333 42.6582H570V86.7941H527.333V42.6582Z" fill="#007DB0"/>
<path d="M547.047 0.105469H570V56.5158H547.047V0.105469Z" fill="#007DB0"/>
</svg>
