<svg width="369" height="88" viewBox="0 0 369 88" fill="none" xmlns="http://www.w3.org/2000/svg">
<path d="M219.739 33.4952V20.5155H230.888V46.4688H208.59V33.4952H219.739Z" fill="#65B43B"/>
<path d="M52.5076 8.06764C52.5076 7.02267 52.2413 6.00118 51.7424 5.13232C51.2435 4.26346 50.5343 3.58625 49.7047 3.18636C48.875 2.78647 47.9621 2.68185 47.0813 2.88571C46.2006 3.08957 45.3915 3.59278 44.7565 4.33168C44.1215 5.07058 43.6891 6.012 43.5139 7.03689C43.3387 8.06178 43.4286 9.12411 43.7723 10.0895C44.1159 11.055 44.6979 11.8801 45.4446 12.4607C46.1913 13.0412 47.0691 13.3511 47.9671 13.3511C48.5636 13.3519 49.1543 13.2158 49.7055 12.9506C50.2567 12.6854 50.7575 12.2962 51.1793 11.8054C51.601 11.3146 51.9355 10.7319 52.1634 10.0905C52.3913 9.44909 52.5083 8.7617 52.5076 8.06764Z" fill="#65B43B"/>
<path d="M50.1577 26.2136C50.1577 25.1689 49.8916 24.1477 49.3929 23.2789C48.8942 22.4102 48.1854 21.733 47.356 21.333C46.5267 20.9329 45.614 20.8279 44.7334 21.0313C43.8528 21.2346 43.0438 21.7372 42.4086 22.4755C41.7734 23.2138 41.3405 24.1546 41.1647 25.1791C40.9889 26.2036 41.0781 27.2657 41.4209 28.2312C41.7637 29.1968 42.3449 30.0224 43.0909 30.6037C43.8368 31.1849 44.7142 31.4958 45.6119 31.4971C46.2087 31.4979 46.7996 31.3618 47.3511 31.0967C47.9026 30.8315 48.4038 30.4425 48.826 29.9518C49.2482 29.4611 49.5831 28.8784 49.8116 28.2369C50.0401 27.5955 50.1577 26.908 50.1577 26.2136Z" fill="#65B43B"/>
<path d="M34.8882 5.78484C34.8871 5.00933 34.6885 4.25159 34.3175 3.60737C33.9465 2.96316 33.4197 2.46137 32.8037 2.16544C32.1876 1.86952 31.51 1.79273 30.8565 1.94477C30.203 2.09681 29.6029 2.47087 29.132 3.01967C28.6611 3.56846 28.3406 4.26738 28.211 5.02808C28.0814 5.78877 28.1484 6.57713 28.4037 7.29349C28.659 8.00985 29.091 8.62207 29.6452 9.05279C30.1995 9.48352 30.8509 9.71338 31.5174 9.71338C31.9605 9.71338 32.3992 9.61174 32.8086 9.41424C33.2179 9.21673 33.5897 8.92724 33.9028 8.56236C34.2159 8.19748 34.464 7.76435 34.6331 7.28775C34.8022 6.81115 34.8889 6.30045 34.8882 5.78484Z" fill="#65B43B"/>
<path d="M25.1372 20.9053C25.1372 20.1295 24.9395 19.3712 24.5691 18.7261C24.1987 18.0811 23.6723 17.5784 23.0564 17.2815C22.4405 16.9846 21.7627 16.9069 21.1088 17.0583C20.455 17.2096 19.8543 17.5832 19.3829 18.1317C18.9115 18.6803 18.5905 19.3792 18.4604 20.1401C18.3303 20.9009 18.3971 21.6896 18.6522 22.4063C18.9074 23.123 19.3394 23.7356 19.8937 24.1666C20.448 24.5976 21.0998 24.8276 21.7664 24.8276C22.6604 24.8276 23.5178 24.4144 24.1499 23.6788C24.7821 22.9432 25.1372 21.9455 25.1372 20.9053Z" fill="#65B43B"/>
<path d="M18.5659 7.54178C18.5659 6.94247 18.4132 6.35661 18.1272 5.85822C17.8412 5.35983 17.4346 4.97126 16.9589 4.74164C16.4832 4.51201 15.9596 4.45162 15.4544 4.56809C14.9492 4.68456 14.485 4.97265 14.1205 5.39599C13.7559 5.81933 13.5074 6.35891 13.4062 6.94655C13.3051 7.5342 13.356 8.14355 13.5523 8.69759C13.7487 9.25163 14.0818 9.72551 14.5095 10.0594C14.9372 10.3932 15.4404 10.572 15.9554 10.5732C16.298 10.574 16.6373 10.4962 16.954 10.3443C17.2707 10.1923 17.5585 9.9691 17.801 9.68752C18.0435 9.40594 18.2358 9.07149 18.3671 8.70329C18.4983 8.33509 18.5659 7.9404 18.5659 7.54178Z" fill="#65B43B"/>
<path d="M3.87061 7.54201C3.8706 7.09635 3.75698 6.66071 3.54409 6.29024C3.3312 5.91978 3.02864 5.63113 2.67471 5.46087C2.32077 5.2906 1.93136 5.24637 1.55581 5.33376C1.18026 5.42116 0.835439 5.63627 0.564999 5.95183C0.294558 6.26739 0.110678 6.66923 0.0366063 7.10647C-0.0374651 7.54372 0.00159311 7.9967 0.148885 8.40808C0.296177 8.81947 0.545077 9.17072 0.86403 9.41743C1.18298 9.66413 1.55766 9.79516 1.94064 9.79394C2.45299 9.7923 2.94389 9.55433 3.30567 9.13218C3.66746 8.71003 3.87061 8.13819 3.87061 7.54201Z" fill="#65B43B"/>
<path d="M5.42284 21.0473C5.42389 20.6895 5.33362 20.3394 5.16343 20.0413C4.99325 19.7433 4.75084 19.5108 4.46695 19.3733C4.18305 19.2358 3.87046 19.1995 3.56881 19.269C3.26717 19.3385 2.99008 19.5107 2.77264 19.7637C2.5552 20.0168 2.40721 20.3392 2.34747 20.6902C2.28774 21.0412 2.31894 21.405 2.4371 21.7353C2.55526 22.0657 2.75507 22.3477 3.01118 22.5458C3.2673 22.7438 3.5682 22.8489 3.8757 22.8476C4.28603 22.8476 4.67955 22.658 4.9697 22.3203C5.25985 21.9827 5.42284 21.5248 5.42284 21.0473Z" fill="#65B43B"/>
<path d="M34.1969 28.1252C34.2021 27.6271 34.0796 27.1384 33.8451 26.7217C33.6105 26.3049 33.2745 25.979 32.88 25.7855C32.4854 25.5921 32.0503 25.5398 31.6302 25.6355C31.21 25.7312 30.8239 25.9705 30.5212 26.3227C30.2184 26.675 30.0128 27.1243 29.9306 27.6132C29.8484 28.1021 29.8932 28.6084 30.0595 29.0675C30.2257 29.5266 30.5058 29.9176 30.864 30.1905C31.2221 30.4635 31.6421 30.606 32.0702 30.5999C32.6342 30.5999 33.1751 30.3392 33.5739 29.8751C33.9728 29.411 34.1969 28.7816 34.1969 28.1252Z" fill="#65B43B"/>
<path d="M102.134 33.5693H112.198V21.8641H102.134V33.5693Z" fill="#65B43B"/>
<path d="M149.261 34.7759H161.394V20.6578H149.261V34.7759Z" fill="#65B43B"/>
<path d="M128.951 22.5137H140.058V9.58347H128.951V22.5137Z" fill="#65B43B"/>
<path d="M230.713 14.0195H242.75V0.33455H230.713V14.0195Z" fill="#65B43B"/>
<path d="M163.861 18.418H175.318V5.08562H163.861V18.418Z" fill="#65B43B"/>
<path d="M190.699 13.0171H216.251V0.340544H190.699V13.0171Z" fill="#65B43B"/>
<path d="M297.639 60.7168V40.245H280.908V20.7816H314.371V60.7168H297.639Z" fill="#65B43B"/>
<path d="M146.985 9.9917H158.092V0.334268H146.985V9.9917Z" fill="#65B43B"/>
<path d="M182.155 35.042H199.243V22.118H182.155V35.042Z" fill="#65B43B"/>
<path d="M105.169 12.522H122.257V0.340356H105.169V12.522Z" fill="#65B43B"/>
<path d="M60.302 7.85736V17.2921C60.3034 17.4879 60.3712 17.6752 60.4907 17.8131C60.6102 17.951 60.7717 18.0283 60.94 18.0283H69.0426C69.2104 18.0283 69.3713 17.9508 69.49 17.8127C69.6086 17.6746 69.6753 17.4874 69.6753 17.2921V7.85736C69.6753 7.66211 69.6086 7.47486 69.49 7.33679C69.3713 7.19873 69.2104 7.12114 69.0426 7.12114H60.94C60.8564 7.12033 60.7736 7.13877 60.6962 7.17541C60.6188 7.21204 60.5484 7.26616 60.4891 7.3346C60.4298 7.40305 60.3828 7.48447 60.3506 7.5742C60.3185 7.66392 60.302 7.76016 60.302 7.85736Z" fill="#65B43B"/>
<path d="M75.816 20.3485V31.6764C75.8153 31.7752 75.8314 31.8732 75.8634 31.9648C75.8955 32.0563 75.9427 32.1395 76.0025 32.2097C76.0623 32.2799 76.1335 32.3356 76.2119 32.3736C76.2903 32.4116 76.3744 32.4312 76.4593 32.4312H86.1995C86.3716 32.4312 86.5365 32.3516 86.6582 32.2101C86.7798 32.0685 86.8481 31.8766 86.8481 31.6764V20.3485C86.8481 20.1483 86.7798 19.9564 86.6582 19.8148C86.5365 19.6733 86.3716 19.5937 86.1995 19.5937H76.4593C76.2882 19.5954 76.1246 19.6756 76.0041 19.817C75.8836 19.9584 75.816 20.1494 75.816 20.3485Z" fill="#65B43B"/>
<path d="M85.2638 0.748897V12.0829C85.2638 12.2815 85.3315 12.4719 85.4522 12.6123C85.5728 12.7527 85.7364 12.8315 85.9071 12.8315H95.6472C95.8184 12.8315 95.9826 12.7529 96.1041 12.6126C96.2255 12.4724 96.2945 12.282 96.2959 12.0829V0.748897C96.2945 0.549791 96.2255 0.359404 96.1041 0.219191C95.9826 0.0789776 95.8184 0.000323296 95.6472 0.000329971H85.9071C85.7364 0.000329971 85.5728 0.0791798 85.4522 0.219568C85.3315 0.359956 85.2638 0.550358 85.2638 0.748897Z" fill="#65B43B"/>
<path d="M261.55 17.2856H276.325V0.340279H261.55V17.2856Z" fill="#65B43B"/>
<path d="M246.774 54.728H261.55V17.2861H246.774V54.728Z" fill="#65B43B"/>
<path d="M326.334 44.4702H369V0.334286H326.334V44.4702Z" fill="#65B43B"/>
<path d="M346.048 87.0225H369V30.6121H346.048V87.0225Z" fill="#65B43B"/>
</svg>
