<svg width="83" height="351" viewBox="0 0 83 351" fill="none" xmlns="http://www.w3.org/2000/svg">
<path d="M32.2777 141.728L20.0473 141.728L20.0473 131.153L44.5022 131.153L44.5022 152.302L32.2777 152.302L32.2777 141.728Z" fill="#193051"/>
<path d="M8.31749 300.349C7.33285 300.349 6.37033 300.601 5.55163 301.074C4.73293 301.548 4.09482 302.22 3.71802 303.007C3.34122 303.794 3.24263 304.66 3.43473 305.495C3.62682 306.331 4.10097 307.098 4.79722 307.7C5.49346 308.303 6.38053 308.713 7.34625 308.879C8.31196 309.045 9.31297 308.96 10.2227 308.634C11.1323 308.308 11.9099 307.756 12.4569 307.048C13.0039 306.34 13.2959 305.507 13.2959 304.655C13.2967 304.089 13.1684 303.529 12.9185 303.006C12.6686 302.484 12.3019 302.009 11.8395 301.609C11.377 301.208 10.8279 300.891 10.2235 300.675C9.61919 300.459 8.97148 300.348 8.31749 300.349Z" fill="#193051"/>
<path d="M25.4161 302.578C24.4317 302.578 23.4694 302.83 22.6509 303.303C21.8323 303.776 21.1942 304.448 20.8172 305.235C20.4402 306.022 20.3413 306.887 20.5329 307.723C20.7246 308.558 21.1981 309.325 21.8938 309.928C22.5894 310.53 23.476 310.941 24.4413 311.107C25.4066 311.274 26.4074 311.19 27.3172 310.864C28.227 310.539 29.005 309.988 29.5527 309.28C30.1004 308.573 30.3934 307.741 30.3945 306.889C30.3953 306.323 30.2671 305.763 30.0172 305.24C29.7674 304.717 29.4008 304.241 28.9384 303.841C28.4761 303.44 27.927 303.123 27.3226 302.906C26.7182 302.689 26.0704 302.578 25.4161 302.578Z" fill="#193051"/>
<path d="M6.16643 317.061C5.43569 317.062 4.7217 317.25 4.11467 317.602C3.50765 317.954 3.03483 318.454 2.75599 319.038C2.47715 319.622 2.40479 320.265 2.54806 320.885C2.69132 321.505 3.04378 322.074 3.56089 322.521C4.07801 322.967 4.73658 323.271 5.45336 323.394C6.17014 323.517 6.91298 323.454 7.58798 323.211C8.26298 322.969 8.83986 322.56 9.24572 322.034C9.65157 321.508 9.86816 320.89 9.86816 320.258C9.86816 319.838 9.7724 319.422 9.58629 319.034C9.40019 318.645 9.12741 318.293 8.7836 317.996C8.43978 317.699 8.03165 317.463 7.58257 317.303C7.13349 317.143 6.65227 317.06 6.16643 317.061Z" fill="#193051"/>
<path d="M20.4139 326.31C19.683 326.31 18.9684 326.498 18.3606 326.849C17.7528 327.2 17.2791 327.699 16.9994 328.284C16.7196 328.868 16.6464 329.511 16.789 330.131C16.9316 330.751 17.2836 331.321 17.8005 331.768C18.3174 332.215 18.976 332.52 19.6929 332.643C20.4098 332.766 21.153 332.703 21.8283 332.461C22.5037 332.219 23.0809 331.809 23.487 331.283C23.8931 330.758 24.1099 330.14 24.1099 329.507C24.1099 328.659 23.7205 327.846 23.0274 327.246C22.3342 326.647 21.3942 326.31 20.4139 326.31Z" fill="#193051"/>
<path d="M7.82201 332.543C7.25731 332.543 6.70527 332.688 6.23565 332.959C5.76603 333.23 5.3999 333.616 5.18353 334.067C4.96716 334.518 4.91026 335.015 5.02 335.494C5.12975 335.973 5.40121 336.414 5.80011 336.759C6.19901 337.105 6.70744 337.341 7.26116 337.437C7.81487 337.533 8.38905 337.485 8.9111 337.298C9.43315 337.112 9.87967 336.796 10.1942 336.39C10.5088 335.985 10.6773 335.508 10.6785 335.019C10.6792 334.694 10.6059 334.372 10.4627 334.072C10.3195 333.771 10.1092 333.498 9.84388 333.268C9.57856 333.039 9.26342 332.856 8.91647 332.732C8.56953 332.607 8.19762 332.543 7.82201 332.543Z" fill="#193051"/>
<path d="M7.82192 346.481C7.40199 346.481 6.9915 346.589 6.64242 346.791C6.29334 346.993 6.02136 347.28 5.86093 347.616C5.7005 347.951 5.65881 348.321 5.74116 348.677C5.82351 349.033 6.0262 349.36 6.32355 349.617C6.62089 349.873 6.99953 350.048 7.41153 350.118C7.82353 350.188 8.25036 350.151 8.638 350.011C9.02563 349.872 9.35661 349.636 9.58907 349.333C9.82153 349.031 9.94499 348.675 9.94384 348.312C9.9423 347.826 9.71806 347.36 9.32029 347.017C8.92251 346.674 8.38369 346.481 7.82192 346.481Z" fill="#193051"/>
<path d="M20.5482 345.009C20.2111 345.008 19.8811 345.094 19.6003 345.255C19.3195 345.417 19.1004 345.647 18.9709 345.916C18.8413 346.185 18.8071 346.482 18.8726 346.768C18.9381 347.054 19.1003 347.317 19.3387 347.523C19.5772 347.729 19.881 347.87 20.2117 347.926C20.5425 347.983 20.8852 347.953 21.1965 347.841C21.5078 347.729 21.7736 347.54 21.9602 347.297C22.1468 347.054 22.2458 346.768 22.2446 346.477C22.2446 346.088 22.0659 345.714 21.7478 345.439C21.4296 345.164 20.9981 345.009 20.5482 345.009Z" fill="#193051"/>
<path d="M27.2173 317.716C26.7479 317.711 26.2875 317.828 25.8948 318.05C25.5021 318.273 25.195 318.591 25.0127 318.966C24.8304 319.34 24.7812 319.752 24.8714 320.151C24.9615 320.549 25.187 320.916 25.5189 321.203C25.8508 321.49 26.2742 321.685 26.7349 321.763C27.1955 321.841 27.6726 321.798 28.1052 321.641C28.5378 321.483 28.9062 321.217 29.1634 320.878C29.4206 320.538 29.5549 320.14 29.5491 319.734C29.5491 319.199 29.3035 318.686 28.8662 318.307C28.4289 317.929 27.8358 317.716 27.2173 317.716Z" fill="#193051"/>
<path d="M32.3474 253.278L32.3474 243.732L21.3179 243.732L21.3179 253.278L32.3474 253.278Z" fill="#193051"/>
<path d="M33.4841 208.577L33.4841 197.069L20.1811 197.069L20.1811 208.577L33.4841 208.577Z" fill="#193051"/>
<path d="M21.9297 227.841L21.9297 217.307L9.74598 217.307L9.74598 227.841L21.9297 227.841Z" fill="#193051"/>
<path d="M13.9258 131.319L13.9258 119.902L1.03087 119.902L1.03087 131.319L13.9258 131.319Z" fill="#193051"/>
<path d="M18.0703 194.729L18.0703 183.862L5.50767 183.862L5.50767 194.729L18.0703 194.729Z" fill="#193051"/>
<path d="M12.9812 169.272L12.9812 145.037L1.0365 145.037L1.0365 169.272L12.9812 169.272Z" fill="#193051"/>
<path d="M57.9282 67.839L38.6383 67.839L38.6383 83.7087L20.2986 83.7087L20.2986 51.9692L57.9282 51.9692L57.9282 67.839Z" fill="#193051"/>
<path d="M10.1304 210.736L10.1304 200.201L1.03049 200.201L1.03049 210.736L10.1304 210.736Z" fill="#193051"/>
<path d="M33.7349 177.376L33.7349 161.168L21.557 161.168L21.557 177.376L33.7349 177.376Z" fill="#193051"/>
<path d="M12.5146 250.398L12.5146 234.19L1.03631 234.19L1.03631 250.398L12.5146 250.398Z" fill="#193051"/>
<path d="M8.11936 292.955L17.0094 292.955C17.1939 292.954 17.3704 292.89 17.5003 292.776C17.6302 292.663 17.7031 292.51 17.7031 292.35L17.7031 284.665C17.7031 284.506 17.63 284.353 17.4999 284.241C17.3698 284.128 17.1934 284.065 17.0094 284.065L8.11936 284.065C7.93538 284.065 7.75894 284.128 7.62885 284.241C7.49875 284.353 7.42565 284.506 7.42565 284.665L7.42565 292.35C7.42488 292.429 7.44226 292.508 7.47678 292.581C7.51129 292.655 7.56229 292.722 7.62678 292.778C7.69128 292.834 7.76799 292.879 7.85254 292.909C7.93709 292.94 8.02777 292.955 8.11936 292.955Z" fill="#193051"/>
<path d="M19.8896 278.24L30.5635 278.24C30.6566 278.24 30.7489 278.225 30.8352 278.195C30.9214 278.164 30.9999 278.12 31.066 278.063C31.1321 278.006 31.1846 277.939 31.2204 277.864C31.2562 277.79 31.2747 277.71 31.2747 277.63L31.2747 268.391C31.2747 268.228 31.1997 268.071 31.0664 267.956C30.933 267.841 30.7521 267.776 30.5635 267.776L19.8896 267.776C19.701 267.776 19.5201 267.841 19.3867 267.956C19.2533 268.071 19.1784 268.228 19.1784 268.391L19.1784 277.63C19.1799 277.792 19.2555 277.947 19.3887 278.061C19.522 278.176 19.702 278.24 19.8896 278.24Z" fill="#193051"/>
<path d="M1.42107 269.279L12.1008 269.279C12.2878 269.279 12.4673 269.214 12.5995 269.1C12.7318 268.986 12.8062 268.83 12.8062 268.669L12.8062 259.43C12.8062 259.268 12.732 259.112 12.5999 258.997C12.4678 258.882 12.2884 258.816 12.1008 258.815L1.42107 258.815C1.23346 258.816 1.05406 258.882 0.921941 258.997C0.789823 259.112 0.71571 259.268 0.715715 259.43L0.715715 268.669C0.715715 268.83 0.790013 268.986 0.922297 269.1C1.05458 269.214 1.23399 269.279 1.42107 269.279Z" fill="#193051"/>
<path d="M17.0037 102.07L17.0037 88.0562L1.03659 88.0562L1.03659 102.07L17.0037 102.07Z" fill="#193051"/>
<path d="M52.2849 116.085L52.2849 102.071L17.0046 102.071L17.0046 116.085L52.2849 116.085Z" fill="#193051"/>
<path d="M42.6194 40.6224L42.6194 0.152832L1.03048 0.152832L1.03048 40.6224L42.6194 40.6224Z" fill="#193051"/>
<path d="M82.7158 21.9232L82.7158 0.152832L29.5608 0.152832L29.5608 21.9232L82.7158 21.9232Z" fill="#193051"/>
</svg>
