<svg width="570" height="148" viewBox="0 0 570 148" fill="none" xmlns="http://www.w3.org/2000/svg">
<rect y="84" width="570" height="64" fill="#EEEEEF"/>
<path d="M420.739 53.6327V66.6124H431.888V40.6592H409.59V53.6327H420.739Z" fill="#EEEEEF"/>
<path d="M253.508 79.06C253.508 80.105 253.241 81.1265 252.742 81.9954C252.243 82.8642 251.534 83.5414 250.705 83.9413C249.875 84.3412 248.962 84.4458 248.081 84.242C247.201 84.0381 246.392 83.5349 245.757 82.796C245.122 82.0571 244.689 81.1157 244.514 80.0908C244.339 79.0659 244.429 78.0036 244.772 77.0381C245.116 76.0727 245.698 75.2476 246.445 74.667C247.191 74.0865 248.069 73.7766 248.967 73.7766C249.564 73.7758 250.154 73.9119 250.705 74.1771C251.257 74.4423 251.758 74.8315 252.179 75.3223C252.601 75.813 252.935 76.3958 253.163 77.0372C253.391 77.6786 253.508 78.366 253.508 79.06Z" fill="#EEEEEF"/>
<path d="M251.158 60.9143C251.158 61.959 250.892 62.9803 250.393 63.849C249.894 64.7177 249.185 65.3949 248.356 65.795C247.527 66.195 246.614 66.3 245.733 66.0967C244.853 65.8933 244.044 65.3907 243.409 64.6524C242.773 63.9142 242.341 62.9733 242.165 61.9488C241.989 60.9244 242.078 59.8622 242.421 58.8967C242.764 57.9312 243.345 57.1056 244.091 56.5243C244.837 55.943 245.714 55.6321 246.612 55.6309C247.209 55.63 247.8 55.7661 248.351 56.0313C248.903 56.2964 249.404 56.6855 249.826 57.1762C250.248 57.6669 250.583 58.2496 250.812 58.891C251.04 59.5324 251.158 60.22 251.158 60.9143" fill="#EEEEEF"/>
<path d="M235.888 81.3431C235.887 82.1186 235.689 82.8763 235.318 83.5206C234.946 84.1648 234.42 84.6666 233.804 84.9625C233.188 85.2584 232.51 85.3352 231.857 85.1832C231.203 85.0311 230.603 84.6571 230.132 84.1083C229.661 83.5595 229.341 82.8605 229.211 82.0998C229.081 81.3392 229.148 80.5508 229.404 79.8344C229.659 79.1181 230.091 78.5059 230.645 78.0751C231.199 77.6444 231.851 77.4146 232.517 77.4146C232.96 77.4146 233.399 77.5162 233.809 77.7137C234.218 77.9112 234.59 78.2007 234.903 78.5656C235.216 78.9304 235.464 79.3636 235.633 79.8402C235.802 80.3168 235.889 80.8275 235.888 81.3431" fill="#EEEEEF"/>
<path d="M226.137 66.2229C226.137 66.9987 225.94 67.757 225.569 68.402C225.199 69.0471 224.672 69.5498 224.056 69.8467C223.44 70.1436 222.763 70.2213 222.109 70.0699C221.455 69.9186 220.854 69.545 220.383 68.9964C219.912 68.4479 219.59 67.749 219.46 66.9881C219.33 66.2273 219.397 65.4386 219.652 64.7219C219.907 64.0052 220.339 63.3926 220.894 62.9616C221.448 62.5306 222.1 62.3005 222.766 62.3005C223.66 62.3005 224.518 62.7138 225.15 63.4494C225.782 64.185 226.137 65.1826 226.137 66.2229" fill="#EEEEEF"/>
<path d="M219.566 79.5862C219.566 80.1855 219.413 80.7713 219.127 81.2697C218.841 81.7681 218.435 82.1567 217.959 82.3863C217.483 82.6159 216.96 82.6763 216.454 82.5598C215.949 82.4434 215.485 82.1553 215.12 81.7319C214.756 81.3086 214.507 80.769 214.406 80.1814C214.305 79.5937 214.356 78.9844 214.552 78.4303C214.749 77.8763 215.082 77.4024 215.51 77.0686C215.937 76.7347 216.44 76.5559 216.955 76.5547C217.298 76.5539 217.637 76.6317 217.954 76.7837C218.271 76.9357 218.559 77.1588 218.801 77.4404C219.043 77.722 219.236 78.0564 219.367 78.4246C219.498 78.7928 219.566 79.1875 219.566 79.5862" fill="#EEEEEF"/>
<path d="M204.871 79.5859C204.871 80.0316 204.757 80.4672 204.544 80.8377C204.331 81.2082 204.029 81.4968 203.675 81.6671C203.321 81.8373 202.931 81.8816 202.556 81.7942C202.18 81.7068 201.835 81.4917 201.565 81.1761C201.295 80.8605 201.111 80.4587 201.037 80.0215C200.963 79.5842 201.002 79.1312 201.149 78.7198C201.296 78.3085 201.545 77.9572 201.864 77.7105C202.183 77.4638 202.558 77.3328 202.941 77.334C203.453 77.3356 203.944 77.5736 204.306 77.9957C204.667 78.4179 204.871 78.9897 204.871 79.5859Z" fill="#EEEEEF"/>
<path d="M206.423 66.0804C206.424 66.4382 206.334 66.7883 206.163 67.0864C205.993 67.3844 205.751 67.6169 205.467 67.7544C205.183 67.8919 204.87 67.9282 204.569 67.8586C204.267 67.7891 203.99 67.617 203.773 67.3639C203.555 67.1109 203.407 66.7885 203.347 66.4375C203.288 66.0865 203.319 65.7227 203.437 65.3924C203.555 65.062 203.755 64.7799 204.011 64.5819C204.267 64.3839 204.568 64.2788 204.876 64.28C205.286 64.28 205.68 64.4697 205.97 64.8073C206.26 65.145 206.423 65.6029 206.423 66.0804" fill="#EEEEEF"/>
<path d="M235.197 59.0027C235.202 59.5008 235.08 59.9895 234.845 60.4063C234.61 60.823 234.274 61.1489 233.88 61.3424C233.485 61.5359 233.05 61.5881 232.63 61.4924C232.21 61.3967 231.824 61.1574 231.521 60.8052C231.218 60.4529 231.013 60.0036 230.931 59.5147C230.848 59.0258 230.893 58.5195 231.059 58.0604C231.226 57.6013 231.506 57.2103 231.864 56.9374C232.222 56.6644 232.642 56.5219 233.07 56.528C233.634 56.528 234.175 56.7888 234.574 57.2529C234.973 57.7169 235.197 58.3464 235.197 59.0027Z" fill="#EEEEEF"/>
<path d="M303.134 53.5586H313.198V65.2638H303.134V53.5586Z" fill="#EEEEEF"/>
<path d="M350.261 52.3521H362.394V66.4701H350.261V52.3521Z" fill="#EEEEEF"/>
<path d="M329.951 64.6143H341.058V77.5444H329.951V64.6143Z" fill="#EEEEEF"/>
<path d="M431.713 73.1084H443.75V86.7934H431.713V73.1084Z" fill="#EEEEEF"/>
<path d="M364.86 68.71H376.318V82.0423H364.86V68.71Z" fill="#EEEEEF"/>
<path d="M391.699 74.1106H417.251V86.7871H391.699V74.1106Z" fill="#EEEEEF"/>
<path d="M498.639 26.4111V46.8829H481.907V66.3463H515.371V26.4111H498.639Z" fill="#EEEEEF"/>
<path d="M347.985 77.136H359.092V86.7934H347.985V77.136Z" fill="#EEEEEF"/>
<path d="M383.155 52.0862H400.243V65.0102H383.155V52.0862Z" fill="#EEEEEF"/>
<path d="M306.169 74.6057H323.257V86.7873H306.169V74.6057Z" fill="#EEEEEF"/>
<path d="M261.302 79.2706V69.8358C261.303 69.64 261.371 69.4528 261.491 69.3149C261.61 69.177 261.772 69.0996 261.94 69.0996H270.043C270.21 69.0996 270.371 69.1772 270.49 69.3152C270.609 69.4533 270.675 69.6406 270.675 69.8358V79.2706C270.675 79.4658 270.609 79.6531 270.49 79.7911C270.371 79.9292 270.21 80.0068 270.043 80.0068H261.94C261.856 80.0076 261.774 79.9891 261.696 79.9525C261.619 79.9159 261.548 79.8618 261.489 79.7933C261.43 79.7249 261.383 79.6435 261.351 79.5537C261.319 79.464 261.302 79.3678 261.302 79.2706" fill="#EEEEEF"/>
<path d="M276.816 66.7796V55.4518C276.815 55.353 276.831 55.255 276.863 55.1634C276.895 55.0719 276.943 54.9886 277.003 54.9185C277.062 54.8483 277.134 54.7926 277.212 54.7546C277.29 54.7166 277.374 54.697 277.459 54.697H287.2C287.372 54.697 287.537 54.7765 287.658 54.9181C287.78 55.0596 287.848 55.2516 287.848 55.4518V66.7796C287.848 66.9798 287.78 67.1718 287.658 67.3133C287.537 67.4549 287.372 67.5344 287.2 67.5344H277.459C277.288 67.5328 277.125 67.4525 277.004 67.3112C276.884 67.1698 276.816 66.9787 276.816 66.7796" fill="#EEEEEF"/>
<path d="M286.264 86.379V75.045C286.264 74.8465 286.332 74.6561 286.452 74.5157C286.573 74.3753 286.736 74.2964 286.907 74.2964H296.647C296.818 74.2964 296.983 74.3751 297.104 74.5153C297.226 74.6555 297.294 74.8459 297.296 75.045V86.379C297.294 86.5781 297.226 86.7685 297.104 86.9087C296.983 87.0489 296.818 87.1276 296.647 87.1276H286.907C286.736 87.1276 286.573 87.0487 286.452 86.9083C286.332 86.768 286.264 86.5776 286.264 86.379" fill="#EEEEEF"/>
<path d="M462.549 69.842H477.324V86.7874H462.549V69.842Z" fill="#EEEEEF"/>
<path d="M447.774 32.3999H462.549V69.8418H447.774V32.3999Z" fill="#EEEEEF"/>
<path d="M527.333 42.6575H570V86.7934H527.333V42.6575Z" fill="#EEEEEF"/>
<path d="M547.047 0.105469H570V56.5158H547.047V0.105469Z" fill="#EEEEEF"/>
</svg>
