<svg width="368" height="87" viewBox="0 0 368 87" fill="none" xmlns="http://www.w3.org/2000/svg">
<path d="M219.144 33.4039V20.4594H230.262V46.3423H208.025V33.4039H219.144Z" fill="#EC9D05"/>
<path d="M52.3655 8.04534C52.3655 7.0032 52.0999 5.98447 51.6024 5.11797C51.1048 4.25147 50.3976 3.5761 49.5702 3.17729C48.7428 2.77848 47.8323 2.67414 46.9539 2.87745C46.0756 3.08076 45.2687 3.5826 44.6354 4.3195C44.0022 5.0564 43.5709 5.99527 43.3962 7.01738C43.2215 8.03949 43.3111 9.09895 43.6539 10.0618C43.9966 11.0246 44.577 11.8475 45.3216 12.4265C46.0663 13.0054 46.9417 13.3144 47.8373 13.3144C48.4322 13.3153 49.0213 13.1796 49.571 12.915C50.1207 12.6505 50.6202 12.2624 51.0408 11.773C51.4614 11.2835 51.7949 10.7023 52.0222 10.0627C52.2496 9.42305 52.3662 8.73752 52.3655 8.04534Z" fill="#EC9D05"/>
<path d="M50.0217 26.142C50.0217 25.1001 49.7563 24.0816 49.259 23.2153C48.7616 22.3489 48.0547 21.6736 47.2276 21.2746C46.4005 20.8756 45.4904 20.7709 44.6121 20.9737C43.7339 21.1765 42.9271 21.6777 42.2936 22.414C41.6601 23.1503 41.2284 24.0886 41.0531 25.1103C40.8778 26.132 40.9667 27.1912 41.3086 28.1541C41.6505 29.1171 42.2301 29.9404 42.974 30.5201C43.718 31.0999 44.5929 31.4099 45.4883 31.4111C46.0834 31.4119 46.6728 31.2763 47.2228 31.0118C47.7727 30.7474 48.2726 30.3594 48.6936 29.87C49.1146 29.3807 49.4487 28.7995 49.6765 28.1598C49.9044 27.5202 50.0217 26.8345 50.0217 26.142Z" fill="#EC9D05"/>
<path d="M34.7937 5.76863C34.7926 4.99522 34.5946 4.23953 34.2246 3.59706C33.8545 2.95459 33.3292 2.45417 32.7148 2.15904C32.1005 1.86392 31.4247 1.78734 30.773 1.93897C30.1212 2.0906 29.5227 2.46364 29.0531 3.01095C28.5835 3.55826 28.2639 4.25529 28.1346 5.01392C28.0053 5.77255 28.0722 6.55877 28.3268 7.27319C28.5814 7.98761 29.0123 8.59817 29.565 9.02773C30.1177 9.45728 30.7674 9.68652 31.432 9.68652C31.8739 9.68652 32.3115 9.58516 32.7197 9.38819C33.1279 9.19123 33.4987 8.90252 33.811 8.53862C34.1232 8.17473 34.3707 7.74277 34.5393 7.26747C34.708 6.79216 34.7944 6.28285 34.7937 5.76863Z" fill="#EC9D05"/>
<path d="M25.0691 20.848C25.0691 20.0744 24.8719 19.3181 24.5026 18.6748C24.1332 18.0315 23.6082 17.5301 22.9939 17.2341C22.3796 16.938 21.7037 16.8605 21.0516 17.0114C20.3995 17.1624 19.8005 17.5349 19.3304 18.082C18.8603 18.6291 18.5401 19.3261 18.4104 20.0849C18.2807 20.8437 18.3473 21.6302 18.6017 22.345C18.8561 23.0598 19.287 23.6707 19.8398 24.1005C20.3926 24.5303 21.0426 24.7598 21.7075 24.7598C22.599 24.7598 23.4541 24.3476 24.0845 23.614C24.7149 22.8805 25.0691 21.8855 25.0691 20.848Z" fill="#EC9D05"/>
<path d="M18.5156 7.52069C18.5156 6.92301 18.3634 6.33874 18.0781 5.8417C17.7929 5.34466 17.3874 4.95715 16.913 4.72814C16.4385 4.49914 15.9164 4.43891 15.4126 4.55506C14.9087 4.67122 14.4458 4.95853 14.0822 5.38072C13.7187 5.80292 13.4708 6.34104 13.3699 6.92709C13.2691 7.51314 13.3198 8.12084 13.5156 8.67338C13.7115 9.22591 14.0436 9.69851 14.4702 10.0314C14.8968 10.3644 15.3986 10.5427 15.9122 10.5439C16.2538 10.5448 16.5922 10.4671 16.9081 10.3156C17.2239 10.164 17.511 9.94144 17.7528 9.66063C17.9946 9.37981 18.1864 9.04627 18.3173 8.67906C18.4482 8.31186 18.5156 7.91823 18.5156 7.52069Z" fill="#EC9D05"/>
<path d="M3.86011 7.52077C3.86011 7.07631 3.74679 6.64185 3.53447 6.27239C3.32216 5.90293 3.02042 5.61507 2.66745 5.44527C2.31447 5.27547 1.92612 5.23135 1.55159 5.31851C1.17705 5.40567 0.833166 5.62019 0.563459 5.9349C0.293751 6.24961 0.110369 6.65036 0.0364985 7.08641C-0.0373724 7.52247 0.00158 7.97423 0.148473 8.3845C0.295366 8.79476 0.543591 9.14507 0.86168 9.3911C1.17977 9.63714 1.55343 9.76781 1.93537 9.76659C2.44633 9.76496 2.9359 9.52763 3.29671 9.10663C3.65751 8.68563 3.86011 8.11534 3.86011 7.52077Z" fill="#EC9D05"/>
<path d="M5.40819 20.9897C5.40924 20.6328 5.31921 20.2837 5.14949 19.9864C4.97977 19.6892 4.73801 19.4573 4.45489 19.3202C4.17176 19.1831 3.86002 19.1469 3.55919 19.2162C3.25836 19.2856 2.98202 19.4573 2.76517 19.7096C2.54832 19.9619 2.40073 20.2835 2.34116 20.6336C2.28159 20.9836 2.3127 21.3464 2.43054 21.6758C2.54838 22.0053 2.74765 22.2866 3.00307 22.4841C3.25849 22.6816 3.55857 22.7864 3.86524 22.7851C4.27446 22.7851 4.66692 22.596 4.95628 22.2593C5.24564 21.9226 5.40819 21.4659 5.40819 20.9897Z" fill="#EC9D05"/>
<path d="M34.1043 28.0484C34.1096 27.5516 33.9874 27.0643 33.7535 26.6487C33.5196 26.2331 33.1844 25.908 32.791 25.7151C32.3975 25.5221 31.9636 25.47 31.5446 25.5655C31.1256 25.6609 30.7405 25.8995 30.4386 26.2508C30.1367 26.6022 29.9316 27.0502 29.8496 27.5378C29.7676 28.0254 29.8124 28.5303 29.9782 28.9882C30.144 29.446 30.4233 29.8359 30.7805 30.1082C31.1377 30.3804 31.5565 30.5225 31.9834 30.5164C32.5459 30.5164 33.0853 30.2564 33.4831 29.7935C33.8808 29.3307 34.1043 28.703 34.1043 28.0484Z" fill="#EC9D05"/>
<path d="M101.857 33.478H111.894V21.8045H101.857V33.478Z" fill="#EC9D05"/>
<path d="M148.856 34.6807H160.956V20.6009H148.856V34.6807Z" fill="#EC9D05"/>
<path d="M128.602 22.4521H139.678V9.55699H128.602V22.4521Z" fill="#EC9D05"/>
<path d="M230.087 13.981H242.092V0.333063H230.087V13.981Z" fill="#EC9D05"/>
<path d="M163.416 18.3677H174.843V5.07145H163.416V18.3677Z" fill="#EC9D05"/>
<path d="M190.182 12.9814H215.665V0.339254H190.182V12.9814Z" fill="#EC9D05"/>
<path d="M296.833 60.5518V40.1354H280.146V20.7248H313.519V60.5518H296.833Z" fill="#EC9D05"/>
<path d="M146.587 9.96387H157.664V0.332607H146.587V9.96387Z" fill="#EC9D05"/>
<path d="M181.662 34.9463H198.703V22.0573H181.662V34.9463Z" fill="#EC9D05"/>
<path d="M104.884 12.4873H121.926V0.3387H104.884V12.4873Z" fill="#EC9D05"/>
<path d="M60.1386 7.83512V17.2443C60.14 17.4396 60.2077 17.6263 60.3269 17.7638C60.446 17.9014 60.6071 17.9785 60.7749 17.9785H68.8556C69.0229 17.9785 69.1834 17.9012 69.3017 17.7635C69.4201 17.6258 69.4866 17.439 69.4866 17.2443V7.83512C69.4866 7.64039 69.4201 7.45366 69.3017 7.31596C69.1834 7.17827 69.0229 7.1009 68.8556 7.1009H60.7749C60.6916 7.10008 60.609 7.11848 60.5318 7.15501C60.4546 7.19154 60.3845 7.24552 60.3253 7.31378C60.2661 7.38204 60.2192 7.46324 60.1872 7.55272C60.1551 7.64221 60.1386 7.73818 60.1386 7.83512Z" fill="#EC9D05"/>
<path d="M75.6105 20.2929V31.59C75.6098 31.6886 75.6259 31.7863 75.6579 31.8776C75.6898 31.9689 75.7369 32.0519 75.7966 32.1219C75.8562 32.1919 75.9272 32.2475 76.0054 32.2854C76.0836 32.3233 76.1674 32.3428 76.2521 32.3428H85.9659C86.1375 32.3428 86.302 32.2635 86.4233 32.1223C86.5447 31.9811 86.6128 31.7897 86.6128 31.59V20.2929C86.6128 20.0933 86.5447 19.9018 86.4233 19.7606C86.302 19.6195 86.1375 19.5402 85.9659 19.5402H76.2521C76.0815 19.5418 75.9183 19.6218 75.7981 19.7628C75.6779 19.9038 75.6105 20.0943 75.6105 20.2929Z" fill="#EC9D05"/>
<path d="M85.0327 0.745996V12.0493C85.0327 12.2473 85.1002 12.4372 85.2206 12.5772C85.3409 12.7172 85.5041 12.7959 85.6742 12.7959H95.388C95.5587 12.7959 95.7224 12.7174 95.8436 12.5776C95.9647 12.4378 96.0335 12.2479 96.0349 12.0493V0.745996C96.0335 0.547431 95.9647 0.357559 95.8436 0.217726C95.7224 0.0778933 95.5587 -0.000548363 95.388 -0.000541687H85.6742C85.5041 -0.000541687 85.3409 0.0780945 85.2206 0.218102C85.1002 0.35811 85.0327 0.547996 85.0327 0.745996Z" fill="#EC9D05"/>
<path d="M260.841 17.2383H275.576V0.338839H260.841V17.2383Z" fill="#EC9D05"/>
<path d="M246.106 54.5791H260.841V17.2386H246.106V54.5791Z" fill="#EC9D05"/>
<path d="M325.449 44.3496H368V0.333294H325.449V44.3496Z" fill="#EC9D05"/>
<path d="M345.11 86.7861H368V30.5287H345.11V86.7861Z" fill="#EC9D05"/>
</svg>
