<svg width="50" height="45" viewBox="0 0 50 45" fill="none" xmlns="http://www.w3.org/2000/svg">
<path d="M26.6361 32.3954C26.2001 32.1334 25.7526 31.87 25.3051 31.6117C25.4103 30.7151 25.4105 29.808 25.3056 28.9132C25.7548 28.654 26.2021 28.3907 26.636 28.1298C27.3666 27.6908 27.6712 26.7645 27.3442 25.975C27.3442 25.975 27.3442 25.975 27.3442 25.9749L26.3907 23.6731C26.0637 22.8838 25.1938 22.4439 24.3663 22.6501C23.8746 22.7724 23.3721 22.9026 22.8715 23.0369C22.3125 22.3296 21.6711 21.6884 20.9629 21.1291C21.0972 20.6283 21.2274 20.1256 21.3499 19.6337C21.556 18.8066 21.1162 17.9364 20.327 17.6094L18.0251 16.656C17.2359 16.3289 16.3093 16.6332 15.8701 17.364C15.6086 17.7993 15.3451 18.2468 15.0865 18.695C14.1901 18.5898 13.2833 18.5896 12.388 18.6945C12.1286 18.2448 11.8653 17.7975 11.6047 17.364C11.1654 16.6334 10.2391 16.329 9.44972 16.656L7.14789 17.6094C6.35879 17.9363 5.9188 18.8066 6.12495 19.6337C6.24766 20.1266 6.37775 20.6291 6.5118 21.1286C5.80459 21.6874 5.16324 22.329 4.60402 23.0372C4.10215 22.9025 3.59947 22.7724 3.10853 22.6501C2.28121 22.4438 1.41111 22.884 1.08412 23.6732L0.13084 25.9749C-0.195992 26.7643 0.108484 27.6906 0.838935 28.1297C1.27431 28.3913 1.72183 28.6547 2.17 28.9133C2.06486 29.8097 2.06462 30.7165 2.16951 31.6119C1.72094 31.8707 1.27366 32.134 0.838773 32.3953C0.108322 32.8344 -0.196154 33.7607 0.130759 34.5501L1.08428 36.852C1.4112 37.6412 2.28105 38.0812 3.1087 37.875C3.59988 37.7527 4.1024 37.6226 4.60338 37.4881C5.16235 38.1954 5.80378 38.8365 6.51196 39.3959C6.3775 39.8972 6.24734 40.3999 6.12495 40.8913C5.9188 41.7183 6.35863 42.5887 7.14789 42.9156L9.4498 43.8691C9.66364 43.9576 9.88744 43.9999 10.1089 43.9999C10.7052 43.9999 11.2845 43.6938 11.605 43.1612C11.8646 42.7292 12.128 42.2818 12.3886 41.8302C13.2849 41.9353 14.192 41.9354 15.0872 41.8307C15.3447 42.2771 15.608 42.7244 15.8705 43.1613C16.3096 43.8919 17.2359 44.1962 18.0254 43.8693L20.3273 42.9158C21.1164 42.5889 21.5564 41.7186 21.3502 40.8915C21.2285 40.4028 21.0984 39.9003 20.9634 39.3967C21.6704 38.8378 22.3118 38.1963 22.8712 37.4881C23.3716 37.6224 23.8743 37.7524 24.3665 37.8751C25.1936 38.0814 26.0639 37.6415 26.3909 36.8521L27.3443 34.5501C27.6711 33.7608 27.3666 32.8344 26.6361 32.3954ZM24.7142 36.0485C24.2414 35.9301 23.7595 35.8049 23.2803 35.6758C22.6018 35.4933 21.8859 35.7318 21.4562 36.2839C20.9625 36.9181 20.391 37.4896 19.7579 37.9827C19.2065 38.4121 18.9683 39.1278 19.1509 39.8059C19.2808 40.2881 19.4059 40.7698 19.5236 41.2392L17.4077 42.1156C17.1561 41.6957 16.9041 41.2666 16.6578 40.8386C16.3073 40.23 15.6327 39.8927 14.9393 39.9786C14.143 40.0775 13.3347 40.0774 12.5373 39.9781C11.842 39.8918 11.168 40.2291 10.8176 40.8379C10.5682 41.2707 10.3162 41.7 10.0673 42.1155L7.9514 41.2391C8.06974 40.7671 8.19496 40.2852 8.32424 39.8053C8.50689 39.1269 8.26819 38.4109 7.71618 37.9812C7.08195 37.4875 6.5105 36.9161 6.01738 36.283C5.58808 35.7315 4.87237 35.4934 4.19409 35.676C3.71433 35.8051 3.23263 35.9304 2.7608 36.0486L1.88439 33.9328C2.30235 33.6822 2.73156 33.4302 3.16135 33.1828C3.77006 32.8323 4.10766 32.1579 4.02148 31.4644C3.92242 30.668 3.92266 29.8598 4.02172 29.0624C4.10823 28.3682 3.77087 27.6931 3.16183 27.3425C2.73221 27.0951 2.30292 26.8431 1.88431 26.592L2.76072 24.4763C3.23214 24.5944 3.71392 24.7197 4.19457 24.849C4.8727 25.0318 5.58873 24.793 6.01868 24.241C6.51237 23.6067 7.08382 23.0352 7.71682 22.5422C8.26827 22.1129 8.50649 21.3971 8.32383 20.7188C8.19504 20.2406 8.06982 19.759 7.95116 19.2856L10.067 18.4093C10.3168 18.8261 10.5689 19.2552 10.817 19.6862C11.1676 20.2949 11.8427 20.633 12.5355 20.5463C13.3314 20.4472 14.1396 20.4472 14.9377 20.5467C15.6322 20.6332 16.307 20.2954 16.6574 19.6867C16.9047 19.2571 17.1568 18.8278 17.4076 18.4093L19.5234 19.2856C19.405 19.7581 19.2798 20.2399 19.1506 20.7195C18.9679 21.3978 19.2066 22.1138 19.7587 22.5435C20.3928 23.0372 20.9643 23.6086 21.4575 24.2417C21.8868 24.7931 22.6022 25.0313 23.2808 24.8487C23.7603 24.7196 24.2419 24.5944 24.714 24.476L25.5904 26.5918C25.173 26.842 24.7438 27.094 24.3134 27.3419C23.7047 27.6923 23.367 28.3668 23.4533 29.0603C23.5523 29.8563 23.5522 30.6646 23.4529 31.4625C23.3665 32.1568 23.7041 32.8317 24.3128 33.1822C24.7418 33.4292 25.1711 33.6813 25.5904 33.9325L24.7142 36.0485Z" fill="#65B43B"/>
<path d="M19.5828 27.8415C19.5828 27.8415 19.5828 27.8415 19.5827 27.8414C18.2478 24.6185 14.54 23.0825 11.3166 24.4175C8.09382 25.7525 6.55775 29.4606 7.89278 32.6835C8.5394 34.2449 9.75552 35.4607 11.3167 36.1075C12.0973 36.4308 12.9175 36.5925 13.7377 36.5925C14.5579 36.5925 15.3781 36.4308 16.1588 36.1075C19.3816 34.7725 20.9176 31.0644 19.5828 27.8415ZM15.4484 34.3924C14.3453 34.8494 13.1304 34.8493 12.0271 34.3924C10.924 33.9355 10.0649 33.0763 9.60786 31.9732C8.66446 29.6959 9.74985 27.0758 12.0271 26.1325C12.5848 25.9015 13.1628 25.7922 13.7319 25.7922C15.487 25.7922 17.1554 26.8322 17.8678 28.5518C18.811 30.829 17.7256 33.4491 15.4484 34.3924Z" fill="#65B43B"/>
<path d="M42.6122 9.06845C42.2568 9.01526 41.8918 8.9636 41.5241 8.91455C41.3389 8.29849 41.0914 7.70121 40.7861 7.13394C41.0111 6.8397 41.2328 6.54492 41.4471 6.25536C41.9228 5.61199 41.854 4.69954 41.2872 4.13298L39.8669 2.71292C39.3001 2.146 38.3877 2.07727 37.7445 2.55317C37.4539 2.76817 37.1592 2.98981 36.8659 3.21397C36.2987 2.90868 35.7015 2.66126 35.0853 2.47591C35.0362 2.10827 34.9847 1.74323 34.9315 1.3879C34.8132 0.596741 34.1194 0 33.3178 0H31.3093C30.5077 0 29.8139 0.596741 29.6956 1.38781C29.6425 1.74296 29.5909 2.10809 29.5418 2.47582C28.9255 2.66117 28.3283 2.9086 27.7612 3.21388C27.468 2.98963 27.1731 2.7679 26.8827 2.55308C26.2393 2.07718 25.3268 2.14591 24.7602 2.71274L23.3401 4.13271C22.7732 4.69945 22.7043 5.61199 23.1802 6.25545C23.3943 6.54492 23.616 6.83979 23.8409 7.13394C23.5358 7.70112 23.2883 8.29831 23.103 8.91455C22.7354 8.96369 22.3703 9.01526 22.0149 9.06845C21.2237 9.18686 20.627 9.88054 20.627 10.6822V12.6907C20.627 13.4923 21.2235 14.186 22.0148 14.3044C22.3702 14.3576 22.7352 14.4093 23.1029 14.4583C23.2882 15.0745 23.5356 15.6717 23.8408 16.239C23.6161 16.5329 23.3944 16.8276 23.1799 17.1175C22.7042 17.7607 22.773 18.6734 23.3398 19.2398L24.76 20.6601C25.3268 21.227 26.2392 21.2956 26.8825 20.8198C27.173 20.605 27.4677 20.3832 27.761 20.1591C28.3283 20.4644 28.9256 20.7118 29.5417 20.8971C29.5906 21.2646 29.6423 21.6297 29.6955 21.9852C29.8139 22.7763 30.5077 23.3731 31.3093 23.3731H33.3178C34.1194 23.3731 34.8132 22.7765 34.9315 21.9851C34.9846 21.6297 35.0362 21.2646 35.0853 20.897C35.7014 20.7118 36.2986 20.4642 36.8659 20.1589C37.1591 20.3832 37.4539 20.6049 37.7444 20.8198C38.3876 21.2957 39.3002 21.227 39.8669 20.6602L41.2871 19.2401C41.8539 18.6734 41.9227 17.7608 41.4468 17.1174C41.2325 16.8276 41.0107 16.5327 40.7861 16.239C41.0912 15.6719 41.3388 15.0748 41.5241 14.4584C41.8917 14.4093 42.2568 14.3577 42.6121 14.3045C43.4034 14.1861 44.0001 13.4924 44.0001 12.6908V10.6823C44 9.88063 43.4034 9.18686 42.6122 9.06845ZM42.0439 12.4112C41.7212 12.458 41.392 12.5034 41.0616 12.5465C40.4082 12.6317 39.8732 13.0955 39.6991 13.7278C39.5323 14.3333 39.2902 14.9175 38.9796 15.4643C38.6551 16.0351 38.7052 16.7414 39.1071 17.2641C39.3097 17.5275 39.5106 17.7926 39.7062 18.0546L38.6816 19.0793C38.4188 18.8831 38.1537 18.6822 37.8908 18.4801C37.3685 18.078 36.662 18.0284 36.0911 18.3524C35.5442 18.6631 34.96 18.9052 34.3549 19.0721C33.7222 19.2464 33.2584 19.7813 33.1734 20.4346C33.1304 20.7649 33.085 21.0943 33.0381 21.417H31.5889C31.5421 21.0943 31.4968 20.765 31.4536 20.4349C31.3684 19.7814 30.9047 19.2465 30.2722 19.0722C29.6669 18.9054 29.0828 18.6633 28.5358 18.3526C27.9649 18.0283 27.2584 18.0781 26.7361 18.4801C26.4732 18.6823 26.2082 18.8831 25.9452 19.0793L24.9207 18.0546C25.1163 17.7923 25.3171 17.5274 25.52 17.2637C25.9216 16.7413 25.9717 16.0349 25.6473 15.4641C25.3367 14.9174 25.0946 14.333 24.9278 13.7277C24.7536 13.0952 24.2187 12.6316 23.5653 12.5463C23.2349 12.5032 22.9056 12.4579 22.5828 12.4109V10.9619C22.9056 10.9151 23.2348 10.8696 23.5652 10.8266C24.2186 10.7413 24.7536 10.2776 24.9277 9.64524C25.0945 9.03988 25.3366 8.45563 25.6472 7.90875C25.9717 7.33797 25.9216 6.63153 25.5199 6.10909C25.317 5.84531 25.1161 5.58027 24.9207 5.31847L25.9452 4.2938C26.208 4.48993 26.4731 4.69082 26.7359 4.89288C27.258 5.29493 27.9645 5.34506 28.5358 5.02064C29.0825 4.71005 29.6668 4.46792 30.272 4.30099C30.9047 4.12669 31.3685 3.59177 31.4535 2.93851C31.4966 2.60816 31.542 2.27888 31.5889 1.95616H33.038C33.0848 2.27879 33.1302 2.60807 33.1732 2.93824C33.2585 3.59177 33.7223 4.12669 34.3547 4.3009C34.9601 4.46774 35.5444 4.70996 36.0912 5.02055C36.6621 5.34497 37.3686 5.29457 37.8908 4.89297C38.1537 4.69082 38.4187 4.48993 38.6816 4.2938L39.7062 5.31847C39.5108 5.58036 39.3099 5.84549 39.107 6.10936C38.7053 6.63171 38.6553 7.33806 38.9795 7.90884C39.2901 8.4558 39.5322 9.04015 39.699 9.64533C39.8732 10.2778 40.4081 10.7415 41.0615 10.8268C41.3919 10.8699 41.7212 10.9153 42.0439 10.9622V12.4112Z" fill="#65B43B"/>
<path d="M32.3134 7.51765C30.0147 7.51765 28.1445 9.38775 28.1445 11.6865C28.1445 13.9853 30.0146 15.8554 32.3134 15.8554C34.6121 15.8554 36.4822 13.9853 36.4822 11.6865C36.4822 9.38775 34.6121 7.51765 32.3134 7.51765ZM32.3134 14.0022C31.0366 14.0022 29.9976 12.9633 29.9976 11.6864C29.9976 10.4094 31.0365 9.37068 32.3134 9.37068C33.5902 9.37068 34.629 10.4095 34.6291 11.6864C34.6291 12.9633 33.5902 14.0022 32.3134 14.0022Z" fill="#65B43B"/>
<path d="M46.4353 29.6706C46.1348 29.6791 45.8267 29.6902 45.5168 29.7039C45.2736 29.2239 44.9821 28.7686 44.6473 28.3464C44.7892 28.0711 44.9284 27.7958 45.0622 27.5258C45.3593 26.9261 45.1684 26.185 44.6184 25.8019L43.2402 24.8416C42.6901 24.4582 41.9287 24.5358 41.4692 25.0223C41.2616 25.242 41.0515 25.4678 40.843 25.6956C40.3311 25.5276 39.803 25.4117 39.2684 25.3498C39.1738 25.0543 39.0778 24.7613 38.9817 24.4766C38.7679 23.8426 38.1089 23.4533 37.4489 23.5712L35.7952 23.8667C35.1352 23.9846 34.6518 24.5779 34.6707 25.2467C34.6793 25.5469 34.6905 25.8551 34.7041 26.1651C34.224 26.4083 33.7686 26.6999 33.3466 27.0347C33.0723 26.8932 32.7969 26.754 32.5261 26.6198C31.9264 26.3226 31.1853 26.5134 30.8021 27.0635L29.8418 28.4415C29.4584 28.9915 29.5358 29.7529 30.0223 30.2127C30.2412 30.4196 30.4671 30.6297 30.6955 30.8388C30.5277 31.3507 30.4118 31.8788 30.3498 32.4134C30.0544 32.508 29.7614 32.6041 29.4767 32.7002C28.8426 32.9141 28.4533 33.573 28.5712 34.233L28.8666 35.8867C28.9845 36.5467 29.5778 37.0301 30.2467 37.0112C30.5471 37.0028 30.8553 36.9916 31.1652 36.9779C31.4084 37.458 31.7 37.9133 32.0347 38.3354C31.8929 38.6105 31.7537 38.8858 31.6197 39.156C31.3227 39.7555 31.5135 40.4968 32.0635 40.8799L33.4418 41.8403C33.9918 42.2237 34.7531 42.146 35.2128 41.6597C35.4204 41.44 35.6304 41.2141 35.8389 40.9864C36.351 41.1544 36.8791 41.2702 37.4136 41.3321C37.508 41.6276 37.6042 41.9206 37.7003 42.2054C37.9141 42.8394 38.5731 43.2286 39.2331 43.1107L40.8868 42.8153C41.5468 42.6974 42.0303 42.1042 42.0113 41.4352C42.0027 41.1347 41.9915 40.8266 41.9779 40.5167C42.4579 40.2736 42.9132 39.9819 43.3354 39.6471C43.6097 39.7886 43.8851 39.9278 44.1559 40.062C44.7554 40.3592 45.4967 40.1684 45.8799 39.6184L46.8404 38.2403C47.2237 37.6903 47.1462 36.9288 46.6597 36.4691C46.4406 36.262 46.2146 36.0518 45.9865 35.8431C46.1543 35.3312 46.2703 34.8032 46.3322 34.2685C46.6276 34.1739 46.9206 34.0778 47.2054 33.9817C47.8394 33.7678 48.2287 33.1089 48.1108 32.4489L47.8154 30.7952C47.6974 30.1352 47.1041 29.6517 46.4353 29.6706ZM46.4591 32.5064C46.2003 32.5924 45.9358 32.6783 45.6702 32.7623C45.1447 32.9286 44.7725 33.3891 44.7222 33.9353C44.6738 34.4584 44.5604 34.975 44.3851 35.4709C44.202 35.9886 44.3471 36.5628 44.7548 36.934C44.9604 37.1211 45.1648 37.3098 45.3644 37.4967L44.6715 38.4911C44.4263 38.3683 44.1785 38.2418 43.9323 38.1141C43.4431 37.8599 42.8541 37.9229 42.4317 38.2737C42.0272 38.6099 41.5817 38.8952 41.1081 39.1216C40.6128 39.3581 40.3096 39.8668 40.3357 40.4171C40.3489 40.6955 40.36 40.9733 40.3688 41.2459L39.1757 41.4591C39.0897 41.2003 39.0039 40.9358 38.9198 40.6704C38.7535 40.1449 38.293 39.7726 37.7466 39.7222C37.2238 39.6739 36.7073 39.5605 36.2111 39.3851C35.6934 39.2021 35.119 39.347 34.7482 39.7548C34.5614 39.96 34.3728 40.1643 34.1851 40.3644L33.1908 39.6715C33.3133 39.4268 33.4397 39.1791 33.5679 38.9322C33.8218 38.4429 33.7591 37.854 33.4081 37.4318C33.0719 37.0273 32.7866 36.5818 32.5602 36.108C32.3238 35.6128 31.8152 35.3097 31.2647 35.3356C30.9863 35.3487 30.7085 35.3599 30.4359 35.3687L30.2227 34.1756C30.4816 34.0896 30.746 34.0038 31.0116 33.9197C31.5371 33.7534 31.9093 33.2929 31.9597 32.7467C32.008 32.2237 32.1213 31.7071 32.2967 31.2111C32.4799 30.6934 32.3347 30.1192 31.9272 29.7481C31.7213 29.5608 31.5169 29.3721 31.3175 29.1853L32.0103 28.1909C32.2556 28.3137 32.5033 28.4402 32.7494 28.5679C33.2385 28.8221 33.8275 28.7595 34.2502 28.4083C34.6546 28.0722 35.1001 27.7869 35.5738 27.5604C36.0691 27.3239 36.3723 26.8152 36.3462 26.2649C36.3331 25.9865 36.3221 25.7087 36.3131 25.4361L37.5063 25.223C37.5923 25.4817 37.6781 25.7462 37.7621 26.0117C37.9284 26.5372 38.3889 26.9094 38.9353 26.9598C39.4582 27.0082 39.975 27.1216 40.4708 27.2969C40.9887 27.4801 41.5629 27.3347 41.9337 26.9272C42.1205 26.7221 42.3091 26.5177 42.4968 26.3176L43.4911 27.0105C43.3687 27.2549 43.2423 27.5027 43.114 27.7498C42.8601 28.239 42.9229 28.8279 43.2737 29.2502C43.6099 29.6548 43.8952 30.1003 44.1216 30.5741C44.3581 31.0692 44.8666 31.3723 45.4172 31.3464C45.6955 31.3333 45.9734 31.3222 46.246 31.3134L46.4591 32.5064Z" fill="#65B43B"/>
<path d="M37.7278 29.9086C35.8352 30.2467 34.5705 32.0615 34.9086 33.9541C35.2467 35.8469 37.0615 37.1115 38.9542 36.7734C40.8468 36.4353 42.1115 34.6205 41.7734 32.7278C41.4352 30.8351 39.6204 29.5704 37.7278 29.9086ZM38.6816 35.2476C37.6304 35.4354 36.6222 34.7328 36.4343 33.6815C36.2465 32.6301 36.9491 31.622 38.0003 31.4342C39.0516 31.2464 40.0597 31.949 40.2476 33.0003C40.4354 34.0516 39.7329 35.0598 38.6816 35.2476Z" fill="#65B43B"/>
</svg>
