<svg width="22" height="22" viewBox="0 0 22 22" fill="none" xmlns="http://www.w3.org/2000/svg">
<path d="M0.644529 15.168H3.13337L0.139946 11.401C-0.0356236 11.1801 -0.0470963 10.8706 0.111717 10.6374L2.21719 7.54364C2.3372 7.36729 2.5367 7.26172 2.75 7.26172H3.82422V6.14453H3.09375C2.73779 6.14453 2.44922 5.85595 2.44922 5.5V2.01953C2.44922 0.905953 3.35517 0 4.46875 0C5.58233 0 6.48828 0.905953 6.48828 2.01953V5.5C6.48828 5.85595 6.1997 6.14453 5.84375 6.14453H5.11328V7.26172H6.1875C6.40303 7.26172 6.60425 7.36944 6.72375 7.54871L8.78625 10.6425C8.94081 10.8743 8.92891 11.1791 8.75677 11.3982L5.79485 15.168H10.6992V11.9453C10.6992 10.8791 11.5666 10.0117 12.6328 10.0117H21.3555C21.7114 10.0117 22 10.3003 22 10.6562C22 11.0122 21.7114 11.3008 21.3555 11.3008H12.6328C12.2774 11.3008 11.9883 11.5899 11.9883 11.9453V15.8125C11.9883 16.1685 11.6997 16.457 11.3437 16.457H4.47051H4.46875H0.644529C0.288576 16.457 -1.90735e-06 16.1685 -1.90735e-06 15.8125C-1.90735e-06 15.4565 0.288576 15.168 0.644529 15.168ZM5.19922 2.01953C5.19922 1.61674 4.87154 1.28906 4.46875 1.28906C4.06596 1.28906 3.73828 1.61674 3.73828 2.01953V4.85547H5.19922V2.01953ZM5.84259 8.55078H5.11328V9.625C5.11328 9.98095 4.8247 10.2695 4.46875 10.2695C4.11279 10.2695 3.82422 9.98095 3.82422 9.625V8.55078H3.091L1.44431 10.9704L4.46591 14.7729L7.45473 10.969L5.84259 8.55078Z" fill="#EC9D05"/>
<path d="M19.9375 16.8008H14.4375C14.0815 16.8008 13.793 16.5122 13.793 16.1562V13.4062C13.793 13.0503 14.0815 12.7617 14.4375 12.7617H19.9375C20.2935 12.7617 20.582 13.0503 20.582 13.4062V16.1562C20.582 16.5122 20.2935 16.8008 19.9375 16.8008ZM19.293 14.0508H15.082V15.5117H19.293V14.0508Z" fill="#EC9D05"/>
<path d="M8.9375 17.918H14.4375C14.7935 17.918 15.082 18.2065 15.082 18.5625V21.3555C15.082 21.7114 14.7935 22 14.4375 22H8.9375C8.58155 22 8.29297 21.7114 8.29297 21.3555V18.5625C8.29297 18.2065 8.58155 17.918 8.9375 17.918ZM9.58203 20.7109H13.793V19.207H9.58203V20.7109Z" fill="#EC9D05"/>
<path d="M17.1875 17.918H19.9375C20.2935 17.918 20.582 18.2065 20.582 18.5625V21.3555C20.582 21.7114 20.2935 22 19.9375 22H17.1875C16.8315 22 16.543 21.7114 16.543 21.3555V18.5625C16.543 18.2065 16.8315 17.918 17.1875 17.918ZM17.832 20.7109H19.293V19.207H17.832V20.7109Z" fill="#EC9D05"/>
<path d="M2.0625 17.918H6.1875C6.54345 17.918 6.83203 18.2065 6.83203 18.5625V21.3555C6.83203 21.7114 6.54345 22 6.1875 22H2.0625C1.70655 22 1.41797 21.7114 1.41797 21.3555V18.5625C1.41797 18.2065 1.70655 17.918 2.0625 17.918ZM2.70703 20.7109H5.54297V19.207H2.70703V20.7109Z" fill="#EC9D05"/>
</svg>
