<svg width="24" height="24" viewBox="0 0 24 24" fill="none" xmlns="http://www.w3.org/2000/svg">
<path d="M6.49234 17.0416H9.01104C9.18941 17.0416 9.33395 16.897 9.33395 16.7187C9.33395 16.5403 9.18941 16.3958 9.01104 16.3958H6.81521V4.74934H10.8079V8.60913C10.814 8.80924 11.0041 8.99246 11.2401 8.91292L12.9953 8.2812L14.7511 8.91292C14.9299 8.98365 15.1879 8.84099 15.1833 8.60913V4.74934H16.7792C16.9576 4.74934 17.1021 4.60479 17.1021 4.42643C17.1021 4.24806 16.9576 4.10352 16.7792 4.10352H6.49234C6.31398 4.10352 6.16943 4.24806 6.16943 4.42643V16.7187C6.16943 16.897 6.31398 17.0416 6.49234 17.0416ZM14.5375 8.14975L13.1047 7.63421C13.034 7.60873 12.9567 7.60873 12.886 7.63421L11.4537 8.14971V4.74934H14.5375V8.14975Z" fill="#EC9D05" stroke="#EC9D05" stroke-width="0.5"/>
<path d="M10.3024 17.0416H19.4986C19.677 17.0416 19.8215 16.897 19.8215 16.7187V4.42643C19.8215 4.24806 19.677 4.10352 19.4986 4.10352H18.0706C17.8922 4.10352 17.7476 4.24806 17.7476 4.42643C17.7476 4.60479 17.8922 4.74934 18.0706 4.74934H19.1757V16.3958H10.3024C10.124 16.3958 9.97949 16.5403 9.97949 16.7187C9.97949 16.8971 10.124 17.0416 10.3024 17.0416Z" fill="#EC9D05" stroke="#EC9D05" stroke-width="0.5"/>
<path d="M8.85562 13.3299H11.7516C11.93 13.3299 12.0745 13.1854 12.0745 13.007C12.0745 12.8286 11.93 12.6841 11.7516 12.6841H8.85562C8.67726 12.6841 8.53271 12.8286 8.53271 13.007C8.53271 13.1854 8.67726 13.3299 8.85562 13.3299Z" fill="#EC9D05" stroke="#EC9D05" stroke-width="0.5"/>
<path d="M8.85562 14.9451H14.6268C14.8052 14.9451 14.9498 14.8006 14.9498 14.6222C14.9498 14.4439 14.8052 14.2993 14.6268 14.2993H8.85562C8.67726 14.2993 8.53271 14.4439 8.53271 14.6222C8.53271 14.8006 8.67726 14.9451 8.85562 14.9451Z" fill="#EC9D05" stroke="#EC9D05" stroke-width="0.5"/>
<path d="M6.49234 3.0399C6.67071 3.0399 6.81525 2.89535 6.81525 2.71699V2.34286H19.1759V2.71699C19.1759 2.89535 19.3205 3.0399 19.4989 3.0399C19.6772 3.0399 19.8218 2.89535 19.8218 2.71699V1.32291C19.8218 1.14455 19.6772 1 19.4989 1C19.3205 1 19.1759 1.14455 19.1759 1.32291V1.69704H6.81525V1.32291C6.81525 1.14455 6.67071 1 6.49234 1C6.31398 1 6.16943 1.14455 6.16943 1.32291V2.71699C6.16943 2.89535 6.31398 3.0399 6.49234 3.0399Z" fill="#EC9D05" stroke="#EC9D05" stroke-width="0.5"/>
<path d="M3.39908 16.776C3.22072 16.776 3.07617 16.9206 3.07617 17.0989C3.07617 17.2773 3.22072 17.4218 3.39908 17.4218H4.78835C4.96671 17.4218 5.11126 17.2773 5.11126 17.0989C5.11126 16.9206 4.96671 16.776 4.78835 16.776H4.41658V4.36994H4.78835C4.96671 4.36994 5.11126 4.22539 5.11126 4.04703C5.11126 3.86867 4.96671 3.72412 4.78835 3.72412H3.39908C3.22072 3.72412 3.07617 3.86867 3.07617 4.04703C3.07617 4.22539 3.22072 4.36994 3.39908 4.36994H3.7708V16.776H3.39908Z" fill="#EC9D05" stroke="#EC9D05" stroke-width="0.5"/>
<path d="M22.6771 18.46H16.9819C16.8036 18.46 16.659 18.6045 16.659 18.7829C16.659 18.9612 16.8036 19.1058 16.9819 19.1058H22.3542V22.3544H20.1279V20.8986C20.1279 20.7202 19.9833 20.5757 19.805 20.5757C19.6266 20.5757 19.4821 20.7202 19.4821 20.8986V22.3544H18.3934V21.5206C18.3934 21.3423 18.2489 21.1977 18.0705 21.1977C17.8921 21.1977 17.7476 21.3423 17.7476 21.5206V22.3544H16.6589V20.8986C16.6589 20.7202 16.5144 20.5757 16.336 20.5757C16.1577 20.5757 16.0131 20.7202 16.0131 20.8986V22.3544H14.9244V21.5206C14.9244 21.3423 14.7799 21.1977 14.6015 21.1977C14.4231 21.1977 14.2786 21.3423 14.2786 21.5206V22.3544H13.1899V20.8986C13.1899 20.7202 13.0454 20.5757 12.867 20.5757C12.6887 20.5757 12.5441 20.7202 12.5441 20.8986V22.3544H11.4554V21.5206C11.4554 21.3423 11.3109 21.1977 11.1325 21.1977C10.9541 21.1977 10.8096 21.3423 10.8096 21.5206V22.3544H9.72094V20.8986C9.72094 20.7202 9.57639 20.5757 9.39803 20.5757C9.21966 20.5757 9.07512 20.7202 9.07512 20.8986V22.3544H7.98642V21.5206C7.98642 21.3423 7.84187 21.1977 7.66351 21.1977C7.48514 21.1977 7.3406 21.3423 7.3406 21.5206V22.3544H6.25194V20.8986C6.25194 20.7202 6.10739 20.5757 5.92903 20.5757C5.75067 20.5757 5.60612 20.7202 5.60612 20.8986V22.3544H4.51789V21.5206C4.51789 21.3423 4.37335 21.1977 4.19498 21.1977C4.01662 21.1977 3.87207 21.3423 3.87207 21.5206V22.3544H1.64578V19.1058H15.6903C15.8687 19.1058 16.0132 18.9612 16.0132 18.7829C16.0132 18.6045 15.8687 18.46 15.6903 18.46H1.32291C1.14455 18.46 1 18.6045 1 18.7829V22.6773C1 22.8556 1.14455 23.0001 1.32291 23.0001H22.6771C22.8555 23.0001 23 22.8556 23 22.6772V18.7828C23 18.6045 22.8554 18.46 22.6771 18.46Z" fill="#EC9D05" stroke="#EC9D05" stroke-width="0.5"/>
</svg>
