<svg width="26" height="22" viewBox="0 0 26 22" fill="none" xmlns="http://www.w3.org/2000/svg">
<path d="M5.92265 22.0001C4.60519 22.0001 3.36812 21.4882 2.43904 20.5591L1.44058 19.5607C-0.480192 17.6399 -0.480192 14.5142 1.44058 12.5934L6.66981 7.36422C7.05312 6.98091 7.47958 6.67375 7.93735 6.44868C9.83104 5.48745 12.1258 5.85129 13.637 7.36422L14.6355 8.36268C15.8176 9.54475 16.3151 11.2269 15.9648 12.8617C15.8667 13.3186 15.4157 13.6122 14.9596 13.5124C14.5027 13.4142 14.2116 12.9649 14.3089 12.5071C14.5382 11.4359 14.2133 10.3342 13.4382 9.55914L12.4397 8.56068C11.4472 7.56729 9.94019 7.32868 8.69127 7.96329C8.39004 8.11052 8.11588 8.31022 7.86458 8.56068L2.63535 13.7899C1.37458 15.0515 1.37458 17.1034 2.63535 18.3642L3.63381 19.3627C4.85312 20.582 6.98881 20.582 8.20812 19.3627L11.2957 16.2742C11.6266 15.9434 12.1613 15.9434 12.4922 16.2742C12.823 16.6042 12.823 17.1398 12.4922 17.4707L9.40458 20.5591C8.47719 21.4882 7.24012 22.0001 5.92265 22.0001Z" fill="#EC9D05"/>
<path d="M15.2288 16.0828C13.9554 16.0828 12.6963 15.5853 11.7469 14.6359L10.7484 13.6375C9.56635 12.4554 9.06881 10.7732 9.41912 9.13846C9.51727 8.68069 9.96912 8.38962 10.4244 8.48777C10.8813 8.58592 11.1724 9.03523 11.075 9.493C10.8457 10.5642 11.1707 11.6659 11.9457 12.441L12.9442 13.4395C13.9367 14.4328 15.4437 14.6715 16.6927 14.0368C16.9939 13.8896 17.268 13.6899 17.5194 13.4395L22.7486 8.21023C24.0094 6.94862 24.0094 4.89669 22.7486 3.63592L21.7501 2.63746C20.5308 1.41815 18.3951 1.41815 17.1758 2.63746L14.0882 5.72592C13.7574 6.05677 13.2226 6.05677 12.8917 5.72592C12.5609 5.39592 12.5609 4.86031 12.8917 4.52946L15.9794 1.441C16.9067 0.511923 18.1438 0 19.4613 0C20.7787 0 22.0158 0.511923 22.9449 1.441L23.9434 2.43946C25.8641 4.36023 25.8641 7.48592 23.9434 9.40669L18.7141 14.6359C18.3308 15.0192 17.9044 15.3264 17.4466 15.5515C16.7426 15.9085 15.9836 16.0828 15.2288 16.0828Z" fill="#EC9D05"/>
</svg>
