<svg width="23" height="23" viewBox="0 0 23 23" fill="none" xmlns="http://www.w3.org/2000/svg">
<path d="M20.9785 0H12.8027C11.6881 0 10.7812 0.906838 10.7812 2.02148V7.45703C10.7812 8.57168 11.6881 9.47852 12.8027 9.47852H13.5215V11.5C13.5215 11.7725 13.6857 12.0182 13.9375 12.1225C14.1892 12.2268 14.4791 12.1692 14.6718 11.9765L17.1697 9.47852H20.9785C22.0932 9.47852 23 8.57168 23 7.45703V2.02148C23 0.906838 22.0932 0 20.9785 0V0ZM21.6523 7.45703C21.6523 7.82858 21.3501 8.13086 20.9785 8.13086H16.8906C16.7119 8.13086 16.5405 8.20184 16.4142 8.3282L14.8691 9.87324V8.80469C14.8691 8.43255 14.5674 8.13086 14.1953 8.13086H12.8027C12.4312 8.13086 12.1289 7.82858 12.1289 7.45703V2.02148C12.1289 1.64994 12.4312 1.34766 12.8027 1.34766H20.9785C21.3501 1.34766 21.6523 1.64994 21.6523 2.02148V7.45703Z" fill="#EC9D05"/>
<path d="M17.7619 3.61143L16.2168 5.15647L15.6825 4.62217C15.4194 4.35902 14.9927 4.35902 14.7296 4.62217C14.4664 4.88532 14.4664 5.31194 14.7296 5.5751L15.7403 6.58584C16.0034 6.84895 16.4301 6.84899 16.6933 6.58584L18.7147 4.56435C18.9779 4.3012 18.9779 3.87458 18.7147 3.61143C18.4516 3.34827 18.025 3.34827 17.7619 3.61143Z" fill="#EC9D05"/>
<path d="M1.34775 19.6291C1.34775 19.6296 1.34766 19.6302 1.34766 19.6309V22.3262C1.34766 22.6983 1.64935 23 2.02148 23H10.1074C10.3975 23 10.6549 22.8144 10.7467 22.5393L11.4918 20.3038C12.5895 20.284 13.4766 19.3855 13.4766 18.2832C13.4766 17.6353 13.1698 17.058 12.6943 16.6878L13.443 14.4053C13.5103 14.2 13.4752 13.9749 13.3484 13.8C13.2217 13.625 13.0188 13.5215 12.8028 13.5215H12.0612C11.7481 11.9855 10.3869 10.8262 8.75981 10.8262H3.36914C1.5114 10.8262 0 12.3376 0 14.1953V16.9355C0 18.0355 0.529943 19.0138 1.34775 19.6291ZM2.69531 20.2369C2.91309 20.2813 3.13842 20.3047 3.36914 20.3047H4.677L4.23025 21.6523H2.69531V20.2369ZM5.65005 21.6523C5.66141 21.618 7.87566 14.9396 7.89866 14.8691H11.8726L11.4158 16.2617H10.1074C9.73529 16.2617 9.43359 16.5634 9.43359 16.9355V19.6309C9.43359 19.9909 9.7162 20.2841 10.0716 20.3029L9.62173 21.6523H5.65005ZM11.4551 18.957C11.2515 18.957 11.0863 18.957 10.7812 18.957V17.6094H11.4551C11.8266 17.6094 12.1289 17.9117 12.1289 18.2832C12.1289 18.6548 11.8266 18.957 11.4551 18.957ZM1.34766 14.1953C1.34766 13.0807 2.25449 12.1738 3.36914 12.1738H8.75977C9.63821 12.1738 10.3872 12.7372 10.6654 13.5215H7.41211C7.12164 13.5215 6.86388 13.7076 6.77251 13.9833L6.01724 16.2617H4.04297V14.1953C4.04297 13.8232 3.74127 13.5215 3.36914 13.5215C2.99701 13.5215 2.69531 13.8232 2.69531 14.1953V16.9355C2.69531 17.3077 2.99701 17.6094 3.36914 17.6094H5.57049L5.12374 18.957H3.36914C2.25449 18.957 1.34766 18.0502 1.34766 16.9355V14.1953Z" fill="#EC9D05"/>
<path d="M9.43359 7.45703C9.43359 5.59929 7.9222 4.08789 6.06445 4.08789C4.20671 4.08789 2.69531 5.59929 2.69531 7.45703C2.69531 9.31478 4.20671 10.8262 6.06445 10.8262C7.9222 10.8262 9.43359 9.31478 9.43359 7.45703ZM6.06445 9.47852C4.94981 9.47852 4.04297 8.57168 4.04297 7.45703C4.04297 6.34238 4.94981 5.43555 6.06445 5.43555C7.1791 5.43555 8.08594 6.34238 8.08594 7.45703C8.08594 8.57168 7.1791 9.47852 6.06445 9.47852Z" fill="#EC9D05"/>
</svg>
