<svg width="24" height="24" viewBox="0 0 24 24" fill="none" xmlns="http://www.w3.org/2000/svg">
<path d="M1.64453 3.57645C1.80953 3.57645 1.97457 3.51346 2.10043 3.38756L2.28648 3.20137V6.84379C2.28648 7.19974 2.57506 7.48832 2.93102 7.48832C3.28697 7.48832 3.57555 7.19974 3.57555 6.84379V3.20129L3.76164 3.38751C4.01323 3.63922 4.42139 3.63935 4.67314 3.38781C4.92494 3.13619 4.92507 2.72807 4.67344 2.47628L3.38691 1.18893C3.14676 0.939584 2.71518 0.93967 2.47512 1.18893L1.18863 2.47628C0.937008 2.72807 0.937137 3.13615 1.18893 3.38781C1.31479 3.51358 1.47966 3.57645 1.64453 3.57645Z" fill="#EC9D05" stroke="#EC9D05" stroke-width="0.5"/>
<path d="M21.0688 8.75586C20.7128 8.75586 20.4242 9.04444 20.4242 9.40039V13.0429L20.2381 12.8567C19.9865 12.605 19.5784 12.6048 19.3266 12.8564C19.0748 13.108 19.0747 13.5161 19.3263 13.7679L20.6128 15.0553C20.8541 15.3039 21.2813 15.3066 21.5246 15.0553L22.8111 13.7679C23.0627 13.5161 23.0626 13.108 22.8108 12.8564C22.559 12.6047 22.1509 12.6049 21.8993 12.8567L21.7132 13.0429V9.40039C21.7133 9.04444 21.4247 8.75586 21.0688 8.75586Z" fill="#EC9D05" stroke="#EC9D05" stroke-width="0.5"/>
<path d="M17.8438 13.7951V10.2049C17.8438 9.41775 17.2033 8.77734 16.4162 8.77734H2.42755C1.64041 8.77734 1 9.41775 1 10.2049V13.7951C1 14.5823 1.64041 15.2227 2.42755 15.2227H16.4162C17.2033 15.2227 17.8438 14.5823 17.8438 13.7951ZM2.28906 13.7951V10.2049C2.28906 10.1285 2.3512 10.0664 2.42755 10.0664H16.4162C16.4926 10.0664 16.5547 10.1285 16.5547 10.2049V13.7951C16.5547 13.8714 16.4926 13.9336 16.4162 13.9336H2.42755C2.3512 13.9336 2.28906 13.8715 2.28906 13.7951Z" fill="#EC9D05" stroke="#EC9D05" stroke-width="0.5"/>
<path d="M21.5724 16.5547H7.5838C6.79666 16.5547 6.15625 17.1951 6.15625 17.9823V21.5724C6.15625 22.3596 6.79666 23 7.5838 23H21.5724C22.3596 23 23 22.3596 23 21.5724V17.9822C23 17.1951 22.3596 16.5547 21.5724 16.5547ZM21.7109 21.5724C21.7109 21.6488 21.6488 21.7109 21.5724 21.7109H7.5838C7.50745 21.7109 7.44531 21.6488 7.44531 21.5724V17.9822C7.44531 17.9059 7.50745 17.8437 7.5838 17.8437H21.5724C21.6488 17.8437 21.7109 17.9058 21.7109 17.9822V21.5724Z" fill="#EC9D05" stroke="#EC9D05" stroke-width="0.5"/>
<path d="M21.5724 1H7.5838C6.79666 1 6.15625 1.64041 6.15625 2.42759V6.01776C6.15625 6.80491 6.79666 7.44531 7.5838 7.44531H21.5724C22.3596 7.44531 23 6.80491 23 6.01772V2.42759C23 1.64041 22.3596 1 21.5724 1V1ZM21.7109 6.01772C21.7109 6.09407 21.6488 6.15625 21.5724 6.15625H7.5838C7.50745 6.15625 7.44531 6.09412 7.44531 6.01772V2.42759C7.44531 2.35124 7.50745 2.28906 7.5838 2.28906H21.5724C21.6488 2.28906 21.7109 2.3512 21.7109 2.42759V6.01772Z" fill="#EC9D05" stroke="#EC9D05" stroke-width="0.5"/>
<path d="M4.22266 12.6445C4.57862 12.6445 4.86719 12.356 4.86719 12C4.86719 11.644 4.57862 11.3555 4.22266 11.3555C3.86669 11.3555 3.57812 11.644 3.57812 12C3.57812 12.356 3.86669 12.6445 4.22266 12.6445Z" fill="#EC9D05" stroke="#EC9D05" stroke-width="0.5"/>
<path d="M14.6211 11.3555H6.80078C6.44483 11.3555 6.15625 11.644 6.15625 12C6.15625 12.356 6.44483 12.6445 6.80078 12.6445H14.6211C14.977 12.6445 15.2656 12.356 15.2656 12C15.2656 11.644 14.977 11.3555 14.6211 11.3555Z" fill="#EC9D05" stroke="#EC9D05" stroke-width="0.5"/>
<path d="M9.37891 4.86719C9.73487 4.86719 10.0234 4.57862 10.0234 4.22266C10.0234 3.86669 9.73487 3.57812 9.37891 3.57812C9.02294 3.57812 8.73438 3.86669 8.73438 4.22266C8.73438 4.57862 9.02294 4.86719 9.37891 4.86719Z" fill="#EC9D05" stroke="#EC9D05" stroke-width="0.5"/>
<path d="M19.7773 3.57812H11.957C11.6011 3.57812 11.3125 3.8667 11.3125 4.22266C11.3125 4.57861 11.6011 4.86719 11.957 4.86719H19.7773C20.1333 4.86719 20.4219 4.57861 20.4219 4.22266C20.4219 3.8667 20.1333 3.57812 19.7773 3.57812Z" fill="#EC9D05" stroke="#EC9D05" stroke-width="0.5"/>
<path d="M9.37891 20.4219C9.73487 20.4219 10.0234 20.1333 10.0234 19.7773C10.0234 19.4214 9.73487 19.1328 9.37891 19.1328C9.02294 19.1328 8.73438 19.4214 8.73438 19.7773C8.73438 20.1333 9.02294 20.4219 9.37891 20.4219Z" fill="#EC9D05" stroke="#EC9D05" stroke-width="0.5"/>
<path d="M19.7773 19.1328H11.957C11.6011 19.1328 11.3125 19.4214 11.3125 19.7773C11.3125 20.1333 11.6011 20.4219 11.957 20.4219H19.7773C20.1333 20.4219 20.4219 20.1333 20.4219 19.7773C20.4219 19.4214 20.1333 19.1328 19.7773 19.1328Z" fill="#EC9D05" stroke="#EC9D05" stroke-width="0.5"/>
</svg>
