<svg width="24" height="24" viewBox="0 0 24 24" fill="none" xmlns="http://www.w3.org/2000/svg">
<path d="M22.9996 11.9998V7.4391C22.9998 7.19372 22.9179 6.95532 22.7669 6.76191C22.6159 6.5685 22.4045 6.43122 22.1664 6.37197L20.2933 5.90371L20.6148 5.42144C20.7355 5.24084 20.7998 5.02845 20.7996 4.81123V3.93327H21.1663V3.19996H20.7996C20.799 2.77752 20.6529 2.36819 20.3857 2.04096C20.1186 1.71373 19.7467 1.48861 19.333 1.40355V1H18.5996V1.40355C18.1859 1.48861 17.8141 1.71373 17.5469 2.04096C17.2797 2.36819 17.1336 2.77752 17.133 3.19996H16.7663V3.93327H17.133V4.81123C17.1328 5.02842 17.1971 5.24079 17.3178 5.42137L17.6393 5.90371L15.7662 6.37197C15.6668 6.39677 15.5713 6.43544 15.4826 6.48682C15.3941 6.4356 15.299 6.39694 15.1999 6.37197L13.3268 5.90371L13.6483 5.42144C13.769 5.24084 13.8333 5.02845 13.8331 4.81123V3.93327H14.1997V3.19996H13.8331C13.8325 2.77752 13.6863 2.36819 13.4192 2.04096C13.152 1.71373 12.7802 1.48861 12.3664 1.40355V1H11.6331V1.40355C11.2193 1.48861 10.8475 1.71373 10.5804 2.04096C10.3132 2.36819 10.167 2.77752 10.1665 3.19996H9.79982V3.93327H10.1665V4.81123C10.1663 5.02842 10.2306 5.24079 10.3512 5.42137L10.6728 5.90371L8.7997 6.37197C8.70059 6.39694 8.60543 6.4356 8.51699 6.48682C8.42828 6.43544 8.33279 6.39677 8.23333 6.37197L6.36024 5.90371L6.68174 5.42144C6.80243 5.24084 6.86676 5.02845 6.86655 4.81123V3.93327H7.23321V3.19996H6.86655C6.866 2.77752 6.71982 2.36819 6.45266 2.04096C6.1855 1.71373 5.8137 1.48861 5.39991 1.40355V1H4.66659V1.40355C4.25281 1.48861 3.881 1.71373 3.61384 2.04096C3.34668 2.36819 3.20051 2.77752 3.19996 3.19996H2.8333V3.93327H3.19996V4.81123C3.19974 5.02842 3.26405 5.24079 3.38472 5.42137L3.70626 5.90371L1.83317 6.37197C1.59506 6.43122 1.38364 6.5685 1.23263 6.76191C1.08163 6.95532 0.999729 7.19372 1 7.4391V11.9998C1.00033 12.2914 1.11633 12.571 1.32254 12.7772C1.52876 12.9834 1.80835 13.0994 2.09998 13.0998H2.8333V22.6329C2.8333 22.7301 2.87193 22.8234 2.94069 22.8922C3.00945 22.9609 3.10271 22.9996 3.19996 22.9996H4.29993C4.5707 22.9997 4.83194 22.8996 5.03325 22.7186C5.23457 22.8996 5.49581 22.9997 5.76657 22.9996H6.86655C6.96379 22.9996 7.05705 22.9609 7.12581 22.8922C7.19458 22.8234 7.23321 22.7301 7.23321 22.6329V13.0998H7.96653C8.15967 13.0996 8.34936 13.0485 8.5165 12.9518C8.68353 13.0488 8.87331 13.0999 9.0665 13.0998H9.79982V22.6329C9.79982 22.7301 9.83845 22.8234 9.90722 22.8922C9.97598 22.9609 10.0692 22.9996 10.1665 22.9996H11.2665C11.5372 22.9997 11.7985 22.8996 11.9998 22.7186C12.2011 22.8996 12.4623 22.9997 12.7331 22.9996H13.8331C13.9303 22.9996 14.0236 22.9609 14.0923 22.8922C14.1611 22.8234 14.1997 22.7301 14.1997 22.6329V22.212C15.4201 22.9179 16.8539 23.1605 18.2386 22.8953C19.6232 22.6302 20.866 21.8751 21.7392 20.7683C22.6125 19.6615 23.0577 18.2771 22.9935 16.8688C22.9292 15.4604 22.3596 14.1224 21.3892 13.0998H21.8996C22.1912 13.0994 22.4708 12.9834 22.677 12.7772C22.8832 12.571 22.9992 12.2914 22.9996 11.9998V11.9998ZM4.66659 2.16305V2.46664H5.39991V2.16305C5.6142 2.23909 5.79972 2.37956 5.93101 2.56521C6.06231 2.75085 6.13294 2.97258 6.13323 3.19996H3.93327C3.93356 2.97258 4.0042 2.75085 4.13549 2.56521C4.26678 2.37956 4.4523 2.23909 4.66659 2.16305V2.16305ZM8.02763 12.3606C8.00747 12.3643 7.98702 12.3662 7.96653 12.3664H7.23321V7.96653H6.49989V22.2662H5.76657C5.66936 22.2661 5.57616 22.2275 5.50743 22.1587C5.43869 22.09 5.40002 21.9968 5.39991 21.8996V14.1997H4.66659V21.8996C4.66648 21.9968 4.62782 22.09 4.55908 22.1587C4.49034 22.2275 4.39714 22.2661 4.29993 22.2662H3.56662V7.96653H2.8333V12.3664H2.09998C2.00277 12.3663 1.90957 12.3277 1.84083 12.2589C1.7721 12.1902 1.73343 12.097 1.73332 11.9998V7.4391C1.73323 7.35731 1.76054 7.27784 1.81087 7.21338C1.86121 7.14891 1.93168 7.10315 2.01104 7.0834L4.38887 6.48895C4.44587 6.4747 4.49861 6.44695 4.54266 6.40806C4.5867 6.36916 4.62074 6.32025 4.64193 6.26545C4.66312 6.21065 4.67082 6.15155 4.6644 6.09315C4.65797 6.03474 4.6376 5.97874 4.60501 5.92985L3.99482 5.01454C3.95463 4.95436 3.93321 4.8836 3.93327 4.81123V3.93327H6.13323V4.81123C6.13329 4.88363 6.11186 4.95441 6.07164 5.01461L5.4615 5.92985C5.4289 5.97874 5.40854 6.03474 5.40211 6.09315C5.39568 6.15155 5.40339 6.21065 5.42457 6.26545C5.44576 6.32025 5.47981 6.36916 5.52385 6.40806C5.56789 6.44695 5.62063 6.4747 5.67764 6.48895L8.02768 7.07645C7.9871 7.19305 7.96643 7.31564 7.96653 7.4391V11.9998C7.9665 12.1226 7.98716 12.2446 8.02763 12.3606ZM18.5996 2.16305V2.46664H19.333V2.16305C19.5473 2.23909 19.7328 2.37956 19.8641 2.56521C19.9954 2.75085 20.066 2.97258 20.0663 3.19996H17.8663C17.8666 2.97258 17.9372 2.75085 18.0685 2.56521C18.1998 2.37956 18.3854 2.23909 18.5996 2.16305V2.16305ZM11.6331 2.16305V2.46664H12.3664V2.16305C12.5807 2.23909 12.7662 2.37956 12.8975 2.56521C13.0288 2.75085 13.0995 2.97258 13.0998 3.19996H10.8998C10.9001 2.97258 10.9707 2.75085 11.102 2.56521C11.2333 2.37956 11.4188 2.23909 11.6331 2.16305V2.16305ZM11.6331 19.1746V21.8996C11.633 21.9968 11.5943 22.09 11.5256 22.1587C11.4569 22.2275 11.3637 22.2661 11.2665 22.2662H10.5331V7.96653H9.79982V12.3664H9.0665C8.96929 12.3663 8.8761 12.3277 8.80736 12.2589C8.73862 12.1902 8.69996 12.097 8.69985 11.9998V7.4391C8.69976 7.35731 8.72706 7.27784 8.7774 7.21338C8.82773 7.14891 8.8982 7.10315 8.97757 7.0834L11.3554 6.48895C11.4124 6.4747 11.4651 6.44695 11.5092 6.40806C11.5532 6.36916 11.5873 6.32025 11.6085 6.26545C11.6296 6.21065 11.6373 6.15155 11.6309 6.09315C11.6245 6.03474 11.6041 5.97874 11.5715 5.92985L10.9613 5.01454C10.9212 4.95436 10.8997 4.8836 10.8998 4.81123V3.93327H13.0998V4.81123C13.0998 4.88363 13.0784 4.95441 13.0382 5.01461L12.428 5.92985C12.3954 5.97874 12.3751 6.03474 12.3686 6.09315C12.3622 6.15155 12.3699 6.21065 12.3911 6.26545C12.4123 6.32025 12.4463 6.36916 12.4904 6.40806C12.5344 6.44695 12.5872 6.4747 12.6442 6.48895L15.022 7.0834C15.1014 7.10315 15.1718 7.14891 15.2222 7.21338C15.2725 7.27784 15.2998 7.35731 15.2997 7.4391V11.5601C14.9729 11.6671 14.6562 11.8028 14.3533 11.9657L14.1997 11.9115V7.96653H13.4664V11.6531L11.3883 10.9207C11.3231 10.8977 11.2527 10.8936 11.1853 10.9089C11.1178 10.9242 11.0561 10.9583 11.0072 11.0072C10.9583 11.0561 10.9242 11.1178 10.9089 11.1853C10.8936 11.2527 10.8977 11.3231 10.9207 11.3883L11.9657 14.3533C11.5713 15.0873 11.3377 15.8968 11.2804 16.7281C11.223 17.5594 11.3433 18.3933 11.6331 19.1746V19.1746ZM13.4664 22.2662H12.7331C12.6359 22.2661 12.5427 22.2275 12.474 22.1587C12.4052 22.09 12.3665 21.9968 12.3664 21.8996V20.549C12.6789 20.9836 13.049 21.3738 13.4664 21.709V22.2662ZM22.2662 17.133C22.266 17.92 22.0847 18.6964 21.7366 19.4022C21.3884 20.108 20.8826 20.7243 20.2582 21.2034C19.6339 21.6826 18.9078 22.0117 18.1359 22.1655C17.3641 22.3193 16.5672 22.2935 15.8069 22.0902C15.0467 21.8869 14.3433 21.5115 13.7512 20.993C13.1591 20.4745 12.6942 19.8269 12.3924 19.1001C12.0905 18.3732 11.9598 17.5868 12.0104 16.8014C12.061 16.016 12.2914 15.2528 12.684 14.5707C12.7104 14.5248 12.7267 14.4738 12.7315 14.4212C12.7364 14.3685 12.7298 14.3154 12.7122 14.2655L11.8668 11.8668L14.2655 12.7122C14.3154 12.7298 14.3685 12.7364 14.4212 12.7315C14.4739 12.7267 14.5249 12.7104 14.5707 12.684C15.3513 12.2348 16.2362 11.9989 17.1368 11.9998C18.0374 12.0007 18.9219 12.2385 19.7015 12.6892C20.4812 13.1399 21.1285 13.7878 21.5787 14.5678C22.0289 15.3478 22.266 16.2324 22.2662 17.133V17.133ZM21.1663 12.3664V7.96653H20.4329V12.2851C19.564 11.6908 18.5504 11.3429 17.4997 11.2783V7.96653H16.7663V11.278C16.5202 11.2934 16.2753 11.3243 16.033 11.3705V7.4391C16.0331 7.31564 16.0125 7.19305 15.9719 7.07645L18.3219 6.48895C18.3789 6.4747 18.4317 6.44695 18.4757 6.40806C18.5197 6.36916 18.5538 6.32025 18.575 6.26545C18.5962 6.21065 18.6039 6.15155 18.5974 6.09315C18.591 6.03474 18.5707 5.97874 18.5381 5.92985L17.9279 5.01454C17.8877 4.95436 17.8663 4.8836 17.8663 4.81123V3.93327H20.0663V4.81123C20.0663 4.88363 20.0449 4.95441 20.0047 5.01461L19.3945 5.92985C19.362 5.97874 19.3416 6.03474 19.3352 6.09315C19.3287 6.15155 19.3364 6.21065 19.3576 6.26545C19.3788 6.32025 19.4129 6.36916 19.4569 6.40806C19.5009 6.44695 19.5537 6.4747 19.6107 6.48895L21.9885 7.0834C22.0679 7.10315 22.1384 7.14891 22.1887 7.21338C22.239 7.27784 22.2663 7.35731 22.2662 7.4391V11.9998C22.2661 12.097 22.2275 12.1902 22.1587 12.2589C22.09 12.3277 21.9968 12.3663 21.8996 12.3664H21.1663Z" fill="#EC9D05" stroke="#EC9D05" stroke-width="0.5"/>
<path d="M19.334 18.2333H18.6007V13.4668C18.6007 13.3695 18.562 13.2763 18.4933 13.2075C18.4245 13.1387 18.3312 13.1001 18.234 13.1001H16.034C15.9368 13.1001 15.8435 13.1387 15.7748 13.2075C15.706 13.2763 15.6674 13.3695 15.6674 13.4668V18.2333H14.9341C14.8639 18.2333 14.7953 18.2534 14.7362 18.2913C14.6772 18.3291 14.6302 18.3831 14.6009 18.4468C14.5716 18.5105 14.5612 18.5813 14.5709 18.6507C14.5806 18.7202 14.61 18.7854 14.6557 18.8386L16.8556 21.4052C16.89 21.4454 16.9327 21.4776 16.9808 21.4997C17.0289 21.5218 17.0811 21.5333 17.134 21.5333C17.1869 21.5333 17.2392 21.5218 17.2872 21.4997C17.3353 21.4776 17.378 21.4454 17.4124 21.4052L19.6124 18.8386C19.658 18.7854 19.6874 18.7202 19.6971 18.6507C19.7068 18.5813 19.6964 18.5105 19.6671 18.4468C19.6378 18.3831 19.5908 18.3291 19.5318 18.2913C19.4728 18.2534 19.4041 18.2333 19.334 18.2333ZM17.134 20.6032L15.7312 18.9666H16.034C16.1313 18.9666 16.2245 18.928 16.2933 18.8593C16.3621 18.7905 16.4007 18.6972 16.4007 18.6V13.8334H17.8673V18.6C17.8673 18.6972 17.906 18.7905 17.9747 18.8593C18.0435 18.928 18.1367 18.9666 18.234 18.9666H18.5368L17.134 20.6032Z" fill="#EC9D05" stroke="#EC9D05" stroke-width="0.5"/>
</svg>
