<svg width="100" height="101" viewBox="0 0 100 101" fill="none" xmlns="http://www.w3.org/2000/svg">
<path d="M37.5 100.028H4.16667C3.0616 100.028 2.00179 99.5887 1.22039 98.8073C0.438987 98.0259 0 96.9661 0 95.861C0 94.7559 0.438987 93.6961 1.22039 92.9147C2.00179 92.1333 3.0616 91.6943 4.16667 91.6943H37.5C38.6051 91.6943 39.6649 92.1333 40.4463 92.9147C41.2277 93.6961 41.6667 94.7559 41.6667 95.861C41.6667 96.9661 41.2277 98.0259 40.4463 98.8073C39.6649 99.5887 38.6051 100.028 37.5 100.028Z" fill="#65B43B"/>
<path d="M29.1667 83.3612H4.16667C3.0616 83.3612 2.00179 82.9222 1.22039 82.1408C0.438987 81.3594 0 80.2996 0 79.1945C0 78.0894 0.438987 77.0296 1.22039 76.2482C2.00179 75.4668 3.0616 75.0278 4.16667 75.0278H29.1667C30.2717 75.0278 31.3315 75.4668 32.1129 76.2482C32.8943 77.0296 33.3333 78.0894 33.3333 79.1945C33.3333 80.2996 32.8943 81.3594 32.1129 82.1408C31.3315 82.9222 30.2717 83.3612 29.1667 83.3612Z" fill="#65B43B"/>
<path d="M20.8333 66.6947H4.16667C3.0616 66.6947 2.00179 66.2557 1.22039 65.4743C0.438987 64.6929 0 63.6331 0 62.528C0 61.4229 0.438987 60.3631 1.22039 59.5817C2.00179 58.8003 3.0616 58.3613 4.16667 58.3613H20.8333C21.9384 58.3613 22.9982 58.8003 23.7796 59.5817C24.561 60.3631 25 61.4229 25 62.528C25 63.6331 24.561 64.6929 23.7796 65.4743C22.9982 66.2557 21.9384 66.6947 20.8333 66.6947Z" fill="#65B43B"/>
<path d="M54.1667 99.8404C53.0616 99.8896 51.9823 99.4978 51.1661 98.7512C50.3499 98.0045 49.8638 96.9642 49.8146 95.8592C49.7654 94.7541 50.1572 93.6748 50.9039 92.8586C51.6505 92.0424 52.6908 91.5563 53.7958 91.5071C61.6811 90.7856 69.1975 87.8322 75.4647 82.9929C81.732 78.1535 86.4905 71.6285 89.183 64.1822C91.8755 56.7358 92.3905 48.6765 90.6677 40.948C88.9449 33.2195 85.0555 26.1419 79.4553 20.5442C73.855 14.9465 66.7756 11.0604 59.0463 9.34115C51.3171 7.62187 43.2579 8.14059 35.8128 10.8365C28.3677 13.5325 21.8449 18.294 17.0084 24.5635C12.172 30.8329 9.22204 38.3507 8.50418 46.2363C8.40472 47.3369 7.87211 48.353 7.0235 49.0609C6.1749 49.7689 5.07982 50.1107 3.97918 50.0113C2.87853 49.9118 1.86247 49.3792 1.15452 48.5306C0.446568 47.682 0.10472 46.5869 0.204176 45.4863C1.36621 32.6667 7.42753 20.7892 17.1264 12.3261C26.8252 3.86307 39.4143 -0.533454 52.2731 0.051744C65.1319 0.636942 77.2697 6.15878 86.1597 15.4678C95.0498 24.7768 100.007 37.1558 100 50.0279C100.064 62.521 95.4227 74.5804 86.9996 83.8072C78.5765 93.0339 66.9889 98.7519 54.5417 99.8238C54.4167 99.8363 54.2875 99.8404 54.1667 99.8404Z" fill="#65B43B"/>
<path d="M50 25.0278C48.895 25.0278 47.8352 25.4668 47.0538 26.2482C46.2724 27.0296 45.8334 28.0894 45.8334 29.1945V50.0278C45.8336 51.1328 46.2728 52.1924 47.0542 52.9737L59.5542 65.4737C60.34 66.2327 61.3926 66.6526 62.485 66.6431C63.5775 66.6336 64.6226 66.1954 65.3951 65.4229C66.1677 64.6504 66.6059 63.6053 66.6153 62.5128C66.6248 61.4204 66.2049 60.3678 65.4459 59.582L54.1667 48.3028V29.1945C54.1667 28.0894 53.7277 27.0296 52.9463 26.2482C52.1649 25.4668 51.1051 25.0278 50 25.0278Z" fill="#65B43B"/>
</svg>
