<svg width="125" height="124" viewBox="0 0 125 124" fill="none" xmlns="http://www.w3.org/2000/svg">
<path d="M75.6571 109.799C48.7316 117.172 20.992 101.558 13.6991 74.9241C6.40615 48.2903 22.3215 20.7225 49.247 13.3497C76.1726 5.97686 103.912 21.591 111.205 48.2248C118.498 74.8585 102.583 102.426 75.6571 109.799Z" fill="#65B43B"/>
<path d="M82.9956 71.6447C82.7995 71.4484 82.5274 71.3357 82.25 71.3357C81.9726 71.3357 81.7005 71.4484 81.5043 71.6447C81.3082 71.841 81.1953 72.1118 81.1953 72.3904C81.1953 72.6678 81.3081 72.9399 81.5043 73.1359C81.7005 73.3321 81.9726 73.4451 82.25 73.4451C82.5274 73.4451 82.7995 73.3322 82.9956 73.1359C83.1918 72.9399 83.3047 72.6678 83.3047 72.3904C83.3047 72.113 83.1918 71.8409 82.9956 71.6447Z" fill="white" stroke="white" stroke-width="0.5"/>
<path d="M87.9453 85.8905H83.3047V76.0819C83.3047 75.4995 82.8324 75.0272 82.25 75.0272C81.6676 75.0272 81.1953 75.4995 81.1953 76.0819V85.8905H47.8672V75.9765C47.8672 75.3941 47.3949 74.9218 46.8125 74.9218C46.2301 74.9218 45.7578 75.3941 45.7578 75.9765V85.8905H42.8047V58.1525L62 43.1667L81.1953 58.1525V68.1718C81.1953 68.7542 81.6676 69.2265 82.25 69.2265C82.8324 69.2265 83.3047 68.7542 83.3047 68.1718V59.7993L83.489 59.9432C83.6807 60.0929 83.9096 60.1666 84.1377 60.1666C84.4089 60.1666 84.6791 60.0623 84.8837 59.8577L88.6879 56.0534C88.9015 55.8397 89.0133 55.5446 88.9948 55.243C88.9762 54.9414 88.8293 54.6622 88.5911 54.4762L82.25 49.5258V38.9569C82.25 38.3744 81.7777 37.9023 81.1953 37.9023H75.0825C74.5001 37.9023 74.0278 38.3744 74.0278 38.9569V43.1067L62.6489 34.2233C62.2677 33.9256 61.7323 33.9256 61.3509 34.2233L35.4088 54.4762C35.1705 54.6622 35.0236 54.9414 35.0051 55.243C34.9866 55.5446 35.0984 55.8396 35.312 56.0534L39.1161 59.8577C39.4927 60.2341 40.0911 60.271 40.511 59.9432L40.6953 59.7993V85.8905H36.0547C35.4723 85.8905 35 86.3628 35 86.9452C35 87.5276 35.4723 87.9999 36.0547 87.9999H87.9453C88.5277 87.9999 89 87.5276 89 86.9452C89 86.3628 88.5277 85.8905 87.9453 85.8905ZM76.1372 40.0116H80.1406V47.879L76.1372 44.7535V40.0116V40.0116ZM39.9482 57.7065L37.6468 55.4051L62 36.3926L86.3531 55.4051L84.0518 57.7065L62.6489 40.9973C62.4582 40.8484 62.2292 40.774 62 40.774C61.7708 40.774 61.5416 40.8484 61.351 40.9973L39.9482 57.7065Z" fill="white" stroke="white" stroke-width="0.5"/>
<path d="M72.125 56.9919H51.875C51.2926 56.9919 50.8203 57.4641 50.8203 58.0466V78.2966C50.8203 78.879 51.2926 79.3513 51.875 79.3513H72.125C72.7074 79.3513 73.1797 78.879 73.1797 78.2966V58.0466C73.1797 57.4641 72.7074 56.9919 72.125 56.9919ZM60.9453 77.2419H52.9297V69.2263H60.9453V77.2419ZM60.9453 67.1169H52.9297V59.1013H60.9453V67.1169ZM71.0703 77.2419H63.0547V69.2263H71.0703V77.2419ZM71.0703 67.1169H63.0547V59.1013H71.0703V67.1169Z" fill="white" stroke="white" stroke-width="0.5"/>
<path d="M46.8124 70.7563C46.23 70.7563 45.7577 71.2285 45.7577 71.811V71.828C45.7577 72.4104 46.23 72.8827 46.8124 72.8827C47.3948 72.8827 47.8671 72.4104 47.8671 71.828V71.811C47.8671 71.2286 47.3948 70.7563 46.8124 70.7563Z" fill="white" stroke="white" stroke-width="0.5"/>
</svg>
