<svg width="959" height="540" viewBox="0 0 959 540" fill="none" xmlns="http://www.w3.org/2000/svg">
<path d="M279.74 54.3503V33.3703H258.77V75.3203H300.71V54.3503H279.74Z" fill="#009792"/>
<path d="M594.28 13.2491C594.28 11.56 594.781 9.90891 595.719 8.50451C596.658 7.10012 597.991 6.0055 599.552 5.35913C601.112 4.71275 602.829 4.54365 604.486 4.87316C606.143 5.20268 607.664 6.01604 608.859 7.21038C610.053 8.40472 610.866 9.9264 611.196 11.583C611.525 13.2396 611.356 14.9567 610.71 16.5172C610.064 18.0777 608.969 19.4115 607.565 20.3498C606.16 21.2882 604.509 21.7891 602.82 21.7891C601.698 21.7904 600.587 21.5704 599.55 21.1417C598.514 20.713 597.572 20.084 596.778 19.2907C595.985 18.4974 595.356 17.5554 594.927 16.5187C594.499 15.482 594.279 14.3709 594.28 13.2491Z" fill="#67B14F"/>
<path d="M598.7 42.5791C598.7 40.8905 599.201 39.2398 600.138 37.8356C601.076 36.4314 602.41 35.3368 603.97 34.6902C605.529 34.0435 607.246 33.8738 608.902 34.2025C610.559 34.5312 612.08 35.3436 613.275 36.5369C614.47 37.7303 615.284 39.251 615.615 40.9069C615.945 42.5629 615.778 44.2797 615.133 45.8403C614.488 47.401 613.395 48.7355 611.992 49.675C610.589 50.6146 608.939 51.1172 607.25 51.1191C606.128 51.1204 605.016 50.9005 603.979 50.4719C602.941 50.0434 601.999 49.4145 601.205 48.6214C600.411 47.8282 599.781 46.8863 599.351 45.8496C598.921 44.8128 598.7 43.7015 598.7 42.5791" fill="#3BA536"/>
<path d="M627.42 9.56018C627.422 8.30667 627.795 7.08188 628.493 6.04059C629.191 4.9993 630.182 4.18823 631.341 3.7099C632.499 3.23157 633.774 3.10745 635.003 3.35321C636.232 3.59897 637.361 4.20358 638.247 5.09064C639.132 5.9777 639.735 7.10741 639.979 8.33698C640.223 9.56654 640.097 10.8408 639.616 11.9987C639.136 13.1566 638.324 14.1462 637.281 14.8424C636.239 15.5386 635.013 15.9102 633.76 15.9102C632.927 15.9102 632.101 15.7459 631.331 15.4266C630.562 15.1074 629.862 14.6395 629.273 14.0497C628.684 13.4599 628.218 12.7598 627.9 11.9894C627.582 11.2191 627.419 10.3936 627.42 9.56018" fill="#67B14F"/>
<path d="M645.76 33.9998C645.76 32.7459 646.132 31.5201 646.828 30.4775C647.525 29.4349 648.515 28.6223 649.674 28.1425C650.832 27.6626 652.107 27.537 653.337 27.7816C654.567 28.0263 655.696 28.6301 656.583 29.5168C657.47 30.4034 658.074 31.5331 658.318 32.763C658.563 33.9928 658.437 35.2676 657.957 36.4261C657.478 37.5845 656.665 38.5747 655.622 39.2714C654.58 39.968 653.354 40.3398 652.1 40.3398C650.419 40.3398 648.806 39.6719 647.617 38.4829C646.428 37.2939 645.76 35.6813 645.76 33.9998" fill="#67B14F"/>
<path d="M658.12 12.4008C658.12 11.4321 658.407 10.4851 658.945 9.67956C659.483 8.87397 660.248 8.24591 661.143 7.87475C662.037 7.50358 663.022 7.40597 663.972 7.59423C664.923 7.78249 665.796 8.24815 666.481 8.93242C667.167 9.6167 667.635 10.4889 667.825 11.4387C668.015 12.3886 667.919 13.3735 667.55 14.269C667.181 15.1646 666.554 15.9305 665.75 16.4701C664.945 17.0098 663.999 17.2988 663.03 17.3008C662.386 17.3021 661.748 17.1763 661.152 16.9307C660.556 16.685 660.015 16.3243 659.559 15.8691C659.103 15.414 658.741 14.8734 658.494 14.2782C658.247 13.6831 658.12 13.0451 658.12 12.4008" fill="#67B14F"/>
<path d="M685.76 12.3991C685.76 11.6787 685.974 10.9746 686.374 10.3758C686.775 9.77697 687.344 9.31041 688.009 9.0352C688.675 8.76 689.407 8.6885 690.114 8.82976C690.82 8.97102 691.469 9.31872 691.977 9.82878C692.486 10.3388 692.832 10.9884 692.971 11.6951C693.111 12.4019 693.037 13.1341 692.76 13.799C692.483 14.4639 692.015 15.0317 691.415 15.4305C690.815 15.8292 690.11 16.041 689.39 16.039C688.426 16.0364 687.503 15.6518 686.823 14.9694C686.142 14.2871 685.76 13.3628 685.76 12.3991Z" fill="#67B14F"/>
<path d="M682.84 34.2306C682.838 33.6522 683.008 33.0863 683.328 32.6046C683.648 32.1228 684.104 31.747 684.638 31.5248C685.172 31.3025 685.76 31.2439 686.327 31.3562C686.895 31.4686 687.416 31.7469 687.825 32.1559C688.234 32.5648 688.512 33.086 688.624 33.6534C688.737 34.2207 688.678 34.8087 688.456 35.3427C688.234 35.8766 687.858 36.3326 687.376 36.6527C686.894 36.9728 686.328 37.1426 685.75 37.1406C684.978 37.1406 684.238 36.834 683.692 36.2883C683.147 35.7426 682.84 35.0024 682.84 34.2306" fill="#3BA536"/>
<path d="M628.72 45.6696C628.71 44.8644 628.941 44.0746 629.382 43.4009C629.823 42.7273 630.455 42.2005 631.197 41.8878C631.939 41.5751 632.757 41.4907 633.548 41.6453C634.338 41.8 635.064 42.1867 635.634 42.7561C636.203 43.3255 636.59 44.0517 636.744 44.842C636.899 45.6322 636.815 46.4507 636.502 47.1927C636.189 47.9348 635.662 48.5667 634.989 49.0079C634.315 49.4491 633.525 49.6795 632.72 49.6696C631.659 49.6696 630.642 49.2482 629.892 48.498C629.142 47.7479 628.72 46.7305 628.72 45.6696Z" fill="#3BA536"/>
<path d="M500.94 54.4707H482.01V35.5507H500.94V54.4707Z" fill="#009792"/>
<path d="M412.3 56.4199H389.48V33.5999H412.3V56.4199Z" fill="#009792"/>
<path d="M450.5 36.5996H429.61V15.6996H450.5V36.5996Z" fill="#009792"/>
<path d="M259.1 22.8691H236.46V0.749146H259.1V22.8691Z" fill="#009792"/>
<path d="M384.84 29.9805H363.29V8.43045H384.84V29.9805Z" fill="#009792"/>
<path d="M334.36 21.25H286.3V0.76001H334.36V21.25Z" fill="#3874A4"/>
<path d="M133.22 98.3496V65.2596H164.69V33.7996H101.75V98.3496H133.22Z" fill="#07689A"/>
<path d="M416.58 16.3594H395.69V0.74939H416.58V16.3594Z" fill="#009792"/>
<path d="M350.43 56.8496H318.29V35.9596H350.43V56.8496Z" fill="#009792"/>
<path d="M495.23 20.4492H463.09V0.759216H495.23V20.4492Z" fill="#3BA536"/>
<path d="M579.62 12.9096V28.1596C579.617 28.4761 579.49 28.7788 579.265 29.0017C579.04 29.2246 578.737 29.3496 578.42 29.3496H563.18C562.864 29.3496 562.562 29.2242 562.339 29.0011C562.115 28.7779 561.99 28.4752 561.99 28.1596V12.9096C561.99 12.594 562.115 12.2913 562.339 12.0681C562.562 11.845 562.864 11.7196 563.18 11.7196H578.42C578.577 11.7183 578.733 11.7481 578.878 11.8073C579.024 11.8665 579.156 11.954 579.268 12.0646C579.38 12.1752 579.468 12.3068 579.528 12.4519C579.589 12.5969 579.62 12.7525 579.62 12.9096" fill="#67B14F"/>
<path d="M550.44 33.1009V51.4109C550.441 51.5706 550.411 51.729 550.351 51.877C550.29 52.0249 550.202 52.1595 550.089 52.2729C549.977 52.3863 549.843 52.4764 549.695 52.5378C549.548 52.5992 549.39 52.6309 549.23 52.6309H530.91C530.586 52.6309 530.276 52.5023 530.047 52.2735C529.818 52.0447 529.69 51.7344 529.69 51.4109V33.1009C529.69 32.7773 529.818 32.467 530.047 32.2382C530.276 32.0094 530.586 31.8809 530.91 31.8809H549.23C549.552 31.8835 549.86 32.0132 550.086 32.2417C550.313 32.4702 550.44 32.779 550.44 33.1009" fill="#3BA536"/>
<path d="M532.67 1.41919V19.7392C532.67 20.0601 532.542 20.3679 532.316 20.5948C532.089 20.8217 531.781 20.9492 531.46 20.9492H513.14C512.818 20.9492 512.509 20.822 512.281 20.5954C512.052 20.3688 511.923 20.061 511.92 19.7392V1.41919C511.923 1.09736 512.052 0.789624 512.281 0.562988C512.509 0.336352 512.818 0.209218 513.14 0.209229H531.46C531.781 0.209229 532.089 0.33668 532.316 0.563599C532.542 0.790518 532.67 1.09828 532.67 1.41919" fill="#3BA536"/>
<path d="M201.1 28.1504H173.31V0.760406H201.1V28.1504Z" fill="#3874A4"/>
<path d="M228.89 88.6699H201.1V28.1499H228.89V88.6699Z" fill="#3874A4"/>
<path d="M79.25 72.0898H-1V0.749847H79.25V72.0898Z" fill="#07689A"/>
<path d="M42.17 140.869H-1V49.6891H42.17V140.869Z" fill="#07689A"/>
</svg>
