<?xml version="1.0" encoding="utf-8"?>
<!-- Generator: Adobe Illustrator 25.2.1, SVG Export Plug-In . SVG Version: 6.00 Build 0)  -->
<svg version="1.1" id="Layer_1" xmlns="http://www.w3.org/2000/svg" xmlns:xlink="http://www.w3.org/1999/xlink" x="0px" y="0px"
	 viewBox="0 0 959 540" style="enable-background:new 0 0 959 540;" xml:space="preserve">
<style type="text/css">
	.st0{fill:#009792;}
	.st1{fill:#67B14F;}
	.st2{fill:#3BA536;}
	.st3{fill:#3874A4;}
	.st4{fill:#07689A;}
</style>
<path class="st0" d="M279.7,53.4v-21h-21v41.9h41.9v-21H279.7z"/>
<path class="st1" d="M594.3,12.2c0-1.7,0.5-3.3,1.4-4.7c0.9-1.4,2.3-2.5,3.8-3.1c1.6-0.6,3.3-0.8,4.9-0.5c1.7,0.3,3.2,1.1,4.4,2.3
	c1.2,1.2,2,2.7,2.3,4.4c0.3,1.7,0.2,3.4-0.5,4.9s-1.7,2.9-3.1,3.8c-1.4,0.9-3.1,1.4-4.7,1.4c-1.1,0-2.2-0.2-3.3-0.6
	c-1-0.4-2-1.1-2.8-1.9c-0.8-0.8-1.4-1.7-1.9-2.8C594.5,14.5,594.3,13.4,594.3,12.2z"/>
<path class="st2" d="M598.7,41.6c0-1.7,0.5-3.3,1.4-4.7c0.9-1.4,2.3-2.5,3.8-3.1c1.6-0.6,3.3-0.8,4.9-0.5c1.7,0.3,3.2,1.1,4.4,2.3
	c1.2,1.2,2,2.7,2.3,4.4c0.3,1.7,0.2,3.4-0.5,4.9c-0.6,1.6-1.7,2.9-3.1,3.8c-1.4,0.9-3.1,1.4-4.7,1.4c-1.1,0-2.2-0.2-3.3-0.6
	c-1-0.4-2-1.1-2.8-1.9c-0.8-0.8-1.4-1.7-1.9-2.8C598.9,43.8,598.7,42.7,598.7,41.6z"/>
<path class="st1" d="M627.4,8.6c0-1.3,0.4-2.5,1.1-3.5s1.7-1.9,2.8-2.3c1.2-0.5,2.4-0.6,3.7-0.4s2.4,0.9,3.2,1.7
	c0.9,0.9,1.5,2,1.7,3.2c0.2,1.2,0.1,2.5-0.4,3.7c-0.5,1.2-1.3,2.1-2.3,2.8c-1,0.7-2.3,1.1-3.5,1.1c-0.8,0-1.7-0.2-2.4-0.5
	c-0.8-0.3-1.5-0.8-2.1-1.4s-1.1-1.3-1.4-2.1C627.6,10.2,627.4,9.4,627.4,8.6z"/>
<path class="st1" d="M645.8,33c0-1.3,0.4-2.5,1.1-3.5c0.7-1,1.7-1.9,2.8-2.3c1.2-0.5,2.4-0.6,3.7-0.4c1.2,0.2,2.4,0.8,3.2,1.7
	c0.9,0.9,1.5,2,1.7,3.2c0.2,1.2,0.1,2.5-0.4,3.7c-0.5,1.2-1.3,2.1-2.3,2.8c-1,0.7-2.3,1.1-3.5,1.1c-1.7,0-3.3-0.7-4.5-1.9
	C646.4,36.3,645.8,34.7,645.8,33z"/>
<path class="st1" d="M658.1,11.4c0-1,0.3-1.9,0.8-2.7c0.5-0.8,1.3-1.4,2.2-1.8c0.9-0.4,1.9-0.5,2.8-0.3c1,0.2,1.8,0.7,2.5,1.3
	c0.7,0.7,1.2,1.6,1.3,2.5c0.2,0.9,0.1,1.9-0.3,2.8c-0.4,0.9-1,1.7-1.8,2.2c-0.8,0.5-1.8,0.8-2.7,0.8c-0.6,0-1.3-0.1-1.9-0.4
	c-0.6-0.2-1.1-0.6-1.6-1.1c-0.5-0.5-0.8-1-1.1-1.6C658.2,12.7,658.1,12,658.1,11.4z"/>
<path class="st1" d="M685.8,11.4c0-0.7,0.2-1.4,0.6-2c0.4-0.6,1-1.1,1.6-1.3c0.7-0.3,1.4-0.3,2.1-0.2c0.7,0.1,1.4,0.5,1.9,1
	c0.5,0.5,0.9,1.2,1,1.9c0.1,0.7,0.1,1.4-0.2,2.1c-0.3,0.7-0.7,1.2-1.3,1.6c-0.6,0.4-1.3,0.6-2,0.6c-1,0-1.9-0.4-2.6-1.1
	C686.1,13.3,685.8,12.4,685.8,11.4z"/>
<path class="st2" d="M682.8,33.2c0-0.6,0.2-1.1,0.5-1.6c0.3-0.5,0.8-0.9,1.3-1.1c0.5-0.2,1.1-0.3,1.7-0.2c0.6,0.1,1.1,0.4,1.5,0.8
	c0.4,0.4,0.7,0.9,0.8,1.5c0.1,0.6,0.1,1.2-0.2,1.7c-0.2,0.5-0.6,1-1.1,1.3c-0.5,0.3-1,0.5-1.6,0.5c-0.8,0-1.5-0.3-2.1-0.9
	C683.1,34.7,682.8,34,682.8,33.2z"/>
<path class="st2" d="M628.7,44.7c0-0.8,0.2-1.6,0.7-2.3c0.4-0.7,1.1-1.2,1.8-1.5c0.7-0.3,1.6-0.4,2.4-0.2c0.8,0.2,1.5,0.5,2.1,1.1
	c0.6,0.6,1,1.3,1.1,2.1c0.2,0.8,0.1,1.6-0.2,2.4c-0.3,0.7-0.8,1.4-1.5,1.8c-0.7,0.4-1.5,0.7-2.3,0.7c-1.1,0-2.1-0.4-2.8-1.2
	C629.1,46.7,628.7,45.7,628.7,44.7z"/>
<path class="st0" d="M500.9,53.5H482V34.6h18.9V53.5z"/>
<path class="st0" d="M412.3,55.4h-22.8V32.6h22.8V55.4z"/>
<path class="st0" d="M450.5,35.6h-20.9V14.7h20.9V35.6z"/>
<path class="st0" d="M259.1,21.9h-22.6V-0.3h22.6V21.9z"/>
<path class="st0" d="M384.8,29h-21.5V7.4h21.5V29z"/>
<path class="st3" d="M334.4,20.2h-48.1V-0.2h48.1V20.2z"/>
<path class="st4" d="M133.2,97.3V64.3h31.5V32.8h-62.9v64.6H133.2z"/>
<path class="st0" d="M416.6,15.4h-20.9V-0.3h20.9V15.4z"/>
<path class="st0" d="M350.4,55.8h-32.1V35h32.1V55.8z"/>
<path class="st2" d="M495.2,19.4h-32.1V-0.2h32.1V19.4z"/>
<path class="st1" d="M579.6,11.9v15.2c0,0.3-0.1,0.6-0.4,0.8c-0.2,0.2-0.5,0.3-0.8,0.3h-15.2c-0.3,0-0.6-0.1-0.8-0.3
	c-0.2-0.2-0.3-0.5-0.3-0.8V11.9c0-0.3,0.1-0.6,0.3-0.8c0.2-0.2,0.5-0.3,0.8-0.3h15.2c0.2,0,0.3,0,0.5,0.1c0.1,0.1,0.3,0.1,0.4,0.3
	c0.1,0.1,0.2,0.2,0.3,0.4C579.6,11.6,579.6,11.8,579.6,11.9z"/>
<path class="st2" d="M550.4,32.1v18.3c0,0.2,0,0.3-0.1,0.5c-0.1,0.1-0.1,0.3-0.3,0.4c-0.1,0.1-0.2,0.2-0.4,0.3
	c-0.1,0.1-0.3,0.1-0.5,0.1h-18.3c-0.3,0-0.6-0.1-0.9-0.4c-0.2-0.2-0.4-0.5-0.4-0.9V32.1c0-0.3,0.1-0.6,0.4-0.9
	c0.2-0.2,0.5-0.4,0.9-0.4h18.3c0.3,0,0.6,0.1,0.9,0.4C550.3,31.5,550.4,31.8,550.4,32.1z"/>
<path class="st2" d="M532.7,0.4v18.3c0,0.3-0.1,0.6-0.4,0.9c-0.2,0.2-0.5,0.4-0.9,0.4h-18.3c-0.3,0-0.6-0.1-0.9-0.4
	c-0.2-0.2-0.4-0.5-0.4-0.9V0.4c0-0.3,0.1-0.6,0.4-0.9c0.2-0.2,0.5-0.4,0.9-0.4h18.3c0.3,0,0.6,0.1,0.9,0.4
	C532.5-0.2,532.7,0.1,532.7,0.4z"/>
<path class="st3" d="M201.1,27.2h-27.8V-0.2h27.8V27.2z"/>
<path class="st3" d="M228.9,87.7h-27.8V27.1h27.8V87.7z"/>
<path class="st4" d="M79.2,71.1H-1V-0.3h80.2V71.1z"/>
<path class="st4" d="M42.2,139.9H-1V48.7h43.2V139.9z"/>
</svg>
